%TF.GenerationSoftware,KiCad,Pcbnew,(5.1.12)-1*%
%TF.CreationDate,2022-04-06T16:59:54+05:30*%
%TF.ProjectId,Diet,44696574-2e6b-4696-9361-645f70636258,rev?*%
%TF.SameCoordinates,Original*%
%TF.FileFunction,Paste,Top*%
%TF.FilePolarity,Positive*%
%FSLAX46Y46*%
G04 Gerber Fmt 4.6, Leading zero omitted, Abs format (unit mm)*
G04 Created by KiCad (PCBNEW (5.1.12)-1) date 2022-04-06 16:59:54*
%MOMM*%
%LPD*%
G01*
G04 APERTURE LIST*
%ADD10R,1.500000X2.700000*%
%ADD11R,0.800000X0.900000*%
%ADD12R,2.700000X1.500000*%
%ADD13R,0.900000X0.800000*%
G04 APERTURE END LIST*
D10*
%TO.C,D1*%
X177660000Y-96520000D03*
X172860000Y-96520000D03*
%TD*%
%TO.C,D2*%
X48540000Y-76200000D03*
X53340000Y-76200000D03*
%TD*%
%TO.C,D3*%
X190640000Y-76200000D03*
X195440000Y-76200000D03*
%TD*%
%TO.C,D4*%
X119380000Y-76200000D03*
X124180000Y-76200000D03*
%TD*%
%TO.C,D5*%
X106540000Y-96520000D03*
X101740000Y-96520000D03*
%TD*%
%TO.C,D6*%
X190640000Y-96520000D03*
X195440000Y-96520000D03*
%TD*%
%TO.C,D7*%
X71120000Y-76200000D03*
X66320000Y-76200000D03*
%TD*%
%TO.C,D8*%
X53200000Y-96520000D03*
X48400000Y-96520000D03*
%TD*%
%TO.C,D9*%
X142100000Y-76200000D03*
X137300000Y-76200000D03*
%TD*%
%TO.C,D10*%
X119520000Y-96520000D03*
X124320000Y-96520000D03*
%TD*%
%TO.C,D11*%
X88620000Y-76200000D03*
X83820000Y-76200000D03*
%TD*%
%TO.C,D12*%
X70980000Y-96520000D03*
X66180000Y-96520000D03*
%TD*%
%TO.C,D13*%
X159740000Y-76200000D03*
X154940000Y-76200000D03*
%TD*%
%TO.C,D14*%
X142100000Y-96520000D03*
X137300000Y-96520000D03*
%TD*%
%TO.C,D15*%
X101600000Y-76200000D03*
X106400000Y-76200000D03*
%TD*%
%TO.C,D16*%
X84100000Y-96520000D03*
X88900000Y-96520000D03*
%TD*%
%TO.C,D17*%
X177660000Y-76200000D03*
X172860000Y-76200000D03*
%TD*%
%TO.C,D18*%
X155080000Y-96520000D03*
X159880000Y-96520000D03*
%TD*%
D11*
%TO.C,Q1*%
X181356000Y-96504000D03*
X180406000Y-94504000D03*
X182306000Y-94504000D03*
%TD*%
%TO.C,Q2*%
X44704000Y-76216000D03*
X45654000Y-78216000D03*
X43754000Y-78216000D03*
%TD*%
%TO.C,Q3*%
X185994000Y-78216000D03*
X187894000Y-78216000D03*
X186944000Y-76216000D03*
%TD*%
%TO.C,Q4*%
X114874000Y-78216000D03*
X116774000Y-78216000D03*
X115824000Y-76216000D03*
%TD*%
%TO.C,Q5*%
X110236000Y-96520000D03*
X109286000Y-94520000D03*
X111186000Y-94520000D03*
%TD*%
%TO.C,Q6*%
X200086000Y-94504000D03*
X198186000Y-94504000D03*
X199136000Y-96504000D03*
%TD*%
%TO.C,Q7*%
X62484000Y-76216000D03*
X63434000Y-78216000D03*
X61534000Y-78216000D03*
%TD*%
%TO.C,Q8*%
X57846000Y-94504000D03*
X55946000Y-94504000D03*
X56896000Y-96504000D03*
%TD*%
%TO.C,Q9*%
X132654000Y-78216000D03*
X134554000Y-78216000D03*
X133604000Y-76216000D03*
%TD*%
%TO.C,Q10*%
X128966000Y-94520000D03*
X127066000Y-94520000D03*
X128016000Y-96520000D03*
%TD*%
%TO.C,Q11*%
X80264000Y-76200000D03*
X81214000Y-78200000D03*
X79314000Y-78200000D03*
%TD*%
%TO.C,Q12*%
X75626000Y-94504000D03*
X73726000Y-94504000D03*
X74676000Y-96504000D03*
%TD*%
%TO.C,Q13*%
X151384000Y-76216000D03*
X152334000Y-78216000D03*
X150434000Y-78216000D03*
%TD*%
%TO.C,Q14*%
X146746000Y-94520000D03*
X144846000Y-94520000D03*
X145796000Y-96520000D03*
%TD*%
%TO.C,Q15*%
X97094000Y-78200000D03*
X98994000Y-78200000D03*
X98044000Y-76200000D03*
%TD*%
%TO.C,Q16*%
X92456000Y-96504000D03*
X91506000Y-94504000D03*
X93406000Y-94504000D03*
%TD*%
%TO.C,Q17*%
X169164000Y-76216000D03*
X170114000Y-78216000D03*
X168214000Y-78216000D03*
%TD*%
%TO.C,Q18*%
X163576000Y-96504000D03*
X162626000Y-94504000D03*
X164526000Y-94504000D03*
%TD*%
%TO.C,R2*%
G36*
G01*
X180972000Y-91497999D02*
X180972000Y-92398001D01*
G75*
G02*
X180722001Y-92648000I-249999J0D01*
G01*
X180021999Y-92648000D01*
G75*
G02*
X179772000Y-92398001I0J249999D01*
G01*
X179772000Y-91497999D01*
G75*
G02*
X180021999Y-91248000I249999J0D01*
G01*
X180722001Y-91248000D01*
G75*
G02*
X180972000Y-91497999I0J-249999D01*
G01*
G37*
G36*
G01*
X182972000Y-91497999D02*
X182972000Y-92398001D01*
G75*
G02*
X182722001Y-92648000I-249999J0D01*
G01*
X182021999Y-92648000D01*
G75*
G02*
X181772000Y-92398001I0J249999D01*
G01*
X181772000Y-91497999D01*
G75*
G02*
X182021999Y-91248000I249999J0D01*
G01*
X182722001Y-91248000D01*
G75*
G02*
X182972000Y-91497999I0J-249999D01*
G01*
G37*
%TD*%
%TO.C,R3*%
G36*
G01*
X42780000Y-80321999D02*
X42780000Y-81222001D01*
G75*
G02*
X42530001Y-81472000I-249999J0D01*
G01*
X41829999Y-81472000D01*
G75*
G02*
X41580000Y-81222001I0J249999D01*
G01*
X41580000Y-80321999D01*
G75*
G02*
X41829999Y-80072000I249999J0D01*
G01*
X42530001Y-80072000D01*
G75*
G02*
X42780000Y-80321999I0J-249999D01*
G01*
G37*
G36*
G01*
X44780000Y-80321999D02*
X44780000Y-81222001D01*
G75*
G02*
X44530001Y-81472000I-249999J0D01*
G01*
X43829999Y-81472000D01*
G75*
G02*
X43580000Y-81222001I0J249999D01*
G01*
X43580000Y-80321999D01*
G75*
G02*
X43829999Y-80072000I249999J0D01*
G01*
X44530001Y-80072000D01*
G75*
G02*
X44780000Y-80321999I0J-249999D01*
G01*
G37*
%TD*%
%TO.C,R4*%
G36*
G01*
X186528000Y-80321999D02*
X186528000Y-81222001D01*
G75*
G02*
X186278001Y-81472000I-249999J0D01*
G01*
X185577999Y-81472000D01*
G75*
G02*
X185328000Y-81222001I0J249999D01*
G01*
X185328000Y-80321999D01*
G75*
G02*
X185577999Y-80072000I249999J0D01*
G01*
X186278001Y-80072000D01*
G75*
G02*
X186528000Y-80321999I0J-249999D01*
G01*
G37*
G36*
G01*
X184528000Y-80321999D02*
X184528000Y-81222001D01*
G75*
G02*
X184278001Y-81472000I-249999J0D01*
G01*
X183577999Y-81472000D01*
G75*
G02*
X183328000Y-81222001I0J249999D01*
G01*
X183328000Y-80321999D01*
G75*
G02*
X183577999Y-80072000I249999J0D01*
G01*
X184278001Y-80072000D01*
G75*
G02*
X184528000Y-80321999I0J-249999D01*
G01*
G37*
%TD*%
%TO.C,R5*%
G36*
G01*
X115392000Y-80321999D02*
X115392000Y-81222001D01*
G75*
G02*
X115142001Y-81472000I-249999J0D01*
G01*
X114441999Y-81472000D01*
G75*
G02*
X114192000Y-81222001I0J249999D01*
G01*
X114192000Y-80321999D01*
G75*
G02*
X114441999Y-80072000I249999J0D01*
G01*
X115142001Y-80072000D01*
G75*
G02*
X115392000Y-80321999I0J-249999D01*
G01*
G37*
G36*
G01*
X113392000Y-80321999D02*
X113392000Y-81222001D01*
G75*
G02*
X113142001Y-81472000I-249999J0D01*
G01*
X112441999Y-81472000D01*
G75*
G02*
X112192000Y-81222001I0J249999D01*
G01*
X112192000Y-80321999D01*
G75*
G02*
X112441999Y-80072000I249999J0D01*
G01*
X113142001Y-80072000D01*
G75*
G02*
X113392000Y-80321999I0J-249999D01*
G01*
G37*
%TD*%
%TO.C,R6*%
G36*
G01*
X109852000Y-91497999D02*
X109852000Y-92398001D01*
G75*
G02*
X109602001Y-92648000I-249999J0D01*
G01*
X108901999Y-92648000D01*
G75*
G02*
X108652000Y-92398001I0J249999D01*
G01*
X108652000Y-91497999D01*
G75*
G02*
X108901999Y-91248000I249999J0D01*
G01*
X109602001Y-91248000D01*
G75*
G02*
X109852000Y-91497999I0J-249999D01*
G01*
G37*
G36*
G01*
X111852000Y-91497999D02*
X111852000Y-92398001D01*
G75*
G02*
X111602001Y-92648000I-249999J0D01*
G01*
X110901999Y-92648000D01*
G75*
G02*
X110652000Y-92398001I0J249999D01*
G01*
X110652000Y-91497999D01*
G75*
G02*
X110901999Y-91248000I249999J0D01*
G01*
X111602001Y-91248000D01*
G75*
G02*
X111852000Y-91497999I0J-249999D01*
G01*
G37*
%TD*%
%TO.C,R7*%
G36*
G01*
X198720000Y-91497999D02*
X198720000Y-92398001D01*
G75*
G02*
X198470001Y-92648000I-249999J0D01*
G01*
X197769999Y-92648000D01*
G75*
G02*
X197520000Y-92398001I0J249999D01*
G01*
X197520000Y-91497999D01*
G75*
G02*
X197769999Y-91248000I249999J0D01*
G01*
X198470001Y-91248000D01*
G75*
G02*
X198720000Y-91497999I0J-249999D01*
G01*
G37*
G36*
G01*
X200720000Y-91497999D02*
X200720000Y-92398001D01*
G75*
G02*
X200470001Y-92648000I-249999J0D01*
G01*
X199769999Y-92648000D01*
G75*
G02*
X199520000Y-92398001I0J249999D01*
G01*
X199520000Y-91497999D01*
G75*
G02*
X199769999Y-91248000I249999J0D01*
G01*
X200470001Y-91248000D01*
G75*
G02*
X200720000Y-91497999I0J-249999D01*
G01*
G37*
%TD*%
%TO.C,R8*%
G36*
G01*
X60052000Y-80321999D02*
X60052000Y-81222001D01*
G75*
G02*
X59802001Y-81472000I-249999J0D01*
G01*
X59101999Y-81472000D01*
G75*
G02*
X58852000Y-81222001I0J249999D01*
G01*
X58852000Y-80321999D01*
G75*
G02*
X59101999Y-80072000I249999J0D01*
G01*
X59802001Y-80072000D01*
G75*
G02*
X60052000Y-80321999I0J-249999D01*
G01*
G37*
G36*
G01*
X62052000Y-80321999D02*
X62052000Y-81222001D01*
G75*
G02*
X61802001Y-81472000I-249999J0D01*
G01*
X61101999Y-81472000D01*
G75*
G02*
X60852000Y-81222001I0J249999D01*
G01*
X60852000Y-80321999D01*
G75*
G02*
X61101999Y-80072000I249999J0D01*
G01*
X61802001Y-80072000D01*
G75*
G02*
X62052000Y-80321999I0J-249999D01*
G01*
G37*
%TD*%
%TO.C,R9*%
G36*
G01*
X58496000Y-91497999D02*
X58496000Y-92398001D01*
G75*
G02*
X58246001Y-92648000I-249999J0D01*
G01*
X57545999Y-92648000D01*
G75*
G02*
X57296000Y-92398001I0J249999D01*
G01*
X57296000Y-91497999D01*
G75*
G02*
X57545999Y-91248000I249999J0D01*
G01*
X58246001Y-91248000D01*
G75*
G02*
X58496000Y-91497999I0J-249999D01*
G01*
G37*
G36*
G01*
X56496000Y-91497999D02*
X56496000Y-92398001D01*
G75*
G02*
X56246001Y-92648000I-249999J0D01*
G01*
X55545999Y-92648000D01*
G75*
G02*
X55296000Y-92398001I0J249999D01*
G01*
X55296000Y-91497999D01*
G75*
G02*
X55545999Y-91248000I249999J0D01*
G01*
X56246001Y-91248000D01*
G75*
G02*
X56496000Y-91497999I0J-249999D01*
G01*
G37*
%TD*%
%TO.C,R10*%
G36*
G01*
X131188000Y-80321999D02*
X131188000Y-81222001D01*
G75*
G02*
X130938001Y-81472000I-249999J0D01*
G01*
X130237999Y-81472000D01*
G75*
G02*
X129988000Y-81222001I0J249999D01*
G01*
X129988000Y-80321999D01*
G75*
G02*
X130237999Y-80072000I249999J0D01*
G01*
X130938001Y-80072000D01*
G75*
G02*
X131188000Y-80321999I0J-249999D01*
G01*
G37*
G36*
G01*
X133188000Y-80321999D02*
X133188000Y-81222001D01*
G75*
G02*
X132938001Y-81472000I-249999J0D01*
G01*
X132237999Y-81472000D01*
G75*
G02*
X131988000Y-81222001I0J249999D01*
G01*
X131988000Y-80321999D01*
G75*
G02*
X132237999Y-80072000I249999J0D01*
G01*
X132938001Y-80072000D01*
G75*
G02*
X133188000Y-80321999I0J-249999D01*
G01*
G37*
%TD*%
%TO.C,R11*%
G36*
G01*
X127632000Y-91497999D02*
X127632000Y-92398001D01*
G75*
G02*
X127382001Y-92648000I-249999J0D01*
G01*
X126681999Y-92648000D01*
G75*
G02*
X126432000Y-92398001I0J249999D01*
G01*
X126432000Y-91497999D01*
G75*
G02*
X126681999Y-91248000I249999J0D01*
G01*
X127382001Y-91248000D01*
G75*
G02*
X127632000Y-91497999I0J-249999D01*
G01*
G37*
G36*
G01*
X129632000Y-91497999D02*
X129632000Y-92398001D01*
G75*
G02*
X129382001Y-92648000I-249999J0D01*
G01*
X128681999Y-92648000D01*
G75*
G02*
X128432000Y-92398001I0J249999D01*
G01*
X128432000Y-91497999D01*
G75*
G02*
X128681999Y-91248000I249999J0D01*
G01*
X129382001Y-91248000D01*
G75*
G02*
X129632000Y-91497999I0J-249999D01*
G01*
G37*
%TD*%
%TO.C,R12*%
G36*
G01*
X77832000Y-80321999D02*
X77832000Y-81222001D01*
G75*
G02*
X77582001Y-81472000I-249999J0D01*
G01*
X76881999Y-81472000D01*
G75*
G02*
X76632000Y-81222001I0J249999D01*
G01*
X76632000Y-80321999D01*
G75*
G02*
X76881999Y-80072000I249999J0D01*
G01*
X77582001Y-80072000D01*
G75*
G02*
X77832000Y-80321999I0J-249999D01*
G01*
G37*
G36*
G01*
X79832000Y-80321999D02*
X79832000Y-81222001D01*
G75*
G02*
X79582001Y-81472000I-249999J0D01*
G01*
X78881999Y-81472000D01*
G75*
G02*
X78632000Y-81222001I0J249999D01*
G01*
X78632000Y-80321999D01*
G75*
G02*
X78881999Y-80072000I249999J0D01*
G01*
X79582001Y-80072000D01*
G75*
G02*
X79832000Y-80321999I0J-249999D01*
G01*
G37*
%TD*%
%TO.C,R13*%
G36*
G01*
X76276000Y-91497999D02*
X76276000Y-92398001D01*
G75*
G02*
X76026001Y-92648000I-249999J0D01*
G01*
X75325999Y-92648000D01*
G75*
G02*
X75076000Y-92398001I0J249999D01*
G01*
X75076000Y-91497999D01*
G75*
G02*
X75325999Y-91248000I249999J0D01*
G01*
X76026001Y-91248000D01*
G75*
G02*
X76276000Y-91497999I0J-249999D01*
G01*
G37*
G36*
G01*
X74276000Y-91497999D02*
X74276000Y-92398001D01*
G75*
G02*
X74026001Y-92648000I-249999J0D01*
G01*
X73325999Y-92648000D01*
G75*
G02*
X73076000Y-92398001I0J249999D01*
G01*
X73076000Y-91497999D01*
G75*
G02*
X73325999Y-91248000I249999J0D01*
G01*
X74026001Y-91248000D01*
G75*
G02*
X74276000Y-91497999I0J-249999D01*
G01*
G37*
%TD*%
%TO.C,R14*%
G36*
G01*
X150968000Y-80321999D02*
X150968000Y-81222001D01*
G75*
G02*
X150718001Y-81472000I-249999J0D01*
G01*
X150017999Y-81472000D01*
G75*
G02*
X149768000Y-81222001I0J249999D01*
G01*
X149768000Y-80321999D01*
G75*
G02*
X150017999Y-80072000I249999J0D01*
G01*
X150718001Y-80072000D01*
G75*
G02*
X150968000Y-80321999I0J-249999D01*
G01*
G37*
G36*
G01*
X148968000Y-80321999D02*
X148968000Y-81222001D01*
G75*
G02*
X148718001Y-81472000I-249999J0D01*
G01*
X148017999Y-81472000D01*
G75*
G02*
X147768000Y-81222001I0J249999D01*
G01*
X147768000Y-80321999D01*
G75*
G02*
X148017999Y-80072000I249999J0D01*
G01*
X148718001Y-80072000D01*
G75*
G02*
X148968000Y-80321999I0J-249999D01*
G01*
G37*
%TD*%
%TO.C,R15*%
G36*
G01*
X147380000Y-91497999D02*
X147380000Y-92398001D01*
G75*
G02*
X147130001Y-92648000I-249999J0D01*
G01*
X146429999Y-92648000D01*
G75*
G02*
X146180000Y-92398001I0J249999D01*
G01*
X146180000Y-91497999D01*
G75*
G02*
X146429999Y-91248000I249999J0D01*
G01*
X147130001Y-91248000D01*
G75*
G02*
X147380000Y-91497999I0J-249999D01*
G01*
G37*
G36*
G01*
X145380000Y-91497999D02*
X145380000Y-92398001D01*
G75*
G02*
X145130001Y-92648000I-249999J0D01*
G01*
X144429999Y-92648000D01*
G75*
G02*
X144180000Y-92398001I0J249999D01*
G01*
X144180000Y-91497999D01*
G75*
G02*
X144429999Y-91248000I249999J0D01*
G01*
X145130001Y-91248000D01*
G75*
G02*
X145380000Y-91497999I0J-249999D01*
G01*
G37*
%TD*%
%TO.C,R16*%
G36*
G01*
X97596000Y-80321999D02*
X97596000Y-81222001D01*
G75*
G02*
X97346001Y-81472000I-249999J0D01*
G01*
X96645999Y-81472000D01*
G75*
G02*
X96396000Y-81222001I0J249999D01*
G01*
X96396000Y-80321999D01*
G75*
G02*
X96645999Y-80072000I249999J0D01*
G01*
X97346001Y-80072000D01*
G75*
G02*
X97596000Y-80321999I0J-249999D01*
G01*
G37*
G36*
G01*
X95596000Y-80321999D02*
X95596000Y-81222001D01*
G75*
G02*
X95346001Y-81472000I-249999J0D01*
G01*
X94645999Y-81472000D01*
G75*
G02*
X94396000Y-81222001I0J249999D01*
G01*
X94396000Y-80321999D01*
G75*
G02*
X94645999Y-80072000I249999J0D01*
G01*
X95346001Y-80072000D01*
G75*
G02*
X95596000Y-80321999I0J-249999D01*
G01*
G37*
%TD*%
%TO.C,R17*%
G36*
G01*
X92072000Y-91497999D02*
X92072000Y-92398001D01*
G75*
G02*
X91822001Y-92648000I-249999J0D01*
G01*
X91121999Y-92648000D01*
G75*
G02*
X90872000Y-92398001I0J249999D01*
G01*
X90872000Y-91497999D01*
G75*
G02*
X91121999Y-91248000I249999J0D01*
G01*
X91822001Y-91248000D01*
G75*
G02*
X92072000Y-91497999I0J-249999D01*
G01*
G37*
G36*
G01*
X94072000Y-91497999D02*
X94072000Y-92398001D01*
G75*
G02*
X93822001Y-92648000I-249999J0D01*
G01*
X93121999Y-92648000D01*
G75*
G02*
X92872000Y-92398001I0J249999D01*
G01*
X92872000Y-91497999D01*
G75*
G02*
X93121999Y-91248000I249999J0D01*
G01*
X93822001Y-91248000D01*
G75*
G02*
X94072000Y-91497999I0J-249999D01*
G01*
G37*
%TD*%
%TO.C,R18*%
G36*
G01*
X168748000Y-80321999D02*
X168748000Y-81222001D01*
G75*
G02*
X168498001Y-81472000I-249999J0D01*
G01*
X167797999Y-81472000D01*
G75*
G02*
X167548000Y-81222001I0J249999D01*
G01*
X167548000Y-80321999D01*
G75*
G02*
X167797999Y-80072000I249999J0D01*
G01*
X168498001Y-80072000D01*
G75*
G02*
X168748000Y-80321999I0J-249999D01*
G01*
G37*
G36*
G01*
X166748000Y-80321999D02*
X166748000Y-81222001D01*
G75*
G02*
X166498001Y-81472000I-249999J0D01*
G01*
X165797999Y-81472000D01*
G75*
G02*
X165548000Y-81222001I0J249999D01*
G01*
X165548000Y-80321999D01*
G75*
G02*
X165797999Y-80072000I249999J0D01*
G01*
X166498001Y-80072000D01*
G75*
G02*
X166748000Y-80321999I0J-249999D01*
G01*
G37*
%TD*%
%TO.C,R19*%
G36*
G01*
X164684000Y-91497999D02*
X164684000Y-92398001D01*
G75*
G02*
X164434001Y-92648000I-249999J0D01*
G01*
X163733999Y-92648000D01*
G75*
G02*
X163484000Y-92398001I0J249999D01*
G01*
X163484000Y-91497999D01*
G75*
G02*
X163733999Y-91248000I249999J0D01*
G01*
X164434001Y-91248000D01*
G75*
G02*
X164684000Y-91497999I0J-249999D01*
G01*
G37*
G36*
G01*
X162684000Y-91497999D02*
X162684000Y-92398001D01*
G75*
G02*
X162434001Y-92648000I-249999J0D01*
G01*
X161733999Y-92648000D01*
G75*
G02*
X161484000Y-92398001I0J249999D01*
G01*
X161484000Y-91497999D01*
G75*
G02*
X161733999Y-91248000I249999J0D01*
G01*
X162434001Y-91248000D01*
G75*
G02*
X162684000Y-91497999I0J-249999D01*
G01*
G37*
%TD*%
D12*
%TO.C,D19*%
X233172000Y-83172000D03*
X233172000Y-78372000D03*
%TD*%
%TO.C,D20*%
X233172000Y-103492000D03*
X233172000Y-98692000D03*
%TD*%
%TO.C,D21*%
X233172000Y-58052000D03*
X233172000Y-62852000D03*
%TD*%
D13*
%TO.C,Q19*%
X233156000Y-74676000D03*
X231156000Y-75626000D03*
X231156000Y-73726000D03*
%TD*%
%TO.C,Q20*%
X231156000Y-94046000D03*
X231156000Y-95946000D03*
X233156000Y-94996000D03*
%TD*%
%TO.C,Q21*%
X231156000Y-53406000D03*
X231156000Y-55306000D03*
X233156000Y-54356000D03*
%TD*%
%TO.C,R1*%
G36*
G01*
X227641999Y-73076000D02*
X228542001Y-73076000D01*
G75*
G02*
X228792000Y-73325999I0J-249999D01*
G01*
X228792000Y-74026001D01*
G75*
G02*
X228542001Y-74276000I-249999J0D01*
G01*
X227641999Y-74276000D01*
G75*
G02*
X227392000Y-74026001I0J249999D01*
G01*
X227392000Y-73325999D01*
G75*
G02*
X227641999Y-73076000I249999J0D01*
G01*
G37*
G36*
G01*
X227641999Y-75076000D02*
X228542001Y-75076000D01*
G75*
G02*
X228792000Y-75325999I0J-249999D01*
G01*
X228792000Y-76026001D01*
G75*
G02*
X228542001Y-76276000I-249999J0D01*
G01*
X227641999Y-76276000D01*
G75*
G02*
X227392000Y-76026001I0J249999D01*
G01*
X227392000Y-75325999D01*
G75*
G02*
X227641999Y-75076000I249999J0D01*
G01*
G37*
%TD*%
%TO.C,R20*%
G36*
G01*
X228542001Y-94564000D02*
X227641999Y-94564000D01*
G75*
G02*
X227392000Y-94314001I0J249999D01*
G01*
X227392000Y-93613999D01*
G75*
G02*
X227641999Y-93364000I249999J0D01*
G01*
X228542001Y-93364000D01*
G75*
G02*
X228792000Y-93613999I0J-249999D01*
G01*
X228792000Y-94314001D01*
G75*
G02*
X228542001Y-94564000I-249999J0D01*
G01*
G37*
G36*
G01*
X228542001Y-92564000D02*
X227641999Y-92564000D01*
G75*
G02*
X227392000Y-92314001I0J249999D01*
G01*
X227392000Y-91613999D01*
G75*
G02*
X227641999Y-91364000I249999J0D01*
G01*
X228542001Y-91364000D01*
G75*
G02*
X228792000Y-91613999I0J-249999D01*
G01*
X228792000Y-92314001D01*
G75*
G02*
X228542001Y-92564000I-249999J0D01*
G01*
G37*
%TD*%
%TO.C,R21*%
G36*
G01*
X227641999Y-54772000D02*
X228542001Y-54772000D01*
G75*
G02*
X228792000Y-55021999I0J-249999D01*
G01*
X228792000Y-55722001D01*
G75*
G02*
X228542001Y-55972000I-249999J0D01*
G01*
X227641999Y-55972000D01*
G75*
G02*
X227392000Y-55722001I0J249999D01*
G01*
X227392000Y-55021999D01*
G75*
G02*
X227641999Y-54772000I249999J0D01*
G01*
G37*
G36*
G01*
X227641999Y-52772000D02*
X228542001Y-52772000D01*
G75*
G02*
X228792000Y-53021999I0J-249999D01*
G01*
X228792000Y-53722001D01*
G75*
G02*
X228542001Y-53972000I-249999J0D01*
G01*
X227641999Y-53972000D01*
G75*
G02*
X227392000Y-53722001I0J249999D01*
G01*
X227392000Y-53021999D01*
G75*
G02*
X227641999Y-52772000I249999J0D01*
G01*
G37*
%TD*%
M02*
