%TF.GenerationSoftware,KiCad,Pcbnew,(5.1.12)-1*%
%TF.CreationDate,2022-04-06T16:59:54+05:30*%
%TF.ProjectId,Diet,44696574-2e6b-4696-9361-645f70636258,rev?*%
%TF.SameCoordinates,Original*%
%TF.FileFunction,Profile,NP*%
%FSLAX46Y46*%
G04 Gerber Fmt 4.6, Leading zero omitted, Abs format (unit mm)*
G04 Created by KiCad (PCBNEW (5.1.12)-1) date 2022-04-06 16:59:54*
%MOMM*%
%LPD*%
G01*
G04 APERTURE LIST*
%TA.AperFunction,Profile*%
%ADD10C,0.050000*%
%TD*%
G04 APERTURE END LIST*
D10*
X-44120000Y-163576000D02*
G75*
G03*
X-44120000Y-163576000I-1600000J0D01*
G01*
X-44120000Y-138684000D02*
G75*
G03*
X-44120000Y-138684000I-1600000J0D01*
G01*
X25476000Y-138684000D02*
G75*
G03*
X25476000Y-138684000I-1600000J0D01*
G01*
X25476000Y-163576000D02*
G75*
G03*
X25476000Y-163576000I-1600000J0D01*
G01*
X27432000Y-53340000D02*
X27432000Y-38100000D01*
X27432000Y-134112000D02*
X27432000Y-53340000D01*
X27432000Y-134620000D02*
X27432000Y-134112000D01*
X27432000Y-135128000D02*
X27432000Y-168148000D01*
X27940000Y-135128000D02*
X-50800000Y-135128000D01*
X216408000Y-168148000D02*
X215900000Y-168148000D01*
X-50800000Y-168148000D02*
X-50800000Y-167640000D01*
X27940000Y-168148000D02*
X-50800000Y-168148000D01*
X-50800000Y-134620000D02*
X-50800000Y-167640000D01*
X21920000Y-43180000D02*
G75*
G03*
X21920000Y-43180000I-1600000J0D01*
G01*
X21920000Y-43180000D02*
G75*
G03*
X21920000Y-43180000I-1600000J0D01*
G01*
X-44120000Y-43180000D02*
G75*
G03*
X-44120000Y-43180000I-1600000J0D01*
G01*
X-44120000Y-43180000D02*
G75*
G03*
X-44120000Y-43180000I-1600000J0D01*
G01*
X-44120000Y-129540000D02*
G75*
G03*
X-44120000Y-129540000I-1600000J0D01*
G01*
X-44120000Y-129540000D02*
G75*
G03*
X-44120000Y-129540000I-1600000J0D01*
G01*
X21920000Y-129540000D02*
G75*
G03*
X21920000Y-129540000I-1600000J0D01*
G01*
X21920000Y-129540000D02*
G75*
G03*
X21920000Y-129540000I-1600000J0D01*
G01*
X-50800000Y-134620000D02*
X27940000Y-134620000D01*
X-50800000Y-38100000D02*
X-50800000Y-134620000D01*
X27940000Y-38100000D02*
X-50800000Y-38100000D01*
X27940000Y-135128000D02*
X27940000Y-134620000D01*
X27940000Y-135128000D02*
X28448000Y-135128000D01*
X216408000Y-134620000D02*
X216408000Y-38100000D01*
X27940000Y-135128000D02*
X215900000Y-135128000D01*
X34620000Y-163576000D02*
G75*
G03*
X34620000Y-163576000I-1600000J0D01*
G01*
X34620000Y-138684000D02*
G75*
G03*
X34620000Y-138684000I-1600000J0D01*
G01*
X212420000Y-163576000D02*
G75*
G03*
X212420000Y-163576000I-1600000J0D01*
G01*
X212420000Y-138684000D02*
G75*
G03*
X212420000Y-138684000I-1600000J0D01*
G01*
X215900000Y-168148000D02*
X215900000Y-134620000D01*
X27940000Y-168148000D02*
X215900000Y-168148000D01*
X27940000Y-134620000D02*
X27940000Y-168148000D01*
X240792000Y-98552000D02*
X240792000Y-97028000D01*
X236728000Y-98552000D02*
X240792000Y-98552000D01*
X236728000Y-103632000D02*
X236728000Y-98552000D01*
X240792000Y-103632000D02*
X236728000Y-103632000D01*
X240792000Y-105156000D02*
X240792000Y-103632000D01*
X235204000Y-105156000D02*
X240792000Y-105156000D01*
X235204000Y-97028000D02*
X235204000Y-105156000D01*
X240792000Y-97028000D02*
X235204000Y-97028000D01*
X240792000Y-78232000D02*
X240792000Y-76708000D01*
X236728000Y-78232000D02*
X240792000Y-78232000D01*
X236728000Y-78740000D02*
X236728000Y-78232000D01*
X236728000Y-83312000D02*
X236728000Y-78740000D01*
X240792000Y-83312000D02*
X236728000Y-83312000D01*
X240792000Y-84836000D02*
X240792000Y-83312000D01*
X235204000Y-84836000D02*
X240792000Y-84836000D01*
X235204000Y-76708000D02*
X235204000Y-84836000D01*
X240792000Y-76708000D02*
X235204000Y-76708000D01*
X236728000Y-57912000D02*
X237236000Y-57912000D01*
X236728000Y-62992000D02*
X236728000Y-57912000D01*
X240792000Y-62992000D02*
X236728000Y-62992000D01*
X240792000Y-64516000D02*
X240792000Y-62992000D01*
X235204000Y-64516000D02*
X240792000Y-64516000D01*
X235204000Y-56388000D02*
X235204000Y-64516000D01*
X240792000Y-56388000D02*
X235204000Y-56388000D01*
X240792000Y-57912000D02*
X240792000Y-56388000D01*
X237236000Y-57912000D02*
X240792000Y-57912000D01*
X269316000Y-43180000D02*
G75*
G03*
X269316000Y-43180000I-1600000J0D01*
G01*
X222072000Y-43180000D02*
G75*
G03*
X222072000Y-43180000I-1600000J0D01*
G01*
X269316000Y-129540000D02*
G75*
G03*
X269316000Y-129540000I-1600000J0D01*
G01*
X222072000Y-129540000D02*
G75*
G03*
X222072000Y-129540000I-1600000J0D01*
G01*
X271780000Y-134620000D02*
X215900000Y-134620000D01*
X271780000Y-38100000D02*
X271780000Y-134620000D01*
X216154000Y-38100000D02*
X271780000Y-38100000D01*
X215900000Y-38100000D02*
X216154000Y-38100000D01*
X215900000Y-134620000D02*
X27940000Y-134620000D01*
X212420000Y-43180000D02*
G75*
G03*
X212420000Y-43180000I-1600000J0D01*
G01*
X34620000Y-43180000D02*
G75*
G03*
X34620000Y-43180000I-1600000J0D01*
G01*
X34620000Y-129540000D02*
G75*
G03*
X34620000Y-129540000I-1600000J0D01*
G01*
X34620000Y-129540000D02*
G75*
G03*
X34620000Y-129540000I-1600000J0D01*
G01*
X212420000Y-129540000D02*
G75*
G03*
X212420000Y-129540000I-1600000J0D01*
G01*
X27940000Y-134620000D02*
X27940000Y-38100000D01*
X215900000Y-38100000D02*
X215900000Y-134620000D01*
X27940000Y-38100000D02*
X215900000Y-38100000D01*
M02*
