%TF.GenerationSoftware,KiCad,Pcbnew,(5.1.12)-1*%
%TF.CreationDate,2022-04-06T16:59:54+05:30*%
%TF.ProjectId,Diet,44696574-2e6b-4696-9361-645f70636258,rev?*%
%TF.SameCoordinates,Original*%
%TF.FileFunction,Soldermask,Bot*%
%TF.FilePolarity,Negative*%
%FSLAX46Y46*%
G04 Gerber Fmt 4.6, Leading zero omitted, Abs format (unit mm)*
G04 Created by KiCad (PCBNEW (5.1.12)-1) date 2022-04-06 16:59:54*
%MOMM*%
%LPD*%
G01*
G04 APERTURE LIST*
%ADD10C,2.300000*%
%ADD11R,2.300000X2.300000*%
%ADD12O,1.800000X3.600000*%
%ADD13O,3.600000X1.800000*%
%ADD14O,1.700000X1.700000*%
%ADD15R,1.700000X1.700000*%
%ADD16C,1.700000*%
%ADD17O,2.190000X1.740000*%
%ADD18O,1.740000X2.190000*%
G04 APERTURE END LIST*
D10*
%TO.C,RLY9*%
X133700000Y-56920000D03*
X145700000Y-56920000D03*
X133700000Y-69120000D03*
X145700000Y-69120000D03*
D11*
X139700000Y-71120000D03*
%TD*%
%TO.C,J4*%
G36*
G01*
X56780000Y-41630000D02*
X56780000Y-44730000D01*
G75*
G02*
X56530000Y-44980000I-250000J0D01*
G01*
X55230000Y-44980000D01*
G75*
G02*
X54980000Y-44730000I0J250000D01*
G01*
X54980000Y-41630000D01*
G75*
G02*
X55230000Y-41380000I250000J0D01*
G01*
X56530000Y-41380000D01*
G75*
G02*
X56780000Y-41630000I0J-250000D01*
G01*
G37*
D12*
X50800000Y-43180000D03*
%TD*%
%TO.C,J6*%
G36*
G01*
X127900000Y-41630000D02*
X127900000Y-44730000D01*
G75*
G02*
X127650000Y-44980000I-250000J0D01*
G01*
X126350000Y-44980000D01*
G75*
G02*
X126100000Y-44730000I0J250000D01*
G01*
X126100000Y-41630000D01*
G75*
G02*
X126350000Y-41380000I250000J0D01*
G01*
X127650000Y-41380000D01*
G75*
G02*
X127900000Y-41630000I0J-250000D01*
G01*
G37*
X121920000Y-43180000D03*
%TD*%
%TO.C,J7*%
G36*
G01*
X98160000Y-131090000D02*
X98160000Y-127990000D01*
G75*
G02*
X98410000Y-127740000I250000J0D01*
G01*
X99710000Y-127740000D01*
G75*
G02*
X99960000Y-127990000I0J-250000D01*
G01*
X99960000Y-131090000D01*
G75*
G02*
X99710000Y-131340000I-250000J0D01*
G01*
X98410000Y-131340000D01*
G75*
G02*
X98160000Y-131090000I0J250000D01*
G01*
G37*
X104140000Y-129540000D03*
%TD*%
%TO.C,J9*%
G36*
G01*
X74560000Y-41630000D02*
X74560000Y-44730000D01*
G75*
G02*
X74310000Y-44980000I-250000J0D01*
G01*
X73010000Y-44980000D01*
G75*
G02*
X72760000Y-44730000I0J250000D01*
G01*
X72760000Y-41630000D01*
G75*
G02*
X73010000Y-41380000I250000J0D01*
G01*
X74310000Y-41380000D01*
G75*
G02*
X74560000Y-41630000I0J-250000D01*
G01*
G37*
X68580000Y-43180000D03*
%TD*%
%TO.C,J10*%
G36*
G01*
X44820000Y-131090000D02*
X44820000Y-127990000D01*
G75*
G02*
X45070000Y-127740000I250000J0D01*
G01*
X46370000Y-127740000D01*
G75*
G02*
X46620000Y-127990000I0J-250000D01*
G01*
X46620000Y-131090000D01*
G75*
G02*
X46370000Y-131340000I-250000J0D01*
G01*
X45070000Y-131340000D01*
G75*
G02*
X44820000Y-131090000I0J250000D01*
G01*
G37*
X50800000Y-129540000D03*
%TD*%
%TO.C,J11*%
X139700000Y-43180000D03*
G36*
G01*
X145680000Y-41630000D02*
X145680000Y-44730000D01*
G75*
G02*
X145430000Y-44980000I-250000J0D01*
G01*
X144130000Y-44980000D01*
G75*
G02*
X143880000Y-44730000I0J250000D01*
G01*
X143880000Y-41630000D01*
G75*
G02*
X144130000Y-41380000I250000J0D01*
G01*
X145430000Y-41380000D01*
G75*
G02*
X145680000Y-41630000I0J-250000D01*
G01*
G37*
%TD*%
%TO.C,J12*%
X121920000Y-129540000D03*
G36*
G01*
X115940000Y-131090000D02*
X115940000Y-127990000D01*
G75*
G02*
X116190000Y-127740000I250000J0D01*
G01*
X117490000Y-127740000D01*
G75*
G02*
X117740000Y-127990000I0J-250000D01*
G01*
X117740000Y-131090000D01*
G75*
G02*
X117490000Y-131340000I-250000J0D01*
G01*
X116190000Y-131340000D01*
G75*
G02*
X115940000Y-131090000I0J250000D01*
G01*
G37*
%TD*%
%TO.C,J13*%
X86360000Y-43180000D03*
G36*
G01*
X92340000Y-41630000D02*
X92340000Y-44730000D01*
G75*
G02*
X92090000Y-44980000I-250000J0D01*
G01*
X90790000Y-44980000D01*
G75*
G02*
X90540000Y-44730000I0J250000D01*
G01*
X90540000Y-41630000D01*
G75*
G02*
X90790000Y-41380000I250000J0D01*
G01*
X92090000Y-41380000D01*
G75*
G02*
X92340000Y-41630000I0J-250000D01*
G01*
G37*
%TD*%
%TO.C,J14*%
G36*
G01*
X62600000Y-131090000D02*
X62600000Y-127990000D01*
G75*
G02*
X62850000Y-127740000I250000J0D01*
G01*
X64150000Y-127740000D01*
G75*
G02*
X64400000Y-127990000I0J-250000D01*
G01*
X64400000Y-131090000D01*
G75*
G02*
X64150000Y-131340000I-250000J0D01*
G01*
X62850000Y-131340000D01*
G75*
G02*
X62600000Y-131090000I0J250000D01*
G01*
G37*
X68580000Y-129540000D03*
%TD*%
%TO.C,J15*%
G36*
G01*
X163460000Y-41630000D02*
X163460000Y-44730000D01*
G75*
G02*
X163210000Y-44980000I-250000J0D01*
G01*
X161910000Y-44980000D01*
G75*
G02*
X161660000Y-44730000I0J250000D01*
G01*
X161660000Y-41630000D01*
G75*
G02*
X161910000Y-41380000I250000J0D01*
G01*
X163210000Y-41380000D01*
G75*
G02*
X163460000Y-41630000I0J-250000D01*
G01*
G37*
X157480000Y-43180000D03*
%TD*%
%TO.C,J16*%
X139700000Y-129540000D03*
G36*
G01*
X133720000Y-131090000D02*
X133720000Y-127990000D01*
G75*
G02*
X133970000Y-127740000I250000J0D01*
G01*
X135270000Y-127740000D01*
G75*
G02*
X135520000Y-127990000I0J-250000D01*
G01*
X135520000Y-131090000D01*
G75*
G02*
X135270000Y-131340000I-250000J0D01*
G01*
X133970000Y-131340000D01*
G75*
G02*
X133720000Y-131090000I0J250000D01*
G01*
G37*
%TD*%
%TO.C,J17*%
X104140000Y-43180000D03*
G36*
G01*
X110120000Y-41630000D02*
X110120000Y-44730000D01*
G75*
G02*
X109870000Y-44980000I-250000J0D01*
G01*
X108570000Y-44980000D01*
G75*
G02*
X108320000Y-44730000I0J250000D01*
G01*
X108320000Y-41630000D01*
G75*
G02*
X108570000Y-41380000I250000J0D01*
G01*
X109870000Y-41380000D01*
G75*
G02*
X110120000Y-41630000I0J-250000D01*
G01*
G37*
%TD*%
%TO.C,J18*%
X86360000Y-129540000D03*
G36*
G01*
X80380000Y-131090000D02*
X80380000Y-127990000D01*
G75*
G02*
X80630000Y-127740000I250000J0D01*
G01*
X81930000Y-127740000D01*
G75*
G02*
X82180000Y-127990000I0J-250000D01*
G01*
X82180000Y-131090000D01*
G75*
G02*
X81930000Y-131340000I-250000J0D01*
G01*
X80630000Y-131340000D01*
G75*
G02*
X80380000Y-131090000I0J250000D01*
G01*
G37*
%TD*%
%TO.C,J20*%
G36*
G01*
X151500000Y-131090000D02*
X151500000Y-127990000D01*
G75*
G02*
X151750000Y-127740000I250000J0D01*
G01*
X153050000Y-127740000D01*
G75*
G02*
X153300000Y-127990000I0J-250000D01*
G01*
X153300000Y-131090000D01*
G75*
G02*
X153050000Y-131340000I-250000J0D01*
G01*
X151750000Y-131340000D01*
G75*
G02*
X151500000Y-131090000I0J250000D01*
G01*
G37*
X157480000Y-129540000D03*
%TD*%
D11*
%TO.C,RLY1*%
X175260000Y-101600000D03*
D10*
X169260000Y-103600000D03*
X181260000Y-103600000D03*
X169260000Y-115800000D03*
X181260000Y-115800000D03*
%TD*%
%TO.C,RLY2*%
X44800000Y-56920000D03*
X56800000Y-56920000D03*
X44800000Y-69120000D03*
X56800000Y-69120000D03*
D11*
X50800000Y-71120000D03*
%TD*%
%TO.C,RLY3*%
X193040000Y-71120000D03*
D10*
X199040000Y-69120000D03*
X187040000Y-69120000D03*
X199040000Y-56920000D03*
X187040000Y-56920000D03*
%TD*%
%TO.C,RLY4*%
X115920000Y-56920000D03*
X127920000Y-56920000D03*
X115920000Y-69120000D03*
X127920000Y-69120000D03*
D11*
X121920000Y-71120000D03*
%TD*%
D10*
%TO.C,RLY5*%
X110140000Y-115800000D03*
X98140000Y-115800000D03*
X110140000Y-103600000D03*
X98140000Y-103600000D03*
D11*
X104140000Y-101600000D03*
%TD*%
%TO.C,RLY6*%
X193040000Y-101600000D03*
D10*
X187040000Y-103600000D03*
X199040000Y-103600000D03*
X187040000Y-115800000D03*
X199040000Y-115800000D03*
%TD*%
%TO.C,RLY7*%
X62580000Y-56920000D03*
X74580000Y-56920000D03*
X62580000Y-69120000D03*
X74580000Y-69120000D03*
D11*
X68580000Y-71120000D03*
%TD*%
%TO.C,RLY8*%
X50800000Y-101600000D03*
D10*
X44800000Y-103600000D03*
X56800000Y-103600000D03*
X44800000Y-115800000D03*
X56800000Y-115800000D03*
%TD*%
%TO.C,RLY10*%
X127920000Y-115800000D03*
X115920000Y-115800000D03*
X127920000Y-103600000D03*
X115920000Y-103600000D03*
D11*
X121920000Y-101600000D03*
%TD*%
D10*
%TO.C,RLY11*%
X80360000Y-56920000D03*
X92360000Y-56920000D03*
X80360000Y-69120000D03*
X92360000Y-69120000D03*
D11*
X86360000Y-71120000D03*
%TD*%
%TO.C,RLY12*%
X68580000Y-101600000D03*
D10*
X62580000Y-103600000D03*
X74580000Y-103600000D03*
X62580000Y-115800000D03*
X74580000Y-115800000D03*
%TD*%
D11*
%TO.C,RLY13*%
X157480000Y-71120000D03*
D10*
X163480000Y-69120000D03*
X151480000Y-69120000D03*
X163480000Y-56920000D03*
X151480000Y-56920000D03*
%TD*%
%TO.C,RLY14*%
X145700000Y-115800000D03*
X133700000Y-115800000D03*
X145700000Y-103600000D03*
X133700000Y-103600000D03*
D11*
X139700000Y-101600000D03*
%TD*%
%TO.C,RLY15*%
X104140000Y-71120000D03*
D10*
X110140000Y-69120000D03*
X98140000Y-69120000D03*
X110140000Y-56920000D03*
X98140000Y-56920000D03*
%TD*%
D11*
%TO.C,RLY16*%
X86360000Y-101600000D03*
D10*
X80360000Y-103600000D03*
X92360000Y-103600000D03*
X80360000Y-115800000D03*
X92360000Y-115800000D03*
%TD*%
%TO.C,RLY17*%
X169260000Y-56920000D03*
X181260000Y-56920000D03*
X169260000Y-69120000D03*
X181260000Y-69120000D03*
D11*
X175260000Y-71120000D03*
%TD*%
%TO.C,RLY18*%
X157480000Y-101600000D03*
D10*
X151480000Y-103600000D03*
X163480000Y-103600000D03*
X151480000Y-115800000D03*
X163480000Y-115800000D03*
%TD*%
D13*
%TO.C,J2*%
X265684000Y-80772000D03*
G36*
G01*
X267234000Y-86752000D02*
X264134000Y-86752000D01*
G75*
G02*
X263884000Y-86502000I0J250000D01*
G01*
X263884000Y-85202000D01*
G75*
G02*
X264134000Y-84952000I250000J0D01*
G01*
X267234000Y-84952000D01*
G75*
G02*
X267484000Y-85202000I0J-250000D01*
G01*
X267484000Y-86502000D01*
G75*
G02*
X267234000Y-86752000I-250000J0D01*
G01*
G37*
%TD*%
%TO.C,J21*%
G36*
G01*
X267234000Y-107072000D02*
X264134000Y-107072000D01*
G75*
G02*
X263884000Y-106822000I0J250000D01*
G01*
X263884000Y-105522000D01*
G75*
G02*
X264134000Y-105272000I250000J0D01*
G01*
X267234000Y-105272000D01*
G75*
G02*
X267484000Y-105522000I0J-250000D01*
G01*
X267484000Y-106822000D01*
G75*
G02*
X267234000Y-107072000I-250000J0D01*
G01*
G37*
X265684000Y-101092000D03*
%TD*%
%TO.C,J22*%
G36*
G01*
X267234000Y-66432000D02*
X264134000Y-66432000D01*
G75*
G02*
X263884000Y-66182000I0J250000D01*
G01*
X263884000Y-64882000D01*
G75*
G02*
X264134000Y-64632000I250000J0D01*
G01*
X267234000Y-64632000D01*
G75*
G02*
X267484000Y-64882000I0J-250000D01*
G01*
X267484000Y-66182000D01*
G75*
G02*
X267234000Y-66432000I-250000J0D01*
G01*
G37*
X265684000Y-60452000D03*
%TD*%
D10*
%TO.C,RLY19*%
X252960000Y-74772000D03*
X252960000Y-86772000D03*
X240760000Y-74772000D03*
X240760000Y-86772000D03*
D11*
X238760000Y-80772000D03*
%TD*%
%TO.C,RLY20*%
X238760000Y-101092000D03*
D10*
X240760000Y-107092000D03*
X240760000Y-95092000D03*
X252960000Y-107092000D03*
X252960000Y-95092000D03*
%TD*%
D11*
%TO.C,RLY21*%
X238760000Y-60452000D03*
D10*
X240760000Y-66452000D03*
X240760000Y-54452000D03*
X252960000Y-66452000D03*
X252960000Y-54452000D03*
%TD*%
%TO.C,J23*%
G36*
G01*
X218414000Y-68188000D02*
X221514000Y-68188000D01*
G75*
G02*
X221764000Y-68438000I0J-250000D01*
G01*
X221764000Y-69738000D01*
G75*
G02*
X221514000Y-69988000I-250000J0D01*
G01*
X218414000Y-69988000D01*
G75*
G02*
X218164000Y-69738000I0J250000D01*
G01*
X218164000Y-68438000D01*
G75*
G02*
X218414000Y-68188000I250000J0D01*
G01*
G37*
D13*
X219964000Y-74168000D03*
X219964000Y-79248000D03*
X219964000Y-84328000D03*
X219964000Y-89408000D03*
%TD*%
D14*
%TO.C,J24*%
X73660000Y-165100000D03*
X71120000Y-165100000D03*
D15*
X68580000Y-165100000D03*
%TD*%
%TO.C,J25*%
G36*
G01*
X211354000Y-153808000D02*
X208254000Y-153808000D01*
G75*
G02*
X208004000Y-153558000I0J250000D01*
G01*
X208004000Y-152258000D01*
G75*
G02*
X208254000Y-152008000I250000J0D01*
G01*
X211354000Y-152008000D01*
G75*
G02*
X211604000Y-152258000I0J-250000D01*
G01*
X211604000Y-153558000D01*
G75*
G02*
X211354000Y-153808000I-250000J0D01*
G01*
G37*
D13*
X209804000Y-147828000D03*
%TD*%
D14*
%TO.C,J26*%
X109220000Y-138684000D03*
X111760000Y-138684000D03*
D15*
X114300000Y-138684000D03*
%TD*%
%TO.C,J27*%
X129540000Y-165100000D03*
D14*
X132080000Y-165100000D03*
X134620000Y-165100000D03*
%TD*%
%TO.C,J28*%
X190500000Y-138684000D03*
X193040000Y-138684000D03*
D15*
X195580000Y-138684000D03*
%TD*%
%TO.C,J29*%
X48260000Y-165100000D03*
D14*
X50800000Y-165100000D03*
X53340000Y-165100000D03*
%TD*%
D15*
%TO.C,J30*%
X93980000Y-138684000D03*
D14*
X91440000Y-138684000D03*
X88900000Y-138684000D03*
%TD*%
%TO.C,J31*%
X154940000Y-165100000D03*
X152400000Y-165100000D03*
D15*
X149860000Y-165100000D03*
%TD*%
%TO.C,J32*%
X175260000Y-138684000D03*
D14*
X172720000Y-138684000D03*
X170180000Y-138684000D03*
%TD*%
%TO.C,J33*%
X68580000Y-138684000D03*
X71120000Y-138684000D03*
D15*
X73660000Y-138684000D03*
%TD*%
%TO.C,J34*%
X170180000Y-165100000D03*
D14*
X172720000Y-165100000D03*
X175260000Y-165100000D03*
%TD*%
%TO.C,J35*%
X149860000Y-138684000D03*
X152400000Y-138684000D03*
D15*
X154940000Y-138684000D03*
%TD*%
%TO.C,J36*%
X88900000Y-165100000D03*
D14*
X91440000Y-165100000D03*
X93980000Y-165100000D03*
%TD*%
D15*
%TO.C,J37*%
X53340000Y-138684000D03*
D14*
X50800000Y-138684000D03*
X48260000Y-138684000D03*
%TD*%
%TO.C,J38*%
X195580000Y-165100000D03*
X193040000Y-165100000D03*
D15*
X190500000Y-165100000D03*
%TD*%
%TO.C,J39*%
X134620000Y-138684000D03*
D14*
X132080000Y-138684000D03*
X129540000Y-138684000D03*
%TD*%
%TO.C,J40*%
X114300000Y-165100000D03*
X111760000Y-165100000D03*
D15*
X109220000Y-165100000D03*
%TD*%
D12*
%TO.C,J5*%
X187960000Y-43180000D03*
X193040000Y-43180000D03*
G36*
G01*
X199020000Y-41630000D02*
X199020000Y-44730000D01*
G75*
G02*
X198770000Y-44980000I-250000J0D01*
G01*
X197470000Y-44980000D01*
G75*
G02*
X197220000Y-44730000I0J250000D01*
G01*
X197220000Y-41630000D01*
G75*
G02*
X197470000Y-41380000I250000J0D01*
G01*
X198770000Y-41380000D01*
G75*
G02*
X199020000Y-41630000I0J-250000D01*
G01*
G37*
%TD*%
%TO.C,J19*%
G36*
G01*
X181240000Y-41630000D02*
X181240000Y-44730000D01*
G75*
G02*
X180990000Y-44980000I-250000J0D01*
G01*
X179690000Y-44980000D01*
G75*
G02*
X179440000Y-44730000I0J250000D01*
G01*
X179440000Y-41630000D01*
G75*
G02*
X179690000Y-41380000I250000J0D01*
G01*
X180990000Y-41380000D01*
G75*
G02*
X181240000Y-41630000I0J-250000D01*
G01*
G37*
X175260000Y-43180000D03*
X170180000Y-43180000D03*
%TD*%
%TO.C,J3*%
X180340000Y-129540000D03*
X175260000Y-129540000D03*
G36*
G01*
X169280000Y-131090000D02*
X169280000Y-127990000D01*
G75*
G02*
X169530000Y-127740000I250000J0D01*
G01*
X170830000Y-127740000D01*
G75*
G02*
X171080000Y-127990000I0J-250000D01*
G01*
X171080000Y-131090000D01*
G75*
G02*
X170830000Y-131340000I-250000J0D01*
G01*
X169530000Y-131340000D01*
G75*
G02*
X169280000Y-131090000I0J250000D01*
G01*
G37*
%TD*%
%TO.C,J8*%
G36*
G01*
X187060000Y-131090000D02*
X187060000Y-127990000D01*
G75*
G02*
X187310000Y-127740000I250000J0D01*
G01*
X188610000Y-127740000D01*
G75*
G02*
X188860000Y-127990000I0J-250000D01*
G01*
X188860000Y-131090000D01*
G75*
G02*
X188610000Y-131340000I-250000J0D01*
G01*
X187310000Y-131340000D01*
G75*
G02*
X187060000Y-131090000I0J250000D01*
G01*
G37*
X193040000Y-129540000D03*
X198120000Y-129540000D03*
%TD*%
%TO.C,J1*%
G36*
G01*
X35394000Y-74584000D02*
X35394000Y-75784000D01*
G75*
G02*
X35144000Y-76034000I-250000J0D01*
G01*
X33944000Y-76034000D01*
G75*
G02*
X33694000Y-75784000I0J250000D01*
G01*
X33694000Y-74584000D01*
G75*
G02*
X33944000Y-74334000I250000J0D01*
G01*
X35144000Y-74334000D01*
G75*
G02*
X35394000Y-74584000I0J-250000D01*
G01*
G37*
D16*
X34544000Y-77724000D03*
X34544000Y-80264000D03*
X34544000Y-82804000D03*
X34544000Y-85344000D03*
X34544000Y-87884000D03*
X34544000Y-90424000D03*
X34544000Y-92964000D03*
X34544000Y-95504000D03*
X34544000Y-98044000D03*
X32004000Y-75184000D03*
X32004000Y-77724000D03*
X32004000Y-80264000D03*
X32004000Y-82804000D03*
X32004000Y-85344000D03*
X32004000Y-87884000D03*
X32004000Y-90424000D03*
X32004000Y-92964000D03*
X32004000Y-95504000D03*
X32004000Y-98044000D03*
%TD*%
%TO.C,J41*%
X132060000Y-150060000D03*
X129520000Y-150060000D03*
X126980000Y-150060000D03*
X124440000Y-150060000D03*
X121900000Y-150060000D03*
X119360000Y-150060000D03*
X116820000Y-150060000D03*
X114280000Y-150060000D03*
X111740000Y-150060000D03*
X109200000Y-150060000D03*
X132060000Y-152600000D03*
X129520000Y-152600000D03*
X126980000Y-152600000D03*
X124440000Y-152600000D03*
X121900000Y-152600000D03*
X119360000Y-152600000D03*
X116820000Y-152600000D03*
X114280000Y-152600000D03*
X111740000Y-152600000D03*
G36*
G01*
X109800000Y-153450000D02*
X108600000Y-153450000D01*
G75*
G02*
X108350000Y-153200000I0J250000D01*
G01*
X108350000Y-152000000D01*
G75*
G02*
X108600000Y-151750000I250000J0D01*
G01*
X109800000Y-151750000D01*
G75*
G02*
X110050000Y-152000000I0J-250000D01*
G01*
X110050000Y-153200000D01*
G75*
G02*
X109800000Y-153450000I-250000J0D01*
G01*
G37*
%TD*%
%TO.C,J42*%
X21336000Y-78740000D03*
X21336000Y-76200000D03*
X21336000Y-73660000D03*
X21336000Y-71120000D03*
X21336000Y-68580000D03*
X21336000Y-66040000D03*
X21336000Y-63500000D03*
X21336000Y-60960000D03*
X21336000Y-58420000D03*
X21336000Y-55880000D03*
X18796000Y-78740000D03*
X18796000Y-76200000D03*
X18796000Y-73660000D03*
X18796000Y-71120000D03*
X18796000Y-68580000D03*
X18796000Y-66040000D03*
X18796000Y-63500000D03*
X18796000Y-60960000D03*
X18796000Y-58420000D03*
G36*
G01*
X17946000Y-56480000D02*
X17946000Y-55280000D01*
G75*
G02*
X18196000Y-55030000I250000J0D01*
G01*
X19396000Y-55030000D01*
G75*
G02*
X19646000Y-55280000I0J-250000D01*
G01*
X19646000Y-56480000D01*
G75*
G02*
X19396000Y-56730000I-250000J0D01*
G01*
X18196000Y-56730000D01*
G75*
G02*
X17946000Y-56480000I0J250000D01*
G01*
G37*
%TD*%
%TO.C,J43*%
G36*
G01*
X17946000Y-97120000D02*
X17946000Y-95920000D01*
G75*
G02*
X18196000Y-95670000I250000J0D01*
G01*
X19396000Y-95670000D01*
G75*
G02*
X19646000Y-95920000I0J-250000D01*
G01*
X19646000Y-97120000D01*
G75*
G02*
X19396000Y-97370000I-250000J0D01*
G01*
X18196000Y-97370000D01*
G75*
G02*
X17946000Y-97120000I0J250000D01*
G01*
G37*
X18796000Y-99060000D03*
X18796000Y-101600000D03*
X18796000Y-104140000D03*
X18796000Y-106680000D03*
X18796000Y-109220000D03*
X18796000Y-111760000D03*
X18796000Y-114300000D03*
X18796000Y-116840000D03*
X18796000Y-119380000D03*
X21336000Y-96520000D03*
X21336000Y-99060000D03*
X21336000Y-101600000D03*
X21336000Y-104140000D03*
X21336000Y-106680000D03*
X21336000Y-109220000D03*
X21336000Y-111760000D03*
X21336000Y-114300000D03*
X21336000Y-116840000D03*
X21336000Y-119380000D03*
%TD*%
D17*
%TO.C,J44*%
X-43357800Y-86360000D03*
X-43357800Y-88900000D03*
X-43357800Y-91440000D03*
G36*
G01*
X-42512799Y-94850000D02*
X-44202801Y-94850000D01*
G75*
G02*
X-44452800Y-94600001I0J249999D01*
G01*
X-44452800Y-93359999D01*
G75*
G02*
X-44202801Y-93110000I249999J0D01*
G01*
X-42512799Y-93110000D01*
G75*
G02*
X-42262800Y-93359999I0J-249999D01*
G01*
X-42262800Y-94600001D01*
G75*
G02*
X-42512799Y-94850000I-249999J0D01*
G01*
G37*
%TD*%
%TO.C,J45*%
G36*
G01*
X1670000Y-48597001D02*
X1670000Y-46906999D01*
G75*
G02*
X1919999Y-46657000I249999J0D01*
G01*
X3160001Y-46657000D01*
G75*
G02*
X3410000Y-46906999I0J-249999D01*
G01*
X3410000Y-48597001D01*
G75*
G02*
X3160001Y-48847000I-249999J0D01*
G01*
X1919999Y-48847000D01*
G75*
G02*
X1670000Y-48597001I0J249999D01*
G01*
G37*
D18*
X5080000Y-47752000D03*
X7620000Y-47752000D03*
X10160000Y-47752000D03*
%TD*%
%TO.C,J46*%
G36*
G01*
X-42512799Y-107550000D02*
X-44202801Y-107550000D01*
G75*
G02*
X-44452800Y-107300001I0J249999D01*
G01*
X-44452800Y-106059999D01*
G75*
G02*
X-44202801Y-105810000I249999J0D01*
G01*
X-42512799Y-105810000D01*
G75*
G02*
X-42262800Y-106059999I0J-249999D01*
G01*
X-42262800Y-107300001D01*
G75*
G02*
X-42512799Y-107550000I-249999J0D01*
G01*
G37*
D17*
X-43357800Y-104140000D03*
X-43357800Y-101600000D03*
X-43357800Y-99060000D03*
%TD*%
D18*
%TO.C,J47*%
X-2540000Y-47752000D03*
X-5080000Y-47752000D03*
X-7620000Y-47752000D03*
G36*
G01*
X-11030000Y-48597001D02*
X-11030000Y-46906999D01*
G75*
G02*
X-10780001Y-46657000I249999J0D01*
G01*
X-9539999Y-46657000D01*
G75*
G02*
X-9290000Y-46906999I0J-249999D01*
G01*
X-9290000Y-48597001D01*
G75*
G02*
X-9539999Y-48847000I-249999J0D01*
G01*
X-10780001Y-48847000D01*
G75*
G02*
X-11030000Y-48597001I0J249999D01*
G01*
G37*
%TD*%
%TO.C,J48*%
G36*
G01*
X-36430000Y-127845001D02*
X-36430000Y-126154999D01*
G75*
G02*
X-36180001Y-125905000I249999J0D01*
G01*
X-34939999Y-125905000D01*
G75*
G02*
X-34690000Y-126154999I0J-249999D01*
G01*
X-34690000Y-127845001D01*
G75*
G02*
X-34939999Y-128095000I-249999J0D01*
G01*
X-36180001Y-128095000D01*
G75*
G02*
X-36430000Y-127845001I0J249999D01*
G01*
G37*
X-33020000Y-127000000D03*
X-30480000Y-127000000D03*
X-27940000Y-127000000D03*
%TD*%
%TO.C,J49*%
G36*
G01*
X-23730000Y-48597001D02*
X-23730000Y-46906999D01*
G75*
G02*
X-23480001Y-46657000I249999J0D01*
G01*
X-22239999Y-46657000D01*
G75*
G02*
X-21990000Y-46906999I0J-249999D01*
G01*
X-21990000Y-48597001D01*
G75*
G02*
X-22239999Y-48847000I-249999J0D01*
G01*
X-23480001Y-48847000D01*
G75*
G02*
X-23730000Y-48597001I0J249999D01*
G01*
G37*
X-20320000Y-47752000D03*
X-17780000Y-47752000D03*
X-15240000Y-47752000D03*
%TD*%
%TO.C,J50*%
X-15240000Y-127000000D03*
X-17780000Y-127000000D03*
X-20320000Y-127000000D03*
G36*
G01*
X-23730000Y-127845001D02*
X-23730000Y-126154999D01*
G75*
G02*
X-23480001Y-125905000I249999J0D01*
G01*
X-22239999Y-125905000D01*
G75*
G02*
X-21990000Y-126154999I0J-249999D01*
G01*
X-21990000Y-127845001D01*
G75*
G02*
X-22239999Y-128095000I-249999J0D01*
G01*
X-23480001Y-128095000D01*
G75*
G02*
X-23730000Y-127845001I0J249999D01*
G01*
G37*
%TD*%
%TO.C,J51*%
X-27940000Y-47752000D03*
X-30480000Y-47752000D03*
X-33020000Y-47752000D03*
G36*
G01*
X-36430000Y-48597001D02*
X-36430000Y-46906999D01*
G75*
G02*
X-36180001Y-46657000I249999J0D01*
G01*
X-34939999Y-46657000D01*
G75*
G02*
X-34690000Y-46906999I0J-249999D01*
G01*
X-34690000Y-48597001D01*
G75*
G02*
X-34939999Y-48847000I-249999J0D01*
G01*
X-36180001Y-48847000D01*
G75*
G02*
X-36430000Y-48597001I0J249999D01*
G01*
G37*
%TD*%
%TO.C,J52*%
G36*
G01*
X-11030000Y-127845001D02*
X-11030000Y-126154999D01*
G75*
G02*
X-10780001Y-125905000I249999J0D01*
G01*
X-9539999Y-125905000D01*
G75*
G02*
X-9290000Y-126154999I0J-249999D01*
G01*
X-9290000Y-127845001D01*
G75*
G02*
X-9539999Y-128095000I-249999J0D01*
G01*
X-10780001Y-128095000D01*
G75*
G02*
X-11030000Y-127845001I0J249999D01*
G01*
G37*
X-7620000Y-127000000D03*
X-5080000Y-127000000D03*
X-2540000Y-127000000D03*
%TD*%
%TO.C,J53*%
G36*
G01*
X-42512799Y-56750000D02*
X-44202801Y-56750000D01*
G75*
G02*
X-44452800Y-56500001I0J249999D01*
G01*
X-44452800Y-55259999D01*
G75*
G02*
X-44202801Y-55010000I249999J0D01*
G01*
X-42512799Y-55010000D01*
G75*
G02*
X-42262800Y-55259999I0J-249999D01*
G01*
X-42262800Y-56500001D01*
G75*
G02*
X-42512799Y-56750000I-249999J0D01*
G01*
G37*
D17*
X-43357800Y-53340000D03*
X-43357800Y-50800000D03*
X-43357800Y-48260000D03*
%TD*%
D18*
%TO.C,J54*%
X10160000Y-127000000D03*
X7620000Y-127000000D03*
X5080000Y-127000000D03*
G36*
G01*
X1670000Y-127845001D02*
X1670000Y-126154999D01*
G75*
G02*
X1919999Y-125905000I249999J0D01*
G01*
X3160001Y-125905000D01*
G75*
G02*
X3410000Y-126154999I0J-249999D01*
G01*
X3410000Y-127845001D01*
G75*
G02*
X3160001Y-128095000I-249999J0D01*
G01*
X1919999Y-128095000D01*
G75*
G02*
X1670000Y-127845001I0J249999D01*
G01*
G37*
%TD*%
D17*
%TO.C,J55*%
X-43357800Y-60960000D03*
X-43357800Y-63500000D03*
X-43357800Y-66040000D03*
G36*
G01*
X-42512799Y-69450000D02*
X-44202801Y-69450000D01*
G75*
G02*
X-44452800Y-69200001I0J249999D01*
G01*
X-44452800Y-67959999D01*
G75*
G02*
X-44202801Y-67710000I249999J0D01*
G01*
X-42512799Y-67710000D01*
G75*
G02*
X-42262800Y-67959999I0J-249999D01*
G01*
X-42262800Y-69200001D01*
G75*
G02*
X-42512799Y-69450000I-249999J0D01*
G01*
G37*
%TD*%
%TO.C,J56*%
G36*
G01*
X-42512799Y-82150000D02*
X-44202801Y-82150000D01*
G75*
G02*
X-44452800Y-81900001I0J249999D01*
G01*
X-44452800Y-80659999D01*
G75*
G02*
X-44202801Y-80410000I249999J0D01*
G01*
X-42512799Y-80410000D01*
G75*
G02*
X-42262800Y-80659999I0J-249999D01*
G01*
X-42262800Y-81900001D01*
G75*
G02*
X-42512799Y-82150000I-249999J0D01*
G01*
G37*
X-43357800Y-78740000D03*
X-43357800Y-76200000D03*
X-43357800Y-73660000D03*
%TD*%
%TO.C,J57*%
G36*
G01*
X-41757000Y-120153000D02*
X-44857000Y-120153000D01*
G75*
G02*
X-45107000Y-119903000I0J250000D01*
G01*
X-45107000Y-118603000D01*
G75*
G02*
X-44857000Y-118353000I250000J0D01*
G01*
X-41757000Y-118353000D01*
G75*
G02*
X-41507000Y-118603000I0J-250000D01*
G01*
X-41507000Y-119903000D01*
G75*
G02*
X-41757000Y-120153000I-250000J0D01*
G01*
G37*
D13*
X-43307000Y-114173000D03*
%TD*%
%TO.C,J58*%
G36*
G01*
X-5070400Y-139307200D02*
X-3870400Y-139307200D01*
G75*
G02*
X-3620400Y-139557200I0J-250000D01*
G01*
X-3620400Y-140757200D01*
G75*
G02*
X-3870400Y-141007200I-250000J0D01*
G01*
X-5070400Y-141007200D01*
G75*
G02*
X-5320400Y-140757200I0J250000D01*
G01*
X-5320400Y-139557200D01*
G75*
G02*
X-5070400Y-139307200I250000J0D01*
G01*
G37*
D16*
X-7010400Y-140157200D03*
X-9550400Y-140157200D03*
X-12090400Y-140157200D03*
X-14630400Y-140157200D03*
X-17170400Y-140157200D03*
X-19710400Y-140157200D03*
X-22250400Y-140157200D03*
X-24790400Y-140157200D03*
X-27330400Y-140157200D03*
X-4470400Y-142697200D03*
X-7010400Y-142697200D03*
X-9550400Y-142697200D03*
X-12090400Y-142697200D03*
X-14630400Y-142697200D03*
X-17170400Y-142697200D03*
X-19710400Y-142697200D03*
X-22250400Y-142697200D03*
X-24790400Y-142697200D03*
X-27330400Y-142697200D03*
%TD*%
%TO.C,J59*%
G36*
G01*
X-44170000Y-154316000D02*
X-47270000Y-154316000D01*
G75*
G02*
X-47520000Y-154066000I0J250000D01*
G01*
X-47520000Y-152766000D01*
G75*
G02*
X-47270000Y-152516000I250000J0D01*
G01*
X-44170000Y-152516000D01*
G75*
G02*
X-43920000Y-152766000I0J-250000D01*
G01*
X-43920000Y-154066000D01*
G75*
G02*
X-44170000Y-154316000I-250000J0D01*
G01*
G37*
D13*
X-45720000Y-148336000D03*
%TD*%
%TO.C,J60*%
G36*
G01*
X19696000Y-161518000D02*
X19696000Y-164618000D01*
G75*
G02*
X19446000Y-164868000I-250000J0D01*
G01*
X18146000Y-164868000D01*
G75*
G02*
X17896000Y-164618000I0J250000D01*
G01*
X17896000Y-161518000D01*
G75*
G02*
X18146000Y-161268000I250000J0D01*
G01*
X19446000Y-161268000D01*
G75*
G02*
X19696000Y-161518000I0J-250000D01*
G01*
G37*
D12*
X13716000Y-163068000D03*
X8636000Y-163068000D03*
X3556000Y-163068000D03*
%TD*%
%TO.C,J61*%
X-18288000Y-163068000D03*
X-13208000Y-163068000D03*
X-8128000Y-163068000D03*
G36*
G01*
X-2148000Y-161518000D02*
X-2148000Y-164618000D01*
G75*
G02*
X-2398000Y-164868000I-250000J0D01*
G01*
X-3698000Y-164868000D01*
G75*
G02*
X-3948000Y-164618000I0J250000D01*
G01*
X-3948000Y-161518000D01*
G75*
G02*
X-3698000Y-161268000I250000J0D01*
G01*
X-2398000Y-161268000D01*
G75*
G02*
X-2148000Y-161518000I0J-250000D01*
G01*
G37*
%TD*%
%TO.C,J62*%
G36*
G01*
X-23992000Y-161518000D02*
X-23992000Y-164618000D01*
G75*
G02*
X-24242000Y-164868000I-250000J0D01*
G01*
X-25542000Y-164868000D01*
G75*
G02*
X-25792000Y-164618000I0J250000D01*
G01*
X-25792000Y-161518000D01*
G75*
G02*
X-25542000Y-161268000I250000J0D01*
G01*
X-24242000Y-161268000D01*
G75*
G02*
X-23992000Y-161518000I0J-250000D01*
G01*
G37*
X-29972000Y-163068000D03*
X-35052000Y-163068000D03*
X-40132000Y-163068000D03*
%TD*%
M02*
