M48
; DRILL file {KiCad (5.1.12)-1} date 04/06/22 17:00:04
; FORMAT={-:-/ absolute / inch / decimal}
; #@! TF.CreationDate,2022-04-06T17:00:04+05:30
; #@! TF.GenerationSoftware,Kicad,Pcbnew,(5.1.12)-1
; #@! TF.FileFunction,Plated,1,2,PTH
FMAT,2
INCH
T1C0.0157
T2C0.0394
T3C0.0469
T4C0.0472
T5C0.0512
%
G90
G05
T1
X9.02Y-2.72
T2
X-1.076Y-5.518
X-1.076Y-5.618
X-0.976Y-5.518
X-0.976Y-5.618
X-0.876Y-5.518
X-0.876Y-5.618
X-0.776Y-5.518
X-0.776Y-5.618
X-0.676Y-5.518
X-0.676Y-5.618
X-0.576Y-5.518
X-0.576Y-5.618
X-0.476Y-5.518
X-0.476Y-5.618
X-0.376Y-5.518
X-0.376Y-5.618
X-0.276Y-5.518
X-0.276Y-5.618
X-0.176Y-5.518
X-0.176Y-5.618
X0.74Y-2.2
X0.74Y-2.3
X0.74Y-2.4
X0.74Y-2.5
X0.74Y-2.6
X0.74Y-2.7
X0.74Y-2.8
X0.74Y-2.9
X0.74Y-3.0
X0.74Y-3.1
X0.74Y-3.8
X0.74Y-3.9
X0.74Y-4.0
X0.74Y-4.1
X0.74Y-4.2
X0.74Y-4.3
X0.74Y-4.4
X0.74Y-4.5
X0.74Y-4.6
X0.74Y-4.7
X0.84Y-2.2
X0.84Y-2.3
X0.84Y-2.4
X0.84Y-2.5
X0.84Y-2.6
X0.84Y-2.7
X0.84Y-2.8
X0.84Y-2.9
X0.84Y-3.0
X0.84Y-3.1
X0.84Y-3.8
X0.84Y-3.9
X0.84Y-4.0
X0.84Y-4.1
X0.84Y-4.2
X0.84Y-4.3
X0.84Y-4.4
X0.84Y-4.5
X0.84Y-4.6
X0.84Y-4.7
X1.26Y-2.96
X1.26Y-3.06
X1.26Y-3.16
X1.26Y-3.26
X1.26Y-3.36
X1.26Y-3.46
X1.26Y-3.56
X1.26Y-3.66
X1.26Y-3.76
X1.26Y-3.86
X1.36Y-2.96
X1.36Y-3.06
X1.36Y-3.16
X1.36Y-3.26
X1.36Y-3.36
X1.36Y-3.46
X1.36Y-3.56
X1.36Y-3.66
X1.36Y-3.76
X1.36Y-3.86
X1.9Y-5.46
X1.9Y-6.5
X2.0Y-5.46
X2.0Y-6.5
X2.1Y-5.46
X2.1Y-6.5
X2.7Y-5.46
X2.7Y-6.5
X2.8Y-5.46
X2.8Y-6.5
X2.9Y-5.46
X2.9Y-6.5
X3.5Y-5.46
X3.5Y-6.5
X3.6Y-5.46
X3.6Y-6.5
X3.7Y-5.46
X3.7Y-6.5
X4.2992Y-5.9079
X4.2992Y-6.0079
X4.3Y-5.46
X4.3Y-6.5
X4.3992Y-5.9079
X4.3992Y-6.0079
X4.4Y-5.46
X4.4Y-6.5
X4.4992Y-5.9079
X4.4992Y-6.0079
X4.5Y-5.46
X4.5Y-6.5
X4.5992Y-5.9079
X4.5992Y-6.0079
X4.6992Y-5.9079
X4.6992Y-6.0079
X4.7992Y-5.9079
X4.7992Y-6.0079
X4.8992Y-5.9079
X4.8992Y-6.0079
X4.9992Y-5.9079
X4.9992Y-6.0079
X5.0992Y-5.9079
X5.0992Y-6.0079
X5.1Y-5.46
X5.1Y-6.5
X5.1992Y-5.9079
X5.1992Y-6.0079
X5.2Y-5.46
X5.2Y-6.5
X5.3Y-5.46
X5.3Y-6.5
X5.9Y-5.46
X5.9Y-6.5
X6.0Y-5.46
X6.0Y-6.5
X6.1Y-5.46
X6.1Y-6.5
X6.7Y-5.46
X6.7Y-6.5
X6.8Y-5.46
X6.8Y-6.5
X6.9Y-5.46
X6.9Y-6.5
X7.5Y-5.46
X7.5Y-6.5
X7.6Y-5.46
X7.6Y-6.5
X7.7Y-5.46
X7.7Y-6.5
T3
X-1.707Y-1.9
X-1.707Y-2.0
X-1.707Y-2.1
X-1.707Y-2.2
X-1.707Y-2.4
X-1.707Y-2.5
X-1.707Y-2.6
X-1.707Y-2.7
X-1.707Y-2.9
X-1.707Y-3.0
X-1.707Y-3.1
X-1.707Y-3.2
X-1.707Y-3.4
X-1.707Y-3.5
X-1.707Y-3.6
X-1.707Y-3.7
X-1.707Y-3.9
X-1.707Y-4.0
X-1.707Y-4.1
X-1.707Y-4.2
X-1.4Y-1.88
X-1.4Y-5.0
X-1.3Y-1.88
X-1.3Y-5.0
X-1.2Y-1.88
X-1.2Y-5.0
X-1.1Y-1.88
X-1.1Y-5.0
X-0.9Y-1.88
X-0.9Y-5.0
X-0.8Y-1.88
X-0.8Y-5.0
X-0.7Y-1.88
X-0.7Y-5.0
X-0.6Y-1.88
X-0.6Y-5.0
X-0.4Y-1.88
X-0.4Y-5.0
X-0.3Y-1.88
X-0.3Y-5.0
X-0.2Y-1.88
X-0.2Y-5.0
X-0.1Y-1.88
X-0.1Y-5.0
X0.1Y-1.88
X0.1Y-5.0
X0.2Y-1.88
X0.2Y-5.0
X0.3Y-1.88
X0.3Y-5.0
X0.4Y-1.88
X0.4Y-5.0
T4
X-1.8Y-5.84
X-1.8Y-6.04
X-1.705Y-4.495
X-1.705Y-4.695
X-1.58Y-6.42
X-1.38Y-6.42
X-1.18Y-6.42
X-0.98Y-6.42
X-0.72Y-6.42
X-0.52Y-6.42
X-0.32Y-6.42
X-0.12Y-6.42
X0.14Y-6.42
X0.34Y-6.42
X0.54Y-6.42
X0.74Y-6.42
X1.8Y-5.1
X2.0Y-1.7
X2.0Y-5.1
X2.2Y-1.7
X2.5Y-5.1
X2.7Y-1.7
X2.7Y-5.1
X2.9Y-1.7
X3.2Y-5.1
X3.4Y-1.7
X3.4Y-5.1
X3.6Y-1.7
X3.9Y-5.1
X4.1Y-1.7
X4.1Y-5.1
X4.3Y-1.7
X4.6Y-5.1
X4.8Y-1.7
X4.8Y-5.1
X5.0Y-1.7
X5.3Y-5.1
X5.5Y-1.7
X5.5Y-5.1
X5.7Y-1.7
X6.0Y-5.1
X6.2Y-1.7
X6.2Y-5.1
X6.4Y-1.7
X6.7Y-1.7
X6.7Y-5.1
X6.9Y-1.7
X6.9Y-5.1
X7.1Y-1.7
X7.1Y-5.1
X7.4Y-1.7
X7.4Y-5.1
X7.6Y-1.7
X7.6Y-5.1
X7.8Y-1.7
X7.8Y-5.1
X8.26Y-5.82
X8.26Y-6.02
X8.66Y-2.72
X8.66Y-2.92
X8.66Y-3.12
X8.66Y-3.32
X8.66Y-3.52
X10.46Y-2.38
X10.46Y-2.58
X10.46Y-3.18
X10.46Y-3.38
X10.46Y-3.98
X10.46Y-4.18
T5
X1.7638Y-2.2409
X1.7638Y-2.7213
X1.7638Y-4.0787
X1.7638Y-4.5591
X2.0Y-2.8
X2.0Y-4.0
X2.2362Y-2.2409
X2.2362Y-2.7213
X2.2362Y-4.0787
X2.2362Y-4.5591
X2.4638Y-2.2409
X2.4638Y-2.7213
X2.4638Y-4.0787
X2.4638Y-4.5591
X2.7Y-2.8
X2.7Y-4.0
X2.9362Y-2.2409
X2.9362Y-2.7213
X2.9362Y-4.0787
X2.9362Y-4.5591
X3.1638Y-2.2409
X3.1638Y-2.7213
X3.1638Y-4.0787
X3.1638Y-4.5591
X3.4Y-2.8
X3.4Y-4.0
X3.6362Y-2.2409
X3.6362Y-2.7213
X3.6362Y-4.0787
X3.6362Y-4.5591
X3.8638Y-2.2409
X3.8638Y-2.7213
X3.8638Y-4.0787
X3.8638Y-4.5591
X4.1Y-2.8
X4.1Y-4.0
X4.3362Y-2.2409
X4.3362Y-2.7213
X4.3362Y-4.0787
X4.3362Y-4.5591
X4.5638Y-2.2409
X4.5638Y-2.7213
X4.5638Y-4.0787
X4.5638Y-4.5591
X4.8Y-2.8
X4.8Y-4.0
X5.0362Y-2.2409
X5.0362Y-2.7213
X5.0362Y-4.0787
X5.0362Y-4.5591
X5.2638Y-2.2409
X5.2638Y-2.7213
X5.2638Y-4.0787
X5.2638Y-4.5591
X5.5Y-2.8
X5.5Y-4.0
X5.7362Y-2.2409
X5.7362Y-2.7213
X5.7362Y-4.0787
X5.7362Y-4.5591
X5.9638Y-2.2409
X5.9638Y-2.7213
X5.9638Y-4.0787
X5.9638Y-4.5591
X6.2Y-2.8
X6.2Y-4.0
X6.4362Y-2.2409
X6.4362Y-2.7213
X6.4362Y-4.0787
X6.4362Y-4.5591
X6.6638Y-2.2409
X6.6638Y-2.7213
X6.6638Y-4.0787
X6.6638Y-4.5591
X6.9Y-2.8
X6.9Y-4.0
X7.1362Y-2.2409
X7.1362Y-2.7213
X7.1362Y-4.0787
X7.1362Y-4.5591
X7.3638Y-2.2409
X7.3638Y-2.7213
X7.3638Y-4.0787
X7.3638Y-4.5591
X7.6Y-2.8
X7.6Y-4.0
X7.8362Y-2.2409
X7.8362Y-2.7213
X7.8362Y-4.0787
X7.8362Y-4.5591
X9.4Y-2.38
X9.4Y-3.18
X9.4Y-3.98
X9.4787Y-2.1438
X9.4787Y-2.6162
X9.4787Y-2.9438
X9.4787Y-3.4162
X9.4787Y-3.7438
X9.4787Y-4.2162
X9.9591Y-2.1438
X9.9591Y-2.6162
X9.9591Y-2.9438
X9.9591Y-3.4162
X9.9591Y-3.7438
X9.9591Y-4.2162
T0
M30
