%TF.GenerationSoftware,KiCad,Pcbnew,(5.1.12)-1*%
%TF.CreationDate,2022-04-06T16:52:09+05:30*%
%TF.ProjectId,MCROCONTROLLER,4d43524f-434f-44e5-9452-4f4c4c45522e,rev?*%
%TF.SameCoordinates,Original*%
%TF.FileFunction,Legend,Bot*%
%TF.FilePolarity,Positive*%
%FSLAX46Y46*%
G04 Gerber Fmt 4.6, Leading zero omitted, Abs format (unit mm)*
G04 Created by KiCad (PCBNEW (5.1.12)-1) date 2022-04-06 16:52:09*
%MOMM*%
%LPD*%
G01*
G04 APERTURE LIST*
%ADD10C,0.120000*%
%ADD11C,0.150000*%
G04 APERTURE END LIST*
D10*
%TO.C,C2*%
X63273000Y-50785752D02*
X63273000Y-50263248D01*
X64743000Y-50785752D02*
X64743000Y-50263248D01*
%TO.C,C4*%
X90198752Y-37619000D02*
X89676248Y-37619000D01*
X90198752Y-39089000D02*
X89676248Y-39089000D01*
%TO.C,C6*%
X107567820Y-120546400D02*
X107848980Y-120546400D01*
X107567820Y-121566400D02*
X107848980Y-121566400D01*
%TO.C,C7*%
X111123820Y-124026200D02*
X111404980Y-124026200D01*
X111123820Y-125046200D02*
X111404980Y-125046200D01*
%TO.C,C8*%
X96461238Y-116629411D02*
X96262427Y-116828222D01*
X95739989Y-115908162D02*
X95541178Y-116106973D01*
%TO.C,C9*%
X96817581Y-117014970D02*
X96618770Y-117213781D01*
X97538830Y-117736219D02*
X97340019Y-117935030D01*
%TO.C,C10*%
X111236320Y-101058833D02*
X111605787Y-100689366D01*
X112275767Y-102098280D02*
X112645234Y-101728813D01*
%TO.C,C11*%
X123733120Y-103157167D02*
X124102587Y-103526634D01*
X124772567Y-102117720D02*
X125142034Y-102487187D01*
%TO.C,C12*%
X114865543Y-97226410D02*
X115235010Y-96856943D01*
X115904990Y-98265857D02*
X116274457Y-97896390D01*
%TO.C,C13*%
X121534210Y-109332243D02*
X121164743Y-109701710D01*
X122573657Y-110371690D02*
X122204190Y-110741157D01*
%TO.C,C14*%
X112514233Y-108397480D02*
X112144766Y-108028013D01*
X113553680Y-107358033D02*
X113184213Y-106988566D01*
%TO.C,C2*%
D11*
X66045142Y-50357833D02*
X66092761Y-50310214D01*
X66140380Y-50167357D01*
X66140380Y-50072119D01*
X66092761Y-49929261D01*
X65997523Y-49834023D01*
X65902285Y-49786404D01*
X65711809Y-49738785D01*
X65568952Y-49738785D01*
X65378476Y-49786404D01*
X65283238Y-49834023D01*
X65188000Y-49929261D01*
X65140380Y-50072119D01*
X65140380Y-50167357D01*
X65188000Y-50310214D01*
X65235619Y-50357833D01*
X65235619Y-50738785D02*
X65188000Y-50786404D01*
X65140380Y-50881642D01*
X65140380Y-51119738D01*
X65188000Y-51214976D01*
X65235619Y-51262595D01*
X65330857Y-51310214D01*
X65426095Y-51310214D01*
X65568952Y-51262595D01*
X66140380Y-50691166D01*
X66140380Y-51310214D01*
%TO.C,C4*%
X90104166Y-37031142D02*
X90151785Y-37078761D01*
X90294642Y-37126380D01*
X90389880Y-37126380D01*
X90532738Y-37078761D01*
X90627976Y-36983523D01*
X90675595Y-36888285D01*
X90723214Y-36697809D01*
X90723214Y-36554952D01*
X90675595Y-36364476D01*
X90627976Y-36269238D01*
X90532738Y-36174000D01*
X90389880Y-36126380D01*
X90294642Y-36126380D01*
X90151785Y-36174000D01*
X90104166Y-36221619D01*
X89247023Y-36459714D02*
X89247023Y-37126380D01*
X89485119Y-36078761D02*
X89723214Y-36793047D01*
X89104166Y-36793047D01*
%TO.C,C6*%
X107875066Y-122843542D02*
X107922685Y-122891161D01*
X108065542Y-122938780D01*
X108160780Y-122938780D01*
X108303638Y-122891161D01*
X108398876Y-122795923D01*
X108446495Y-122700685D01*
X108494114Y-122510209D01*
X108494114Y-122367352D01*
X108446495Y-122176876D01*
X108398876Y-122081638D01*
X108303638Y-121986400D01*
X108160780Y-121938780D01*
X108065542Y-121938780D01*
X107922685Y-121986400D01*
X107875066Y-122034019D01*
X107017923Y-121938780D02*
X107208400Y-121938780D01*
X107303638Y-121986400D01*
X107351257Y-122034019D01*
X107446495Y-122176876D01*
X107494114Y-122367352D01*
X107494114Y-122748304D01*
X107446495Y-122843542D01*
X107398876Y-122891161D01*
X107303638Y-122938780D01*
X107113161Y-122938780D01*
X107017923Y-122891161D01*
X106970304Y-122843542D01*
X106922685Y-122748304D01*
X106922685Y-122510209D01*
X106970304Y-122414971D01*
X107017923Y-122367352D01*
X107113161Y-122319733D01*
X107303638Y-122319733D01*
X107398876Y-122367352D01*
X107446495Y-122414971D01*
X107494114Y-122510209D01*
%TO.C,C7*%
X111431066Y-126323342D02*
X111478685Y-126370961D01*
X111621542Y-126418580D01*
X111716780Y-126418580D01*
X111859638Y-126370961D01*
X111954876Y-126275723D01*
X112002495Y-126180485D01*
X112050114Y-125990009D01*
X112050114Y-125847152D01*
X112002495Y-125656676D01*
X111954876Y-125561438D01*
X111859638Y-125466200D01*
X111716780Y-125418580D01*
X111621542Y-125418580D01*
X111478685Y-125466200D01*
X111431066Y-125513819D01*
X111097733Y-125418580D02*
X110431066Y-125418580D01*
X110859638Y-126418580D01*
%TO.C,C8*%
X95360434Y-115491716D02*
X95427777Y-115491716D01*
X95562464Y-115424372D01*
X95629808Y-115357029D01*
X95697151Y-115222341D01*
X95697151Y-115087654D01*
X95663480Y-114986639D01*
X95562464Y-114818280D01*
X95461449Y-114717265D01*
X95293090Y-114616250D01*
X95192075Y-114582578D01*
X95057388Y-114582578D01*
X94922701Y-114649922D01*
X94855357Y-114717265D01*
X94788014Y-114851952D01*
X94788014Y-114919296D01*
X94619655Y-115559059D02*
X94653327Y-115458044D01*
X94653327Y-115390700D01*
X94619655Y-115289685D01*
X94585983Y-115256013D01*
X94484968Y-115222341D01*
X94417625Y-115222341D01*
X94316609Y-115256013D01*
X94181922Y-115390700D01*
X94148251Y-115491716D01*
X94148251Y-115559059D01*
X94181922Y-115660074D01*
X94215594Y-115693746D01*
X94316609Y-115727418D01*
X94383953Y-115727418D01*
X94484968Y-115693746D01*
X94619655Y-115559059D01*
X94720670Y-115525387D01*
X94788014Y-115525387D01*
X94889029Y-115559059D01*
X95023716Y-115693746D01*
X95057388Y-115794761D01*
X95057388Y-115862105D01*
X95023716Y-115963120D01*
X94889029Y-116097807D01*
X94788014Y-116131479D01*
X94720670Y-116131479D01*
X94619655Y-116097807D01*
X94484968Y-115963120D01*
X94451296Y-115862105D01*
X94451296Y-115794761D01*
X94484968Y-115693746D01*
%TO.C,C9*%
X96438026Y-116598524D02*
X96505369Y-116598524D01*
X96640056Y-116531180D01*
X96707400Y-116463837D01*
X96774743Y-116329149D01*
X96774743Y-116194462D01*
X96741072Y-116093447D01*
X96640056Y-115925088D01*
X96539041Y-115824073D01*
X96370682Y-115723058D01*
X96269667Y-115689386D01*
X96134980Y-115689386D01*
X96000293Y-115756730D01*
X95932949Y-115824073D01*
X95865606Y-115958760D01*
X95865606Y-116026104D01*
X96168652Y-117002585D02*
X96033965Y-117137272D01*
X95932949Y-117170943D01*
X95865606Y-117170943D01*
X95697247Y-117137272D01*
X95528888Y-117036256D01*
X95259514Y-116766882D01*
X95225843Y-116665867D01*
X95225843Y-116598524D01*
X95259514Y-116497508D01*
X95394201Y-116362821D01*
X95495217Y-116329149D01*
X95562560Y-116329149D01*
X95663575Y-116362821D01*
X95831934Y-116531180D01*
X95865606Y-116632195D01*
X95865606Y-116699539D01*
X95831934Y-116800554D01*
X95697247Y-116935241D01*
X95596232Y-116968913D01*
X95528888Y-116968913D01*
X95427873Y-116935241D01*
%TO.C,C10*%
X113835822Y-102379731D02*
X113903166Y-102379731D01*
X114037853Y-102312387D01*
X114105196Y-102245044D01*
X114172540Y-102110357D01*
X114172540Y-101975670D01*
X114138868Y-101874655D01*
X114037853Y-101706296D01*
X113936838Y-101605281D01*
X113768479Y-101504265D01*
X113667464Y-101470594D01*
X113532777Y-101470594D01*
X113398090Y-101537937D01*
X113330746Y-101605281D01*
X113263403Y-101739968D01*
X113263403Y-101807311D01*
X113229731Y-103120510D02*
X113633792Y-102716449D01*
X113431761Y-102918479D02*
X112724654Y-102211372D01*
X112893013Y-102245044D01*
X113027700Y-102245044D01*
X113128716Y-102211372D01*
X112084891Y-102851136D02*
X112017548Y-102918479D01*
X111983876Y-103019494D01*
X111983876Y-103086838D01*
X112017548Y-103187853D01*
X112118563Y-103356212D01*
X112286922Y-103524571D01*
X112455280Y-103625586D01*
X112556296Y-103659258D01*
X112623639Y-103659258D01*
X112724654Y-103625586D01*
X112791998Y-103558242D01*
X112825670Y-103457227D01*
X112825670Y-103389884D01*
X112791998Y-103288868D01*
X112690983Y-103120510D01*
X112522624Y-102952151D01*
X112354265Y-102851136D01*
X112253250Y-102817464D01*
X112185906Y-102817464D01*
X112084891Y-102851136D01*
%TO.C,C11*%
X123451668Y-104717222D02*
X123451668Y-104784566D01*
X123519012Y-104919253D01*
X123586355Y-104986596D01*
X123721042Y-105053940D01*
X123855729Y-105053940D01*
X123956744Y-105020268D01*
X124125103Y-104919253D01*
X124226118Y-104818238D01*
X124327134Y-104649879D01*
X124360805Y-104548864D01*
X124360805Y-104414177D01*
X124293462Y-104279490D01*
X124226118Y-104212146D01*
X124091431Y-104144803D01*
X124024088Y-104144803D01*
X122710889Y-104111131D02*
X123114950Y-104515192D01*
X122912920Y-104313161D02*
X123620027Y-103606054D01*
X123586355Y-103774413D01*
X123586355Y-103909100D01*
X123620027Y-104010116D01*
X122037454Y-103437696D02*
X122441515Y-103841757D01*
X122239485Y-103639726D02*
X122946592Y-102932619D01*
X122912920Y-103100978D01*
X122912920Y-103235665D01*
X122946592Y-103336680D01*
%TO.C,C12*%
X117465045Y-98547308D02*
X117532389Y-98547308D01*
X117667076Y-98479964D01*
X117734419Y-98412621D01*
X117801763Y-98277934D01*
X117801763Y-98143247D01*
X117768091Y-98042232D01*
X117667076Y-97873873D01*
X117566061Y-97772858D01*
X117397702Y-97671842D01*
X117296687Y-97638171D01*
X117162000Y-97638171D01*
X117027313Y-97705514D01*
X116959969Y-97772858D01*
X116892626Y-97907545D01*
X116892626Y-97974888D01*
X116858954Y-99288087D02*
X117263015Y-98884026D01*
X117060984Y-99086056D02*
X116353877Y-98378949D01*
X116522236Y-98412621D01*
X116656923Y-98412621D01*
X116757939Y-98378949D01*
X115949816Y-98917697D02*
X115882473Y-98917697D01*
X115781458Y-98951369D01*
X115613099Y-99119728D01*
X115579427Y-99220743D01*
X115579427Y-99288087D01*
X115613099Y-99389102D01*
X115680442Y-99456445D01*
X115815129Y-99523789D01*
X116623251Y-99523789D01*
X116185519Y-99961522D01*
%TO.C,C13*%
X121388367Y-108646730D02*
X121455711Y-108646730D01*
X121590398Y-108579386D01*
X121657741Y-108512043D01*
X121725085Y-108377356D01*
X121725085Y-108242669D01*
X121691413Y-108141654D01*
X121590398Y-107973295D01*
X121489383Y-107872280D01*
X121321024Y-107771264D01*
X121220009Y-107737593D01*
X121085322Y-107737593D01*
X120950635Y-107804936D01*
X120883291Y-107872280D01*
X120815948Y-108006967D01*
X120815948Y-108074310D01*
X120782276Y-109387509D02*
X121186337Y-108983448D01*
X120984306Y-109185478D02*
X120277199Y-108478371D01*
X120445558Y-108512043D01*
X120580245Y-108512043D01*
X120681261Y-108478371D01*
X119839467Y-108916104D02*
X119401734Y-109353837D01*
X119906810Y-109387509D01*
X119805795Y-109488524D01*
X119772123Y-109589539D01*
X119772123Y-109656883D01*
X119805795Y-109757898D01*
X119974154Y-109926257D01*
X120075169Y-109959928D01*
X120142512Y-109959928D01*
X120243528Y-109926257D01*
X120445558Y-109724226D01*
X120479230Y-109623211D01*
X120479230Y-109555867D01*
%TO.C,C14*%
X114239192Y-107212190D02*
X114239192Y-107279534D01*
X114306536Y-107414221D01*
X114373879Y-107481564D01*
X114508566Y-107548908D01*
X114643253Y-107548908D01*
X114744268Y-107515236D01*
X114912627Y-107414221D01*
X115013642Y-107313206D01*
X115114658Y-107144847D01*
X115148329Y-107043832D01*
X115148329Y-106909145D01*
X115080986Y-106774458D01*
X115013642Y-106707114D01*
X114878955Y-106639771D01*
X114811612Y-106639771D01*
X113498413Y-106606099D02*
X113902474Y-107010160D01*
X113700444Y-106808129D02*
X114407551Y-106101022D01*
X114373879Y-106269381D01*
X114373879Y-106404068D01*
X114407551Y-106505084D01*
X113363726Y-105528603D02*
X112892322Y-106000007D01*
X113801459Y-105427587D02*
X113464742Y-106101022D01*
X113027009Y-105663290D01*
%TD*%
M02*
