%TF.GenerationSoftware,KiCad,Pcbnew,(5.1.12)-1*%
%TF.CreationDate,2022-04-06T16:52:09+05:30*%
%TF.ProjectId,MCROCONTROLLER,4d43524f-434f-44e5-9452-4f4c4c45522e,rev?*%
%TF.SameCoordinates,Original*%
%TF.FileFunction,Paste,Bot*%
%TF.FilePolarity,Positive*%
%FSLAX46Y46*%
G04 Gerber Fmt 4.6, Leading zero omitted, Abs format (unit mm)*
G04 Created by KiCad (PCBNEW (5.1.12)-1) date 2022-04-06 16:52:09*
%MOMM*%
%LPD*%
G01*
G04 APERTURE LIST*
G04 APERTURE END LIST*
%TO.C,C2*%
G36*
G01*
X64483000Y-52149500D02*
X63533000Y-52149500D01*
G75*
G02*
X63283000Y-51899500I0J250000D01*
G01*
X63283000Y-51224500D01*
G75*
G02*
X63533000Y-50974500I250000J0D01*
G01*
X64483000Y-50974500D01*
G75*
G02*
X64733000Y-51224500I0J-250000D01*
G01*
X64733000Y-51899500D01*
G75*
G02*
X64483000Y-52149500I-250000J0D01*
G01*
G37*
G36*
G01*
X64483000Y-50074500D02*
X63533000Y-50074500D01*
G75*
G02*
X63283000Y-49824500I0J250000D01*
G01*
X63283000Y-49149500D01*
G75*
G02*
X63533000Y-48899500I250000J0D01*
G01*
X64483000Y-48899500D01*
G75*
G02*
X64733000Y-49149500I0J-250000D01*
G01*
X64733000Y-49824500D01*
G75*
G02*
X64483000Y-50074500I-250000J0D01*
G01*
G37*
%TD*%
%TO.C,C4*%
G36*
G01*
X89487500Y-37879000D02*
X89487500Y-38829000D01*
G75*
G02*
X89237500Y-39079000I-250000J0D01*
G01*
X88562500Y-39079000D01*
G75*
G02*
X88312500Y-38829000I0J250000D01*
G01*
X88312500Y-37879000D01*
G75*
G02*
X88562500Y-37629000I250000J0D01*
G01*
X89237500Y-37629000D01*
G75*
G02*
X89487500Y-37879000I0J-250000D01*
G01*
G37*
G36*
G01*
X91562500Y-37879000D02*
X91562500Y-38829000D01*
G75*
G02*
X91312500Y-39079000I-250000J0D01*
G01*
X90637500Y-39079000D01*
G75*
G02*
X90387500Y-38829000I0J250000D01*
G01*
X90387500Y-37879000D01*
G75*
G02*
X90637500Y-37629000I250000J0D01*
G01*
X91312500Y-37629000D01*
G75*
G02*
X91562500Y-37879000I0J-250000D01*
G01*
G37*
%TD*%
%TO.C,C6*%
G36*
G01*
X106483400Y-121306400D02*
X106483400Y-120806400D01*
G75*
G02*
X106708400Y-120581400I225000J0D01*
G01*
X107158400Y-120581400D01*
G75*
G02*
X107383400Y-120806400I0J-225000D01*
G01*
X107383400Y-121306400D01*
G75*
G02*
X107158400Y-121531400I-225000J0D01*
G01*
X106708400Y-121531400D01*
G75*
G02*
X106483400Y-121306400I0J225000D01*
G01*
G37*
G36*
G01*
X108033400Y-121306400D02*
X108033400Y-120806400D01*
G75*
G02*
X108258400Y-120581400I225000J0D01*
G01*
X108708400Y-120581400D01*
G75*
G02*
X108933400Y-120806400I0J-225000D01*
G01*
X108933400Y-121306400D01*
G75*
G02*
X108708400Y-121531400I-225000J0D01*
G01*
X108258400Y-121531400D01*
G75*
G02*
X108033400Y-121306400I0J225000D01*
G01*
G37*
%TD*%
%TO.C,C7*%
G36*
G01*
X110039400Y-124786200D02*
X110039400Y-124286200D01*
G75*
G02*
X110264400Y-124061200I225000J0D01*
G01*
X110714400Y-124061200D01*
G75*
G02*
X110939400Y-124286200I0J-225000D01*
G01*
X110939400Y-124786200D01*
G75*
G02*
X110714400Y-125011200I-225000J0D01*
G01*
X110264400Y-125011200D01*
G75*
G02*
X110039400Y-124786200I0J225000D01*
G01*
G37*
G36*
G01*
X111589400Y-124786200D02*
X111589400Y-124286200D01*
G75*
G02*
X111814400Y-124061200I225000J0D01*
G01*
X112264400Y-124061200D01*
G75*
G02*
X112489400Y-124286200I0J-225000D01*
G01*
X112489400Y-124786200D01*
G75*
G02*
X112264400Y-125011200I-225000J0D01*
G01*
X111814400Y-125011200D01*
G75*
G02*
X111589400Y-124786200I0J225000D01*
G01*
G37*
%TD*%
%TO.C,C8*%
G36*
G01*
X96690637Y-115325209D02*
X97044191Y-115678763D01*
G75*
G02*
X97044191Y-115996961I-159099J-159099D01*
G01*
X96725993Y-116315159D01*
G75*
G02*
X96407795Y-116315159I-159099J159099D01*
G01*
X96054241Y-115961605D01*
G75*
G02*
X96054241Y-115643407I159099J159099D01*
G01*
X96372439Y-115325209D01*
G75*
G02*
X96690637Y-115325209I159099J-159099D01*
G01*
G37*
G36*
G01*
X95594621Y-116421225D02*
X95948175Y-116774779D01*
G75*
G02*
X95948175Y-117092977I-159099J-159099D01*
G01*
X95629977Y-117411175D01*
G75*
G02*
X95311779Y-117411175I-159099J159099D01*
G01*
X94958225Y-117057621D01*
G75*
G02*
X94958225Y-116739423I159099J159099D01*
G01*
X95276423Y-116421225D01*
G75*
G02*
X95594621Y-116421225I159099J-159099D01*
G01*
G37*
%TD*%
%TO.C,C9*%
G36*
G01*
X96672213Y-117528033D02*
X97025767Y-117881587D01*
G75*
G02*
X97025767Y-118199785I-159099J-159099D01*
G01*
X96707569Y-118517983D01*
G75*
G02*
X96389371Y-118517983I-159099J159099D01*
G01*
X96035817Y-118164429D01*
G75*
G02*
X96035817Y-117846231I159099J159099D01*
G01*
X96354015Y-117528033D01*
G75*
G02*
X96672213Y-117528033I159099J-159099D01*
G01*
G37*
G36*
G01*
X97768229Y-116432017D02*
X98121783Y-116785571D01*
G75*
G02*
X98121783Y-117103769I-159099J-159099D01*
G01*
X97803585Y-117421967D01*
G75*
G02*
X97485387Y-117421967I-159099J159099D01*
G01*
X97131833Y-117068413D01*
G75*
G02*
X97131833Y-116750215I159099J159099D01*
G01*
X97450031Y-116432017D01*
G75*
G02*
X97768229Y-116432017I159099J-159099D01*
G01*
G37*
%TD*%
%TO.C,C10*%
G36*
G01*
X111127604Y-102878747D02*
X110455853Y-102206996D01*
G75*
G02*
X110455853Y-101853442I176777J176777D01*
G01*
X110933150Y-101376145D01*
G75*
G02*
X111286704Y-101376145I176777J-176777D01*
G01*
X111958455Y-102047896D01*
G75*
G02*
X111958455Y-102401450I-176777J-176777D01*
G01*
X111481158Y-102878747D01*
G75*
G02*
X111127604Y-102878747I-176777J176777D01*
G01*
G37*
G36*
G01*
X112594850Y-101411501D02*
X111923099Y-100739750D01*
G75*
G02*
X111923099Y-100386196I176777J176777D01*
G01*
X112400396Y-99908899D01*
G75*
G02*
X112753950Y-99908899I176777J-176777D01*
G01*
X113425701Y-100580650D01*
G75*
G02*
X113425701Y-100934204I-176777J-176777D01*
G01*
X112948404Y-101411501D01*
G75*
G02*
X112594850Y-101411501I-176777J176777D01*
G01*
G37*
%TD*%
%TO.C,C11*%
G36*
G01*
X124419899Y-103476250D02*
X125091650Y-102804499D01*
G75*
G02*
X125445204Y-102804499I176777J-176777D01*
G01*
X125922501Y-103281796D01*
G75*
G02*
X125922501Y-103635350I-176777J-176777D01*
G01*
X125250750Y-104307101D01*
G75*
G02*
X124897196Y-104307101I-176777J176777D01*
G01*
X124419899Y-103829804D01*
G75*
G02*
X124419899Y-103476250I176777J176777D01*
G01*
G37*
G36*
G01*
X122952653Y-102009004D02*
X123624404Y-101337253D01*
G75*
G02*
X123977958Y-101337253I176777J-176777D01*
G01*
X124455255Y-101814550D01*
G75*
G02*
X124455255Y-102168104I-176777J-176777D01*
G01*
X123783504Y-102839855D01*
G75*
G02*
X123429950Y-102839855I-176777J176777D01*
G01*
X122952653Y-102362558D01*
G75*
G02*
X122952653Y-102009004I176777J176777D01*
G01*
G37*
%TD*%
%TO.C,C12*%
G36*
G01*
X114756827Y-99046324D02*
X114085076Y-98374573D01*
G75*
G02*
X114085076Y-98021019I176777J176777D01*
G01*
X114562373Y-97543722D01*
G75*
G02*
X114915927Y-97543722I176777J-176777D01*
G01*
X115587678Y-98215473D01*
G75*
G02*
X115587678Y-98569027I-176777J-176777D01*
G01*
X115110381Y-99046324D01*
G75*
G02*
X114756827Y-99046324I-176777J176777D01*
G01*
G37*
G36*
G01*
X116224073Y-97579078D02*
X115552322Y-96907327D01*
G75*
G02*
X115552322Y-96553773I176777J176777D01*
G01*
X116029619Y-96076476D01*
G75*
G02*
X116383173Y-96076476I176777J-176777D01*
G01*
X117054924Y-96748227D01*
G75*
G02*
X117054924Y-97101781I-176777J-176777D01*
G01*
X116577627Y-97579078D01*
G75*
G02*
X116224073Y-97579078I-176777J176777D01*
G01*
G37*
%TD*%
%TO.C,C13*%
G36*
G01*
X121215127Y-110019022D02*
X121886878Y-110690773D01*
G75*
G02*
X121886878Y-111044327I-176777J-176777D01*
G01*
X121409581Y-111521624D01*
G75*
G02*
X121056027Y-111521624I-176777J176777D01*
G01*
X120384276Y-110849873D01*
G75*
G02*
X120384276Y-110496319I176777J176777D01*
G01*
X120861573Y-110019022D01*
G75*
G02*
X121215127Y-110019022I176777J-176777D01*
G01*
G37*
G36*
G01*
X122682373Y-108551776D02*
X123354124Y-109223527D01*
G75*
G02*
X123354124Y-109577081I-176777J-176777D01*
G01*
X122876827Y-110054378D01*
G75*
G02*
X122523273Y-110054378I-176777J176777D01*
G01*
X121851522Y-109382627D01*
G75*
G02*
X121851522Y-109029073I176777J176777D01*
G01*
X122328819Y-108551776D01*
G75*
G02*
X122682373Y-108551776I176777J-176777D01*
G01*
G37*
%TD*%
%TO.C,C14*%
G36*
G01*
X114334147Y-108506196D02*
X113662396Y-109177947D01*
G75*
G02*
X113308842Y-109177947I-176777J176777D01*
G01*
X112831545Y-108700650D01*
G75*
G02*
X112831545Y-108347096I176777J176777D01*
G01*
X113503296Y-107675345D01*
G75*
G02*
X113856850Y-107675345I176777J-176777D01*
G01*
X114334147Y-108152642D01*
G75*
G02*
X114334147Y-108506196I-176777J-176777D01*
G01*
G37*
G36*
G01*
X112866901Y-107038950D02*
X112195150Y-107710701D01*
G75*
G02*
X111841596Y-107710701I-176777J176777D01*
G01*
X111364299Y-107233404D01*
G75*
G02*
X111364299Y-106879850I176777J176777D01*
G01*
X112036050Y-106208099D01*
G75*
G02*
X112389604Y-106208099I176777J-176777D01*
G01*
X112866901Y-106685396D01*
G75*
G02*
X112866901Y-107038950I-176777J-176777D01*
G01*
G37*
%TD*%
M02*
