%TF.GenerationSoftware,KiCad,Pcbnew,(5.1.12)-1*%
%TF.CreationDate,2022-04-06T16:52:09+05:30*%
%TF.ProjectId,MCROCONTROLLER,4d43524f-434f-44e5-9452-4f4c4c45522e,rev?*%
%TF.SameCoordinates,Original*%
%TF.FileFunction,Soldermask,Bot*%
%TF.FilePolarity,Negative*%
%FSLAX46Y46*%
G04 Gerber Fmt 4.6, Leading zero omitted, Abs format (unit mm)*
G04 Created by KiCad (PCBNEW (5.1.12)-1) date 2022-04-06 16:52:09*
%MOMM*%
%LPD*%
G01*
G04 APERTURE LIST*
%ADD10O,3.600000X1.800000*%
%ADD11R,1.600000X1.600000*%
%ADD12C,1.600000*%
%ADD13C,1.700000*%
%ADD14C,0.100000*%
%ADD15R,3.600000X4.000000*%
%ADD16C,2.200000*%
%ADD17R,2.200000X2.200000*%
%ADD18C,1.500000*%
%ADD19C,1.000000*%
%ADD20O,1.740000X2.190000*%
%ADD21R,1.700000X1.700000*%
%ADD22O,1.700000X1.700000*%
%ADD23C,2.400000*%
%ADD24O,2.400000X2.400000*%
%ADD25R,2.100000X2.100000*%
%ADD26C,2.100000*%
G04 APERTURE END LIST*
%TO.C,J7*%
G36*
G01*
X184938000Y-77100000D02*
X181838000Y-77100000D01*
G75*
G02*
X181588000Y-76850000I0J250000D01*
G01*
X181588000Y-75550000D01*
G75*
G02*
X181838000Y-75300000I250000J0D01*
G01*
X184938000Y-75300000D01*
G75*
G02*
X185188000Y-75550000I0J-250000D01*
G01*
X185188000Y-76850000D01*
G75*
G02*
X184938000Y-77100000I-250000J0D01*
G01*
G37*
D10*
X183388000Y-71120000D03*
X183388000Y-66040000D03*
X183388000Y-60960000D03*
X183388000Y-55880000D03*
%TD*%
D11*
%TO.C,C1*%
X64008000Y-53086000D03*
D12*
X64008000Y-48086000D03*
%TD*%
%TO.C,C2*%
G36*
G01*
X64483000Y-52149500D02*
X63533000Y-52149500D01*
G75*
G02*
X63283000Y-51899500I0J250000D01*
G01*
X63283000Y-51224500D01*
G75*
G02*
X63533000Y-50974500I250000J0D01*
G01*
X64483000Y-50974500D01*
G75*
G02*
X64733000Y-51224500I0J-250000D01*
G01*
X64733000Y-51899500D01*
G75*
G02*
X64483000Y-52149500I-250000J0D01*
G01*
G37*
G36*
G01*
X64483000Y-50074500D02*
X63533000Y-50074500D01*
G75*
G02*
X63283000Y-49824500I0J250000D01*
G01*
X63283000Y-49149500D01*
G75*
G02*
X63533000Y-48899500I250000J0D01*
G01*
X64483000Y-48899500D01*
G75*
G02*
X64733000Y-49149500I0J-250000D01*
G01*
X64733000Y-49824500D01*
G75*
G02*
X64483000Y-50074500I-250000J0D01*
G01*
G37*
%TD*%
%TO.C,C3*%
X87456000Y-38354000D03*
D11*
X92456000Y-38354000D03*
%TD*%
%TO.C,C4*%
G36*
G01*
X89487500Y-37879000D02*
X89487500Y-38829000D01*
G75*
G02*
X89237500Y-39079000I-250000J0D01*
G01*
X88562500Y-39079000D01*
G75*
G02*
X88312500Y-38829000I0J250000D01*
G01*
X88312500Y-37879000D01*
G75*
G02*
X88562500Y-37629000I250000J0D01*
G01*
X89237500Y-37629000D01*
G75*
G02*
X89487500Y-37879000I0J-250000D01*
G01*
G37*
G36*
G01*
X91562500Y-37879000D02*
X91562500Y-38829000D01*
G75*
G02*
X91312500Y-39079000I-250000J0D01*
G01*
X90637500Y-39079000D01*
G75*
G02*
X90387500Y-38829000I0J250000D01*
G01*
X90387500Y-37879000D01*
G75*
G02*
X90637500Y-37629000I250000J0D01*
G01*
X91312500Y-37629000D01*
G75*
G02*
X91562500Y-37879000I0J-250000D01*
G01*
G37*
%TD*%
%TO.C,C6*%
G36*
G01*
X106483400Y-121306400D02*
X106483400Y-120806400D01*
G75*
G02*
X106708400Y-120581400I225000J0D01*
G01*
X107158400Y-120581400D01*
G75*
G02*
X107383400Y-120806400I0J-225000D01*
G01*
X107383400Y-121306400D01*
G75*
G02*
X107158400Y-121531400I-225000J0D01*
G01*
X106708400Y-121531400D01*
G75*
G02*
X106483400Y-121306400I0J225000D01*
G01*
G37*
G36*
G01*
X108033400Y-121306400D02*
X108033400Y-120806400D01*
G75*
G02*
X108258400Y-120581400I225000J0D01*
G01*
X108708400Y-120581400D01*
G75*
G02*
X108933400Y-120806400I0J-225000D01*
G01*
X108933400Y-121306400D01*
G75*
G02*
X108708400Y-121531400I-225000J0D01*
G01*
X108258400Y-121531400D01*
G75*
G02*
X108033400Y-121306400I0J225000D01*
G01*
G37*
%TD*%
%TO.C,C7*%
G36*
G01*
X110039400Y-124786200D02*
X110039400Y-124286200D01*
G75*
G02*
X110264400Y-124061200I225000J0D01*
G01*
X110714400Y-124061200D01*
G75*
G02*
X110939400Y-124286200I0J-225000D01*
G01*
X110939400Y-124786200D01*
G75*
G02*
X110714400Y-125011200I-225000J0D01*
G01*
X110264400Y-125011200D01*
G75*
G02*
X110039400Y-124786200I0J225000D01*
G01*
G37*
G36*
G01*
X111589400Y-124786200D02*
X111589400Y-124286200D01*
G75*
G02*
X111814400Y-124061200I225000J0D01*
G01*
X112264400Y-124061200D01*
G75*
G02*
X112489400Y-124286200I0J-225000D01*
G01*
X112489400Y-124786200D01*
G75*
G02*
X112264400Y-125011200I-225000J0D01*
G01*
X111814400Y-125011200D01*
G75*
G02*
X111589400Y-124786200I0J225000D01*
G01*
G37*
%TD*%
%TO.C,C8*%
G36*
G01*
X96690637Y-115325209D02*
X97044191Y-115678763D01*
G75*
G02*
X97044191Y-115996961I-159099J-159099D01*
G01*
X96725993Y-116315159D01*
G75*
G02*
X96407795Y-116315159I-159099J159099D01*
G01*
X96054241Y-115961605D01*
G75*
G02*
X96054241Y-115643407I159099J159099D01*
G01*
X96372439Y-115325209D01*
G75*
G02*
X96690637Y-115325209I159099J-159099D01*
G01*
G37*
G36*
G01*
X95594621Y-116421225D02*
X95948175Y-116774779D01*
G75*
G02*
X95948175Y-117092977I-159099J-159099D01*
G01*
X95629977Y-117411175D01*
G75*
G02*
X95311779Y-117411175I-159099J159099D01*
G01*
X94958225Y-117057621D01*
G75*
G02*
X94958225Y-116739423I159099J159099D01*
G01*
X95276423Y-116421225D01*
G75*
G02*
X95594621Y-116421225I159099J-159099D01*
G01*
G37*
%TD*%
%TO.C,C9*%
G36*
G01*
X96672213Y-117528033D02*
X97025767Y-117881587D01*
G75*
G02*
X97025767Y-118199785I-159099J-159099D01*
G01*
X96707569Y-118517983D01*
G75*
G02*
X96389371Y-118517983I-159099J159099D01*
G01*
X96035817Y-118164429D01*
G75*
G02*
X96035817Y-117846231I159099J159099D01*
G01*
X96354015Y-117528033D01*
G75*
G02*
X96672213Y-117528033I159099J-159099D01*
G01*
G37*
G36*
G01*
X97768229Y-116432017D02*
X98121783Y-116785571D01*
G75*
G02*
X98121783Y-117103769I-159099J-159099D01*
G01*
X97803585Y-117421967D01*
G75*
G02*
X97485387Y-117421967I-159099J159099D01*
G01*
X97131833Y-117068413D01*
G75*
G02*
X97131833Y-116750215I159099J159099D01*
G01*
X97450031Y-116432017D01*
G75*
G02*
X97768229Y-116432017I159099J-159099D01*
G01*
G37*
%TD*%
%TO.C,C10*%
G36*
G01*
X111127604Y-102878747D02*
X110455853Y-102206996D01*
G75*
G02*
X110455853Y-101853442I176777J176777D01*
G01*
X110933150Y-101376145D01*
G75*
G02*
X111286704Y-101376145I176777J-176777D01*
G01*
X111958455Y-102047896D01*
G75*
G02*
X111958455Y-102401450I-176777J-176777D01*
G01*
X111481158Y-102878747D01*
G75*
G02*
X111127604Y-102878747I-176777J176777D01*
G01*
G37*
G36*
G01*
X112594850Y-101411501D02*
X111923099Y-100739750D01*
G75*
G02*
X111923099Y-100386196I176777J176777D01*
G01*
X112400396Y-99908899D01*
G75*
G02*
X112753950Y-99908899I176777J-176777D01*
G01*
X113425701Y-100580650D01*
G75*
G02*
X113425701Y-100934204I-176777J-176777D01*
G01*
X112948404Y-101411501D01*
G75*
G02*
X112594850Y-101411501I-176777J176777D01*
G01*
G37*
%TD*%
%TO.C,C11*%
G36*
G01*
X124419899Y-103476250D02*
X125091650Y-102804499D01*
G75*
G02*
X125445204Y-102804499I176777J-176777D01*
G01*
X125922501Y-103281796D01*
G75*
G02*
X125922501Y-103635350I-176777J-176777D01*
G01*
X125250750Y-104307101D01*
G75*
G02*
X124897196Y-104307101I-176777J176777D01*
G01*
X124419899Y-103829804D01*
G75*
G02*
X124419899Y-103476250I176777J176777D01*
G01*
G37*
G36*
G01*
X122952653Y-102009004D02*
X123624404Y-101337253D01*
G75*
G02*
X123977958Y-101337253I176777J-176777D01*
G01*
X124455255Y-101814550D01*
G75*
G02*
X124455255Y-102168104I-176777J-176777D01*
G01*
X123783504Y-102839855D01*
G75*
G02*
X123429950Y-102839855I-176777J176777D01*
G01*
X122952653Y-102362558D01*
G75*
G02*
X122952653Y-102009004I176777J176777D01*
G01*
G37*
%TD*%
%TO.C,C12*%
G36*
G01*
X114756827Y-99046324D02*
X114085076Y-98374573D01*
G75*
G02*
X114085076Y-98021019I176777J176777D01*
G01*
X114562373Y-97543722D01*
G75*
G02*
X114915927Y-97543722I176777J-176777D01*
G01*
X115587678Y-98215473D01*
G75*
G02*
X115587678Y-98569027I-176777J-176777D01*
G01*
X115110381Y-99046324D01*
G75*
G02*
X114756827Y-99046324I-176777J176777D01*
G01*
G37*
G36*
G01*
X116224073Y-97579078D02*
X115552322Y-96907327D01*
G75*
G02*
X115552322Y-96553773I176777J176777D01*
G01*
X116029619Y-96076476D01*
G75*
G02*
X116383173Y-96076476I176777J-176777D01*
G01*
X117054924Y-96748227D01*
G75*
G02*
X117054924Y-97101781I-176777J-176777D01*
G01*
X116577627Y-97579078D01*
G75*
G02*
X116224073Y-97579078I-176777J176777D01*
G01*
G37*
%TD*%
%TO.C,C13*%
G36*
G01*
X121215127Y-110019022D02*
X121886878Y-110690773D01*
G75*
G02*
X121886878Y-111044327I-176777J-176777D01*
G01*
X121409581Y-111521624D01*
G75*
G02*
X121056027Y-111521624I-176777J176777D01*
G01*
X120384276Y-110849873D01*
G75*
G02*
X120384276Y-110496319I176777J176777D01*
G01*
X120861573Y-110019022D01*
G75*
G02*
X121215127Y-110019022I176777J-176777D01*
G01*
G37*
G36*
G01*
X122682373Y-108551776D02*
X123354124Y-109223527D01*
G75*
G02*
X123354124Y-109577081I-176777J-176777D01*
G01*
X122876827Y-110054378D01*
G75*
G02*
X122523273Y-110054378I-176777J176777D01*
G01*
X121851522Y-109382627D01*
G75*
G02*
X121851522Y-109029073I176777J176777D01*
G01*
X122328819Y-108551776D01*
G75*
G02*
X122682373Y-108551776I176777J-176777D01*
G01*
G37*
%TD*%
%TO.C,C14*%
G36*
G01*
X114334147Y-108506196D02*
X113662396Y-109177947D01*
G75*
G02*
X113308842Y-109177947I-176777J176777D01*
G01*
X112831545Y-108700650D01*
G75*
G02*
X112831545Y-108347096I176777J176777D01*
G01*
X113503296Y-107675345D01*
G75*
G02*
X113856850Y-107675345I176777J-176777D01*
G01*
X114334147Y-108152642D01*
G75*
G02*
X114334147Y-108506196I-176777J-176777D01*
G01*
G37*
G36*
G01*
X112866901Y-107038950D02*
X112195150Y-107710701D01*
G75*
G02*
X111841596Y-107710701I-176777J176777D01*
G01*
X111364299Y-107233404D01*
G75*
G02*
X111364299Y-106879850I176777J176777D01*
G01*
X112036050Y-106208099D01*
G75*
G02*
X112389604Y-106208099I176777J-176777D01*
G01*
X112866901Y-106685396D01*
G75*
G02*
X112866901Y-107038950I-176777J-176777D01*
G01*
G37*
%TD*%
%TO.C,J1*%
G36*
G01*
X55030000Y-71720000D02*
X55030000Y-70520000D01*
G75*
G02*
X55280000Y-70270000I250000J0D01*
G01*
X56480000Y-70270000D01*
G75*
G02*
X56730000Y-70520000I0J-250000D01*
G01*
X56730000Y-71720000D01*
G75*
G02*
X56480000Y-71970000I-250000J0D01*
G01*
X55280000Y-71970000D01*
G75*
G02*
X55030000Y-71720000I0J250000D01*
G01*
G37*
D13*
X55880000Y-73660000D03*
X55880000Y-76200000D03*
X55880000Y-78740000D03*
X55880000Y-81280000D03*
X55880000Y-83820000D03*
X55880000Y-86360000D03*
X55880000Y-88900000D03*
X55880000Y-91440000D03*
X55880000Y-93980000D03*
X58420000Y-71120000D03*
X58420000Y-73660000D03*
X58420000Y-76200000D03*
X58420000Y-78740000D03*
X58420000Y-81280000D03*
X58420000Y-83820000D03*
X58420000Y-86360000D03*
X58420000Y-88900000D03*
X58420000Y-91440000D03*
X58420000Y-93980000D03*
%TD*%
%TO.C,J2*%
X58420000Y-132080000D03*
X58420000Y-129540000D03*
X58420000Y-127000000D03*
X58420000Y-124460000D03*
X58420000Y-121920000D03*
X58420000Y-119380000D03*
X58420000Y-116840000D03*
X58420000Y-114300000D03*
X58420000Y-111760000D03*
X58420000Y-109220000D03*
X55880000Y-132080000D03*
X55880000Y-129540000D03*
X55880000Y-127000000D03*
X55880000Y-124460000D03*
X55880000Y-121920000D03*
X55880000Y-119380000D03*
X55880000Y-116840000D03*
X55880000Y-114300000D03*
X55880000Y-111760000D03*
G36*
G01*
X55030000Y-109820000D02*
X55030000Y-108620000D01*
G75*
G02*
X55280000Y-108370000I250000J0D01*
G01*
X56480000Y-108370000D01*
G75*
G02*
X56730000Y-108620000I0J-250000D01*
G01*
X56730000Y-109820000D01*
G75*
G02*
X56480000Y-110070000I-250000J0D01*
G01*
X55280000Y-110070000D01*
G75*
G02*
X55030000Y-109820000I0J250000D01*
G01*
G37*
%TD*%
%TO.C,J3*%
G36*
G01*
X183730000Y-112430000D02*
X183730000Y-113630000D01*
G75*
G02*
X183480000Y-113880000I-250000J0D01*
G01*
X182280000Y-113880000D01*
G75*
G02*
X182030000Y-113630000I0J250000D01*
G01*
X182030000Y-112430000D01*
G75*
G02*
X182280000Y-112180000I250000J0D01*
G01*
X183480000Y-112180000D01*
G75*
G02*
X183730000Y-112430000I0J-250000D01*
G01*
G37*
X182880000Y-110490000D03*
X182880000Y-107950000D03*
X182880000Y-105410000D03*
X182880000Y-102870000D03*
X182880000Y-100330000D03*
X182880000Y-97790000D03*
X182880000Y-95250000D03*
X182880000Y-92710000D03*
X182880000Y-90170000D03*
X180340000Y-113030000D03*
X180340000Y-110490000D03*
X180340000Y-107950000D03*
X180340000Y-105410000D03*
X180340000Y-102870000D03*
X180340000Y-100330000D03*
X180340000Y-97790000D03*
X180340000Y-95250000D03*
X180340000Y-92710000D03*
X180340000Y-90170000D03*
%TD*%
%TO.C,J4*%
G36*
G01*
X55030000Y-146650000D02*
X55030000Y-145450000D01*
G75*
G02*
X55280000Y-145200000I250000J0D01*
G01*
X56480000Y-145200000D01*
G75*
G02*
X56730000Y-145450000I0J-250000D01*
G01*
X56730000Y-146650000D01*
G75*
G02*
X56480000Y-146900000I-250000J0D01*
G01*
X55280000Y-146900000D01*
G75*
G02*
X55030000Y-146650000I0J250000D01*
G01*
G37*
X55880000Y-148590000D03*
X55880000Y-151130000D03*
X55880000Y-153670000D03*
X55880000Y-156210000D03*
X55880000Y-158750000D03*
X55880000Y-161290000D03*
X55880000Y-163830000D03*
X55880000Y-166370000D03*
X55880000Y-168910000D03*
X58420000Y-146050000D03*
X58420000Y-148590000D03*
X58420000Y-151130000D03*
X58420000Y-153670000D03*
X58420000Y-156210000D03*
X58420000Y-158750000D03*
X58420000Y-161290000D03*
X58420000Y-163830000D03*
X58420000Y-166370000D03*
X58420000Y-168910000D03*
%TD*%
%TO.C,J5*%
X182880000Y-151130000D03*
X182880000Y-148590000D03*
X182880000Y-146050000D03*
X182880000Y-143510000D03*
X182880000Y-140970000D03*
X182880000Y-138430000D03*
X182880000Y-135890000D03*
X182880000Y-133350000D03*
X182880000Y-130810000D03*
X182880000Y-128270000D03*
X180340000Y-151130000D03*
X180340000Y-148590000D03*
X180340000Y-146050000D03*
X180340000Y-143510000D03*
X180340000Y-140970000D03*
X180340000Y-138430000D03*
X180340000Y-135890000D03*
X180340000Y-133350000D03*
X180340000Y-130810000D03*
G36*
G01*
X179490000Y-128870000D02*
X179490000Y-127670000D01*
G75*
G02*
X179740000Y-127420000I250000J0D01*
G01*
X180940000Y-127420000D01*
G75*
G02*
X181190000Y-127670000I0J-250000D01*
G01*
X181190000Y-128870000D01*
G75*
G02*
X180940000Y-129120000I-250000J0D01*
G01*
X179740000Y-129120000D01*
G75*
G02*
X179490000Y-128870000I0J250000D01*
G01*
G37*
%TD*%
%TO.C,J6*%
G36*
G01*
X180314000Y-162930000D02*
X183414000Y-162930000D01*
G75*
G02*
X183664000Y-163180000I0J-250000D01*
G01*
X183664000Y-164480000D01*
G75*
G02*
X183414000Y-164730000I-250000J0D01*
G01*
X180314000Y-164730000D01*
G75*
G02*
X180064000Y-164480000I0J250000D01*
G01*
X180064000Y-163180000D01*
G75*
G02*
X180314000Y-162930000I250000J0D01*
G01*
G37*
D10*
X181864000Y-168910000D03*
X181864000Y-173990000D03*
%TD*%
D13*
%TO.C,J8*%
X153670000Y-40640000D03*
X156210000Y-40640000D03*
X158750000Y-40640000D03*
X161290000Y-40640000D03*
X163830000Y-40640000D03*
X166370000Y-40640000D03*
X168910000Y-40640000D03*
X171450000Y-40640000D03*
X173990000Y-40640000D03*
X176530000Y-40640000D03*
X153670000Y-38100000D03*
X156210000Y-38100000D03*
X158750000Y-38100000D03*
X161290000Y-38100000D03*
X163830000Y-38100000D03*
X166370000Y-38100000D03*
X168910000Y-38100000D03*
X171450000Y-38100000D03*
X173990000Y-38100000D03*
G36*
G01*
X175930000Y-37250000D02*
X177130000Y-37250000D01*
G75*
G02*
X177380000Y-37500000I0J-250000D01*
G01*
X177380000Y-38700000D01*
G75*
G02*
X177130000Y-38950000I-250000J0D01*
G01*
X175930000Y-38950000D01*
G75*
G02*
X175680000Y-38700000I0J250000D01*
G01*
X175680000Y-37500000D01*
G75*
G02*
X175930000Y-37250000I250000J0D01*
G01*
G37*
%TD*%
%TO.C,J9*%
G36*
G01*
X57430000Y-54240000D02*
X54330000Y-54240000D01*
G75*
G02*
X54080000Y-53990000I0J250000D01*
G01*
X54080000Y-52690000D01*
G75*
G02*
X54330000Y-52440000I250000J0D01*
G01*
X57430000Y-52440000D01*
G75*
G02*
X57680000Y-52690000I0J-250000D01*
G01*
X57680000Y-53990000D01*
G75*
G02*
X57430000Y-54240000I-250000J0D01*
G01*
G37*
D10*
X55880000Y-48260000D03*
%TD*%
D14*
%TO.C,J10*%
G36*
X109343646Y-77424128D02*
G01*
X108141564Y-76222046D01*
X109343646Y-75019964D01*
X110545728Y-76222046D01*
X109343646Y-77424128D01*
G37*
G36*
G01*
X110538656Y-78619138D02*
X110538656Y-78619138D01*
G75*
G02*
X110538656Y-77417056I601041J601041D01*
G01*
X110538656Y-77417056D01*
G75*
G02*
X111740738Y-77417056I601041J-601041D01*
G01*
X111740738Y-77417056D01*
G75*
G02*
X111740738Y-78619138I-601041J-601041D01*
G01*
X111740738Y-78619138D01*
G75*
G02*
X110538656Y-78619138I-601041J601041D01*
G01*
G37*
G36*
G01*
X112334707Y-80415189D02*
X112334707Y-80415189D01*
G75*
G02*
X112334707Y-79213107I601041J601041D01*
G01*
X112334707Y-79213107D01*
G75*
G02*
X113536789Y-79213107I601041J-601041D01*
G01*
X113536789Y-79213107D01*
G75*
G02*
X113536789Y-80415189I-601041J-601041D01*
G01*
X113536789Y-80415189D01*
G75*
G02*
X112334707Y-80415189I-601041J601041D01*
G01*
G37*
G36*
G01*
X114130759Y-82211241D02*
X114130759Y-82211241D01*
G75*
G02*
X114130759Y-81009159I601041J601041D01*
G01*
X114130759Y-81009159D01*
G75*
G02*
X115332841Y-81009159I601041J-601041D01*
G01*
X115332841Y-81009159D01*
G75*
G02*
X115332841Y-82211241I-601041J-601041D01*
G01*
X115332841Y-82211241D01*
G75*
G02*
X114130759Y-82211241I-601041J601041D01*
G01*
G37*
%TD*%
D15*
%TO.C,L1*%
X92640600Y-53670200D03*
X83540600Y-53670200D03*
%TD*%
D16*
%TO.C,S1*%
X109982000Y-131390000D03*
X103482000Y-131390000D03*
X103482000Y-135890000D03*
D17*
X109982000Y-135890000D03*
%TD*%
%TO.C,S2*%
X82626200Y-100101400D03*
D16*
X89126200Y-100101400D03*
X89126200Y-104601400D03*
X82626200Y-104601400D03*
%TD*%
D18*
%TO.C,Y1*%
X108661200Y-125120400D03*
X105210519Y-121669719D03*
%TD*%
D19*
%TO.C,Y2*%
X98221800Y-114274600D03*
X99423882Y-115476682D03*
%TD*%
%TO.C,J11*%
G36*
G01*
X85490000Y-178645001D02*
X85490000Y-176954999D01*
G75*
G02*
X85739999Y-176705000I249999J0D01*
G01*
X86980001Y-176705000D01*
G75*
G02*
X87230000Y-176954999I0J-249999D01*
G01*
X87230000Y-178645001D01*
G75*
G02*
X86980001Y-178895000I-249999J0D01*
G01*
X85739999Y-178895000D01*
G75*
G02*
X85490000Y-178645001I0J249999D01*
G01*
G37*
D20*
X88900000Y-177800000D03*
X91440000Y-177800000D03*
%TD*%
%TO.C,J12*%
X80010000Y-177825400D03*
X77470000Y-177825400D03*
G36*
G01*
X74060000Y-178670401D02*
X74060000Y-176980399D01*
G75*
G02*
X74309999Y-176730400I249999J0D01*
G01*
X75550001Y-176730400D01*
G75*
G02*
X75800000Y-176980399I0J-249999D01*
G01*
X75800000Y-178670401D01*
G75*
G02*
X75550001Y-178920400I-249999J0D01*
G01*
X74309999Y-178920400D01*
G75*
G02*
X74060000Y-178670401I0J249999D01*
G01*
G37*
%TD*%
%TO.C,J13*%
G36*
G01*
X140100000Y-178645001D02*
X140100000Y-176954999D01*
G75*
G02*
X140349999Y-176705000I249999J0D01*
G01*
X141590001Y-176705000D01*
G75*
G02*
X141840000Y-176954999I0J-249999D01*
G01*
X141840000Y-178645001D01*
G75*
G02*
X141590001Y-178895000I-249999J0D01*
G01*
X140349999Y-178895000D01*
G75*
G02*
X140100000Y-178645001I0J249999D01*
G01*
G37*
X143510000Y-177800000D03*
X146050000Y-177800000D03*
X148590000Y-177800000D03*
%TD*%
%TO.C,J14*%
G36*
G01*
X154070000Y-178645001D02*
X154070000Y-176954999D01*
G75*
G02*
X154319999Y-176705000I249999J0D01*
G01*
X155560001Y-176705000D01*
G75*
G02*
X155810000Y-176954999I0J-249999D01*
G01*
X155810000Y-178645001D01*
G75*
G02*
X155560001Y-178895000I-249999J0D01*
G01*
X154319999Y-178895000D01*
G75*
G02*
X154070000Y-178645001I0J249999D01*
G01*
G37*
X157480000Y-177800000D03*
X160020000Y-177800000D03*
%TD*%
D16*
%TO.C,S3*%
X95250000Y-153090000D03*
X101750000Y-153090000D03*
X101750000Y-148590000D03*
D17*
X95250000Y-148590000D03*
%TD*%
%TO.C,S4*%
X144780000Y-167640000D03*
D16*
X138280000Y-167640000D03*
X138280000Y-163140000D03*
X144780000Y-163140000D03*
%TD*%
D21*
%TO.C,J15*%
X96520000Y-162560000D03*
D22*
X96520000Y-165100000D03*
X99060000Y-162560000D03*
X99060000Y-165100000D03*
%TD*%
D23*
%TO.C,R14*%
X86512400Y-64566800D03*
D24*
X66192400Y-64566800D03*
%TD*%
D25*
%TO.C,BT1*%
X110998000Y-59436000D03*
D26*
X130998000Y-59436000D03*
%TD*%
%TO.C,J16*%
G36*
G01*
X139049200Y-37250000D02*
X140249200Y-37250000D01*
G75*
G02*
X140499200Y-37500000I0J-250000D01*
G01*
X140499200Y-38700000D01*
G75*
G02*
X140249200Y-38950000I-250000J0D01*
G01*
X139049200Y-38950000D01*
G75*
G02*
X138799200Y-38700000I0J250000D01*
G01*
X138799200Y-37500000D01*
G75*
G02*
X139049200Y-37250000I250000J0D01*
G01*
G37*
D13*
X137109200Y-38100000D03*
X134569200Y-38100000D03*
X132029200Y-38100000D03*
X129489200Y-38100000D03*
X126949200Y-38100000D03*
X124409200Y-38100000D03*
X121869200Y-38100000D03*
X119329200Y-38100000D03*
X116789200Y-38100000D03*
X139649200Y-40640000D03*
X137109200Y-40640000D03*
X134569200Y-40640000D03*
X132029200Y-40640000D03*
X129489200Y-40640000D03*
X126949200Y-40640000D03*
X124409200Y-40640000D03*
X121869200Y-40640000D03*
X119329200Y-40640000D03*
X116789200Y-40640000D03*
%TD*%
D21*
%TO.C,J17*%
X61200000Y-179400000D03*
D22*
X63740000Y-179400000D03*
X66280000Y-179400000D03*
X68820000Y-179400000D03*
%TD*%
D21*
%TO.C,J18*%
X105000000Y-178600000D03*
D22*
X102460000Y-178600000D03*
X99920000Y-178600000D03*
X97380000Y-178600000D03*
%TD*%
M02*
