%TF.GenerationSoftware,KiCad,Pcbnew,(5.1.12)-1*%
%TF.CreationDate,2022-04-06T16:52:09+05:30*%
%TF.ProjectId,MCROCONTROLLER,4d43524f-434f-44e5-9452-4f4c4c45522e,rev?*%
%TF.SameCoordinates,Original*%
%TF.FileFunction,Copper,L1,Top*%
%TF.FilePolarity,Positive*%
%FSLAX46Y46*%
G04 Gerber Fmt 4.6, Leading zero omitted, Abs format (unit mm)*
G04 Created by KiCad (PCBNEW (5.1.12)-1) date 2022-04-06 16:52:09*
%MOMM*%
%LPD*%
G01*
G04 APERTURE LIST*
%TA.AperFunction,ComponentPad*%
%ADD10O,3.600000X1.800000*%
%TD*%
%TA.AperFunction,ComponentPad*%
%ADD11R,1.600000X1.600000*%
%TD*%
%TA.AperFunction,ComponentPad*%
%ADD12C,1.600000*%
%TD*%
%TA.AperFunction,SMDPad,CuDef*%
%ADD13R,2.199640X1.800860*%
%TD*%
%TA.AperFunction,ComponentPad*%
%ADD14C,1.700000*%
%TD*%
%TA.AperFunction,ComponentPad*%
%ADD15C,0.100000*%
%TD*%
%TA.AperFunction,ComponentPad*%
%ADD16R,3.600000X4.000000*%
%TD*%
%TA.AperFunction,SMDPad,CuDef*%
%ADD17R,2.000000X0.900000*%
%TD*%
%TA.AperFunction,SMDPad,CuDef*%
%ADD18R,0.900000X2.000000*%
%TD*%
%TA.AperFunction,SMDPad,CuDef*%
%ADD19R,5.000000X5.000000*%
%TD*%
%TA.AperFunction,ComponentPad*%
%ADD20C,2.200000*%
%TD*%
%TA.AperFunction,ComponentPad*%
%ADD21R,2.200000X2.200000*%
%TD*%
%TA.AperFunction,SMDPad,CuDef*%
%ADD22R,1.100000X4.600000*%
%TD*%
%TA.AperFunction,SMDPad,CuDef*%
%ADD23R,10.800000X9.400000*%
%TD*%
%TA.AperFunction,ComponentPad*%
%ADD24C,1.500000*%
%TD*%
%TA.AperFunction,ComponentPad*%
%ADD25C,1.000000*%
%TD*%
%TA.AperFunction,ComponentPad*%
%ADD26O,1.740000X2.190000*%
%TD*%
%TA.AperFunction,ComponentPad*%
%ADD27R,1.700000X1.700000*%
%TD*%
%TA.AperFunction,ComponentPad*%
%ADD28O,1.700000X1.700000*%
%TD*%
%TA.AperFunction,ComponentPad*%
%ADD29C,2.400000*%
%TD*%
%TA.AperFunction,ComponentPad*%
%ADD30O,2.400000X2.400000*%
%TD*%
%TA.AperFunction,ComponentPad*%
%ADD31R,2.100000X2.100000*%
%TD*%
%TA.AperFunction,ComponentPad*%
%ADD32C,2.100000*%
%TD*%
%TA.AperFunction,ViaPad*%
%ADD33C,0.800000*%
%TD*%
%TA.AperFunction,Conductor*%
%ADD34C,0.250000*%
%TD*%
%TA.AperFunction,Conductor*%
%ADD35C,0.254000*%
%TD*%
%TA.AperFunction,Conductor*%
%ADD36C,0.500000*%
%TD*%
%TA.AperFunction,Conductor*%
%ADD37C,1.500000*%
%TD*%
%TA.AperFunction,Conductor*%
%ADD38C,0.354000*%
%TD*%
%TA.AperFunction,Conductor*%
%ADD39C,1.000000*%
%TD*%
%TA.AperFunction,Conductor*%
%ADD40C,0.200000*%
%TD*%
%TA.AperFunction,Conductor*%
%ADD41C,0.800000*%
%TD*%
%TA.AperFunction,Conductor*%
%ADD42C,2.000000*%
%TD*%
%TA.AperFunction,Conductor*%
%ADD43C,0.100000*%
%TD*%
G04 APERTURE END LIST*
%TO.P,J7,1*%
%TO.N,GNDREF*%
%TA.AperFunction,ComponentPad*%
G36*
G01*
X184938000Y-77100000D02*
X181838000Y-77100000D01*
G75*
G02*
X181588000Y-76850000I0J250000D01*
G01*
X181588000Y-75550000D01*
G75*
G02*
X181838000Y-75300000I250000J0D01*
G01*
X184938000Y-75300000D01*
G75*
G02*
X185188000Y-75550000I0J-250000D01*
G01*
X185188000Y-76850000D01*
G75*
G02*
X184938000Y-77100000I-250000J0D01*
G01*
G37*
%TD.AperFunction*%
D10*
%TO.P,J7,2*%
%TO.N,AC_CONTROL*%
X183388000Y-71120000D03*
%TO.P,J7,3*%
%TO.N,COMPRESSOR_CONTROL*%
X183388000Y-66040000D03*
%TO.P,J7,4*%
%TO.N,MIXER1*%
X183388000Y-60960000D03*
%TO.P,J7,5*%
%TO.N,Net-(J7-Pad5)*%
X183388000Y-55880000D03*
%TD*%
D11*
%TO.P,C1,1*%
%TO.N,Net-(C1-Pad1)*%
X64008000Y-53086000D03*
D12*
%TO.P,C1,2*%
%TO.N,Net-(C1-Pad2)*%
X64008000Y-48086000D03*
%TD*%
%TO.P,C3,2*%
%TO.N,Net-(C1-Pad2)*%
X87456000Y-38354000D03*
D11*
%TO.P,C3,1*%
%TO.N,Net-(C3-Pad1)*%
X92456000Y-38354000D03*
%TD*%
%TO.P,C5,2*%
%TO.N,GNDREF*%
%TA.AperFunction,SMDPad,CuDef*%
G36*
G01*
X112322800Y-135440000D02*
X112822800Y-135440000D01*
G75*
G02*
X113047800Y-135665000I0J-225000D01*
G01*
X113047800Y-136115000D01*
G75*
G02*
X112822800Y-136340000I-225000J0D01*
G01*
X112322800Y-136340000D01*
G75*
G02*
X112097800Y-136115000I0J225000D01*
G01*
X112097800Y-135665000D01*
G75*
G02*
X112322800Y-135440000I225000J0D01*
G01*
G37*
%TD.AperFunction*%
%TO.P,C5,1*%
%TO.N,NRST*%
%TA.AperFunction,SMDPad,CuDef*%
G36*
G01*
X112322800Y-133890000D02*
X112822800Y-133890000D01*
G75*
G02*
X113047800Y-134115000I0J-225000D01*
G01*
X113047800Y-134565000D01*
G75*
G02*
X112822800Y-134790000I-225000J0D01*
G01*
X112322800Y-134790000D01*
G75*
G02*
X112097800Y-134565000I0J225000D01*
G01*
X112097800Y-134115000D01*
G75*
G02*
X112322800Y-133890000I225000J0D01*
G01*
G37*
%TD.AperFunction*%
%TD*%
D13*
%TO.P,D1,1*%
%TO.N,Net-(C1-Pad2)*%
X73152000Y-57785000D03*
%TO.P,D1,2*%
%TO.N,Net-(D1-Pad2)*%
X73152000Y-53771800D03*
%TD*%
%TO.P,J1,1*%
%TO.N,U1_TRIG*%
%TA.AperFunction,ComponentPad*%
G36*
G01*
X55030000Y-71720000D02*
X55030000Y-70520000D01*
G75*
G02*
X55280000Y-70270000I250000J0D01*
G01*
X56480000Y-70270000D01*
G75*
G02*
X56730000Y-70520000I0J-250000D01*
G01*
X56730000Y-71720000D01*
G75*
G02*
X56480000Y-71970000I-250000J0D01*
G01*
X55280000Y-71970000D01*
G75*
G02*
X55030000Y-71720000I0J250000D01*
G01*
G37*
%TD.AperFunction*%
D14*
%TO.P,J1,3*%
%TO.N,U2_TRIG*%
X55880000Y-73660000D03*
%TO.P,J1,5*%
%TO.N,U3_TRIG*%
X55880000Y-76200000D03*
%TO.P,J1,7*%
%TO.N,U4_TRIG*%
X55880000Y-78740000D03*
%TO.P,J1,9*%
%TO.N,U5_TRIG*%
X55880000Y-81280000D03*
%TO.P,J1,11*%
%TO.N,U6_TRIG*%
X55880000Y-83820000D03*
%TO.P,J1,13*%
%TO.N,U7_TRIG*%
X55880000Y-86360000D03*
%TO.P,J1,15*%
%TO.N,U8_TRIG*%
X55880000Y-88900000D03*
%TO.P,J1,17*%
%TO.N,U9_TRIG*%
X55880000Y-91440000D03*
%TO.P,J1,19*%
%TO.N,GNDREF*%
X55880000Y-93980000D03*
%TO.P,J1,2*%
%TO.N,U1_ECHO*%
X58420000Y-71120000D03*
%TO.P,J1,4*%
%TO.N,U2_ECHO*%
X58420000Y-73660000D03*
%TO.P,J1,6*%
%TO.N,U3_ECHO*%
X58420000Y-76200000D03*
%TO.P,J1,8*%
%TO.N,U4_ECHO*%
X58420000Y-78740000D03*
%TO.P,J1,10*%
%TO.N,U5_ECHO*%
X58420000Y-81280000D03*
%TO.P,J1,12*%
%TO.N,U6_ECHO*%
X58420000Y-83820000D03*
%TO.P,J1,14*%
%TO.N,U7_ECHO*%
X58420000Y-86360000D03*
%TO.P,J1,16*%
%TO.N,U8_ECHO*%
X58420000Y-88900000D03*
%TO.P,J1,18*%
%TO.N,U9_ECHO*%
X58420000Y-91440000D03*
%TO.P,J1,20*%
%TO.N,GNDREF*%
X58420000Y-93980000D03*
%TD*%
%TO.P,J2,20*%
%TO.N,GNDREF*%
X58420000Y-132080000D03*
%TO.P,J2,18*%
%TO.N,Net-(J2-Pad18)*%
X58420000Y-129540000D03*
%TO.P,J2,16*%
%TO.N,Net-(J2-Pad16)*%
X58420000Y-127000000D03*
%TO.P,J2,14*%
%TO.N,Net-(J2-Pad14)*%
X58420000Y-124460000D03*
%TO.P,J2,12*%
%TO.N,Net-(J2-Pad12)*%
X58420000Y-121920000D03*
%TO.P,J2,10*%
%TO.N,Net-(J2-Pad10)*%
X58420000Y-119380000D03*
%TO.P,J2,8*%
%TO.N,U13_ECHO*%
X58420000Y-116840000D03*
%TO.P,J2,6*%
%TO.N,U12_ECHO*%
X58420000Y-114300000D03*
%TO.P,J2,4*%
%TO.N,U11_ECHO*%
X58420000Y-111760000D03*
%TO.P,J2,2*%
%TO.N,U10_ECHO*%
X58420000Y-109220000D03*
%TO.P,J2,19*%
%TO.N,GNDREF*%
X55880000Y-132080000D03*
%TO.P,J2,17*%
%TO.N,Net-(J2-Pad17)*%
X55880000Y-129540000D03*
%TO.P,J2,15*%
%TO.N,Net-(J2-Pad15)*%
X55880000Y-127000000D03*
%TO.P,J2,13*%
%TO.N,Net-(J2-Pad13)*%
X55880000Y-124460000D03*
%TO.P,J2,11*%
%TO.N,Net-(J2-Pad11)*%
X55880000Y-121920000D03*
%TO.P,J2,9*%
%TO.N,Net-(J2-Pad9)*%
X55880000Y-119380000D03*
%TO.P,J2,7*%
%TO.N,U13_TRIG*%
X55880000Y-116840000D03*
%TO.P,J2,5*%
%TO.N,U12_TRIG*%
X55880000Y-114300000D03*
%TO.P,J2,3*%
%TO.N,U11_TRIG*%
X55880000Y-111760000D03*
%TO.P,J2,1*%
%TO.N,U10_TRIG*%
%TA.AperFunction,ComponentPad*%
G36*
G01*
X55030000Y-109820000D02*
X55030000Y-108620000D01*
G75*
G02*
X55280000Y-108370000I250000J0D01*
G01*
X56480000Y-108370000D01*
G75*
G02*
X56730000Y-108620000I0J-250000D01*
G01*
X56730000Y-109820000D01*
G75*
G02*
X56480000Y-110070000I-250000J0D01*
G01*
X55280000Y-110070000D01*
G75*
G02*
X55030000Y-109820000I0J250000D01*
G01*
G37*
%TD.AperFunction*%
%TD*%
%TO.P,J3,1*%
%TO.N,V1*%
%TA.AperFunction,ComponentPad*%
G36*
G01*
X183730000Y-112430000D02*
X183730000Y-113630000D01*
G75*
G02*
X183480000Y-113880000I-250000J0D01*
G01*
X182280000Y-113880000D01*
G75*
G02*
X182030000Y-113630000I0J250000D01*
G01*
X182030000Y-112430000D01*
G75*
G02*
X182280000Y-112180000I250000J0D01*
G01*
X183480000Y-112180000D01*
G75*
G02*
X183730000Y-112430000I0J-250000D01*
G01*
G37*
%TD.AperFunction*%
%TO.P,J3,3*%
%TO.N,V3*%
X182880000Y-110490000D03*
%TO.P,J3,5*%
%TO.N,V5*%
X182880000Y-107950000D03*
%TO.P,J3,7*%
%TO.N,PMP1*%
X182880000Y-105410000D03*
%TO.P,J3,9*%
%TO.N,PMP3*%
X182880000Y-102870000D03*
%TO.P,J3,11*%
%TO.N,PMP5*%
X182880000Y-100330000D03*
%TO.P,J3,13*%
%TO.N,VLV1*%
X182880000Y-97790000D03*
%TO.P,J3,15*%
%TO.N,VLV3*%
X182880000Y-95250000D03*
%TO.P,J3,17*%
%TO.N,VLV5*%
X182880000Y-92710000D03*
%TO.P,J3,19*%
%TO.N,GNDREF*%
X182880000Y-90170000D03*
%TO.P,J3,2*%
%TO.N,V2*%
X180340000Y-113030000D03*
%TO.P,J3,4*%
%TO.N,V4*%
X180340000Y-110490000D03*
%TO.P,J3,6*%
%TO.N,V6*%
X180340000Y-107950000D03*
%TO.P,J3,8*%
%TO.N,PMP2*%
X180340000Y-105410000D03*
%TO.P,J3,10*%
%TO.N,PMP4*%
X180340000Y-102870000D03*
%TO.P,J3,12*%
%TO.N,PMP6*%
X180340000Y-100330000D03*
%TO.P,J3,14*%
%TO.N,VLV2*%
X180340000Y-97790000D03*
%TO.P,J3,16*%
%TO.N,VLV4*%
X180340000Y-95250000D03*
%TO.P,J3,18*%
%TO.N,VLV6*%
X180340000Y-92710000D03*
%TO.P,J3,20*%
%TO.N,Net-(J3-Pad20)*%
X180340000Y-90170000D03*
%TD*%
%TO.P,J4,1*%
%TO.N,M3*%
%TA.AperFunction,ComponentPad*%
G36*
G01*
X55030000Y-146650000D02*
X55030000Y-145450000D01*
G75*
G02*
X55280000Y-145200000I250000J0D01*
G01*
X56480000Y-145200000D01*
G75*
G02*
X56730000Y-145450000I0J-250000D01*
G01*
X56730000Y-146650000D01*
G75*
G02*
X56480000Y-146900000I-250000J0D01*
G01*
X55280000Y-146900000D01*
G75*
G02*
X55030000Y-146650000I0J250000D01*
G01*
G37*
%TD.AperFunction*%
%TO.P,J4,3*%
%TO.N,M5*%
X55880000Y-148590000D03*
%TO.P,J4,5*%
%TO.N,M8*%
X55880000Y-151130000D03*
%TO.P,J4,7*%
%TO.N,M9*%
X55880000Y-153670000D03*
%TO.P,J4,9*%
%TO.N,M1-*%
X55880000Y-156210000D03*
%TO.P,J4,11*%
%TO.N,M2-*%
X55880000Y-158750000D03*
%TO.P,J4,13*%
%TO.N,M11*%
X55880000Y-161290000D03*
%TO.P,J4,15*%
%TO.N,M13*%
X55880000Y-163830000D03*
%TO.P,J4,17*%
%TO.N,M15*%
X55880000Y-166370000D03*
%TO.P,J4,19*%
%TO.N,GNDREF*%
X55880000Y-168910000D03*
%TO.P,J4,2*%
%TO.N,M4*%
X58420000Y-146050000D03*
%TO.P,J4,4*%
%TO.N,M6*%
X58420000Y-148590000D03*
%TO.P,J4,6*%
%TO.N,M7*%
X58420000Y-151130000D03*
%TO.P,J4,8*%
%TO.N,M1+*%
X58420000Y-153670000D03*
%TO.P,J4,10*%
%TO.N,M2+*%
X58420000Y-156210000D03*
%TO.P,J4,12*%
%TO.N,M10*%
X58420000Y-158750000D03*
%TO.P,J4,14*%
%TO.N,M12*%
X58420000Y-161290000D03*
%TO.P,J4,16*%
%TO.N,M14*%
X58420000Y-163830000D03*
%TO.P,J4,18*%
%TO.N,Net-(J4-Pad18)*%
X58420000Y-166370000D03*
%TO.P,J4,20*%
%TO.N,Net-(J4-Pad20)*%
X58420000Y-168910000D03*
%TD*%
%TO.P,J5,20*%
%TO.N,Net-(J5-Pad20)*%
X182880000Y-151130000D03*
%TO.P,J5,18*%
%TO.N,Net-(J5-Pad18)*%
X182880000Y-148590000D03*
%TO.P,J5,16*%
%TO.N,Net-(J5-Pad16)*%
X182880000Y-146050000D03*
%TO.P,J5,14*%
%TO.N,ADC1_INP10*%
X182880000Y-143510000D03*
%TO.P,J5,12*%
%TO.N,ADC1_INP14*%
X182880000Y-140970000D03*
%TO.P,J5,10*%
%TO.N,ADC1_INP19*%
X182880000Y-138430000D03*
%TO.P,J5,8*%
%TO.N,ADC1_INP7*%
X182880000Y-135890000D03*
%TO.P,J5,6*%
%TO.N,ADC1_INP8*%
X182880000Y-133350000D03*
%TO.P,J5,4*%
%TO.N,ADC1_INP5*%
X182880000Y-130810000D03*
%TO.P,J5,2*%
%TO.N,ADC1_INP6*%
X182880000Y-128270000D03*
%TO.P,J5,19*%
%TO.N,GNDREF*%
X180340000Y-151130000D03*
%TO.P,J5,17*%
X180340000Y-148590000D03*
%TO.P,J5,15*%
%TO.N,Net-(J5-Pad15)*%
X180340000Y-146050000D03*
%TO.P,J5,13*%
%TO.N,ADC1_INP11*%
X180340000Y-143510000D03*
%TO.P,J5,11*%
%TO.N,ADC1_INP17*%
X180340000Y-140970000D03*
%TO.P,J5,9*%
%TO.N,ADC1_INP15*%
X180340000Y-138430000D03*
%TO.P,J5,7*%
%TO.N,ADC1_INP3*%
X180340000Y-135890000D03*
%TO.P,J5,5*%
%TO.N,ADC1_INP4*%
X180340000Y-133350000D03*
%TO.P,J5,3*%
%TO.N,ADC1_INP9*%
X180340000Y-130810000D03*
%TO.P,J5,1*%
%TO.N,ADC1_INP2*%
%TA.AperFunction,ComponentPad*%
G36*
G01*
X179490000Y-128870000D02*
X179490000Y-127670000D01*
G75*
G02*
X179740000Y-127420000I250000J0D01*
G01*
X180940000Y-127420000D01*
G75*
G02*
X181190000Y-127670000I0J-250000D01*
G01*
X181190000Y-128870000D01*
G75*
G02*
X180940000Y-129120000I-250000J0D01*
G01*
X179740000Y-129120000D01*
G75*
G02*
X179490000Y-128870000I0J250000D01*
G01*
G37*
%TD.AperFunction*%
%TD*%
%TO.P,J6,1*%
%TO.N,Net-(J6-Pad1)*%
%TA.AperFunction,ComponentPad*%
G36*
G01*
X180314000Y-162930000D02*
X183414000Y-162930000D01*
G75*
G02*
X183664000Y-163180000I0J-250000D01*
G01*
X183664000Y-164480000D01*
G75*
G02*
X183414000Y-164730000I-250000J0D01*
G01*
X180314000Y-164730000D01*
G75*
G02*
X180064000Y-164480000I0J250000D01*
G01*
X180064000Y-163180000D01*
G75*
G02*
X180314000Y-162930000I250000J0D01*
G01*
G37*
%TD.AperFunction*%
D10*
%TO.P,J6,2*%
%TO.N,MIXER3*%
X181864000Y-168910000D03*
%TO.P,J6,3*%
%TO.N,MIXER2*%
X181864000Y-173990000D03*
%TD*%
D14*
%TO.P,J8,20*%
%TO.N,Net-(J8-Pad20)*%
X153670000Y-40640000D03*
%TO.P,J8,18*%
%TO.N,GNDREF*%
X156210000Y-40640000D03*
%TO.P,J8,16*%
%TO.N,S16*%
X158750000Y-40640000D03*
%TO.P,J8,14*%
%TO.N,S14*%
X161290000Y-40640000D03*
%TO.P,J8,12*%
%TO.N,S12*%
X163830000Y-40640000D03*
%TO.P,J8,10*%
%TO.N,S10*%
X166370000Y-40640000D03*
%TO.P,J8,8*%
%TO.N,S8*%
X168910000Y-40640000D03*
%TO.P,J8,6*%
%TO.N,S6*%
X171450000Y-40640000D03*
%TO.P,J8,4*%
%TO.N,S4*%
X173990000Y-40640000D03*
%TO.P,J8,2*%
%TO.N,S2*%
X176530000Y-40640000D03*
%TO.P,J8,19*%
%TO.N,Net-(J8-Pad19)*%
X153670000Y-38100000D03*
%TO.P,J8,17*%
%TO.N,+3V3*%
X156210000Y-38100000D03*
%TO.P,J8,15*%
%TO.N,S15*%
X158750000Y-38100000D03*
%TO.P,J8,13*%
%TO.N,S13*%
X161290000Y-38100000D03*
%TO.P,J8,11*%
%TO.N,S11*%
X163830000Y-38100000D03*
%TO.P,J8,9*%
%TO.N,S9*%
X166370000Y-38100000D03*
%TO.P,J8,7*%
%TO.N,S7*%
X168910000Y-38100000D03*
%TO.P,J8,5*%
%TO.N,S5*%
X171450000Y-38100000D03*
%TO.P,J8,3*%
%TO.N,S3*%
X173990000Y-38100000D03*
%TO.P,J8,1*%
%TO.N,S1*%
%TA.AperFunction,ComponentPad*%
G36*
G01*
X175930000Y-37250000D02*
X177130000Y-37250000D01*
G75*
G02*
X177380000Y-37500000I0J-250000D01*
G01*
X177380000Y-38700000D01*
G75*
G02*
X177130000Y-38950000I-250000J0D01*
G01*
X175930000Y-38950000D01*
G75*
G02*
X175680000Y-38700000I0J250000D01*
G01*
X175680000Y-37500000D01*
G75*
G02*
X175930000Y-37250000I250000J0D01*
G01*
G37*
%TD.AperFunction*%
%TD*%
%TO.P,J9,1*%
%TO.N,Net-(C1-Pad1)*%
%TA.AperFunction,ComponentPad*%
G36*
G01*
X57430000Y-54240000D02*
X54330000Y-54240000D01*
G75*
G02*
X54080000Y-53990000I0J250000D01*
G01*
X54080000Y-52690000D01*
G75*
G02*
X54330000Y-52440000I250000J0D01*
G01*
X57430000Y-52440000D01*
G75*
G02*
X57680000Y-52690000I0J-250000D01*
G01*
X57680000Y-53990000D01*
G75*
G02*
X57430000Y-54240000I-250000J0D01*
G01*
G37*
%TD.AperFunction*%
D10*
%TO.P,J9,2*%
%TO.N,Net-(C1-Pad2)*%
X55880000Y-48260000D03*
%TD*%
%TA.AperFunction,ComponentPad*%
D15*
%TO.P,J10,1*%
%TO.N,GNDREF*%
G36*
X109343646Y-77424128D02*
G01*
X108141564Y-76222046D01*
X109343646Y-75019964D01*
X110545728Y-76222046D01*
X109343646Y-77424128D01*
G37*
%TD.AperFunction*%
%TO.P,J10,2*%
%TO.N,DEBUG_JTCK_SWCLK*%
%TA.AperFunction,ComponentPad*%
G36*
G01*
X110538656Y-78619138D02*
X110538656Y-78619138D01*
G75*
G02*
X110538656Y-77417056I601041J601041D01*
G01*
X110538656Y-77417056D01*
G75*
G02*
X111740738Y-77417056I601041J-601041D01*
G01*
X111740738Y-77417056D01*
G75*
G02*
X111740738Y-78619138I-601041J-601041D01*
G01*
X111740738Y-78619138D01*
G75*
G02*
X110538656Y-78619138I-601041J601041D01*
G01*
G37*
%TD.AperFunction*%
%TO.P,J10,3*%
%TO.N,DEBUG_JTMS-SWDIO*%
%TA.AperFunction,ComponentPad*%
G36*
G01*
X112334707Y-80415189D02*
X112334707Y-80415189D01*
G75*
G02*
X112334707Y-79213107I601041J601041D01*
G01*
X112334707Y-79213107D01*
G75*
G02*
X113536789Y-79213107I601041J-601041D01*
G01*
X113536789Y-79213107D01*
G75*
G02*
X113536789Y-80415189I-601041J-601041D01*
G01*
X113536789Y-80415189D01*
G75*
G02*
X112334707Y-80415189I-601041J601041D01*
G01*
G37*
%TD.AperFunction*%
%TO.P,J10,4*%
%TO.N,+3V3*%
%TA.AperFunction,ComponentPad*%
G36*
G01*
X114130759Y-82211241D02*
X114130759Y-82211241D01*
G75*
G02*
X114130759Y-81009159I601041J601041D01*
G01*
X114130759Y-81009159D01*
G75*
G02*
X115332841Y-81009159I601041J-601041D01*
G01*
X115332841Y-81009159D01*
G75*
G02*
X115332841Y-82211241I-601041J-601041D01*
G01*
X115332841Y-82211241D01*
G75*
G02*
X114130759Y-82211241I-601041J601041D01*
G01*
G37*
%TD.AperFunction*%
%TD*%
D16*
%TO.P,L1,2*%
%TO.N,Net-(C3-Pad1)*%
X92640600Y-53670200D03*
%TO.P,L1,1*%
%TO.N,Net-(D1-Pad2)*%
X83540600Y-53670200D03*
%TD*%
D17*
%TO.P,MOD1,1*%
%TO.N,GNDD*%
X127880000Y-173355000D03*
D18*
%TO.P,MOD1,15*%
X125095000Y-155845000D03*
%TO.P,MOD1,16*%
%TO.N,Net-(MOD1-Pad16)*%
X123825000Y-155845000D03*
%TO.P,MOD1,17*%
%TO.N,Net-(J18-Pad2)*%
X122555000Y-155845000D03*
%TO.P,MOD1,18*%
%TO.N,Net-(J18-Pad3)*%
X121285000Y-155845000D03*
%TO.P,MOD1,19*%
%TO.N,Net-(MOD1-Pad19)*%
X120015000Y-155845000D03*
%TO.P,MOD1,20*%
%TO.N,Net-(MOD1-Pad20)*%
X118745000Y-155845000D03*
%TO.P,MOD1,21*%
%TO.N,Net-(MOD1-Pad21)*%
X117475000Y-155845000D03*
%TO.P,MOD1,22*%
%TO.N,Net-(MOD1-Pad22)*%
X116205000Y-155845000D03*
%TO.P,MOD1,23*%
%TO.N,Net-(MOD1-Pad23)*%
X114935000Y-155845000D03*
%TO.P,MOD1,24*%
%TO.N,Net-(MOD1-Pad24)*%
X113665000Y-155845000D03*
D17*
%TO.P,MOD1,2*%
%TO.N,+3V8*%
X127880000Y-172085000D03*
%TO.P,MOD1,3*%
%TO.N,EN*%
X127880000Y-170815000D03*
%TO.P,MOD1,4*%
%TO.N,MQ-3*%
X127880000Y-169545000D03*
%TO.P,MOD1,5*%
%TO.N,Net-(MOD1-Pad5)*%
X127880000Y-168275000D03*
%TO.P,MOD1,6*%
%TO.N,Net-(MOD1-Pad6)*%
X127880000Y-167005000D03*
%TO.P,MOD1,7*%
%TO.N,Pressures_sensor*%
X127880000Y-165735000D03*
%TO.P,MOD1,8*%
%TO.N,Net-(MOD1-Pad8)*%
X127880000Y-164465000D03*
%TO.P,MOD1,9*%
%TO.N,Net-(MOD1-Pad9)*%
X127880000Y-163195000D03*
%TO.P,MOD1,10*%
%TO.N,Net-(MOD1-Pad10)*%
X127880000Y-161925000D03*
%TO.P,MOD1,11*%
%TO.N,Net-(MOD1-Pad11)*%
X127880000Y-160655000D03*
%TO.P,MOD1,12*%
%TO.N,Net-(MOD1-Pad12)*%
X127880000Y-159385000D03*
%TO.P,MOD1,13*%
%TO.N,COMPRESSOR_CONTROL*%
X127880000Y-158115000D03*
%TO.P,MOD1,14*%
%TO.N,AC_CONTROL*%
X127880000Y-156845000D03*
%TO.P,MOD1,38*%
%TO.N,GNDD*%
X110880000Y-173355000D03*
%TO.P,MOD1,37*%
%TO.N,Net-(MOD1-Pad37)*%
X110880000Y-172085000D03*
%TO.P,MOD1,36*%
%TO.N,Net-(MOD1-Pad36)*%
X110880000Y-170815000D03*
%TO.P,MOD1,35*%
%TO.N,Net-(J15-Pad2)*%
X110880000Y-169545000D03*
%TO.P,MOD1,34*%
%TO.N,Net-(J15-Pad3)*%
X110880000Y-168275000D03*
%TO.P,MOD1,33*%
%TO.N,Net-(MOD1-Pad33)*%
X110880000Y-167005000D03*
%TO.P,MOD1,32*%
%TO.N,Net-(MOD1-Pad32)*%
X110880000Y-165735000D03*
%TO.P,MOD1,31*%
%TO.N,Net-(MOD1-Pad31)*%
X110880000Y-164465000D03*
%TO.P,MOD1,30*%
%TO.N,Net-(MOD1-Pad30)*%
X110880000Y-163195000D03*
%TO.P,MOD1,29*%
%TO.N,Net-(MOD1-Pad29)*%
X110880000Y-161925000D03*
%TO.P,MOD1,28*%
%TO.N,Net-(MOD1-Pad28)*%
X110880000Y-160655000D03*
%TO.P,MOD1,27*%
%TO.N,Net-(MOD1-Pad27)*%
X110880000Y-159385000D03*
%TO.P,MOD1,26*%
%TO.N,Net-(MOD1-Pad26)*%
X110880000Y-158115000D03*
%TO.P,MOD1,25*%
%TO.N,IO_0*%
X110880000Y-156845000D03*
D19*
%TO.P,MOD1,39*%
%TO.N,GNDD*%
X120380000Y-166855000D03*
%TD*%
%TO.P,R2,2*%
%TO.N,+3V3*%
%TA.AperFunction,SMDPad,CuDef*%
G36*
G01*
X113849200Y-131643800D02*
X113849200Y-131093800D01*
G75*
G02*
X114049200Y-130893800I200000J0D01*
G01*
X114449200Y-130893800D01*
G75*
G02*
X114649200Y-131093800I0J-200000D01*
G01*
X114649200Y-131643800D01*
G75*
G02*
X114449200Y-131843800I-200000J0D01*
G01*
X114049200Y-131843800D01*
G75*
G02*
X113849200Y-131643800I0J200000D01*
G01*
G37*
%TD.AperFunction*%
%TO.P,R2,1*%
%TO.N,NRST*%
%TA.AperFunction,SMDPad,CuDef*%
G36*
G01*
X112199200Y-131643800D02*
X112199200Y-131093800D01*
G75*
G02*
X112399200Y-130893800I200000J0D01*
G01*
X112799200Y-130893800D01*
G75*
G02*
X112999200Y-131093800I0J-200000D01*
G01*
X112999200Y-131643800D01*
G75*
G02*
X112799200Y-131843800I-200000J0D01*
G01*
X112399200Y-131843800D01*
G75*
G02*
X112199200Y-131643800I0J200000D01*
G01*
G37*
%TD.AperFunction*%
%TD*%
%TO.P,R3,1*%
%TO.N,GNDREF*%
%TA.AperFunction,SMDPad,CuDef*%
G36*
G01*
X93874000Y-102049800D02*
X93324000Y-102049800D01*
G75*
G02*
X93124000Y-101849800I0J200000D01*
G01*
X93124000Y-101449800D01*
G75*
G02*
X93324000Y-101249800I200000J0D01*
G01*
X93874000Y-101249800D01*
G75*
G02*
X94074000Y-101449800I0J-200000D01*
G01*
X94074000Y-101849800D01*
G75*
G02*
X93874000Y-102049800I-200000J0D01*
G01*
G37*
%TD.AperFunction*%
%TO.P,R3,2*%
%TO.N,Net-(R3-Pad2)*%
%TA.AperFunction,SMDPad,CuDef*%
G36*
G01*
X93874000Y-100399800D02*
X93324000Y-100399800D01*
G75*
G02*
X93124000Y-100199800I0J200000D01*
G01*
X93124000Y-99799800D01*
G75*
G02*
X93324000Y-99599800I200000J0D01*
G01*
X93874000Y-99599800D01*
G75*
G02*
X94074000Y-99799800I0J-200000D01*
G01*
X94074000Y-100199800D01*
G75*
G02*
X93874000Y-100399800I-200000J0D01*
G01*
G37*
%TD.AperFunction*%
%TD*%
D20*
%TO.P,S1,3*%
%TO.N,NRST*%
X109982000Y-131390000D03*
%TO.P,S1,4*%
X103482000Y-131390000D03*
%TO.P,S1,2*%
%TO.N,GNDREF*%
X103482000Y-135890000D03*
D21*
%TO.P,S1,1*%
X109982000Y-135890000D03*
%TD*%
%TO.P,S2,1*%
%TO.N,Net-(R3-Pad2)*%
X82626200Y-100101400D03*
D20*
%TO.P,S2,2*%
X89126200Y-100101400D03*
%TO.P,S2,4*%
%TO.N,+3V3*%
X89126200Y-104601400D03*
%TO.P,S2,3*%
X82626200Y-104601400D03*
%TD*%
%TO.P,U1,1*%
%TO.N,M1+*%
%TA.AperFunction,SMDPad,CuDef*%
G36*
G01*
X103914832Y-106066866D02*
X103808766Y-105960800D01*
G75*
G02*
X103808766Y-105854734I53033J53033D01*
G01*
X104745682Y-104917818D01*
G75*
G02*
X104851748Y-104917818I53033J-53033D01*
G01*
X104957814Y-105023884D01*
G75*
G02*
X104957814Y-105129950I-53033J-53033D01*
G01*
X104020898Y-106066866D01*
G75*
G02*
X103914832Y-106066866I-53033J53033D01*
G01*
G37*
%TD.AperFunction*%
%TO.P,U1,2*%
%TO.N,M1-*%
%TA.AperFunction,SMDPad,CuDef*%
G36*
G01*
X104268385Y-106420419D02*
X104162319Y-106314353D01*
G75*
G02*
X104162319Y-106208287I53033J53033D01*
G01*
X105099235Y-105271371D01*
G75*
G02*
X105205301Y-105271371I53033J-53033D01*
G01*
X105311367Y-105377437D01*
G75*
G02*
X105311367Y-105483503I-53033J-53033D01*
G01*
X104374451Y-106420419D01*
G75*
G02*
X104268385Y-106420419I-53033J53033D01*
G01*
G37*
%TD.AperFunction*%
%TO.P,U1,3*%
%TO.N,M2+*%
%TA.AperFunction,SMDPad,CuDef*%
G36*
G01*
X104621938Y-106773973D02*
X104515872Y-106667907D01*
G75*
G02*
X104515872Y-106561841I53033J53033D01*
G01*
X105452788Y-105624925D01*
G75*
G02*
X105558854Y-105624925I53033J-53033D01*
G01*
X105664920Y-105730991D01*
G75*
G02*
X105664920Y-105837057I-53033J-53033D01*
G01*
X104728004Y-106773973D01*
G75*
G02*
X104621938Y-106773973I-53033J53033D01*
G01*
G37*
%TD.AperFunction*%
%TO.P,U1,4*%
%TO.N,M2-*%
%TA.AperFunction,SMDPad,CuDef*%
G36*
G01*
X104975492Y-107127526D02*
X104869426Y-107021460D01*
G75*
G02*
X104869426Y-106915394I53033J53033D01*
G01*
X105806342Y-105978478D01*
G75*
G02*
X105912408Y-105978478I53033J-53033D01*
G01*
X106018474Y-106084544D01*
G75*
G02*
X106018474Y-106190610I-53033J-53033D01*
G01*
X105081558Y-107127526D01*
G75*
G02*
X104975492Y-107127526I-53033J53033D01*
G01*
G37*
%TD.AperFunction*%
%TO.P,U1,5*%
%TO.N,M3*%
%TA.AperFunction,SMDPad,CuDef*%
G36*
G01*
X105329045Y-107481079D02*
X105222979Y-107375013D01*
G75*
G02*
X105222979Y-107268947I53033J53033D01*
G01*
X106159895Y-106332031D01*
G75*
G02*
X106265961Y-106332031I53033J-53033D01*
G01*
X106372027Y-106438097D01*
G75*
G02*
X106372027Y-106544163I-53033J-53033D01*
G01*
X105435111Y-107481079D01*
G75*
G02*
X105329045Y-107481079I-53033J53033D01*
G01*
G37*
%TD.AperFunction*%
%TO.P,U1,6*%
%TO.N,Net-(BT1-Pad1)*%
%TA.AperFunction,SMDPad,CuDef*%
G36*
G01*
X105682599Y-107834633D02*
X105576533Y-107728567D01*
G75*
G02*
X105576533Y-107622501I53033J53033D01*
G01*
X106513449Y-106685585D01*
G75*
G02*
X106619515Y-106685585I53033J-53033D01*
G01*
X106725581Y-106791651D01*
G75*
G02*
X106725581Y-106897717I-53033J-53033D01*
G01*
X105788665Y-107834633D01*
G75*
G02*
X105682599Y-107834633I-53033J53033D01*
G01*
G37*
%TD.AperFunction*%
%TO.P,U1,7*%
%TO.N,M4*%
%TA.AperFunction,SMDPad,CuDef*%
G36*
G01*
X106036152Y-108188186D02*
X105930086Y-108082120D01*
G75*
G02*
X105930086Y-107976054I53033J53033D01*
G01*
X106867002Y-107039138D01*
G75*
G02*
X106973068Y-107039138I53033J-53033D01*
G01*
X107079134Y-107145204D01*
G75*
G02*
X107079134Y-107251270I-53033J-53033D01*
G01*
X106142218Y-108188186D01*
G75*
G02*
X106036152Y-108188186I-53033J53033D01*
G01*
G37*
%TD.AperFunction*%
%TO.P,U1,8*%
%TO.N,Net-(C8-Pad1)*%
%TA.AperFunction,SMDPad,CuDef*%
G36*
G01*
X106389705Y-108541739D02*
X106283639Y-108435673D01*
G75*
G02*
X106283639Y-108329607I53033J53033D01*
G01*
X107220555Y-107392691D01*
G75*
G02*
X107326621Y-107392691I53033J-53033D01*
G01*
X107432687Y-107498757D01*
G75*
G02*
X107432687Y-107604823I-53033J-53033D01*
G01*
X106495771Y-108541739D01*
G75*
G02*
X106389705Y-108541739I-53033J53033D01*
G01*
G37*
%TD.AperFunction*%
%TO.P,U1,9*%
%TO.N,Net-(C9-Pad1)*%
%TA.AperFunction,SMDPad,CuDef*%
G36*
G01*
X106743259Y-108895293D02*
X106637193Y-108789227D01*
G75*
G02*
X106637193Y-108683161I53033J53033D01*
G01*
X107574109Y-107746245D01*
G75*
G02*
X107680175Y-107746245I53033J-53033D01*
G01*
X107786241Y-107852311D01*
G75*
G02*
X107786241Y-107958377I-53033J-53033D01*
G01*
X106849325Y-108895293D01*
G75*
G02*
X106743259Y-108895293I-53033J53033D01*
G01*
G37*
%TD.AperFunction*%
%TO.P,U1,10*%
%TO.N,M5*%
%TA.AperFunction,SMDPad,CuDef*%
G36*
G01*
X107096812Y-109248846D02*
X106990746Y-109142780D01*
G75*
G02*
X106990746Y-109036714I53033J53033D01*
G01*
X107927662Y-108099798D01*
G75*
G02*
X108033728Y-108099798I53033J-53033D01*
G01*
X108139794Y-108205864D01*
G75*
G02*
X108139794Y-108311930I-53033J-53033D01*
G01*
X107202878Y-109248846D01*
G75*
G02*
X107096812Y-109248846I-53033J53033D01*
G01*
G37*
%TD.AperFunction*%
%TO.P,U1,11*%
%TO.N,M6*%
%TA.AperFunction,SMDPad,CuDef*%
G36*
G01*
X107450366Y-109602400D02*
X107344300Y-109496334D01*
G75*
G02*
X107344300Y-109390268I53033J53033D01*
G01*
X108281216Y-108453352D01*
G75*
G02*
X108387282Y-108453352I53033J-53033D01*
G01*
X108493348Y-108559418D01*
G75*
G02*
X108493348Y-108665484I-53033J-53033D01*
G01*
X107556432Y-109602400D01*
G75*
G02*
X107450366Y-109602400I-53033J53033D01*
G01*
G37*
%TD.AperFunction*%
%TO.P,U1,12*%
%TO.N,M7*%
%TA.AperFunction,SMDPad,CuDef*%
G36*
G01*
X107803919Y-109955953D02*
X107697853Y-109849887D01*
G75*
G02*
X107697853Y-109743821I53033J53033D01*
G01*
X108634769Y-108806905D01*
G75*
G02*
X108740835Y-108806905I53033J-53033D01*
G01*
X108846901Y-108912971D01*
G75*
G02*
X108846901Y-109019037I-53033J-53033D01*
G01*
X107909985Y-109955953D01*
G75*
G02*
X107803919Y-109955953I-53033J53033D01*
G01*
G37*
%TD.AperFunction*%
%TO.P,U1,13*%
%TO.N,M8*%
%TA.AperFunction,SMDPad,CuDef*%
G36*
G01*
X108157472Y-110309506D02*
X108051406Y-110203440D01*
G75*
G02*
X108051406Y-110097374I53033J53033D01*
G01*
X108988322Y-109160458D01*
G75*
G02*
X109094388Y-109160458I53033J-53033D01*
G01*
X109200454Y-109266524D01*
G75*
G02*
X109200454Y-109372590I-53033J-53033D01*
G01*
X108263538Y-110309506D01*
G75*
G02*
X108157472Y-110309506I-53033J53033D01*
G01*
G37*
%TD.AperFunction*%
%TO.P,U1,14*%
%TO.N,M9*%
%TA.AperFunction,SMDPad,CuDef*%
G36*
G01*
X108511026Y-110663060D02*
X108404960Y-110556994D01*
G75*
G02*
X108404960Y-110450928I53033J53033D01*
G01*
X109341876Y-109514012D01*
G75*
G02*
X109447942Y-109514012I53033J-53033D01*
G01*
X109554008Y-109620078D01*
G75*
G02*
X109554008Y-109726144I-53033J-53033D01*
G01*
X108617092Y-110663060D01*
G75*
G02*
X108511026Y-110663060I-53033J53033D01*
G01*
G37*
%TD.AperFunction*%
%TO.P,U1,15*%
%TO.N,M10*%
%TA.AperFunction,SMDPad,CuDef*%
G36*
G01*
X108864579Y-111016613D02*
X108758513Y-110910547D01*
G75*
G02*
X108758513Y-110804481I53033J53033D01*
G01*
X109695429Y-109867565D01*
G75*
G02*
X109801495Y-109867565I53033J-53033D01*
G01*
X109907561Y-109973631D01*
G75*
G02*
X109907561Y-110079697I-53033J-53033D01*
G01*
X108970645Y-111016613D01*
G75*
G02*
X108864579Y-111016613I-53033J53033D01*
G01*
G37*
%TD.AperFunction*%
%TO.P,U1,16*%
%TO.N,GNDREF*%
%TA.AperFunction,SMDPad,CuDef*%
G36*
G01*
X109218132Y-111370167D02*
X109112066Y-111264101D01*
G75*
G02*
X109112066Y-111158035I53033J53033D01*
G01*
X110048982Y-110221119D01*
G75*
G02*
X110155048Y-110221119I53033J-53033D01*
G01*
X110261114Y-110327185D01*
G75*
G02*
X110261114Y-110433251I-53033J-53033D01*
G01*
X109324198Y-111370167D01*
G75*
G02*
X109218132Y-111370167I-53033J53033D01*
G01*
G37*
%TD.AperFunction*%
%TO.P,U1,17*%
%TO.N,+3V3*%
%TA.AperFunction,SMDPad,CuDef*%
G36*
G01*
X109571686Y-111723720D02*
X109465620Y-111617654D01*
G75*
G02*
X109465620Y-111511588I53033J53033D01*
G01*
X110402536Y-110574672D01*
G75*
G02*
X110508602Y-110574672I53033J-53033D01*
G01*
X110614668Y-110680738D01*
G75*
G02*
X110614668Y-110786804I-53033J-53033D01*
G01*
X109677752Y-111723720D01*
G75*
G02*
X109571686Y-111723720I-53033J53033D01*
G01*
G37*
%TD.AperFunction*%
%TO.P,U1,18*%
%TO.N,M11*%
%TA.AperFunction,SMDPad,CuDef*%
G36*
G01*
X109925239Y-112077273D02*
X109819173Y-111971207D01*
G75*
G02*
X109819173Y-111865141I53033J53033D01*
G01*
X110756089Y-110928225D01*
G75*
G02*
X110862155Y-110928225I53033J-53033D01*
G01*
X110968221Y-111034291D01*
G75*
G02*
X110968221Y-111140357I-53033J-53033D01*
G01*
X110031305Y-112077273D01*
G75*
G02*
X109925239Y-112077273I-53033J53033D01*
G01*
G37*
%TD.AperFunction*%
%TO.P,U1,19*%
%TO.N,M12*%
%TA.AperFunction,SMDPad,CuDef*%
G36*
G01*
X110278793Y-112430827D02*
X110172727Y-112324761D01*
G75*
G02*
X110172727Y-112218695I53033J53033D01*
G01*
X111109643Y-111281779D01*
G75*
G02*
X111215709Y-111281779I53033J-53033D01*
G01*
X111321775Y-111387845D01*
G75*
G02*
X111321775Y-111493911I-53033J-53033D01*
G01*
X110384859Y-112430827D01*
G75*
G02*
X110278793Y-112430827I-53033J53033D01*
G01*
G37*
%TD.AperFunction*%
%TO.P,U1,20*%
%TO.N,M13*%
%TA.AperFunction,SMDPad,CuDef*%
G36*
G01*
X110632346Y-112784380D02*
X110526280Y-112678314D01*
G75*
G02*
X110526280Y-112572248I53033J53033D01*
G01*
X111463196Y-111635332D01*
G75*
G02*
X111569262Y-111635332I53033J-53033D01*
G01*
X111675328Y-111741398D01*
G75*
G02*
X111675328Y-111847464I-53033J-53033D01*
G01*
X110738412Y-112784380D01*
G75*
G02*
X110632346Y-112784380I-53033J53033D01*
G01*
G37*
%TD.AperFunction*%
%TO.P,U1,21*%
%TO.N,M14*%
%TA.AperFunction,SMDPad,CuDef*%
G36*
G01*
X110985899Y-113137934D02*
X110879833Y-113031868D01*
G75*
G02*
X110879833Y-112925802I53033J53033D01*
G01*
X111816749Y-111988886D01*
G75*
G02*
X111922815Y-111988886I53033J-53033D01*
G01*
X112028881Y-112094952D01*
G75*
G02*
X112028881Y-112201018I-53033J-53033D01*
G01*
X111091965Y-113137934D01*
G75*
G02*
X110985899Y-113137934I-53033J53033D01*
G01*
G37*
%TD.AperFunction*%
%TO.P,U1,22*%
%TO.N,M15*%
%TA.AperFunction,SMDPad,CuDef*%
G36*
G01*
X111339453Y-113491487D02*
X111233387Y-113385421D01*
G75*
G02*
X111233387Y-113279355I53033J53033D01*
G01*
X112170303Y-112342439D01*
G75*
G02*
X112276369Y-112342439I53033J-53033D01*
G01*
X112382435Y-112448505D01*
G75*
G02*
X112382435Y-112554571I-53033J-53033D01*
G01*
X111445519Y-113491487D01*
G75*
G02*
X111339453Y-113491487I-53033J53033D01*
G01*
G37*
%TD.AperFunction*%
%TO.P,U1,23*%
%TO.N,Net-(C6-Pad1)*%
%TA.AperFunction,SMDPad,CuDef*%
G36*
G01*
X111693006Y-113845040D02*
X111586940Y-113738974D01*
G75*
G02*
X111586940Y-113632908I53033J53033D01*
G01*
X112523856Y-112695992D01*
G75*
G02*
X112629922Y-112695992I53033J-53033D01*
G01*
X112735988Y-112802058D01*
G75*
G02*
X112735988Y-112908124I-53033J-53033D01*
G01*
X111799072Y-113845040D01*
G75*
G02*
X111693006Y-113845040I-53033J53033D01*
G01*
G37*
%TD.AperFunction*%
%TO.P,U1,24*%
%TO.N,Net-(C7-Pad1)*%
%TA.AperFunction,SMDPad,CuDef*%
G36*
G01*
X112046560Y-114198594D02*
X111940494Y-114092528D01*
G75*
G02*
X111940494Y-113986462I53033J53033D01*
G01*
X112877410Y-113049546D01*
G75*
G02*
X112983476Y-113049546I53033J-53033D01*
G01*
X113089542Y-113155612D01*
G75*
G02*
X113089542Y-113261678I-53033J-53033D01*
G01*
X112152626Y-114198594D01*
G75*
G02*
X112046560Y-114198594I-53033J53033D01*
G01*
G37*
%TD.AperFunction*%
%TO.P,U1,25*%
%TO.N,NRST*%
%TA.AperFunction,SMDPad,CuDef*%
G36*
G01*
X112400113Y-114552147D02*
X112294047Y-114446081D01*
G75*
G02*
X112294047Y-114340015I53033J53033D01*
G01*
X113230963Y-113403099D01*
G75*
G02*
X113337029Y-113403099I53033J-53033D01*
G01*
X113443095Y-113509165D01*
G75*
G02*
X113443095Y-113615231I-53033J-53033D01*
G01*
X112506179Y-114552147D01*
G75*
G02*
X112400113Y-114552147I-53033J53033D01*
G01*
G37*
%TD.AperFunction*%
%TO.P,U1,26*%
%TO.N,ADC1_INP10*%
%TA.AperFunction,SMDPad,CuDef*%
G36*
G01*
X112753666Y-114905700D02*
X112647600Y-114799634D01*
G75*
G02*
X112647600Y-114693568I53033J53033D01*
G01*
X113584516Y-113756652D01*
G75*
G02*
X113690582Y-113756652I53033J-53033D01*
G01*
X113796648Y-113862718D01*
G75*
G02*
X113796648Y-113968784I-53033J-53033D01*
G01*
X112859732Y-114905700D01*
G75*
G02*
X112753666Y-114905700I-53033J53033D01*
G01*
G37*
%TD.AperFunction*%
%TO.P,U1,27*%
%TO.N,ADC1_INP11*%
%TA.AperFunction,SMDPad,CuDef*%
G36*
G01*
X113107220Y-115259254D02*
X113001154Y-115153188D01*
G75*
G02*
X113001154Y-115047122I53033J53033D01*
G01*
X113938070Y-114110206D01*
G75*
G02*
X114044136Y-114110206I53033J-53033D01*
G01*
X114150202Y-114216272D01*
G75*
G02*
X114150202Y-114322338I-53033J-53033D01*
G01*
X113213286Y-115259254D01*
G75*
G02*
X113107220Y-115259254I-53033J53033D01*
G01*
G37*
%TD.AperFunction*%
%TO.P,U1,28*%
%TO.N,MIXER1*%
%TA.AperFunction,SMDPad,CuDef*%
G36*
G01*
X113460773Y-115612807D02*
X113354707Y-115506741D01*
G75*
G02*
X113354707Y-115400675I53033J53033D01*
G01*
X114291623Y-114463759D01*
G75*
G02*
X114397689Y-114463759I53033J-53033D01*
G01*
X114503755Y-114569825D01*
G75*
G02*
X114503755Y-114675891I-53033J-53033D01*
G01*
X113566839Y-115612807D01*
G75*
G02*
X113460773Y-115612807I-53033J53033D01*
G01*
G37*
%TD.AperFunction*%
%TO.P,U1,29*%
%TO.N,MIXER2*%
%TA.AperFunction,SMDPad,CuDef*%
G36*
G01*
X113814327Y-115966361D02*
X113708261Y-115860295D01*
G75*
G02*
X113708261Y-115754229I53033J53033D01*
G01*
X114645177Y-114817313D01*
G75*
G02*
X114751243Y-114817313I53033J-53033D01*
G01*
X114857309Y-114923379D01*
G75*
G02*
X114857309Y-115029445I-53033J-53033D01*
G01*
X113920393Y-115966361D01*
G75*
G02*
X113814327Y-115966361I-53033J53033D01*
G01*
G37*
%TD.AperFunction*%
%TO.P,U1,30*%
%TO.N,+3V3*%
%TA.AperFunction,SMDPad,CuDef*%
G36*
G01*
X114167880Y-116319914D02*
X114061814Y-116213848D01*
G75*
G02*
X114061814Y-116107782I53033J53033D01*
G01*
X114998730Y-115170866D01*
G75*
G02*
X115104796Y-115170866I53033J-53033D01*
G01*
X115210862Y-115276932D01*
G75*
G02*
X115210862Y-115382998I-53033J-53033D01*
G01*
X114273946Y-116319914D01*
G75*
G02*
X114167880Y-116319914I-53033J53033D01*
G01*
G37*
%TD.AperFunction*%
%TO.P,U1,31*%
%TO.N,GNDREF*%
%TA.AperFunction,SMDPad,CuDef*%
G36*
G01*
X114521433Y-116673467D02*
X114415367Y-116567401D01*
G75*
G02*
X114415367Y-116461335I53033J53033D01*
G01*
X115352283Y-115524419D01*
G75*
G02*
X115458349Y-115524419I53033J-53033D01*
G01*
X115564415Y-115630485D01*
G75*
G02*
X115564415Y-115736551I-53033J-53033D01*
G01*
X114627499Y-116673467D01*
G75*
G02*
X114521433Y-116673467I-53033J53033D01*
G01*
G37*
%TD.AperFunction*%
%TO.P,U1,32*%
%TO.N,Net-(U1-Pad32)*%
%TA.AperFunction,SMDPad,CuDef*%
G36*
G01*
X114874987Y-117027021D02*
X114768921Y-116920955D01*
G75*
G02*
X114768921Y-116814889I53033J53033D01*
G01*
X115705837Y-115877973D01*
G75*
G02*
X115811903Y-115877973I53033J-53033D01*
G01*
X115917969Y-115984039D01*
G75*
G02*
X115917969Y-116090105I-53033J-53033D01*
G01*
X114981053Y-117027021D01*
G75*
G02*
X114874987Y-117027021I-53033J53033D01*
G01*
G37*
%TD.AperFunction*%
%TO.P,U1,33*%
%TO.N,+3V3*%
%TA.AperFunction,SMDPad,CuDef*%
G36*
G01*
X115228540Y-117380574D02*
X115122474Y-117274508D01*
G75*
G02*
X115122474Y-117168442I53033J53033D01*
G01*
X116059390Y-116231526D01*
G75*
G02*
X116165456Y-116231526I53033J-53033D01*
G01*
X116271522Y-116337592D01*
G75*
G02*
X116271522Y-116443658I-53033J-53033D01*
G01*
X115334606Y-117380574D01*
G75*
G02*
X115228540Y-117380574I-53033J53033D01*
G01*
G37*
%TD.AperFunction*%
%TO.P,U1,34*%
%TO.N,MIXER3*%
%TA.AperFunction,SMDPad,CuDef*%
G36*
G01*
X115582093Y-117734128D02*
X115476027Y-117628062D01*
G75*
G02*
X115476027Y-117521996I53033J53033D01*
G01*
X116412943Y-116585080D01*
G75*
G02*
X116519009Y-116585080I53033J-53033D01*
G01*
X116625075Y-116691146D01*
G75*
G02*
X116625075Y-116797212I-53033J-53033D01*
G01*
X115688159Y-117734128D01*
G75*
G02*
X115582093Y-117734128I-53033J53033D01*
G01*
G37*
%TD.AperFunction*%
%TO.P,U1,35*%
%TO.N,ADC1_INP17*%
%TA.AperFunction,SMDPad,CuDef*%
G36*
G01*
X115935647Y-118087681D02*
X115829581Y-117981615D01*
G75*
G02*
X115829581Y-117875549I53033J53033D01*
G01*
X116766497Y-116938633D01*
G75*
G02*
X116872563Y-116938633I53033J-53033D01*
G01*
X116978629Y-117044699D01*
G75*
G02*
X116978629Y-117150765I-53033J-53033D01*
G01*
X116041713Y-118087681D01*
G75*
G02*
X115935647Y-118087681I-53033J53033D01*
G01*
G37*
%TD.AperFunction*%
%TO.P,U1,36*%
%TO.N,ADC1_INP14*%
%TA.AperFunction,SMDPad,CuDef*%
G36*
G01*
X116289200Y-118441234D02*
X116183134Y-118335168D01*
G75*
G02*
X116183134Y-118229102I53033J53033D01*
G01*
X117120050Y-117292186D01*
G75*
G02*
X117226116Y-117292186I53033J-53033D01*
G01*
X117332182Y-117398252D01*
G75*
G02*
X117332182Y-117504318I-53033J-53033D01*
G01*
X116395266Y-118441234D01*
G75*
G02*
X116289200Y-118441234I-53033J53033D01*
G01*
G37*
%TD.AperFunction*%
%TO.P,U1,37*%
%TO.N,ADC1_INP15*%
%TA.AperFunction,SMDPad,CuDef*%
G36*
G01*
X119824734Y-118441234D02*
X118887818Y-117504318D01*
G75*
G02*
X118887818Y-117398252I53033J53033D01*
G01*
X118993884Y-117292186D01*
G75*
G02*
X119099950Y-117292186I53033J-53033D01*
G01*
X120036866Y-118229102D01*
G75*
G02*
X120036866Y-118335168I-53033J-53033D01*
G01*
X119930800Y-118441234D01*
G75*
G02*
X119824734Y-118441234I-53033J53033D01*
G01*
G37*
%TD.AperFunction*%
%TO.P,U1,38*%
%TO.N,GNDREF*%
%TA.AperFunction,SMDPad,CuDef*%
G36*
G01*
X120178287Y-118087681D02*
X119241371Y-117150765D01*
G75*
G02*
X119241371Y-117044699I53033J53033D01*
G01*
X119347437Y-116938633D01*
G75*
G02*
X119453503Y-116938633I53033J-53033D01*
G01*
X120390419Y-117875549D01*
G75*
G02*
X120390419Y-117981615I-53033J-53033D01*
G01*
X120284353Y-118087681D01*
G75*
G02*
X120178287Y-118087681I-53033J53033D01*
G01*
G37*
%TD.AperFunction*%
%TO.P,U1,39*%
%TO.N,+3V3*%
%TA.AperFunction,SMDPad,CuDef*%
G36*
G01*
X120531841Y-117734128D02*
X119594925Y-116797212D01*
G75*
G02*
X119594925Y-116691146I53033J53033D01*
G01*
X119700991Y-116585080D01*
G75*
G02*
X119807057Y-116585080I53033J-53033D01*
G01*
X120743973Y-117521996D01*
G75*
G02*
X120743973Y-117628062I-53033J-53033D01*
G01*
X120637907Y-117734128D01*
G75*
G02*
X120531841Y-117734128I-53033J53033D01*
G01*
G37*
%TD.AperFunction*%
%TO.P,U1,40*%
%TO.N,L6_SCK*%
%TA.AperFunction,SMDPad,CuDef*%
G36*
G01*
X120885394Y-117380574D02*
X119948478Y-116443658D01*
G75*
G02*
X119948478Y-116337592I53033J53033D01*
G01*
X120054544Y-116231526D01*
G75*
G02*
X120160610Y-116231526I53033J-53033D01*
G01*
X121097526Y-117168442D01*
G75*
G02*
X121097526Y-117274508I-53033J-53033D01*
G01*
X120991460Y-117380574D01*
G75*
G02*
X120885394Y-117380574I-53033J53033D01*
G01*
G37*
%TD.AperFunction*%
%TO.P,U1,41*%
%TO.N,ADC1_INP19*%
%TA.AperFunction,SMDPad,CuDef*%
G36*
G01*
X121238947Y-117027021D02*
X120302031Y-116090105D01*
G75*
G02*
X120302031Y-115984039I53033J53033D01*
G01*
X120408097Y-115877973D01*
G75*
G02*
X120514163Y-115877973I53033J-53033D01*
G01*
X121451079Y-116814889D01*
G75*
G02*
X121451079Y-116920955I-53033J-53033D01*
G01*
X121345013Y-117027021D01*
G75*
G02*
X121238947Y-117027021I-53033J53033D01*
G01*
G37*
%TD.AperFunction*%
%TO.P,U1,42*%
%TO.N,ADC1_INP3*%
%TA.AperFunction,SMDPad,CuDef*%
G36*
G01*
X121592501Y-116673467D02*
X120655585Y-115736551D01*
G75*
G02*
X120655585Y-115630485I53033J53033D01*
G01*
X120761651Y-115524419D01*
G75*
G02*
X120867717Y-115524419I53033J-53033D01*
G01*
X121804633Y-116461335D01*
G75*
G02*
X121804633Y-116567401I-53033J-53033D01*
G01*
X121698567Y-116673467D01*
G75*
G02*
X121592501Y-116673467I-53033J53033D01*
G01*
G37*
%TD.AperFunction*%
%TO.P,U1,43*%
%TO.N,ADC1_INP7*%
%TA.AperFunction,SMDPad,CuDef*%
G36*
G01*
X121946054Y-116319914D02*
X121009138Y-115382998D01*
G75*
G02*
X121009138Y-115276932I53033J53033D01*
G01*
X121115204Y-115170866D01*
G75*
G02*
X121221270Y-115170866I53033J-53033D01*
G01*
X122158186Y-116107782D01*
G75*
G02*
X122158186Y-116213848I-53033J-53033D01*
G01*
X122052120Y-116319914D01*
G75*
G02*
X121946054Y-116319914I-53033J53033D01*
G01*
G37*
%TD.AperFunction*%
%TO.P,U1,44*%
%TO.N,ADC1_INP4*%
%TA.AperFunction,SMDPad,CuDef*%
G36*
G01*
X122299607Y-115966361D02*
X121362691Y-115029445D01*
G75*
G02*
X121362691Y-114923379I53033J53033D01*
G01*
X121468757Y-114817313D01*
G75*
G02*
X121574823Y-114817313I53033J-53033D01*
G01*
X122511739Y-115754229D01*
G75*
G02*
X122511739Y-115860295I-53033J-53033D01*
G01*
X122405673Y-115966361D01*
G75*
G02*
X122299607Y-115966361I-53033J53033D01*
G01*
G37*
%TD.AperFunction*%
%TO.P,U1,45*%
%TO.N,ADC1_INP8*%
%TA.AperFunction,SMDPad,CuDef*%
G36*
G01*
X122653161Y-115612807D02*
X121716245Y-114675891D01*
G75*
G02*
X121716245Y-114569825I53033J53033D01*
G01*
X121822311Y-114463759D01*
G75*
G02*
X121928377Y-114463759I53033J-53033D01*
G01*
X122865293Y-115400675D01*
G75*
G02*
X122865293Y-115506741I-53033J-53033D01*
G01*
X122759227Y-115612807D01*
G75*
G02*
X122653161Y-115612807I-53033J53033D01*
G01*
G37*
%TD.AperFunction*%
%TO.P,U1,46*%
%TO.N,ADC1_INP9*%
%TA.AperFunction,SMDPad,CuDef*%
G36*
G01*
X123006714Y-115259254D02*
X122069798Y-114322338D01*
G75*
G02*
X122069798Y-114216272I53033J53033D01*
G01*
X122175864Y-114110206D01*
G75*
G02*
X122281930Y-114110206I53033J-53033D01*
G01*
X123218846Y-115047122D01*
G75*
G02*
X123218846Y-115153188I-53033J-53033D01*
G01*
X123112780Y-115259254D01*
G75*
G02*
X123006714Y-115259254I-53033J53033D01*
G01*
G37*
%TD.AperFunction*%
%TO.P,U1,47*%
%TO.N,ADC1_INP5*%
%TA.AperFunction,SMDPad,CuDef*%
G36*
G01*
X123360268Y-114905700D02*
X122423352Y-113968784D01*
G75*
G02*
X122423352Y-113862718I53033J53033D01*
G01*
X122529418Y-113756652D01*
G75*
G02*
X122635484Y-113756652I53033J-53033D01*
G01*
X123572400Y-114693568D01*
G75*
G02*
X123572400Y-114799634I-53033J-53033D01*
G01*
X123466334Y-114905700D01*
G75*
G02*
X123360268Y-114905700I-53033J53033D01*
G01*
G37*
%TD.AperFunction*%
%TO.P,U1,48*%
%TO.N,L6_DT*%
%TA.AperFunction,SMDPad,CuDef*%
G36*
G01*
X123713821Y-114552147D02*
X122776905Y-113615231D01*
G75*
G02*
X122776905Y-113509165I53033J53033D01*
G01*
X122882971Y-113403099D01*
G75*
G02*
X122989037Y-113403099I53033J-53033D01*
G01*
X123925953Y-114340015D01*
G75*
G02*
X123925953Y-114446081I-53033J-53033D01*
G01*
X123819887Y-114552147D01*
G75*
G02*
X123713821Y-114552147I-53033J53033D01*
G01*
G37*
%TD.AperFunction*%
%TO.P,U1,49*%
%TO.N,ADC1_INP2*%
%TA.AperFunction,SMDPad,CuDef*%
G36*
G01*
X124067374Y-114198594D02*
X123130458Y-113261678D01*
G75*
G02*
X123130458Y-113155612I53033J53033D01*
G01*
X123236524Y-113049546D01*
G75*
G02*
X123342590Y-113049546I53033J-53033D01*
G01*
X124279506Y-113986462D01*
G75*
G02*
X124279506Y-114092528I-53033J-53033D01*
G01*
X124173440Y-114198594D01*
G75*
G02*
X124067374Y-114198594I-53033J53033D01*
G01*
G37*
%TD.AperFunction*%
%TO.P,U1,50*%
%TO.N,ADC1_INP6*%
%TA.AperFunction,SMDPad,CuDef*%
G36*
G01*
X124420928Y-113845040D02*
X123484012Y-112908124D01*
G75*
G02*
X123484012Y-112802058I53033J53033D01*
G01*
X123590078Y-112695992D01*
G75*
G02*
X123696144Y-112695992I53033J-53033D01*
G01*
X124633060Y-113632908D01*
G75*
G02*
X124633060Y-113738974I-53033J-53033D01*
G01*
X124526994Y-113845040D01*
G75*
G02*
X124420928Y-113845040I-53033J53033D01*
G01*
G37*
%TD.AperFunction*%
%TO.P,U1,51*%
%TO.N,GNDREF*%
%TA.AperFunction,SMDPad,CuDef*%
G36*
G01*
X124774481Y-113491487D02*
X123837565Y-112554571D01*
G75*
G02*
X123837565Y-112448505I53033J53033D01*
G01*
X123943631Y-112342439D01*
G75*
G02*
X124049697Y-112342439I53033J-53033D01*
G01*
X124986613Y-113279355D01*
G75*
G02*
X124986613Y-113385421I-53033J-53033D01*
G01*
X124880547Y-113491487D01*
G75*
G02*
X124774481Y-113491487I-53033J53033D01*
G01*
G37*
%TD.AperFunction*%
%TO.P,U1,52*%
%TO.N,+3V3*%
%TA.AperFunction,SMDPad,CuDef*%
G36*
G01*
X125128035Y-113137934D02*
X124191119Y-112201018D01*
G75*
G02*
X124191119Y-112094952I53033J53033D01*
G01*
X124297185Y-111988886D01*
G75*
G02*
X124403251Y-111988886I53033J-53033D01*
G01*
X125340167Y-112925802D01*
G75*
G02*
X125340167Y-113031868I-53033J-53033D01*
G01*
X125234101Y-113137934D01*
G75*
G02*
X125128035Y-113137934I-53033J53033D01*
G01*
G37*
%TD.AperFunction*%
%TO.P,U1,53*%
%TO.N,V1*%
%TA.AperFunction,SMDPad,CuDef*%
G36*
G01*
X125481588Y-112784380D02*
X124544672Y-111847464D01*
G75*
G02*
X124544672Y-111741398I53033J53033D01*
G01*
X124650738Y-111635332D01*
G75*
G02*
X124756804Y-111635332I53033J-53033D01*
G01*
X125693720Y-112572248D01*
G75*
G02*
X125693720Y-112678314I-53033J-53033D01*
G01*
X125587654Y-112784380D01*
G75*
G02*
X125481588Y-112784380I-53033J53033D01*
G01*
G37*
%TD.AperFunction*%
%TO.P,U1,54*%
%TO.N,V2*%
%TA.AperFunction,SMDPad,CuDef*%
G36*
G01*
X125835141Y-112430827D02*
X124898225Y-111493911D01*
G75*
G02*
X124898225Y-111387845I53033J53033D01*
G01*
X125004291Y-111281779D01*
G75*
G02*
X125110357Y-111281779I53033J-53033D01*
G01*
X126047273Y-112218695D01*
G75*
G02*
X126047273Y-112324761I-53033J-53033D01*
G01*
X125941207Y-112430827D01*
G75*
G02*
X125835141Y-112430827I-53033J53033D01*
G01*
G37*
%TD.AperFunction*%
%TO.P,U1,55*%
%TO.N,V3*%
%TA.AperFunction,SMDPad,CuDef*%
G36*
G01*
X126188695Y-112077273D02*
X125251779Y-111140357D01*
G75*
G02*
X125251779Y-111034291I53033J53033D01*
G01*
X125357845Y-110928225D01*
G75*
G02*
X125463911Y-110928225I53033J-53033D01*
G01*
X126400827Y-111865141D01*
G75*
G02*
X126400827Y-111971207I-53033J-53033D01*
G01*
X126294761Y-112077273D01*
G75*
G02*
X126188695Y-112077273I-53033J53033D01*
G01*
G37*
%TD.AperFunction*%
%TO.P,U1,56*%
%TO.N,V4*%
%TA.AperFunction,SMDPad,CuDef*%
G36*
G01*
X126542248Y-111723720D02*
X125605332Y-110786804D01*
G75*
G02*
X125605332Y-110680738I53033J53033D01*
G01*
X125711398Y-110574672D01*
G75*
G02*
X125817464Y-110574672I53033J-53033D01*
G01*
X126754380Y-111511588D01*
G75*
G02*
X126754380Y-111617654I-53033J-53033D01*
G01*
X126648314Y-111723720D01*
G75*
G02*
X126542248Y-111723720I-53033J53033D01*
G01*
G37*
%TD.AperFunction*%
%TO.P,U1,57*%
%TO.N,V5*%
%TA.AperFunction,SMDPad,CuDef*%
G36*
G01*
X126895802Y-111370167D02*
X125958886Y-110433251D01*
G75*
G02*
X125958886Y-110327185I53033J53033D01*
G01*
X126064952Y-110221119D01*
G75*
G02*
X126171018Y-110221119I53033J-53033D01*
G01*
X127107934Y-111158035D01*
G75*
G02*
X127107934Y-111264101I-53033J-53033D01*
G01*
X127001868Y-111370167D01*
G75*
G02*
X126895802Y-111370167I-53033J53033D01*
G01*
G37*
%TD.AperFunction*%
%TO.P,U1,58*%
%TO.N,V6*%
%TA.AperFunction,SMDPad,CuDef*%
G36*
G01*
X127249355Y-111016613D02*
X126312439Y-110079697D01*
G75*
G02*
X126312439Y-109973631I53033J53033D01*
G01*
X126418505Y-109867565D01*
G75*
G02*
X126524571Y-109867565I53033J-53033D01*
G01*
X127461487Y-110804481D01*
G75*
G02*
X127461487Y-110910547I-53033J-53033D01*
G01*
X127355421Y-111016613D01*
G75*
G02*
X127249355Y-111016613I-53033J53033D01*
G01*
G37*
%TD.AperFunction*%
%TO.P,U1,59*%
%TO.N,PMP1*%
%TA.AperFunction,SMDPad,CuDef*%
G36*
G01*
X127602908Y-110663060D02*
X126665992Y-109726144D01*
G75*
G02*
X126665992Y-109620078I53033J53033D01*
G01*
X126772058Y-109514012D01*
G75*
G02*
X126878124Y-109514012I53033J-53033D01*
G01*
X127815040Y-110450928D01*
G75*
G02*
X127815040Y-110556994I-53033J-53033D01*
G01*
X127708974Y-110663060D01*
G75*
G02*
X127602908Y-110663060I-53033J53033D01*
G01*
G37*
%TD.AperFunction*%
%TO.P,U1,60*%
%TO.N,PMP2*%
%TA.AperFunction,SMDPad,CuDef*%
G36*
G01*
X127956462Y-110309506D02*
X127019546Y-109372590D01*
G75*
G02*
X127019546Y-109266524I53033J53033D01*
G01*
X127125612Y-109160458D01*
G75*
G02*
X127231678Y-109160458I53033J-53033D01*
G01*
X128168594Y-110097374D01*
G75*
G02*
X128168594Y-110203440I-53033J-53033D01*
G01*
X128062528Y-110309506D01*
G75*
G02*
X127956462Y-110309506I-53033J53033D01*
G01*
G37*
%TD.AperFunction*%
%TO.P,U1,61*%
%TO.N,GNDREF*%
%TA.AperFunction,SMDPad,CuDef*%
G36*
G01*
X128310015Y-109955953D02*
X127373099Y-109019037D01*
G75*
G02*
X127373099Y-108912971I53033J53033D01*
G01*
X127479165Y-108806905D01*
G75*
G02*
X127585231Y-108806905I53033J-53033D01*
G01*
X128522147Y-109743821D01*
G75*
G02*
X128522147Y-109849887I-53033J-53033D01*
G01*
X128416081Y-109955953D01*
G75*
G02*
X128310015Y-109955953I-53033J53033D01*
G01*
G37*
%TD.AperFunction*%
%TO.P,U1,62*%
%TO.N,+3V3*%
%TA.AperFunction,SMDPad,CuDef*%
G36*
G01*
X128663568Y-109602400D02*
X127726652Y-108665484D01*
G75*
G02*
X127726652Y-108559418I53033J53033D01*
G01*
X127832718Y-108453352D01*
G75*
G02*
X127938784Y-108453352I53033J-53033D01*
G01*
X128875700Y-109390268D01*
G75*
G02*
X128875700Y-109496334I-53033J-53033D01*
G01*
X128769634Y-109602400D01*
G75*
G02*
X128663568Y-109602400I-53033J53033D01*
G01*
G37*
%TD.AperFunction*%
%TO.P,U1,63*%
%TO.N,PMP3*%
%TA.AperFunction,SMDPad,CuDef*%
G36*
G01*
X129017122Y-109248846D02*
X128080206Y-108311930D01*
G75*
G02*
X128080206Y-108205864I53033J53033D01*
G01*
X128186272Y-108099798D01*
G75*
G02*
X128292338Y-108099798I53033J-53033D01*
G01*
X129229254Y-109036714D01*
G75*
G02*
X129229254Y-109142780I-53033J-53033D01*
G01*
X129123188Y-109248846D01*
G75*
G02*
X129017122Y-109248846I-53033J53033D01*
G01*
G37*
%TD.AperFunction*%
%TO.P,U1,64*%
%TO.N,PMP4*%
%TA.AperFunction,SMDPad,CuDef*%
G36*
G01*
X129370675Y-108895293D02*
X128433759Y-107958377D01*
G75*
G02*
X128433759Y-107852311I53033J53033D01*
G01*
X128539825Y-107746245D01*
G75*
G02*
X128645891Y-107746245I53033J-53033D01*
G01*
X129582807Y-108683161D01*
G75*
G02*
X129582807Y-108789227I-53033J-53033D01*
G01*
X129476741Y-108895293D01*
G75*
G02*
X129370675Y-108895293I-53033J53033D01*
G01*
G37*
%TD.AperFunction*%
%TO.P,U1,65*%
%TO.N,PMP5*%
%TA.AperFunction,SMDPad,CuDef*%
G36*
G01*
X129724229Y-108541739D02*
X128787313Y-107604823D01*
G75*
G02*
X128787313Y-107498757I53033J53033D01*
G01*
X128893379Y-107392691D01*
G75*
G02*
X128999445Y-107392691I53033J-53033D01*
G01*
X129936361Y-108329607D01*
G75*
G02*
X129936361Y-108435673I-53033J-53033D01*
G01*
X129830295Y-108541739D01*
G75*
G02*
X129724229Y-108541739I-53033J53033D01*
G01*
G37*
%TD.AperFunction*%
%TO.P,U1,66*%
%TO.N,PMP6*%
%TA.AperFunction,SMDPad,CuDef*%
G36*
G01*
X130077782Y-108188186D02*
X129140866Y-107251270D01*
G75*
G02*
X129140866Y-107145204I53033J53033D01*
G01*
X129246932Y-107039138D01*
G75*
G02*
X129352998Y-107039138I53033J-53033D01*
G01*
X130289914Y-107976054D01*
G75*
G02*
X130289914Y-108082120I-53033J-53033D01*
G01*
X130183848Y-108188186D01*
G75*
G02*
X130077782Y-108188186I-53033J53033D01*
G01*
G37*
%TD.AperFunction*%
%TO.P,U1,67*%
%TO.N,VLV1*%
%TA.AperFunction,SMDPad,CuDef*%
G36*
G01*
X130431335Y-107834633D02*
X129494419Y-106897717D01*
G75*
G02*
X129494419Y-106791651I53033J53033D01*
G01*
X129600485Y-106685585D01*
G75*
G02*
X129706551Y-106685585I53033J-53033D01*
G01*
X130643467Y-107622501D01*
G75*
G02*
X130643467Y-107728567I-53033J-53033D01*
G01*
X130537401Y-107834633D01*
G75*
G02*
X130431335Y-107834633I-53033J53033D01*
G01*
G37*
%TD.AperFunction*%
%TO.P,U1,68*%
%TO.N,VLV2*%
%TA.AperFunction,SMDPad,CuDef*%
G36*
G01*
X130784889Y-107481079D02*
X129847973Y-106544163D01*
G75*
G02*
X129847973Y-106438097I53033J53033D01*
G01*
X129954039Y-106332031D01*
G75*
G02*
X130060105Y-106332031I53033J-53033D01*
G01*
X130997021Y-107268947D01*
G75*
G02*
X130997021Y-107375013I-53033J-53033D01*
G01*
X130890955Y-107481079D01*
G75*
G02*
X130784889Y-107481079I-53033J53033D01*
G01*
G37*
%TD.AperFunction*%
%TO.P,U1,69*%
%TO.N,VLV3*%
%TA.AperFunction,SMDPad,CuDef*%
G36*
G01*
X131138442Y-107127526D02*
X130201526Y-106190610D01*
G75*
G02*
X130201526Y-106084544I53033J53033D01*
G01*
X130307592Y-105978478D01*
G75*
G02*
X130413658Y-105978478I53033J-53033D01*
G01*
X131350574Y-106915394D01*
G75*
G02*
X131350574Y-107021460I-53033J-53033D01*
G01*
X131244508Y-107127526D01*
G75*
G02*
X131138442Y-107127526I-53033J53033D01*
G01*
G37*
%TD.AperFunction*%
%TO.P,U1,70*%
%TO.N,VLV4*%
%TA.AperFunction,SMDPad,CuDef*%
G36*
G01*
X131491996Y-106773973D02*
X130555080Y-105837057D01*
G75*
G02*
X130555080Y-105730991I53033J53033D01*
G01*
X130661146Y-105624925D01*
G75*
G02*
X130767212Y-105624925I53033J-53033D01*
G01*
X131704128Y-106561841D01*
G75*
G02*
X131704128Y-106667907I-53033J-53033D01*
G01*
X131598062Y-106773973D01*
G75*
G02*
X131491996Y-106773973I-53033J53033D01*
G01*
G37*
%TD.AperFunction*%
%TO.P,U1,71*%
%TO.N,Net-(U1-Pad71)*%
%TA.AperFunction,SMDPad,CuDef*%
G36*
G01*
X131845549Y-106420419D02*
X130908633Y-105483503D01*
G75*
G02*
X130908633Y-105377437I53033J53033D01*
G01*
X131014699Y-105271371D01*
G75*
G02*
X131120765Y-105271371I53033J-53033D01*
G01*
X132057681Y-106208287D01*
G75*
G02*
X132057681Y-106314353I-53033J-53033D01*
G01*
X131951615Y-106420419D01*
G75*
G02*
X131845549Y-106420419I-53033J53033D01*
G01*
G37*
%TD.AperFunction*%
%TO.P,U1,72*%
%TO.N,+3V3*%
%TA.AperFunction,SMDPad,CuDef*%
G36*
G01*
X132199102Y-106066866D02*
X131262186Y-105129950D01*
G75*
G02*
X131262186Y-105023884I53033J53033D01*
G01*
X131368252Y-104917818D01*
G75*
G02*
X131474318Y-104917818I53033J-53033D01*
G01*
X132411234Y-105854734D01*
G75*
G02*
X132411234Y-105960800I-53033J-53033D01*
G01*
X132305168Y-106066866D01*
G75*
G02*
X132199102Y-106066866I-53033J53033D01*
G01*
G37*
%TD.AperFunction*%
%TO.P,U1,73*%
%TO.N,VLV5*%
%TA.AperFunction,SMDPad,CuDef*%
G36*
G01*
X131368252Y-103362182D02*
X131262186Y-103256116D01*
G75*
G02*
X131262186Y-103150050I53033J53033D01*
G01*
X132199102Y-102213134D01*
G75*
G02*
X132305168Y-102213134I53033J-53033D01*
G01*
X132411234Y-102319200D01*
G75*
G02*
X132411234Y-102425266I-53033J-53033D01*
G01*
X131474318Y-103362182D01*
G75*
G02*
X131368252Y-103362182I-53033J53033D01*
G01*
G37*
%TD.AperFunction*%
%TO.P,U1,74*%
%TO.N,VLV6*%
%TA.AperFunction,SMDPad,CuDef*%
G36*
G01*
X131014699Y-103008629D02*
X130908633Y-102902563D01*
G75*
G02*
X130908633Y-102796497I53033J53033D01*
G01*
X131845549Y-101859581D01*
G75*
G02*
X131951615Y-101859581I53033J-53033D01*
G01*
X132057681Y-101965647D01*
G75*
G02*
X132057681Y-102071713I-53033J-53033D01*
G01*
X131120765Y-103008629D01*
G75*
G02*
X131014699Y-103008629I-53033J53033D01*
G01*
G37*
%TD.AperFunction*%
%TO.P,U1,75*%
%TO.N,L5_DT*%
%TA.AperFunction,SMDPad,CuDef*%
G36*
G01*
X130661146Y-102655075D02*
X130555080Y-102549009D01*
G75*
G02*
X130555080Y-102442943I53033J53033D01*
G01*
X131491996Y-101506027D01*
G75*
G02*
X131598062Y-101506027I53033J-53033D01*
G01*
X131704128Y-101612093D01*
G75*
G02*
X131704128Y-101718159I-53033J-53033D01*
G01*
X130767212Y-102655075D01*
G75*
G02*
X130661146Y-102655075I-53033J53033D01*
G01*
G37*
%TD.AperFunction*%
%TO.P,U1,76*%
%TO.N,L5_SCK*%
%TA.AperFunction,SMDPad,CuDef*%
G36*
G01*
X130307592Y-102301522D02*
X130201526Y-102195456D01*
G75*
G02*
X130201526Y-102089390I53033J53033D01*
G01*
X131138442Y-101152474D01*
G75*
G02*
X131244508Y-101152474I53033J-53033D01*
G01*
X131350574Y-101258540D01*
G75*
G02*
X131350574Y-101364606I-53033J-53033D01*
G01*
X130413658Y-102301522D01*
G75*
G02*
X130307592Y-102301522I-53033J53033D01*
G01*
G37*
%TD.AperFunction*%
%TO.P,U1,77*%
%TO.N,S1*%
%TA.AperFunction,SMDPad,CuDef*%
G36*
G01*
X129954039Y-101947969D02*
X129847973Y-101841903D01*
G75*
G02*
X129847973Y-101735837I53033J53033D01*
G01*
X130784889Y-100798921D01*
G75*
G02*
X130890955Y-100798921I53033J-53033D01*
G01*
X130997021Y-100904987D01*
G75*
G02*
X130997021Y-101011053I-53033J-53033D01*
G01*
X130060105Y-101947969D01*
G75*
G02*
X129954039Y-101947969I-53033J53033D01*
G01*
G37*
%TD.AperFunction*%
%TO.P,U1,78*%
%TO.N,S2*%
%TA.AperFunction,SMDPad,CuDef*%
G36*
G01*
X129600485Y-101594415D02*
X129494419Y-101488349D01*
G75*
G02*
X129494419Y-101382283I53033J53033D01*
G01*
X130431335Y-100445367D01*
G75*
G02*
X130537401Y-100445367I53033J-53033D01*
G01*
X130643467Y-100551433D01*
G75*
G02*
X130643467Y-100657499I-53033J-53033D01*
G01*
X129706551Y-101594415D01*
G75*
G02*
X129600485Y-101594415I-53033J53033D01*
G01*
G37*
%TD.AperFunction*%
%TO.P,U1,79*%
%TO.N,S3*%
%TA.AperFunction,SMDPad,CuDef*%
G36*
G01*
X129246932Y-101240862D02*
X129140866Y-101134796D01*
G75*
G02*
X129140866Y-101028730I53033J53033D01*
G01*
X130077782Y-100091814D01*
G75*
G02*
X130183848Y-100091814I53033J-53033D01*
G01*
X130289914Y-100197880D01*
G75*
G02*
X130289914Y-100303946I-53033J-53033D01*
G01*
X129352998Y-101240862D01*
G75*
G02*
X129246932Y-101240862I-53033J53033D01*
G01*
G37*
%TD.AperFunction*%
%TO.P,U1,80*%
%TO.N,S4*%
%TA.AperFunction,SMDPad,CuDef*%
G36*
G01*
X128893379Y-100887309D02*
X128787313Y-100781243D01*
G75*
G02*
X128787313Y-100675177I53033J53033D01*
G01*
X129724229Y-99738261D01*
G75*
G02*
X129830295Y-99738261I53033J-53033D01*
G01*
X129936361Y-99844327D01*
G75*
G02*
X129936361Y-99950393I-53033J-53033D01*
G01*
X128999445Y-100887309D01*
G75*
G02*
X128893379Y-100887309I-53033J53033D01*
G01*
G37*
%TD.AperFunction*%
%TO.P,U1,81*%
%TO.N,S5*%
%TA.AperFunction,SMDPad,CuDef*%
G36*
G01*
X128539825Y-100533755D02*
X128433759Y-100427689D01*
G75*
G02*
X128433759Y-100321623I53033J53033D01*
G01*
X129370675Y-99384707D01*
G75*
G02*
X129476741Y-99384707I53033J-53033D01*
G01*
X129582807Y-99490773D01*
G75*
G02*
X129582807Y-99596839I-53033J-53033D01*
G01*
X128645891Y-100533755D01*
G75*
G02*
X128539825Y-100533755I-53033J53033D01*
G01*
G37*
%TD.AperFunction*%
%TO.P,U1,82*%
%TO.N,S6*%
%TA.AperFunction,SMDPad,CuDef*%
G36*
G01*
X128186272Y-100180202D02*
X128080206Y-100074136D01*
G75*
G02*
X128080206Y-99968070I53033J53033D01*
G01*
X129017122Y-99031154D01*
G75*
G02*
X129123188Y-99031154I53033J-53033D01*
G01*
X129229254Y-99137220D01*
G75*
G02*
X129229254Y-99243286I-53033J-53033D01*
G01*
X128292338Y-100180202D01*
G75*
G02*
X128186272Y-100180202I-53033J53033D01*
G01*
G37*
%TD.AperFunction*%
%TO.P,U1,83*%
%TO.N,GNDREF*%
%TA.AperFunction,SMDPad,CuDef*%
G36*
G01*
X127832718Y-99826648D02*
X127726652Y-99720582D01*
G75*
G02*
X127726652Y-99614516I53033J53033D01*
G01*
X128663568Y-98677600D01*
G75*
G02*
X128769634Y-98677600I53033J-53033D01*
G01*
X128875700Y-98783666D01*
G75*
G02*
X128875700Y-98889732I-53033J-53033D01*
G01*
X127938784Y-99826648D01*
G75*
G02*
X127832718Y-99826648I-53033J53033D01*
G01*
G37*
%TD.AperFunction*%
%TO.P,U1,84*%
%TO.N,+3V3*%
%TA.AperFunction,SMDPad,CuDef*%
G36*
G01*
X127479165Y-99473095D02*
X127373099Y-99367029D01*
G75*
G02*
X127373099Y-99260963I53033J53033D01*
G01*
X128310015Y-98324047D01*
G75*
G02*
X128416081Y-98324047I53033J-53033D01*
G01*
X128522147Y-98430113D01*
G75*
G02*
X128522147Y-98536179I-53033J-53033D01*
G01*
X127585231Y-99473095D01*
G75*
G02*
X127479165Y-99473095I-53033J53033D01*
G01*
G37*
%TD.AperFunction*%
%TO.P,U1,85*%
%TO.N,S7*%
%TA.AperFunction,SMDPad,CuDef*%
G36*
G01*
X127125612Y-99119542D02*
X127019546Y-99013476D01*
G75*
G02*
X127019546Y-98907410I53033J53033D01*
G01*
X127956462Y-97970494D01*
G75*
G02*
X128062528Y-97970494I53033J-53033D01*
G01*
X128168594Y-98076560D01*
G75*
G02*
X128168594Y-98182626I-53033J-53033D01*
G01*
X127231678Y-99119542D01*
G75*
G02*
X127125612Y-99119542I-53033J53033D01*
G01*
G37*
%TD.AperFunction*%
%TO.P,U1,86*%
%TO.N,S8*%
%TA.AperFunction,SMDPad,CuDef*%
G36*
G01*
X126772058Y-98765988D02*
X126665992Y-98659922D01*
G75*
G02*
X126665992Y-98553856I53033J53033D01*
G01*
X127602908Y-97616940D01*
G75*
G02*
X127708974Y-97616940I53033J-53033D01*
G01*
X127815040Y-97723006D01*
G75*
G02*
X127815040Y-97829072I-53033J-53033D01*
G01*
X126878124Y-98765988D01*
G75*
G02*
X126772058Y-98765988I-53033J53033D01*
G01*
G37*
%TD.AperFunction*%
%TO.P,U1,87*%
%TO.N,S9*%
%TA.AperFunction,SMDPad,CuDef*%
G36*
G01*
X126418505Y-98412435D02*
X126312439Y-98306369D01*
G75*
G02*
X126312439Y-98200303I53033J53033D01*
G01*
X127249355Y-97263387D01*
G75*
G02*
X127355421Y-97263387I53033J-53033D01*
G01*
X127461487Y-97369453D01*
G75*
G02*
X127461487Y-97475519I-53033J-53033D01*
G01*
X126524571Y-98412435D01*
G75*
G02*
X126418505Y-98412435I-53033J53033D01*
G01*
G37*
%TD.AperFunction*%
%TO.P,U1,88*%
%TO.N,S10*%
%TA.AperFunction,SMDPad,CuDef*%
G36*
G01*
X126064952Y-98058881D02*
X125958886Y-97952815D01*
G75*
G02*
X125958886Y-97846749I53033J53033D01*
G01*
X126895802Y-96909833D01*
G75*
G02*
X127001868Y-96909833I53033J-53033D01*
G01*
X127107934Y-97015899D01*
G75*
G02*
X127107934Y-97121965I-53033J-53033D01*
G01*
X126171018Y-98058881D01*
G75*
G02*
X126064952Y-98058881I-53033J53033D01*
G01*
G37*
%TD.AperFunction*%
%TO.P,U1,89*%
%TO.N,S11*%
%TA.AperFunction,SMDPad,CuDef*%
G36*
G01*
X125711398Y-97705328D02*
X125605332Y-97599262D01*
G75*
G02*
X125605332Y-97493196I53033J53033D01*
G01*
X126542248Y-96556280D01*
G75*
G02*
X126648314Y-96556280I53033J-53033D01*
G01*
X126754380Y-96662346D01*
G75*
G02*
X126754380Y-96768412I-53033J-53033D01*
G01*
X125817464Y-97705328D01*
G75*
G02*
X125711398Y-97705328I-53033J53033D01*
G01*
G37*
%TD.AperFunction*%
%TO.P,U1,90*%
%TO.N,S12*%
%TA.AperFunction,SMDPad,CuDef*%
G36*
G01*
X125357845Y-97351775D02*
X125251779Y-97245709D01*
G75*
G02*
X125251779Y-97139643I53033J53033D01*
G01*
X126188695Y-96202727D01*
G75*
G02*
X126294761Y-96202727I53033J-53033D01*
G01*
X126400827Y-96308793D01*
G75*
G02*
X126400827Y-96414859I-53033J-53033D01*
G01*
X125463911Y-97351775D01*
G75*
G02*
X125357845Y-97351775I-53033J53033D01*
G01*
G37*
%TD.AperFunction*%
%TO.P,U1,91*%
%TO.N,S13*%
%TA.AperFunction,SMDPad,CuDef*%
G36*
G01*
X125004291Y-96998221D02*
X124898225Y-96892155D01*
G75*
G02*
X124898225Y-96786089I53033J53033D01*
G01*
X125835141Y-95849173D01*
G75*
G02*
X125941207Y-95849173I53033J-53033D01*
G01*
X126047273Y-95955239D01*
G75*
G02*
X126047273Y-96061305I-53033J-53033D01*
G01*
X125110357Y-96998221D01*
G75*
G02*
X125004291Y-96998221I-53033J53033D01*
G01*
G37*
%TD.AperFunction*%
%TO.P,U1,92*%
%TO.N,S14*%
%TA.AperFunction,SMDPad,CuDef*%
G36*
G01*
X124650738Y-96644668D02*
X124544672Y-96538602D01*
G75*
G02*
X124544672Y-96432536I53033J53033D01*
G01*
X125481588Y-95495620D01*
G75*
G02*
X125587654Y-95495620I53033J-53033D01*
G01*
X125693720Y-95601686D01*
G75*
G02*
X125693720Y-95707752I-53033J-53033D01*
G01*
X124756804Y-96644668D01*
G75*
G02*
X124650738Y-96644668I-53033J53033D01*
G01*
G37*
%TD.AperFunction*%
%TO.P,U1,93*%
%TO.N,S15*%
%TA.AperFunction,SMDPad,CuDef*%
G36*
G01*
X124297185Y-96291114D02*
X124191119Y-96185048D01*
G75*
G02*
X124191119Y-96078982I53033J53033D01*
G01*
X125128035Y-95142066D01*
G75*
G02*
X125234101Y-95142066I53033J-53033D01*
G01*
X125340167Y-95248132D01*
G75*
G02*
X125340167Y-95354198I-53033J-53033D01*
G01*
X124403251Y-96291114D01*
G75*
G02*
X124297185Y-96291114I-53033J53033D01*
G01*
G37*
%TD.AperFunction*%
%TO.P,U1,94*%
%TO.N,GNDREF*%
%TA.AperFunction,SMDPad,CuDef*%
G36*
G01*
X123943631Y-95937561D02*
X123837565Y-95831495D01*
G75*
G02*
X123837565Y-95725429I53033J53033D01*
G01*
X124774481Y-94788513D01*
G75*
G02*
X124880547Y-94788513I53033J-53033D01*
G01*
X124986613Y-94894579D01*
G75*
G02*
X124986613Y-95000645I-53033J-53033D01*
G01*
X124049697Y-95937561D01*
G75*
G02*
X123943631Y-95937561I-53033J53033D01*
G01*
G37*
%TD.AperFunction*%
%TO.P,U1,95*%
%TO.N,+3V3*%
%TA.AperFunction,SMDPad,CuDef*%
G36*
G01*
X123590078Y-95584008D02*
X123484012Y-95477942D01*
G75*
G02*
X123484012Y-95371876I53033J53033D01*
G01*
X124420928Y-94434960D01*
G75*
G02*
X124526994Y-94434960I53033J-53033D01*
G01*
X124633060Y-94541026D01*
G75*
G02*
X124633060Y-94647092I-53033J-53033D01*
G01*
X123696144Y-95584008D01*
G75*
G02*
X123590078Y-95584008I-53033J53033D01*
G01*
G37*
%TD.AperFunction*%
%TO.P,U1,96*%
%TO.N,S16*%
%TA.AperFunction,SMDPad,CuDef*%
G36*
G01*
X123236524Y-95230454D02*
X123130458Y-95124388D01*
G75*
G02*
X123130458Y-95018322I53033J53033D01*
G01*
X124067374Y-94081406D01*
G75*
G02*
X124173440Y-94081406I53033J-53033D01*
G01*
X124279506Y-94187472D01*
G75*
G02*
X124279506Y-94293538I-53033J-53033D01*
G01*
X123342590Y-95230454D01*
G75*
G02*
X123236524Y-95230454I-53033J53033D01*
G01*
G37*
%TD.AperFunction*%
%TO.P,U1,97*%
%TO.N,L2_SCK*%
%TA.AperFunction,SMDPad,CuDef*%
G36*
G01*
X122882971Y-94876901D02*
X122776905Y-94770835D01*
G75*
G02*
X122776905Y-94664769I53033J53033D01*
G01*
X123713821Y-93727853D01*
G75*
G02*
X123819887Y-93727853I53033J-53033D01*
G01*
X123925953Y-93833919D01*
G75*
G02*
X123925953Y-93939985I-53033J-53033D01*
G01*
X122989037Y-94876901D01*
G75*
G02*
X122882971Y-94876901I-53033J53033D01*
G01*
G37*
%TD.AperFunction*%
%TO.P,U1,98*%
%TO.N,L2_DT*%
%TA.AperFunction,SMDPad,CuDef*%
G36*
G01*
X122529418Y-94523348D02*
X122423352Y-94417282D01*
G75*
G02*
X122423352Y-94311216I53033J53033D01*
G01*
X123360268Y-93374300D01*
G75*
G02*
X123466334Y-93374300I53033J-53033D01*
G01*
X123572400Y-93480366D01*
G75*
G02*
X123572400Y-93586432I-53033J-53033D01*
G01*
X122635484Y-94523348D01*
G75*
G02*
X122529418Y-94523348I-53033J53033D01*
G01*
G37*
%TD.AperFunction*%
%TO.P,U1,99*%
%TO.N,L1_SCK*%
%TA.AperFunction,SMDPad,CuDef*%
G36*
G01*
X122175864Y-94169794D02*
X122069798Y-94063728D01*
G75*
G02*
X122069798Y-93957662I53033J53033D01*
G01*
X123006714Y-93020746D01*
G75*
G02*
X123112780Y-93020746I53033J-53033D01*
G01*
X123218846Y-93126812D01*
G75*
G02*
X123218846Y-93232878I-53033J-53033D01*
G01*
X122281930Y-94169794D01*
G75*
G02*
X122175864Y-94169794I-53033J53033D01*
G01*
G37*
%TD.AperFunction*%
%TO.P,U1,100*%
%TO.N,L1_DT*%
%TA.AperFunction,SMDPad,CuDef*%
G36*
G01*
X121822311Y-93816241D02*
X121716245Y-93710175D01*
G75*
G02*
X121716245Y-93604109I53033J53033D01*
G01*
X122653161Y-92667193D01*
G75*
G02*
X122759227Y-92667193I53033J-53033D01*
G01*
X122865293Y-92773259D01*
G75*
G02*
X122865293Y-92879325I-53033J-53033D01*
G01*
X121928377Y-93816241D01*
G75*
G02*
X121822311Y-93816241I-53033J53033D01*
G01*
G37*
%TD.AperFunction*%
%TO.P,U1,101*%
%TO.N,U1_TRIG*%
%TA.AperFunction,SMDPad,CuDef*%
G36*
G01*
X121468757Y-93462687D02*
X121362691Y-93356621D01*
G75*
G02*
X121362691Y-93250555I53033J53033D01*
G01*
X122299607Y-92313639D01*
G75*
G02*
X122405673Y-92313639I53033J-53033D01*
G01*
X122511739Y-92419705D01*
G75*
G02*
X122511739Y-92525771I-53033J-53033D01*
G01*
X121574823Y-93462687D01*
G75*
G02*
X121468757Y-93462687I-53033J53033D01*
G01*
G37*
%TD.AperFunction*%
%TO.P,U1,102*%
%TO.N,U1_ECHO*%
%TA.AperFunction,SMDPad,CuDef*%
G36*
G01*
X121115204Y-93109134D02*
X121009138Y-93003068D01*
G75*
G02*
X121009138Y-92897002I53033J53033D01*
G01*
X121946054Y-91960086D01*
G75*
G02*
X122052120Y-91960086I53033J-53033D01*
G01*
X122158186Y-92066152D01*
G75*
G02*
X122158186Y-92172218I-53033J-53033D01*
G01*
X121221270Y-93109134D01*
G75*
G02*
X121115204Y-93109134I-53033J53033D01*
G01*
G37*
%TD.AperFunction*%
%TO.P,U1,103*%
%TO.N,U2_TRIG*%
%TA.AperFunction,SMDPad,CuDef*%
G36*
G01*
X120761651Y-92755581D02*
X120655585Y-92649515D01*
G75*
G02*
X120655585Y-92543449I53033J53033D01*
G01*
X121592501Y-91606533D01*
G75*
G02*
X121698567Y-91606533I53033J-53033D01*
G01*
X121804633Y-91712599D01*
G75*
G02*
X121804633Y-91818665I-53033J-53033D01*
G01*
X120867717Y-92755581D01*
G75*
G02*
X120761651Y-92755581I-53033J53033D01*
G01*
G37*
%TD.AperFunction*%
%TO.P,U1,104*%
%TO.N,U2_ECHO*%
%TA.AperFunction,SMDPad,CuDef*%
G36*
G01*
X120408097Y-92402027D02*
X120302031Y-92295961D01*
G75*
G02*
X120302031Y-92189895I53033J53033D01*
G01*
X121238947Y-91252979D01*
G75*
G02*
X121345013Y-91252979I53033J-53033D01*
G01*
X121451079Y-91359045D01*
G75*
G02*
X121451079Y-91465111I-53033J-53033D01*
G01*
X120514163Y-92402027D01*
G75*
G02*
X120408097Y-92402027I-53033J53033D01*
G01*
G37*
%TD.AperFunction*%
%TO.P,U1,105*%
%TO.N,DEBUG_JTMS-SWDIO*%
%TA.AperFunction,SMDPad,CuDef*%
G36*
G01*
X120054544Y-92048474D02*
X119948478Y-91942408D01*
G75*
G02*
X119948478Y-91836342I53033J53033D01*
G01*
X120885394Y-90899426D01*
G75*
G02*
X120991460Y-90899426I53033J-53033D01*
G01*
X121097526Y-91005492D01*
G75*
G02*
X121097526Y-91111558I-53033J-53033D01*
G01*
X120160610Y-92048474D01*
G75*
G02*
X120054544Y-92048474I-53033J53033D01*
G01*
G37*
%TD.AperFunction*%
%TO.P,U1,106*%
%TO.N,Net-(U1-Pad106)*%
%TA.AperFunction,SMDPad,CuDef*%
G36*
G01*
X119700991Y-91694920D02*
X119594925Y-91588854D01*
G75*
G02*
X119594925Y-91482788I53033J53033D01*
G01*
X120531841Y-90545872D01*
G75*
G02*
X120637907Y-90545872I53033J-53033D01*
G01*
X120743973Y-90651938D01*
G75*
G02*
X120743973Y-90758004I-53033J-53033D01*
G01*
X119807057Y-91694920D01*
G75*
G02*
X119700991Y-91694920I-53033J53033D01*
G01*
G37*
%TD.AperFunction*%
%TO.P,U1,107*%
%TO.N,GNDREF*%
%TA.AperFunction,SMDPad,CuDef*%
G36*
G01*
X119347437Y-91341367D02*
X119241371Y-91235301D01*
G75*
G02*
X119241371Y-91129235I53033J53033D01*
G01*
X120178287Y-90192319D01*
G75*
G02*
X120284353Y-90192319I53033J-53033D01*
G01*
X120390419Y-90298385D01*
G75*
G02*
X120390419Y-90404451I-53033J-53033D01*
G01*
X119453503Y-91341367D01*
G75*
G02*
X119347437Y-91341367I-53033J53033D01*
G01*
G37*
%TD.AperFunction*%
%TO.P,U1,108*%
%TO.N,+3V3*%
%TA.AperFunction,SMDPad,CuDef*%
G36*
G01*
X118993884Y-90987814D02*
X118887818Y-90881748D01*
G75*
G02*
X118887818Y-90775682I53033J53033D01*
G01*
X119824734Y-89838766D01*
G75*
G02*
X119930800Y-89838766I53033J-53033D01*
G01*
X120036866Y-89944832D01*
G75*
G02*
X120036866Y-90050898I-53033J-53033D01*
G01*
X119099950Y-90987814D01*
G75*
G02*
X118993884Y-90987814I-53033J53033D01*
G01*
G37*
%TD.AperFunction*%
%TO.P,U1,109*%
%TO.N,DEBUG_JTCK_SWCLK*%
%TA.AperFunction,SMDPad,CuDef*%
G36*
G01*
X117120050Y-90987814D02*
X116183134Y-90050898D01*
G75*
G02*
X116183134Y-89944832I53033J53033D01*
G01*
X116289200Y-89838766D01*
G75*
G02*
X116395266Y-89838766I53033J-53033D01*
G01*
X117332182Y-90775682D01*
G75*
G02*
X117332182Y-90881748I-53033J-53033D01*
G01*
X117226116Y-90987814D01*
G75*
G02*
X117120050Y-90987814I-53033J53033D01*
G01*
G37*
%TD.AperFunction*%
%TO.P,U1,110*%
%TO.N,U3_TRIG*%
%TA.AperFunction,SMDPad,CuDef*%
G36*
G01*
X116766497Y-91341367D02*
X115829581Y-90404451D01*
G75*
G02*
X115829581Y-90298385I53033J53033D01*
G01*
X115935647Y-90192319D01*
G75*
G02*
X116041713Y-90192319I53033J-53033D01*
G01*
X116978629Y-91129235D01*
G75*
G02*
X116978629Y-91235301I-53033J-53033D01*
G01*
X116872563Y-91341367D01*
G75*
G02*
X116766497Y-91341367I-53033J53033D01*
G01*
G37*
%TD.AperFunction*%
%TO.P,U1,111*%
%TO.N,U3_ECHO*%
%TA.AperFunction,SMDPad,CuDef*%
G36*
G01*
X116412943Y-91694920D02*
X115476027Y-90758004D01*
G75*
G02*
X115476027Y-90651938I53033J53033D01*
G01*
X115582093Y-90545872D01*
G75*
G02*
X115688159Y-90545872I53033J-53033D01*
G01*
X116625075Y-91482788D01*
G75*
G02*
X116625075Y-91588854I-53033J-53033D01*
G01*
X116519009Y-91694920D01*
G75*
G02*
X116412943Y-91694920I-53033J53033D01*
G01*
G37*
%TD.AperFunction*%
%TO.P,U1,112*%
%TO.N,U4_TRIG*%
%TA.AperFunction,SMDPad,CuDef*%
G36*
G01*
X116059390Y-92048474D02*
X115122474Y-91111558D01*
G75*
G02*
X115122474Y-91005492I53033J53033D01*
G01*
X115228540Y-90899426D01*
G75*
G02*
X115334606Y-90899426I53033J-53033D01*
G01*
X116271522Y-91836342D01*
G75*
G02*
X116271522Y-91942408I-53033J-53033D01*
G01*
X116165456Y-92048474D01*
G75*
G02*
X116059390Y-92048474I-53033J53033D01*
G01*
G37*
%TD.AperFunction*%
%TO.P,U1,113*%
%TO.N,U4_ECHO*%
%TA.AperFunction,SMDPad,CuDef*%
G36*
G01*
X115705837Y-92402027D02*
X114768921Y-91465111D01*
G75*
G02*
X114768921Y-91359045I53033J53033D01*
G01*
X114874987Y-91252979D01*
G75*
G02*
X114981053Y-91252979I53033J-53033D01*
G01*
X115917969Y-92189895D01*
G75*
G02*
X115917969Y-92295961I-53033J-53033D01*
G01*
X115811903Y-92402027D01*
G75*
G02*
X115705837Y-92402027I-53033J53033D01*
G01*
G37*
%TD.AperFunction*%
%TO.P,U1,114*%
%TO.N,U5_TRIG*%
%TA.AperFunction,SMDPad,CuDef*%
G36*
G01*
X115352283Y-92755581D02*
X114415367Y-91818665D01*
G75*
G02*
X114415367Y-91712599I53033J53033D01*
G01*
X114521433Y-91606533D01*
G75*
G02*
X114627499Y-91606533I53033J-53033D01*
G01*
X115564415Y-92543449D01*
G75*
G02*
X115564415Y-92649515I-53033J-53033D01*
G01*
X115458349Y-92755581D01*
G75*
G02*
X115352283Y-92755581I-53033J53033D01*
G01*
G37*
%TD.AperFunction*%
%TO.P,U1,115*%
%TO.N,U5_ECHO*%
%TA.AperFunction,SMDPad,CuDef*%
G36*
G01*
X114998730Y-93109134D02*
X114061814Y-92172218D01*
G75*
G02*
X114061814Y-92066152I53033J53033D01*
G01*
X114167880Y-91960086D01*
G75*
G02*
X114273946Y-91960086I53033J-53033D01*
G01*
X115210862Y-92897002D01*
G75*
G02*
X115210862Y-93003068I-53033J-53033D01*
G01*
X115104796Y-93109134D01*
G75*
G02*
X114998730Y-93109134I-53033J53033D01*
G01*
G37*
%TD.AperFunction*%
%TO.P,U1,116*%
%TO.N,U6_TRIG*%
%TA.AperFunction,SMDPad,CuDef*%
G36*
G01*
X114645177Y-93462687D02*
X113708261Y-92525771D01*
G75*
G02*
X113708261Y-92419705I53033J53033D01*
G01*
X113814327Y-92313639D01*
G75*
G02*
X113920393Y-92313639I53033J-53033D01*
G01*
X114857309Y-93250555D01*
G75*
G02*
X114857309Y-93356621I-53033J-53033D01*
G01*
X114751243Y-93462687D01*
G75*
G02*
X114645177Y-93462687I-53033J53033D01*
G01*
G37*
%TD.AperFunction*%
%TO.P,U1,117*%
%TO.N,U6_ECHO*%
%TA.AperFunction,SMDPad,CuDef*%
G36*
G01*
X114291623Y-93816241D02*
X113354707Y-92879325D01*
G75*
G02*
X113354707Y-92773259I53033J53033D01*
G01*
X113460773Y-92667193D01*
G75*
G02*
X113566839Y-92667193I53033J-53033D01*
G01*
X114503755Y-93604109D01*
G75*
G02*
X114503755Y-93710175I-53033J-53033D01*
G01*
X114397689Y-93816241D01*
G75*
G02*
X114291623Y-93816241I-53033J53033D01*
G01*
G37*
%TD.AperFunction*%
%TO.P,U1,118*%
%TO.N,U7_TRIG*%
%TA.AperFunction,SMDPad,CuDef*%
G36*
G01*
X113938070Y-94169794D02*
X113001154Y-93232878D01*
G75*
G02*
X113001154Y-93126812I53033J53033D01*
G01*
X113107220Y-93020746D01*
G75*
G02*
X113213286Y-93020746I53033J-53033D01*
G01*
X114150202Y-93957662D01*
G75*
G02*
X114150202Y-94063728I-53033J-53033D01*
G01*
X114044136Y-94169794D01*
G75*
G02*
X113938070Y-94169794I-53033J53033D01*
G01*
G37*
%TD.AperFunction*%
%TO.P,U1,119*%
%TO.N,UART2_TX*%
%TA.AperFunction,SMDPad,CuDef*%
G36*
G01*
X113584516Y-94523348D02*
X112647600Y-93586432D01*
G75*
G02*
X112647600Y-93480366I53033J53033D01*
G01*
X112753666Y-93374300D01*
G75*
G02*
X112859732Y-93374300I53033J-53033D01*
G01*
X113796648Y-94311216D01*
G75*
G02*
X113796648Y-94417282I-53033J-53033D01*
G01*
X113690582Y-94523348D01*
G75*
G02*
X113584516Y-94523348I-53033J53033D01*
G01*
G37*
%TD.AperFunction*%
%TO.P,U1,120*%
%TO.N,GNDREF*%
%TA.AperFunction,SMDPad,CuDef*%
G36*
G01*
X113230963Y-94876901D02*
X112294047Y-93939985D01*
G75*
G02*
X112294047Y-93833919I53033J53033D01*
G01*
X112400113Y-93727853D01*
G75*
G02*
X112506179Y-93727853I53033J-53033D01*
G01*
X113443095Y-94664769D01*
G75*
G02*
X113443095Y-94770835I-53033J-53033D01*
G01*
X113337029Y-94876901D01*
G75*
G02*
X113230963Y-94876901I-53033J53033D01*
G01*
G37*
%TD.AperFunction*%
%TO.P,U1,121*%
%TO.N,+3V3*%
%TA.AperFunction,SMDPad,CuDef*%
G36*
G01*
X112877410Y-95230454D02*
X111940494Y-94293538D01*
G75*
G02*
X111940494Y-94187472I53033J53033D01*
G01*
X112046560Y-94081406D01*
G75*
G02*
X112152626Y-94081406I53033J-53033D01*
G01*
X113089542Y-95018322D01*
G75*
G02*
X113089542Y-95124388I-53033J-53033D01*
G01*
X112983476Y-95230454D01*
G75*
G02*
X112877410Y-95230454I-53033J53033D01*
G01*
G37*
%TD.AperFunction*%
%TO.P,U1,122*%
%TO.N,UART2_RX*%
%TA.AperFunction,SMDPad,CuDef*%
G36*
G01*
X112523856Y-95584008D02*
X111586940Y-94647092D01*
G75*
G02*
X111586940Y-94541026I53033J53033D01*
G01*
X111693006Y-94434960D01*
G75*
G02*
X111799072Y-94434960I53033J-53033D01*
G01*
X112735988Y-95371876D01*
G75*
G02*
X112735988Y-95477942I-53033J-53033D01*
G01*
X112629922Y-95584008D01*
G75*
G02*
X112523856Y-95584008I-53033J53033D01*
G01*
G37*
%TD.AperFunction*%
%TO.P,U1,123*%
%TO.N,U7_ECHO*%
%TA.AperFunction,SMDPad,CuDef*%
G36*
G01*
X112170303Y-95937561D02*
X111233387Y-95000645D01*
G75*
G02*
X111233387Y-94894579I53033J53033D01*
G01*
X111339453Y-94788513D01*
G75*
G02*
X111445519Y-94788513I53033J-53033D01*
G01*
X112382435Y-95725429D01*
G75*
G02*
X112382435Y-95831495I-53033J-53033D01*
G01*
X112276369Y-95937561D01*
G75*
G02*
X112170303Y-95937561I-53033J53033D01*
G01*
G37*
%TD.AperFunction*%
%TO.P,U1,124*%
%TO.N,U8_TRIG*%
%TA.AperFunction,SMDPad,CuDef*%
G36*
G01*
X111816749Y-96291114D02*
X110879833Y-95354198D01*
G75*
G02*
X110879833Y-95248132I53033J53033D01*
G01*
X110985899Y-95142066D01*
G75*
G02*
X111091965Y-95142066I53033J-53033D01*
G01*
X112028881Y-96078982D01*
G75*
G02*
X112028881Y-96185048I-53033J-53033D01*
G01*
X111922815Y-96291114D01*
G75*
G02*
X111816749Y-96291114I-53033J53033D01*
G01*
G37*
%TD.AperFunction*%
%TO.P,U1,125*%
%TO.N,U8_ECHO*%
%TA.AperFunction,SMDPad,CuDef*%
G36*
G01*
X111463196Y-96644668D02*
X110526280Y-95707752D01*
G75*
G02*
X110526280Y-95601686I53033J53033D01*
G01*
X110632346Y-95495620D01*
G75*
G02*
X110738412Y-95495620I53033J-53033D01*
G01*
X111675328Y-96432536D01*
G75*
G02*
X111675328Y-96538602I-53033J-53033D01*
G01*
X111569262Y-96644668D01*
G75*
G02*
X111463196Y-96644668I-53033J53033D01*
G01*
G37*
%TD.AperFunction*%
%TO.P,U1,126*%
%TO.N,U9_TRIG*%
%TA.AperFunction,SMDPad,CuDef*%
G36*
G01*
X111109643Y-96998221D02*
X110172727Y-96061305D01*
G75*
G02*
X110172727Y-95955239I53033J53033D01*
G01*
X110278793Y-95849173D01*
G75*
G02*
X110384859Y-95849173I53033J-53033D01*
G01*
X111321775Y-96786089D01*
G75*
G02*
X111321775Y-96892155I-53033J-53033D01*
G01*
X111215709Y-96998221D01*
G75*
G02*
X111109643Y-96998221I-53033J53033D01*
G01*
G37*
%TD.AperFunction*%
%TO.P,U1,127*%
%TO.N,U9_ECHO*%
%TA.AperFunction,SMDPad,CuDef*%
G36*
G01*
X110756089Y-97351775D02*
X109819173Y-96414859D01*
G75*
G02*
X109819173Y-96308793I53033J53033D01*
G01*
X109925239Y-96202727D01*
G75*
G02*
X110031305Y-96202727I53033J-53033D01*
G01*
X110968221Y-97139643D01*
G75*
G02*
X110968221Y-97245709I-53033J-53033D01*
G01*
X110862155Y-97351775D01*
G75*
G02*
X110756089Y-97351775I-53033J53033D01*
G01*
G37*
%TD.AperFunction*%
%TO.P,U1,128*%
%TO.N,U10_TRIG*%
%TA.AperFunction,SMDPad,CuDef*%
G36*
G01*
X110402536Y-97705328D02*
X109465620Y-96768412D01*
G75*
G02*
X109465620Y-96662346I53033J53033D01*
G01*
X109571686Y-96556280D01*
G75*
G02*
X109677752Y-96556280I53033J-53033D01*
G01*
X110614668Y-97493196D01*
G75*
G02*
X110614668Y-97599262I-53033J-53033D01*
G01*
X110508602Y-97705328D01*
G75*
G02*
X110402536Y-97705328I-53033J53033D01*
G01*
G37*
%TD.AperFunction*%
%TO.P,U1,129*%
%TO.N,U10_ECHO*%
%TA.AperFunction,SMDPad,CuDef*%
G36*
G01*
X110048982Y-98058881D02*
X109112066Y-97121965D01*
G75*
G02*
X109112066Y-97015899I53033J53033D01*
G01*
X109218132Y-96909833D01*
G75*
G02*
X109324198Y-96909833I53033J-53033D01*
G01*
X110261114Y-97846749D01*
G75*
G02*
X110261114Y-97952815I-53033J-53033D01*
G01*
X110155048Y-98058881D01*
G75*
G02*
X110048982Y-98058881I-53033J53033D01*
G01*
G37*
%TD.AperFunction*%
%TO.P,U1,130*%
%TO.N,GNDREF*%
%TA.AperFunction,SMDPad,CuDef*%
G36*
G01*
X109695429Y-98412435D02*
X108758513Y-97475519D01*
G75*
G02*
X108758513Y-97369453I53033J53033D01*
G01*
X108864579Y-97263387D01*
G75*
G02*
X108970645Y-97263387I53033J-53033D01*
G01*
X109907561Y-98200303D01*
G75*
G02*
X109907561Y-98306369I-53033J-53033D01*
G01*
X109801495Y-98412435D01*
G75*
G02*
X109695429Y-98412435I-53033J53033D01*
G01*
G37*
%TD.AperFunction*%
%TO.P,U1,131*%
%TO.N,+3V3*%
%TA.AperFunction,SMDPad,CuDef*%
G36*
G01*
X109341876Y-98765988D02*
X108404960Y-97829072D01*
G75*
G02*
X108404960Y-97723006I53033J53033D01*
G01*
X108511026Y-97616940D01*
G75*
G02*
X108617092Y-97616940I53033J-53033D01*
G01*
X109554008Y-98553856D01*
G75*
G02*
X109554008Y-98659922I-53033J-53033D01*
G01*
X109447942Y-98765988D01*
G75*
G02*
X109341876Y-98765988I-53033J53033D01*
G01*
G37*
%TD.AperFunction*%
%TO.P,U1,132*%
%TO.N,U11_TRIG*%
%TA.AperFunction,SMDPad,CuDef*%
G36*
G01*
X108988322Y-99119542D02*
X108051406Y-98182626D01*
G75*
G02*
X108051406Y-98076560I53033J53033D01*
G01*
X108157472Y-97970494D01*
G75*
G02*
X108263538Y-97970494I53033J-53033D01*
G01*
X109200454Y-98907410D01*
G75*
G02*
X109200454Y-99013476I-53033J-53033D01*
G01*
X109094388Y-99119542D01*
G75*
G02*
X108988322Y-99119542I-53033J53033D01*
G01*
G37*
%TD.AperFunction*%
%TO.P,U1,133*%
%TO.N,U11_ECHO*%
%TA.AperFunction,SMDPad,CuDef*%
G36*
G01*
X108634769Y-99473095D02*
X107697853Y-98536179D01*
G75*
G02*
X107697853Y-98430113I53033J53033D01*
G01*
X107803919Y-98324047D01*
G75*
G02*
X107909985Y-98324047I53033J-53033D01*
G01*
X108846901Y-99260963D01*
G75*
G02*
X108846901Y-99367029I-53033J-53033D01*
G01*
X108740835Y-99473095D01*
G75*
G02*
X108634769Y-99473095I-53033J53033D01*
G01*
G37*
%TD.AperFunction*%
%TO.P,U1,134*%
%TO.N,U12_TRIG*%
%TA.AperFunction,SMDPad,CuDef*%
G36*
G01*
X108281216Y-99826648D02*
X107344300Y-98889732D01*
G75*
G02*
X107344300Y-98783666I53033J53033D01*
G01*
X107450366Y-98677600D01*
G75*
G02*
X107556432Y-98677600I53033J-53033D01*
G01*
X108493348Y-99614516D01*
G75*
G02*
X108493348Y-99720582I-53033J-53033D01*
G01*
X108387282Y-99826648D01*
G75*
G02*
X108281216Y-99826648I-53033J53033D01*
G01*
G37*
%TD.AperFunction*%
%TO.P,U1,135*%
%TO.N,U12_ECHO*%
%TA.AperFunction,SMDPad,CuDef*%
G36*
G01*
X107927662Y-100180202D02*
X106990746Y-99243286D01*
G75*
G02*
X106990746Y-99137220I53033J53033D01*
G01*
X107096812Y-99031154D01*
G75*
G02*
X107202878Y-99031154I53033J-53033D01*
G01*
X108139794Y-99968070D01*
G75*
G02*
X108139794Y-100074136I-53033J-53033D01*
G01*
X108033728Y-100180202D01*
G75*
G02*
X107927662Y-100180202I-53033J53033D01*
G01*
G37*
%TD.AperFunction*%
%TO.P,U1,136*%
%TO.N,U13_TRIG*%
%TA.AperFunction,SMDPad,CuDef*%
G36*
G01*
X107574109Y-100533755D02*
X106637193Y-99596839D01*
G75*
G02*
X106637193Y-99490773I53033J53033D01*
G01*
X106743259Y-99384707D01*
G75*
G02*
X106849325Y-99384707I53033J-53033D01*
G01*
X107786241Y-100321623D01*
G75*
G02*
X107786241Y-100427689I-53033J-53033D01*
G01*
X107680175Y-100533755D01*
G75*
G02*
X107574109Y-100533755I-53033J53033D01*
G01*
G37*
%TD.AperFunction*%
%TO.P,U1,137*%
%TO.N,U13_ECHO*%
%TA.AperFunction,SMDPad,CuDef*%
G36*
G01*
X107220555Y-100887309D02*
X106283639Y-99950393D01*
G75*
G02*
X106283639Y-99844327I53033J53033D01*
G01*
X106389705Y-99738261D01*
G75*
G02*
X106495771Y-99738261I53033J-53033D01*
G01*
X107432687Y-100675177D01*
G75*
G02*
X107432687Y-100781243I-53033J-53033D01*
G01*
X107326621Y-100887309D01*
G75*
G02*
X107220555Y-100887309I-53033J53033D01*
G01*
G37*
%TD.AperFunction*%
%TO.P,U1,138*%
%TO.N,Net-(R3-Pad2)*%
%TA.AperFunction,SMDPad,CuDef*%
G36*
G01*
X106867002Y-101240862D02*
X105930086Y-100303946D01*
G75*
G02*
X105930086Y-100197880I53033J53033D01*
G01*
X106036152Y-100091814D01*
G75*
G02*
X106142218Y-100091814I53033J-53033D01*
G01*
X107079134Y-101028730D01*
G75*
G02*
X107079134Y-101134796I-53033J-53033D01*
G01*
X106973068Y-101240862D01*
G75*
G02*
X106867002Y-101240862I-53033J53033D01*
G01*
G37*
%TD.AperFunction*%
%TO.P,U1,139*%
%TO.N,L3_DT*%
%TA.AperFunction,SMDPad,CuDef*%
G36*
G01*
X106513449Y-101594415D02*
X105576533Y-100657499D01*
G75*
G02*
X105576533Y-100551433I53033J53033D01*
G01*
X105682599Y-100445367D01*
G75*
G02*
X105788665Y-100445367I53033J-53033D01*
G01*
X106725581Y-101382283D01*
G75*
G02*
X106725581Y-101488349I-53033J-53033D01*
G01*
X106619515Y-101594415D01*
G75*
G02*
X106513449Y-101594415I-53033J53033D01*
G01*
G37*
%TD.AperFunction*%
%TO.P,U1,140*%
%TO.N,L3_SCK*%
%TA.AperFunction,SMDPad,CuDef*%
G36*
G01*
X106159895Y-101947969D02*
X105222979Y-101011053D01*
G75*
G02*
X105222979Y-100904987I53033J53033D01*
G01*
X105329045Y-100798921D01*
G75*
G02*
X105435111Y-100798921I53033J-53033D01*
G01*
X106372027Y-101735837D01*
G75*
G02*
X106372027Y-101841903I-53033J-53033D01*
G01*
X106265961Y-101947969D01*
G75*
G02*
X106159895Y-101947969I-53033J53033D01*
G01*
G37*
%TD.AperFunction*%
%TO.P,U1,141*%
%TO.N,L4_DT*%
%TA.AperFunction,SMDPad,CuDef*%
G36*
G01*
X105806342Y-102301522D02*
X104869426Y-101364606D01*
G75*
G02*
X104869426Y-101258540I53033J53033D01*
G01*
X104975492Y-101152474D01*
G75*
G02*
X105081558Y-101152474I53033J-53033D01*
G01*
X106018474Y-102089390D01*
G75*
G02*
X106018474Y-102195456I-53033J-53033D01*
G01*
X105912408Y-102301522D01*
G75*
G02*
X105806342Y-102301522I-53033J53033D01*
G01*
G37*
%TD.AperFunction*%
%TO.P,U1,142*%
%TO.N,L4_SCK*%
%TA.AperFunction,SMDPad,CuDef*%
G36*
G01*
X105452788Y-102655075D02*
X104515872Y-101718159D01*
G75*
G02*
X104515872Y-101612093I53033J53033D01*
G01*
X104621938Y-101506027D01*
G75*
G02*
X104728004Y-101506027I53033J-53033D01*
G01*
X105664920Y-102442943D01*
G75*
G02*
X105664920Y-102549009I-53033J-53033D01*
G01*
X105558854Y-102655075D01*
G75*
G02*
X105452788Y-102655075I-53033J53033D01*
G01*
G37*
%TD.AperFunction*%
%TO.P,U1,143*%
%TO.N,Net-(U1-Pad143)*%
%TA.AperFunction,SMDPad,CuDef*%
G36*
G01*
X105099235Y-103008629D02*
X104162319Y-102071713D01*
G75*
G02*
X104162319Y-101965647I53033J53033D01*
G01*
X104268385Y-101859581D01*
G75*
G02*
X104374451Y-101859581I53033J-53033D01*
G01*
X105311367Y-102796497D01*
G75*
G02*
X105311367Y-102902563I-53033J-53033D01*
G01*
X105205301Y-103008629D01*
G75*
G02*
X105099235Y-103008629I-53033J53033D01*
G01*
G37*
%TD.AperFunction*%
%TO.P,U1,144*%
%TO.N,+3V3*%
%TA.AperFunction,SMDPad,CuDef*%
G36*
G01*
X104745682Y-103362182D02*
X103808766Y-102425266D01*
G75*
G02*
X103808766Y-102319200I53033J53033D01*
G01*
X103914832Y-102213134D01*
G75*
G02*
X104020898Y-102213134I53033J-53033D01*
G01*
X104957814Y-103150050D01*
G75*
G02*
X104957814Y-103256116I-53033J-53033D01*
G01*
X104851748Y-103362182D01*
G75*
G02*
X104745682Y-103362182I-53033J53033D01*
G01*
G37*
%TD.AperFunction*%
%TD*%
D22*
%TO.P,U2,1*%
%TO.N,Net-(C1-Pad1)*%
X71432000Y-47685000D03*
%TO.P,U2,2*%
%TO.N,Net-(D1-Pad2)*%
X73132000Y-47685000D03*
%TO.P,U2,3*%
%TO.N,Net-(C1-Pad2)*%
X74832000Y-47685000D03*
%TO.P,U2,4*%
%TO.N,Net-(C3-Pad1)*%
X76532000Y-47685000D03*
%TO.P,U2,5*%
%TO.N,Net-(C1-Pad2)*%
X78232000Y-47685000D03*
D23*
%TO.P,U2,3*%
X74832000Y-38535000D03*
%TD*%
D24*
%TO.P,Y1,1*%
%TO.N,Net-(C7-Pad1)*%
X108661200Y-125120400D03*
%TO.P,Y1,2*%
%TO.N,Net-(C6-Pad1)*%
X105210519Y-121669719D03*
%TD*%
D25*
%TO.P,Y2,1*%
%TO.N,Net-(C8-Pad1)*%
X98221800Y-114274600D03*
%TO.P,Y2,2*%
%TO.N,Net-(C9-Pad1)*%
X99423882Y-115476682D03*
%TD*%
%TO.P,C15,1*%
%TO.N,+3V8*%
%TA.AperFunction,SMDPad,CuDef*%
G36*
G01*
X136685000Y-171327500D02*
X137635000Y-171327500D01*
G75*
G02*
X137885000Y-171577500I0J-250000D01*
G01*
X137885000Y-172252500D01*
G75*
G02*
X137635000Y-172502500I-250000J0D01*
G01*
X136685000Y-172502500D01*
G75*
G02*
X136435000Y-172252500I0J250000D01*
G01*
X136435000Y-171577500D01*
G75*
G02*
X136685000Y-171327500I250000J0D01*
G01*
G37*
%TD.AperFunction*%
%TO.P,C15,2*%
%TO.N,GNDD*%
%TA.AperFunction,SMDPad,CuDef*%
G36*
G01*
X136685000Y-173402500D02*
X137635000Y-173402500D01*
G75*
G02*
X137885000Y-173652500I0J-250000D01*
G01*
X137885000Y-174327500D01*
G75*
G02*
X137635000Y-174577500I-250000J0D01*
G01*
X136685000Y-174577500D01*
G75*
G02*
X136435000Y-174327500I0J250000D01*
G01*
X136435000Y-173652500D01*
G75*
G02*
X136685000Y-173402500I250000J0D01*
G01*
G37*
%TD.AperFunction*%
%TD*%
%TO.P,C16,2*%
%TO.N,GNDD*%
%TA.AperFunction,SMDPad,CuDef*%
G36*
G01*
X134145000Y-173402500D02*
X135095000Y-173402500D01*
G75*
G02*
X135345000Y-173652500I0J-250000D01*
G01*
X135345000Y-174327500D01*
G75*
G02*
X135095000Y-174577500I-250000J0D01*
G01*
X134145000Y-174577500D01*
G75*
G02*
X133895000Y-174327500I0J250000D01*
G01*
X133895000Y-173652500D01*
G75*
G02*
X134145000Y-173402500I250000J0D01*
G01*
G37*
%TD.AperFunction*%
%TO.P,C16,1*%
%TO.N,+3V8*%
%TA.AperFunction,SMDPad,CuDef*%
G36*
G01*
X134145000Y-171327500D02*
X135095000Y-171327500D01*
G75*
G02*
X135345000Y-171577500I0J-250000D01*
G01*
X135345000Y-172252500D01*
G75*
G02*
X135095000Y-172502500I-250000J0D01*
G01*
X134145000Y-172502500D01*
G75*
G02*
X133895000Y-172252500I0J250000D01*
G01*
X133895000Y-171577500D01*
G75*
G02*
X134145000Y-171327500I250000J0D01*
G01*
G37*
%TD.AperFunction*%
%TD*%
%TO.P,C17,1*%
%TO.N,+3V8*%
%TA.AperFunction,SMDPad,CuDef*%
G36*
G01*
X131605000Y-171327500D02*
X132555000Y-171327500D01*
G75*
G02*
X132805000Y-171577500I0J-250000D01*
G01*
X132805000Y-172252500D01*
G75*
G02*
X132555000Y-172502500I-250000J0D01*
G01*
X131605000Y-172502500D01*
G75*
G02*
X131355000Y-172252500I0J250000D01*
G01*
X131355000Y-171577500D01*
G75*
G02*
X131605000Y-171327500I250000J0D01*
G01*
G37*
%TD.AperFunction*%
%TO.P,C17,2*%
%TO.N,GNDD*%
%TA.AperFunction,SMDPad,CuDef*%
G36*
G01*
X131605000Y-173402500D02*
X132555000Y-173402500D01*
G75*
G02*
X132805000Y-173652500I0J-250000D01*
G01*
X132805000Y-174327500D01*
G75*
G02*
X132555000Y-174577500I-250000J0D01*
G01*
X131605000Y-174577500D01*
G75*
G02*
X131355000Y-174327500I0J250000D01*
G01*
X131355000Y-173652500D01*
G75*
G02*
X131605000Y-173402500I250000J0D01*
G01*
G37*
%TD.AperFunction*%
%TD*%
%TO.P,C18,2*%
%TO.N,GNDD*%
%TA.AperFunction,SMDPad,CuDef*%
G36*
G01*
X105660000Y-150310000D02*
X105160000Y-150310000D01*
G75*
G02*
X104935000Y-150085000I0J225000D01*
G01*
X104935000Y-149635000D01*
G75*
G02*
X105160000Y-149410000I225000J0D01*
G01*
X105660000Y-149410000D01*
G75*
G02*
X105885000Y-149635000I0J-225000D01*
G01*
X105885000Y-150085000D01*
G75*
G02*
X105660000Y-150310000I-225000J0D01*
G01*
G37*
%TD.AperFunction*%
%TO.P,C18,1*%
%TO.N,IO_0*%
%TA.AperFunction,SMDPad,CuDef*%
G36*
G01*
X105660000Y-151860000D02*
X105160000Y-151860000D01*
G75*
G02*
X104935000Y-151635000I0J225000D01*
G01*
X104935000Y-151185000D01*
G75*
G02*
X105160000Y-150960000I225000J0D01*
G01*
X105660000Y-150960000D01*
G75*
G02*
X105885000Y-151185000I0J-225000D01*
G01*
X105885000Y-151635000D01*
G75*
G02*
X105660000Y-151860000I-225000J0D01*
G01*
G37*
%TD.AperFunction*%
%TD*%
%TO.P,C19,1*%
%TO.N,EN*%
%TA.AperFunction,SMDPad,CuDef*%
G36*
G01*
X134870000Y-166820000D02*
X134370000Y-166820000D01*
G75*
G02*
X134145000Y-166595000I0J225000D01*
G01*
X134145000Y-166145000D01*
G75*
G02*
X134370000Y-165920000I225000J0D01*
G01*
X134870000Y-165920000D01*
G75*
G02*
X135095000Y-166145000I0J-225000D01*
G01*
X135095000Y-166595000D01*
G75*
G02*
X134870000Y-166820000I-225000J0D01*
G01*
G37*
%TD.AperFunction*%
%TO.P,C19,2*%
%TO.N,GNDD*%
%TA.AperFunction,SMDPad,CuDef*%
G36*
G01*
X134870000Y-165270000D02*
X134370000Y-165270000D01*
G75*
G02*
X134145000Y-165045000I0J225000D01*
G01*
X134145000Y-164595000D01*
G75*
G02*
X134370000Y-164370000I225000J0D01*
G01*
X134870000Y-164370000D01*
G75*
G02*
X135095000Y-164595000I0J-225000D01*
G01*
X135095000Y-165045000D01*
G75*
G02*
X134870000Y-165270000I-225000J0D01*
G01*
G37*
%TD.AperFunction*%
%TD*%
%TO.P,J11,1*%
%TO.N,+5V*%
%TA.AperFunction,ComponentPad*%
G36*
G01*
X85490000Y-178645001D02*
X85490000Y-176954999D01*
G75*
G02*
X85739999Y-176705000I249999J0D01*
G01*
X86980001Y-176705000D01*
G75*
G02*
X87230000Y-176954999I0J-249999D01*
G01*
X87230000Y-178645001D01*
G75*
G02*
X86980001Y-178895000I-249999J0D01*
G01*
X85739999Y-178895000D01*
G75*
G02*
X85490000Y-178645001I0J249999D01*
G01*
G37*
%TD.AperFunction*%
D26*
%TO.P,J11,2*%
%TO.N,Net-(J11-Pad2)*%
X88900000Y-177800000D03*
%TO.P,J11,3*%
%TO.N,GNDD*%
X91440000Y-177800000D03*
%TD*%
%TO.P,J12,3*%
%TO.N,GNDD*%
X80010000Y-177825400D03*
%TO.P,J12,2*%
%TO.N,Net-(J12-Pad2)*%
X77470000Y-177825400D03*
%TO.P,J12,1*%
%TO.N,+5V*%
%TA.AperFunction,ComponentPad*%
G36*
G01*
X74060000Y-178670401D02*
X74060000Y-176980399D01*
G75*
G02*
X74309999Y-176730400I249999J0D01*
G01*
X75550001Y-176730400D01*
G75*
G02*
X75800000Y-176980399I0J-249999D01*
G01*
X75800000Y-178670401D01*
G75*
G02*
X75550001Y-178920400I-249999J0D01*
G01*
X74309999Y-178920400D01*
G75*
G02*
X74060000Y-178670401I0J249999D01*
G01*
G37*
%TD.AperFunction*%
%TD*%
%TO.P,J13,1*%
%TO.N,+5V*%
%TA.AperFunction,ComponentPad*%
G36*
G01*
X140100000Y-178645001D02*
X140100000Y-176954999D01*
G75*
G02*
X140349999Y-176705000I249999J0D01*
G01*
X141590001Y-176705000D01*
G75*
G02*
X141840000Y-176954999I0J-249999D01*
G01*
X141840000Y-178645001D01*
G75*
G02*
X141590001Y-178895000I-249999J0D01*
G01*
X140349999Y-178895000D01*
G75*
G02*
X140100000Y-178645001I0J249999D01*
G01*
G37*
%TD.AperFunction*%
%TO.P,J13,2*%
%TO.N,GNDD*%
X143510000Y-177800000D03*
%TO.P,J13,3*%
%TO.N,MQ-3*%
X146050000Y-177800000D03*
%TO.P,J13,4*%
%TO.N,Net-(J13-Pad4)*%
X148590000Y-177800000D03*
%TD*%
%TO.P,J14,1*%
%TO.N,Net-(J14-Pad1)*%
%TA.AperFunction,ComponentPad*%
G36*
G01*
X154070000Y-178645001D02*
X154070000Y-176954999D01*
G75*
G02*
X154319999Y-176705000I249999J0D01*
G01*
X155560001Y-176705000D01*
G75*
G02*
X155810000Y-176954999I0J-249999D01*
G01*
X155810000Y-178645001D01*
G75*
G02*
X155560001Y-178895000I-249999J0D01*
G01*
X154319999Y-178895000D01*
G75*
G02*
X154070000Y-178645001I0J249999D01*
G01*
G37*
%TD.AperFunction*%
%TO.P,J14,2*%
%TO.N,Pressures_sensor*%
X157480000Y-177800000D03*
%TO.P,J14,3*%
%TO.N,GNDD*%
X160020000Y-177800000D03*
%TD*%
%TO.P,R4,1*%
%TO.N,Net-(J11-Pad2)*%
%TA.AperFunction,SMDPad,CuDef*%
G36*
G01*
X88500000Y-171725000D02*
X88500000Y-171175000D01*
G75*
G02*
X88700000Y-170975000I200000J0D01*
G01*
X89100000Y-170975000D01*
G75*
G02*
X89300000Y-171175000I0J-200000D01*
G01*
X89300000Y-171725000D01*
G75*
G02*
X89100000Y-171925000I-200000J0D01*
G01*
X88700000Y-171925000D01*
G75*
G02*
X88500000Y-171725000I0J200000D01*
G01*
G37*
%TD.AperFunction*%
%TO.P,R4,2*%
%TO.N,Net-(MOD1-Pad29)*%
%TA.AperFunction,SMDPad,CuDef*%
G36*
G01*
X90150000Y-171725000D02*
X90150000Y-171175000D01*
G75*
G02*
X90350000Y-170975000I200000J0D01*
G01*
X90750000Y-170975000D01*
G75*
G02*
X90950000Y-171175000I0J-200000D01*
G01*
X90950000Y-171725000D01*
G75*
G02*
X90750000Y-171925000I-200000J0D01*
G01*
X90350000Y-171925000D01*
G75*
G02*
X90150000Y-171725000I0J200000D01*
G01*
G37*
%TD.AperFunction*%
%TD*%
%TO.P,R5,1*%
%TO.N,Net-(J12-Pad2)*%
%TA.AperFunction,SMDPad,CuDef*%
G36*
G01*
X76690000Y-171750400D02*
X76690000Y-171200400D01*
G75*
G02*
X76890000Y-171000400I200000J0D01*
G01*
X77290000Y-171000400D01*
G75*
G02*
X77490000Y-171200400I0J-200000D01*
G01*
X77490000Y-171750400D01*
G75*
G02*
X77290000Y-171950400I-200000J0D01*
G01*
X76890000Y-171950400D01*
G75*
G02*
X76690000Y-171750400I0J200000D01*
G01*
G37*
%TD.AperFunction*%
%TO.P,R5,2*%
%TO.N,Net-(MOD1-Pad26)*%
%TA.AperFunction,SMDPad,CuDef*%
G36*
G01*
X78340000Y-171750400D02*
X78340000Y-171200400D01*
G75*
G02*
X78540000Y-171000400I200000J0D01*
G01*
X78940000Y-171000400D01*
G75*
G02*
X79140000Y-171200400I0J-200000D01*
G01*
X79140000Y-171750400D01*
G75*
G02*
X78940000Y-171950400I-200000J0D01*
G01*
X78540000Y-171950400D01*
G75*
G02*
X78340000Y-171750400I0J200000D01*
G01*
G37*
%TD.AperFunction*%
%TD*%
%TO.P,R6,2*%
%TO.N,GNDD*%
%TA.AperFunction,SMDPad,CuDef*%
G36*
G01*
X94850000Y-171725000D02*
X94850000Y-171175000D01*
G75*
G02*
X95050000Y-170975000I200000J0D01*
G01*
X95450000Y-170975000D01*
G75*
G02*
X95650000Y-171175000I0J-200000D01*
G01*
X95650000Y-171725000D01*
G75*
G02*
X95450000Y-171925000I-200000J0D01*
G01*
X95050000Y-171925000D01*
G75*
G02*
X94850000Y-171725000I0J200000D01*
G01*
G37*
%TD.AperFunction*%
%TO.P,R6,1*%
%TO.N,Net-(MOD1-Pad29)*%
%TA.AperFunction,SMDPad,CuDef*%
G36*
G01*
X93200000Y-171725000D02*
X93200000Y-171175000D01*
G75*
G02*
X93400000Y-170975000I200000J0D01*
G01*
X93800000Y-170975000D01*
G75*
G02*
X94000000Y-171175000I0J-200000D01*
G01*
X94000000Y-171725000D01*
G75*
G02*
X93800000Y-171925000I-200000J0D01*
G01*
X93400000Y-171925000D01*
G75*
G02*
X93200000Y-171725000I0J200000D01*
G01*
G37*
%TD.AperFunction*%
%TD*%
%TO.P,R7,1*%
%TO.N,Net-(MOD1-Pad26)*%
%TA.AperFunction,SMDPad,CuDef*%
G36*
G01*
X80500000Y-171750400D02*
X80500000Y-171200400D01*
G75*
G02*
X80700000Y-171000400I200000J0D01*
G01*
X81100000Y-171000400D01*
G75*
G02*
X81300000Y-171200400I0J-200000D01*
G01*
X81300000Y-171750400D01*
G75*
G02*
X81100000Y-171950400I-200000J0D01*
G01*
X80700000Y-171950400D01*
G75*
G02*
X80500000Y-171750400I0J200000D01*
G01*
G37*
%TD.AperFunction*%
%TO.P,R7,2*%
%TO.N,GNDD*%
%TA.AperFunction,SMDPad,CuDef*%
G36*
G01*
X82150000Y-171750400D02*
X82150000Y-171200400D01*
G75*
G02*
X82350000Y-171000400I200000J0D01*
G01*
X82750000Y-171000400D01*
G75*
G02*
X82950000Y-171200400I0J-200000D01*
G01*
X82950000Y-171750400D01*
G75*
G02*
X82750000Y-171950400I-200000J0D01*
G01*
X82350000Y-171950400D01*
G75*
G02*
X82150000Y-171750400I0J200000D01*
G01*
G37*
%TD.AperFunction*%
%TD*%
%TO.P,R8,2*%
%TO.N,Net-(J14-Pad1)*%
%TA.AperFunction,SMDPad,CuDef*%
G36*
G01*
X154653800Y-172791800D02*
X154653800Y-172241800D01*
G75*
G02*
X154853800Y-172041800I200000J0D01*
G01*
X155253800Y-172041800D01*
G75*
G02*
X155453800Y-172241800I0J-200000D01*
G01*
X155453800Y-172791800D01*
G75*
G02*
X155253800Y-172991800I-200000J0D01*
G01*
X154853800Y-172991800D01*
G75*
G02*
X154653800Y-172791800I0J200000D01*
G01*
G37*
%TD.AperFunction*%
%TO.P,R8,1*%
%TO.N,+5V*%
%TA.AperFunction,SMDPad,CuDef*%
G36*
G01*
X153003800Y-172791800D02*
X153003800Y-172241800D01*
G75*
G02*
X153203800Y-172041800I200000J0D01*
G01*
X153603800Y-172041800D01*
G75*
G02*
X153803800Y-172241800I0J-200000D01*
G01*
X153803800Y-172791800D01*
G75*
G02*
X153603800Y-172991800I-200000J0D01*
G01*
X153203800Y-172991800D01*
G75*
G02*
X153003800Y-172791800I0J200000D01*
G01*
G37*
%TD.AperFunction*%
%TD*%
%TO.P,R9,2*%
%TO.N,GNDREF*%
%TA.AperFunction,SMDPad,CuDef*%
G36*
G01*
X125694602Y-145494900D02*
X124444598Y-145494900D01*
G75*
G02*
X124194600Y-145244902I0J249998D01*
G01*
X124194600Y-144619898D01*
G75*
G02*
X124444598Y-144369900I249998J0D01*
G01*
X125694602Y-144369900D01*
G75*
G02*
X125944600Y-144619898I0J-249998D01*
G01*
X125944600Y-145244902D01*
G75*
G02*
X125694602Y-145494900I-249998J0D01*
G01*
G37*
%TD.AperFunction*%
%TO.P,R9,1*%
%TO.N,GNDD*%
%TA.AperFunction,SMDPad,CuDef*%
G36*
G01*
X125694602Y-148419900D02*
X124444598Y-148419900D01*
G75*
G02*
X124194600Y-148169902I0J249998D01*
G01*
X124194600Y-147544898D01*
G75*
G02*
X124444598Y-147294900I249998J0D01*
G01*
X125694602Y-147294900D01*
G75*
G02*
X125944600Y-147544898I0J-249998D01*
G01*
X125944600Y-148169902D01*
G75*
G02*
X125694602Y-148419900I-249998J0D01*
G01*
G37*
%TD.AperFunction*%
%TD*%
%TO.P,R10,1*%
%TO.N,+3V8*%
%TA.AperFunction,SMDPad,CuDef*%
G36*
G01*
X117465002Y-148075000D02*
X116214998Y-148075000D01*
G75*
G02*
X115965000Y-147825002I0J249998D01*
G01*
X115965000Y-147199998D01*
G75*
G02*
X116214998Y-146950000I249998J0D01*
G01*
X117465002Y-146950000D01*
G75*
G02*
X117715000Y-147199998I0J-249998D01*
G01*
X117715000Y-147825002D01*
G75*
G02*
X117465002Y-148075000I-249998J0D01*
G01*
G37*
%TD.AperFunction*%
%TO.P,R10,2*%
%TO.N,+3V3*%
%TA.AperFunction,SMDPad,CuDef*%
G36*
G01*
X117465002Y-145150000D02*
X116214998Y-145150000D01*
G75*
G02*
X115965000Y-144900002I0J249998D01*
G01*
X115965000Y-144274998D01*
G75*
G02*
X116214998Y-144025000I249998J0D01*
G01*
X117465002Y-144025000D01*
G75*
G02*
X117715000Y-144274998I0J-249998D01*
G01*
X117715000Y-144900002D01*
G75*
G02*
X117465002Y-145150000I-249998J0D01*
G01*
G37*
%TD.AperFunction*%
%TD*%
%TO.P,R11,2*%
%TO.N,+3V8*%
%TA.AperFunction,SMDPad,CuDef*%
G36*
G01*
X105135000Y-155810000D02*
X105685000Y-155810000D01*
G75*
G02*
X105885000Y-156010000I0J-200000D01*
G01*
X105885000Y-156410000D01*
G75*
G02*
X105685000Y-156610000I-200000J0D01*
G01*
X105135000Y-156610000D01*
G75*
G02*
X104935000Y-156410000I0J200000D01*
G01*
X104935000Y-156010000D01*
G75*
G02*
X105135000Y-155810000I200000J0D01*
G01*
G37*
%TD.AperFunction*%
%TO.P,R11,1*%
%TO.N,IO_0*%
%TA.AperFunction,SMDPad,CuDef*%
G36*
G01*
X105135000Y-154160000D02*
X105685000Y-154160000D01*
G75*
G02*
X105885000Y-154360000I0J-200000D01*
G01*
X105885000Y-154760000D01*
G75*
G02*
X105685000Y-154960000I-200000J0D01*
G01*
X105135000Y-154960000D01*
G75*
G02*
X104935000Y-154760000I0J200000D01*
G01*
X104935000Y-154360000D01*
G75*
G02*
X105135000Y-154160000I200000J0D01*
G01*
G37*
%TD.AperFunction*%
%TD*%
%TO.P,R12,1*%
%TO.N,EN*%
%TA.AperFunction,SMDPad,CuDef*%
G36*
G01*
X134319600Y-167532600D02*
X134869600Y-167532600D01*
G75*
G02*
X135069600Y-167732600I0J-200000D01*
G01*
X135069600Y-168132600D01*
G75*
G02*
X134869600Y-168332600I-200000J0D01*
G01*
X134319600Y-168332600D01*
G75*
G02*
X134119600Y-168132600I0J200000D01*
G01*
X134119600Y-167732600D01*
G75*
G02*
X134319600Y-167532600I200000J0D01*
G01*
G37*
%TD.AperFunction*%
%TO.P,R12,2*%
%TO.N,+3V8*%
%TA.AperFunction,SMDPad,CuDef*%
G36*
G01*
X134319600Y-169182600D02*
X134869600Y-169182600D01*
G75*
G02*
X135069600Y-169382600I0J-200000D01*
G01*
X135069600Y-169782600D01*
G75*
G02*
X134869600Y-169982600I-200000J0D01*
G01*
X134319600Y-169982600D01*
G75*
G02*
X134119600Y-169782600I0J200000D01*
G01*
X134119600Y-169382600D01*
G75*
G02*
X134319600Y-169182600I200000J0D01*
G01*
G37*
%TD.AperFunction*%
%TD*%
D20*
%TO.P,S3,3*%
%TO.N,IO_0*%
X95250000Y-153090000D03*
%TO.P,S3,4*%
X101750000Y-153090000D03*
%TO.P,S3,2*%
%TO.N,GNDD*%
X101750000Y-148590000D03*
D21*
%TO.P,S3,1*%
X95250000Y-148590000D03*
%TD*%
%TO.P,S4,1*%
%TO.N,GNDD*%
X144780000Y-167640000D03*
D20*
%TO.P,S4,2*%
X138280000Y-167640000D03*
%TO.P,S4,4*%
%TO.N,EN*%
X138280000Y-163140000D03*
%TO.P,S4,3*%
X144780000Y-163140000D03*
%TD*%
D27*
%TO.P,J15,1*%
%TO.N,+3V8*%
X96520000Y-162560000D03*
D28*
%TO.P,J15,2*%
%TO.N,Net-(J15-Pad2)*%
X96520000Y-165100000D03*
%TO.P,J15,3*%
%TO.N,Net-(J15-Pad3)*%
X99060000Y-162560000D03*
%TO.P,J15,4*%
%TO.N,GNDD*%
X99060000Y-165100000D03*
%TD*%
%TO.P,R1,1*%
%TO.N,Net-(C1-Pad2)*%
%TA.AperFunction,SMDPad,CuDef*%
G36*
G01*
X97212800Y-41823802D02*
X97212800Y-40573798D01*
G75*
G02*
X97462798Y-40323800I249998J0D01*
G01*
X98087802Y-40323800D01*
G75*
G02*
X98337800Y-40573798I0J-249998D01*
G01*
X98337800Y-41823802D01*
G75*
G02*
X98087802Y-42073800I-249998J0D01*
G01*
X97462798Y-42073800D01*
G75*
G02*
X97212800Y-41823802I0J249998D01*
G01*
G37*
%TD.AperFunction*%
%TO.P,R1,2*%
%TO.N,GNDREF*%
%TA.AperFunction,SMDPad,CuDef*%
G36*
G01*
X100137800Y-41823802D02*
X100137800Y-40573798D01*
G75*
G02*
X100387798Y-40323800I249998J0D01*
G01*
X101012802Y-40323800D01*
G75*
G02*
X101262800Y-40573798I0J-249998D01*
G01*
X101262800Y-41823802D01*
G75*
G02*
X101012802Y-42073800I-249998J0D01*
G01*
X100387798Y-42073800D01*
G75*
G02*
X100137800Y-41823802I0J249998D01*
G01*
G37*
%TD.AperFunction*%
%TD*%
%TO.P,R13,2*%
%TO.N,Net-(C3-Pad1)*%
%TA.AperFunction,SMDPad,CuDef*%
G36*
G01*
X98373900Y-37728998D02*
X98373900Y-38979002D01*
G75*
G02*
X98123902Y-39229000I-249998J0D01*
G01*
X97498898Y-39229000D01*
G75*
G02*
X97248900Y-38979002I0J249998D01*
G01*
X97248900Y-37728998D01*
G75*
G02*
X97498898Y-37479000I249998J0D01*
G01*
X98123902Y-37479000D01*
G75*
G02*
X98373900Y-37728998I0J-249998D01*
G01*
G37*
%TD.AperFunction*%
%TO.P,R13,1*%
%TO.N,+3V3*%
%TA.AperFunction,SMDPad,CuDef*%
G36*
G01*
X101298900Y-37728998D02*
X101298900Y-38979002D01*
G75*
G02*
X101048902Y-39229000I-249998J0D01*
G01*
X100423898Y-39229000D01*
G75*
G02*
X100173900Y-38979002I0J249998D01*
G01*
X100173900Y-37728998D01*
G75*
G02*
X100423898Y-37479000I249998J0D01*
G01*
X101048902Y-37479000D01*
G75*
G02*
X101298900Y-37728998I0J-249998D01*
G01*
G37*
%TD.AperFunction*%
%TD*%
D29*
%TO.P,R14,1*%
%TO.N,+5V*%
X86512400Y-64566800D03*
D30*
%TO.P,R14,2*%
%TO.N,Net-(C1-Pad1)*%
X66192400Y-64566800D03*
%TD*%
D31*
%TO.P,BT1,1*%
%TO.N,Net-(BT1-Pad1)*%
X110998000Y-59436000D03*
D32*
%TO.P,BT1,2*%
%TO.N,GNDREF*%
X130998000Y-59436000D03*
%TD*%
%TO.P,J16,1*%
%TO.N,L2_SCK*%
%TA.AperFunction,ComponentPad*%
G36*
G01*
X139049200Y-37250000D02*
X140249200Y-37250000D01*
G75*
G02*
X140499200Y-37500000I0J-250000D01*
G01*
X140499200Y-38700000D01*
G75*
G02*
X140249200Y-38950000I-250000J0D01*
G01*
X139049200Y-38950000D01*
G75*
G02*
X138799200Y-38700000I0J250000D01*
G01*
X138799200Y-37500000D01*
G75*
G02*
X139049200Y-37250000I250000J0D01*
G01*
G37*
%TD.AperFunction*%
D14*
%TO.P,J16,3*%
%TO.N,L1_SCK*%
X137109200Y-38100000D03*
%TO.P,J16,5*%
%TO.N,L3_DT*%
X134569200Y-38100000D03*
%TO.P,J16,7*%
%TO.N,L4_DT*%
X132029200Y-38100000D03*
%TO.P,J16,9*%
%TO.N,L5_DT*%
X129489200Y-38100000D03*
%TO.P,J16,11*%
%TO.N,L6_DT*%
X126949200Y-38100000D03*
%TO.P,J16,13*%
%TO.N,Net-(J16-Pad13)*%
X124409200Y-38100000D03*
%TO.P,J16,15*%
%TO.N,Net-(J16-Pad15)*%
X121869200Y-38100000D03*
%TO.P,J16,17*%
%TO.N,GNDREF*%
X119329200Y-38100000D03*
%TO.P,J16,19*%
%TO.N,+3V3*%
X116789200Y-38100000D03*
%TO.P,J16,2*%
%TO.N,L2_DT*%
X139649200Y-40640000D03*
%TO.P,J16,4*%
%TO.N,L1_DT*%
X137109200Y-40640000D03*
%TO.P,J16,6*%
%TO.N,L3_SCK*%
X134569200Y-40640000D03*
%TO.P,J16,8*%
%TO.N,L4_SCK*%
X132029200Y-40640000D03*
%TO.P,J16,10*%
%TO.N,L5_SCK*%
X129489200Y-40640000D03*
%TO.P,J16,12*%
%TO.N,L6_SCK*%
X126949200Y-40640000D03*
%TO.P,J16,14*%
%TO.N,Net-(J16-Pad14)*%
X124409200Y-40640000D03*
%TO.P,J16,16*%
%TO.N,Net-(J16-Pad16)*%
X121869200Y-40640000D03*
%TO.P,J16,18*%
%TO.N,GNDREF*%
X119329200Y-40640000D03*
%TO.P,J16,20*%
%TO.N,+3V3*%
X116789200Y-40640000D03*
%TD*%
%TO.P,R15,1*%
%TO.N,Net-(J17-Pad1)*%
%TA.AperFunction,SMDPad,CuDef*%
G36*
G01*
X64425002Y-174025000D02*
X63174998Y-174025000D01*
G75*
G02*
X62925000Y-173775002I0J249998D01*
G01*
X62925000Y-173149998D01*
G75*
G02*
X63174998Y-172900000I249998J0D01*
G01*
X64425002Y-172900000D01*
G75*
G02*
X64675000Y-173149998I0J-249998D01*
G01*
X64675000Y-173775002D01*
G75*
G02*
X64425002Y-174025000I-249998J0D01*
G01*
G37*
%TD.AperFunction*%
%TO.P,R15,2*%
%TO.N,+3V8*%
%TA.AperFunction,SMDPad,CuDef*%
G36*
G01*
X64425002Y-171100000D02*
X63174998Y-171100000D01*
G75*
G02*
X62925000Y-170850002I0J249998D01*
G01*
X62925000Y-170224998D01*
G75*
G02*
X63174998Y-169975000I249998J0D01*
G01*
X64425002Y-169975000D01*
G75*
G02*
X64675000Y-170224998I0J-249998D01*
G01*
X64675000Y-170850002D01*
G75*
G02*
X64425002Y-171100000I-249998J0D01*
G01*
G37*
%TD.AperFunction*%
%TD*%
D27*
%TO.P,J17,1*%
%TO.N,Net-(J17-Pad1)*%
X61200000Y-179400000D03*
D28*
%TO.P,J17,2*%
%TO.N,UART2_RX*%
X63740000Y-179400000D03*
%TO.P,J17,3*%
%TO.N,UART2_TX*%
X66280000Y-179400000D03*
%TO.P,J17,4*%
%TO.N,GNDD*%
X68820000Y-179400000D03*
%TD*%
D27*
%TO.P,J18,1*%
%TO.N,Net-(J18-Pad1)*%
X105000000Y-178600000D03*
D28*
%TO.P,J18,2*%
%TO.N,Net-(J18-Pad2)*%
X102460000Y-178600000D03*
%TO.P,J18,3*%
%TO.N,Net-(J18-Pad3)*%
X99920000Y-178600000D03*
%TO.P,J18,4*%
%TO.N,GNDD*%
X97380000Y-178600000D03*
%TD*%
%TO.P,R16,1*%
%TO.N,Net-(J18-Pad1)*%
%TA.AperFunction,SMDPad,CuDef*%
G36*
G01*
X105625002Y-175962500D02*
X104374998Y-175962500D01*
G75*
G02*
X104125000Y-175712502I0J249998D01*
G01*
X104125000Y-175087498D01*
G75*
G02*
X104374998Y-174837500I249998J0D01*
G01*
X105625002Y-174837500D01*
G75*
G02*
X105875000Y-175087498I0J-249998D01*
G01*
X105875000Y-175712502D01*
G75*
G02*
X105625002Y-175962500I-249998J0D01*
G01*
G37*
%TD.AperFunction*%
%TO.P,R16,2*%
%TO.N,+3V8*%
%TA.AperFunction,SMDPad,CuDef*%
G36*
G01*
X105625002Y-173037500D02*
X104374998Y-173037500D01*
G75*
G02*
X104125000Y-172787502I0J249998D01*
G01*
X104125000Y-172162498D01*
G75*
G02*
X104374998Y-171912500I249998J0D01*
G01*
X105625002Y-171912500D01*
G75*
G02*
X105875000Y-172162498I0J-249998D01*
G01*
X105875000Y-172787502D01*
G75*
G02*
X105625002Y-173037500I-249998J0D01*
G01*
G37*
%TD.AperFunction*%
%TD*%
D33*
%TO.N,GNDREF*%
X111125000Y-99161600D03*
X114935000Y-95504000D03*
X126339600Y-101727000D03*
X122504200Y-112014000D03*
X110642400Y-108381800D03*
X117881400Y-116408200D03*
X116357400Y-115112800D03*
X126136400Y-108534200D03*
X118999000Y-92837000D03*
X123647200Y-97332800D03*
X110185200Y-122682000D03*
X95148400Y-118795800D03*
X94259400Y-117576600D03*
X124968000Y-143103600D03*
X102768400Y-41198800D03*
X92200998Y-101649800D03*
X125831600Y-99517200D03*
%TO.N,+3V3*%
X110007400Y-100355400D03*
X113969800Y-96824800D03*
X125476000Y-100965000D03*
X123494800Y-110794800D03*
X111912400Y-109143800D03*
X109778800Y-103301800D03*
X114731800Y-38404800D03*
X113690400Y-117678200D03*
X122631200Y-131394200D03*
%TO.N,M1-*%
X90982800Y-107950000D03*
%TO.N,M2-*%
X89103200Y-111531400D03*
%TO.N,M1+*%
X91363800Y-106375200D03*
%TO.N,M2+*%
X89204800Y-109220000D03*
%TO.N,ADC1_INP10*%
X114071400Y-112699800D03*
%TO.N,ADC1_INP11*%
X115112800Y-113766600D03*
%TO.N,AC_CONTROL*%
X125831600Y-136042400D03*
X127000000Y-130098800D03*
X130759200Y-126339600D03*
%TO.N,COMPRESSOR_CONTROL*%
X127457200Y-136398000D03*
X128168400Y-131927600D03*
X133045200Y-126288800D03*
X174294800Y-72948800D03*
%TO.N,MIXER1*%
X111810800Y-116281200D03*
%TO.N,UART2_TX*%
X111048800Y-92151200D03*
X121843800Y-145872200D03*
%TO.N,UART2_RX*%
X111175800Y-93345000D03*
X120142000Y-145796000D03*
%TO.N,L3_DT*%
X97231200Y-99607210D03*
%TO.N,L3_SCK*%
X96164400Y-100584000D03*
%TO.N,L4_DT*%
X95504000Y-101600000D03*
%TO.N,L4_SCK*%
X94894400Y-102666800D03*
%TO.N,+5V*%
X74803000Y-118795800D03*
X86156800Y-120802400D03*
X118033800Y-140030200D03*
X153289000Y-169799000D03*
X124434602Y-140030200D03*
%TO.N,+3V8*%
X140055600Y-171577000D03*
X116840000Y-149021800D03*
X103987600Y-156210000D03*
%TO.N,GNDD*%
X96520000Y-171450000D03*
X134620000Y-163068000D03*
X124968000Y-151892000D03*
X120396000Y-162560000D03*
X115542200Y-166855000D03*
X124991000Y-166855000D03*
X120380000Y-171161200D03*
X107111800Y-173355000D03*
%TO.N,MQ-3*%
X130251200Y-169545000D03*
%TO.N,Net-(BT1-Pad1)*%
X99568000Y-111861600D03*
X111201200Y-59334400D03*
%TO.N,L5_DT*%
X140614400Y-97383600D03*
X131572000Y-80619600D03*
%TO.N,L6_DT*%
X129590800Y-83108800D03*
X124917200Y-106730800D03*
%TO.N,L5_SCK*%
X138074400Y-97891600D03*
X130759200Y-81635600D03*
%TO.N,L6_SCK*%
X121818400Y-100431600D03*
X127965200Y-84429600D03*
%TO.N,Net-(J18-Pad2)*%
X122600000Y-158400000D03*
%TO.N,Net-(J18-Pad3)*%
X120000000Y-159000000D03*
%TD*%
D34*
%TO.N,GNDREF*%
X103482000Y-135890000D02*
X109982000Y-135890000D01*
X109982000Y-135890000D02*
X112572800Y-135890000D01*
D35*
X109365548Y-97837911D02*
X110689237Y-99161600D01*
X109333037Y-97837911D02*
X109365548Y-97837911D01*
X110689237Y-99161600D02*
X111125000Y-99161600D01*
X112868571Y-94334887D02*
X114063084Y-95529400D01*
X112868571Y-94302377D02*
X112868571Y-94334887D01*
X114909600Y-95529400D02*
X114935000Y-95504000D01*
X114063084Y-95529400D02*
X114909600Y-95529400D01*
X126339600Y-101213700D02*
X128301176Y-99252124D01*
X126339600Y-101727000D02*
X126339600Y-101213700D01*
X124412089Y-112884452D02*
X123541637Y-112014000D01*
X124412089Y-112916963D02*
X124412089Y-112884452D01*
X123541637Y-112014000D02*
X122504200Y-112014000D01*
X109686590Y-110763132D02*
X110642400Y-109807322D01*
X109686590Y-110795643D02*
X109686590Y-110763132D01*
X110642400Y-109807322D02*
X110642400Y-108381800D01*
D34*
X119780555Y-117513157D02*
X118675598Y-116408200D01*
X119815895Y-117513157D02*
X119780555Y-117513157D01*
X118675598Y-116408200D02*
X117881400Y-116408200D01*
X115976034Y-115112800D02*
X114989891Y-116098943D01*
X116357400Y-115112800D02*
X115976034Y-115112800D01*
X127912283Y-109381429D02*
X127065054Y-108534200D01*
X127947623Y-109381429D02*
X127912283Y-109381429D01*
X127065054Y-108534200D02*
X126136400Y-108534200D01*
X119815895Y-90766843D02*
X118999000Y-91583738D01*
X118999000Y-91583738D02*
X118999000Y-92837000D01*
X111125000Y-99161600D02*
X115722400Y-99161600D01*
X115722400Y-99161600D02*
X119557800Y-95326200D01*
X119557800Y-93395800D02*
X118999000Y-92837000D01*
X119557800Y-95326200D02*
X119557800Y-93395800D01*
X124412089Y-95398378D02*
X123647200Y-96163267D01*
X124412089Y-95363037D02*
X124412089Y-95398378D01*
X123647200Y-96163267D02*
X123647200Y-97332800D01*
D36*
X55880000Y-132080000D02*
X58420000Y-132080000D01*
D35*
X125069600Y-143205200D02*
X124968000Y-143103600D01*
X125069600Y-144932400D02*
X125069600Y-143205200D01*
D36*
X100700300Y-41198800D02*
X102768400Y-41198800D01*
X93599000Y-101649800D02*
X92200998Y-101649800D01*
D34*
X123647200Y-97332800D02*
X125831600Y-99517200D01*
D37*
%TO.N,Net-(C3-Pad1)*%
X92456000Y-53485600D02*
X92640600Y-53670200D01*
D38*
X76532000Y-47685000D02*
X76532000Y-51132000D01*
X76532000Y-51132000D02*
X77038200Y-51638200D01*
X77038200Y-51638200D02*
X79933800Y-51638200D01*
X79933800Y-51638200D02*
X81508600Y-50063400D01*
X81508600Y-50063400D02*
X81508600Y-46558200D01*
X82499200Y-45567600D02*
X92456000Y-45567600D01*
X81508600Y-46558200D02*
X82499200Y-45567600D01*
D37*
X92456000Y-45567600D02*
X92456000Y-53485600D01*
X92456000Y-38354000D02*
X92456000Y-45567600D01*
X97688400Y-38354000D02*
X97713800Y-38379400D01*
X92456000Y-38354000D02*
X97688400Y-38354000D01*
D34*
%TO.N,NRST*%
X109982000Y-131390000D02*
X103482000Y-131390000D01*
X112599200Y-131368800D02*
X110003200Y-131368800D01*
X110003200Y-131368800D02*
X109982000Y-131390000D01*
X112599200Y-134313600D02*
X112572800Y-134340000D01*
X112599200Y-131368800D02*
X112599200Y-134313600D01*
X112801400Y-131166600D02*
X112599200Y-131368800D01*
X112801400Y-123723400D02*
X112801400Y-131166600D01*
X109042200Y-117803994D02*
X109042200Y-119964200D01*
X109042200Y-119964200D02*
X112801400Y-123723400D01*
X112868571Y-113977623D02*
X109042200Y-117803994D01*
%TO.N,Net-(C6-Pad1)*%
X112161464Y-113305858D02*
X112161464Y-113270516D01*
X111593517Y-113873805D02*
X112161464Y-113305858D01*
X111593517Y-113909161D02*
X111593517Y-113873805D01*
X108033390Y-120642810D02*
X108033391Y-117469287D01*
X107006481Y-121669719D02*
X108033390Y-120642810D01*
X104876600Y-121335800D02*
X105210519Y-121669719D01*
X108033391Y-117469287D02*
X111593517Y-113909161D01*
X105210519Y-121669719D02*
X107006481Y-121669719D01*
%TO.N,Net-(C7-Pad1)*%
X108483400Y-117655688D02*
X108483400Y-124942600D01*
X108483400Y-124942600D02*
X108661200Y-125120400D01*
X112515018Y-113624070D02*
X108483400Y-117655688D01*
%TO.N,Net-(C8-Pad1)*%
X100550778Y-114274600D02*
X106858163Y-107967215D01*
X98221800Y-114274600D02*
X100550778Y-114274600D01*
%TO.N,Net-(C9-Pad1)*%
X100055804Y-115476682D02*
X99423882Y-115476682D01*
X107211717Y-108320769D02*
X100055804Y-115476682D01*
%TO.N,+3V3*%
X82626200Y-104601400D02*
X89126200Y-104601400D01*
D35*
X110007400Y-99219380D02*
X108979484Y-98191464D01*
X110007400Y-100355400D02*
X110007400Y-99219380D01*
X113969800Y-96110712D02*
X112515018Y-94655930D01*
X113969800Y-96824800D02*
X113969800Y-96110712D01*
X125881194Y-100965000D02*
X127947623Y-98898571D01*
X125476000Y-100965000D02*
X125881194Y-100965000D01*
X123494800Y-111292567D02*
X124765643Y-112563410D01*
X123494800Y-110794800D02*
X123494800Y-111292567D01*
X111912400Y-109276940D02*
X110040144Y-111149196D01*
X111912400Y-109143800D02*
X111912400Y-109276940D01*
X115011200Y-112242600D02*
X111912400Y-109143800D01*
X120136938Y-117159604D02*
X120169449Y-117159604D01*
X116763800Y-113995200D02*
X116972534Y-113995200D01*
X115011200Y-112242600D02*
X116763800Y-113995200D01*
X117710515Y-114792533D02*
X117769867Y-114792533D01*
X115696998Y-116806050D02*
X117710515Y-114792533D01*
X117769867Y-114792533D02*
X120136938Y-117159604D01*
X116972534Y-113995200D02*
X117769867Y-114792533D01*
X128301176Y-109027876D02*
X127076200Y-107802900D01*
X127076200Y-107802900D02*
X127076200Y-104978200D01*
X118892394Y-90983238D02*
X119462342Y-90413290D01*
X117906800Y-91968832D02*
X118892394Y-90983238D01*
X117906800Y-94691200D02*
X117906800Y-91968832D01*
X115773200Y-96824800D02*
X117906800Y-94691200D01*
X113969800Y-96824800D02*
X115773200Y-96824800D01*
X124891800Y-100965000D02*
X125476000Y-100965000D01*
X124561600Y-101295200D02*
X124891800Y-100965000D01*
X124561600Y-102463600D02*
X124561600Y-101295200D01*
X127020394Y-104922394D02*
X124561600Y-102463600D01*
X131234252Y-104922394D02*
X127020394Y-104922394D01*
X131264658Y-104952800D02*
X131234252Y-104922394D01*
X131297168Y-104952800D02*
X131264658Y-104952800D01*
X131836710Y-105492342D02*
X131297168Y-104952800D01*
X123488588Y-95579432D02*
X124058536Y-95009484D01*
X122301000Y-96767020D02*
X123488588Y-95579432D01*
X122301000Y-98526600D02*
X122301000Y-96767020D01*
X124739400Y-100965000D02*
X122301000Y-98526600D01*
X125476000Y-100965000D02*
X124739400Y-100965000D01*
X107005194Y-103357606D02*
X110007400Y-100355400D01*
X104953238Y-103357606D02*
X107005194Y-103357606D01*
X104383290Y-102787658D02*
X104953238Y-103357606D01*
D36*
X108864400Y-104216200D02*
X109778800Y-103301800D01*
X89511400Y-104216200D02*
X108864400Y-104216200D01*
X89126200Y-104601400D02*
X89511400Y-104216200D01*
D34*
X114731800Y-81610200D02*
X121107200Y-87985600D01*
X121107200Y-88768432D02*
X119462342Y-90413290D01*
X121107200Y-87985600D02*
X121107200Y-88768432D01*
D35*
X116382800Y-113614200D02*
X115011200Y-112242600D01*
X116382800Y-114031438D02*
X116382800Y-113614200D01*
X114668848Y-115745390D02*
X116382800Y-114031438D01*
X114636338Y-115745390D02*
X114668848Y-115745390D01*
X115664488Y-116806050D02*
X114792338Y-117678200D01*
X115696998Y-116806050D02*
X115664488Y-116806050D01*
X114792338Y-117678200D02*
X113690400Y-117678200D01*
X114274600Y-131394200D02*
X114249200Y-131368800D01*
X122631200Y-131394200D02*
X114274600Y-131394200D01*
X114249200Y-131368800D02*
X114249200Y-139192000D01*
X116840000Y-141782800D02*
X116840000Y-144587500D01*
X114249200Y-139192000D02*
X116840000Y-141782800D01*
D36*
X155346400Y-35356800D02*
X156210000Y-36220400D01*
X119532400Y-35356800D02*
X155346400Y-35356800D01*
X156210000Y-36220400D02*
X156210000Y-38100000D01*
X116535200Y-38354000D02*
X119532400Y-35356800D01*
X100736400Y-38354000D02*
X116535200Y-38354000D01*
D39*
X116789200Y-38100000D02*
X116789200Y-40640000D01*
D37*
%TO.N,Net-(D1-Pad2)*%
X73132000Y-53751800D02*
X73152000Y-53771800D01*
X73132000Y-47685000D02*
X73132000Y-53751800D01*
X73152000Y-53771800D02*
X83540600Y-53771800D01*
D34*
%TO.N,U1_TRIG*%
X121972557Y-92888163D02*
X121937215Y-92888163D01*
X125196600Y-89664120D02*
X121972557Y-92888163D01*
X125196600Y-85267800D02*
X125196600Y-89664120D01*
X57429400Y-69646800D02*
X109575600Y-69646800D01*
X55956200Y-71120000D02*
X57429400Y-69646800D01*
X109575600Y-69646800D02*
X125196600Y-85267800D01*
X55880000Y-71120000D02*
X55956200Y-71120000D01*
%TO.N,U2_TRIG*%
X123748800Y-89662366D02*
X121230109Y-92181057D01*
X123748800Y-86233000D02*
X123748800Y-89662366D01*
X110000799Y-72484999D02*
X123748800Y-86233000D01*
X57055001Y-72484999D02*
X110000799Y-72484999D01*
X55880000Y-73660000D02*
X57055001Y-72484999D01*
%TO.N,U3_TRIG*%
X100472263Y-74835001D02*
X116404105Y-90766843D01*
X54704999Y-74224001D02*
X55315999Y-74835001D01*
X54704999Y-70281811D02*
X54704999Y-74224001D01*
X54704990Y-70281820D02*
X54704999Y-70281811D01*
X55315999Y-74835001D02*
X100472263Y-74835001D01*
X54704990Y-75024990D02*
X54704990Y-70281820D01*
X55880000Y-76200000D02*
X54704990Y-75024990D01*
%TO.N,U4_TRIG*%
X101788047Y-77564999D02*
X57855999Y-77564999D01*
X115696998Y-91473950D02*
X101788047Y-77564999D01*
X56680998Y-78740000D02*
X55880000Y-78740000D01*
X57855999Y-77564999D02*
X56680998Y-78740000D01*
%TO.N,U5_TRIG*%
X57055001Y-80104999D02*
X55880000Y-81280000D01*
X114954551Y-92181057D02*
X102878493Y-80104999D01*
X102878493Y-80104999D02*
X57055001Y-80104999D01*
X114989891Y-92181057D02*
X114954551Y-92181057D01*
%TO.N,U6_TRIG*%
X57055001Y-82644999D02*
X55880000Y-83820000D01*
X104004279Y-82644999D02*
X57055001Y-82644999D01*
X114247443Y-92888163D02*
X104004279Y-82644999D01*
X114282785Y-92888163D02*
X114247443Y-92888163D01*
%TO.N,U7_TRIG*%
X57055001Y-85184999D02*
X55880000Y-86360000D01*
X113540336Y-93595270D02*
X105130065Y-85184999D01*
X105130065Y-85184999D02*
X57055001Y-85184999D01*
X113575678Y-93595270D02*
X113540336Y-93595270D01*
%TO.N,U8_TRIG*%
X103427425Y-87724999D02*
X57055001Y-87724999D01*
X57055001Y-87724999D02*
X55880000Y-88900000D01*
X111419016Y-95716590D02*
X103427425Y-87724999D01*
X111454357Y-95716590D02*
X111419016Y-95716590D01*
%TO.N,U9_TRIG*%
X55880000Y-91440000D02*
X57099200Y-90220800D01*
X104544354Y-90220800D02*
X110747251Y-96423697D01*
X57099200Y-90220800D02*
X104544354Y-90220800D01*
%TO.N,U1_ECHO*%
X121619002Y-92534610D02*
X121583662Y-92534610D01*
X124485400Y-89668212D02*
X121619002Y-92534610D01*
X124485400Y-85775800D02*
X124485400Y-89668212D01*
X109829600Y-71120000D02*
X124485400Y-85775800D01*
X58420000Y-71120000D02*
X109829600Y-71120000D01*
%TO.N,U2_ECHO*%
X123037600Y-89666458D02*
X120876555Y-91827503D01*
X123037600Y-86512400D02*
X123037600Y-89666458D01*
X110185200Y-73660000D02*
X123037600Y-86512400D01*
X58420000Y-73660000D02*
X110185200Y-73660000D01*
%TO.N,U3_ECHO*%
X101130155Y-76200000D02*
X116050551Y-91120396D01*
X58420000Y-76200000D02*
X101130155Y-76200000D01*
%TO.N,U4_ECHO*%
X102255942Y-78740000D02*
X115343445Y-91827503D01*
X58420000Y-78740000D02*
X102255942Y-78740000D01*
%TO.N,U5_ECHO*%
X103381728Y-81280000D02*
X114636338Y-92534610D01*
X58420000Y-81280000D02*
X103381728Y-81280000D01*
%TO.N,U6_ECHO*%
X104507514Y-83820000D02*
X113929231Y-93241717D01*
X58420000Y-83820000D02*
X104507514Y-83820000D01*
%TO.N,U7_ECHO*%
X102804874Y-86360000D02*
X111807911Y-95363037D01*
X58420000Y-86360000D02*
X102804874Y-86360000D01*
%TO.N,U8_ECHO*%
X103930660Y-88900000D02*
X111100804Y-96070144D01*
X58420000Y-88900000D02*
X103930660Y-88900000D01*
%TO.N,U9_ECHO*%
X109825749Y-96209303D02*
X109823703Y-96209303D01*
X110393697Y-96777251D02*
X109825749Y-96209303D01*
X105054400Y-91440000D02*
X58420000Y-91440000D01*
X109823703Y-96209303D02*
X105054400Y-91440000D01*
%TO.N,U13_ECHO*%
X58420000Y-116840000D02*
X62585600Y-116840000D01*
X81127600Y-98298000D02*
X96232985Y-98298000D01*
X104808038Y-98298000D02*
X106822823Y-100312785D01*
X62585600Y-116840000D02*
X81127600Y-98298000D01*
X106822823Y-100312785D02*
X106858163Y-100312785D01*
X96239598Y-98291387D02*
X97714802Y-98291387D01*
X97721415Y-98298000D02*
X104808038Y-98298000D01*
X96232985Y-98298000D02*
X96239598Y-98291387D01*
X97714802Y-98291387D02*
X97721415Y-98298000D01*
%TO.N,U12_ECHO*%
X58420000Y-114300000D02*
X62890400Y-114300000D01*
X62890400Y-114300000D02*
X80264000Y-96926400D01*
X104885992Y-96926400D02*
X107565270Y-99605678D01*
X80264000Y-96926400D02*
X104885992Y-96926400D01*
%TO.N,U11_ECHO*%
X61468000Y-111760000D02*
X58420000Y-111760000D01*
X77673200Y-95554800D02*
X61468000Y-111760000D01*
X104928606Y-95554800D02*
X77673200Y-95554800D01*
X108272377Y-98898571D02*
X104928606Y-95554800D01*
%TO.N,U10_ECHO*%
X105725033Y-93522800D02*
X109686590Y-97484357D01*
X74117200Y-93522800D02*
X105725033Y-93522800D01*
X58420000Y-109220000D02*
X74117200Y-93522800D01*
%TO.N,U13_TRIG*%
X107211717Y-99959231D02*
X104737686Y-97485200D01*
X104737686Y-97485200D02*
X80619600Y-97485200D01*
X80619600Y-97485200D02*
X62534800Y-115570000D01*
X57150000Y-115570000D02*
X55880000Y-116840000D01*
X62534800Y-115570000D02*
X57150000Y-115570000D01*
%TO.N,U12_TRIG*%
X104795758Y-96164400D02*
X107901153Y-99269795D01*
X107901153Y-99269795D02*
X107918824Y-99252124D01*
X79095600Y-96164400D02*
X104795758Y-96164400D01*
X62135001Y-113124999D02*
X79095600Y-96164400D01*
X57055001Y-113124999D02*
X62135001Y-113124999D01*
X55880000Y-114300000D02*
X57055001Y-113124999D01*
%TO.N,U11_TRIG*%
X57055001Y-110584999D02*
X55880000Y-111760000D01*
X74535402Y-94843600D02*
X58794003Y-110584999D01*
X58794003Y-110584999D02*
X57055001Y-110584999D01*
X104889172Y-94843600D02*
X74535402Y-94843600D01*
X108590590Y-98545018D02*
X104889172Y-94843600D01*
X108625930Y-98545018D02*
X108590590Y-98545018D01*
%TO.N,U10_TRIG*%
X110040144Y-97130804D02*
X105365340Y-92456000D01*
X72644000Y-92456000D02*
X55880000Y-109220000D01*
X105365340Y-92456000D02*
X72644000Y-92456000D01*
%TO.N,V1*%
X182473600Y-113436400D02*
X182880000Y-113030000D01*
X182473600Y-114604800D02*
X182473600Y-113436400D01*
X182067200Y-115011200D02*
X182473600Y-114604800D01*
X179505934Y-115011200D02*
X182067200Y-115011200D01*
X178722367Y-114227633D02*
X179505934Y-115011200D01*
X162124367Y-114227633D02*
X178722367Y-114227633D01*
X161493200Y-114858800D02*
X162124367Y-114227633D01*
X127768140Y-114858800D02*
X161493200Y-114858800D01*
X125119196Y-112209856D02*
X127768140Y-114858800D01*
%TO.N,V3*%
X160866402Y-113958778D02*
X128282332Y-113958778D01*
X163065180Y-111760000D02*
X160866402Y-113958778D01*
X128282332Y-113958778D02*
X125826303Y-111502749D01*
X181610000Y-111760000D02*
X163065180Y-111760000D01*
X182880000Y-110490000D02*
X181610000Y-111760000D01*
%TO.N,V5*%
X128767767Y-113030000D02*
X127101357Y-111363590D01*
X160477200Y-113030000D02*
X128767767Y-113030000D01*
X127101357Y-111363590D02*
X126533410Y-110795643D01*
X164382199Y-109125001D02*
X160477200Y-113030000D01*
X181704999Y-109125001D02*
X164382199Y-109125001D01*
X182880000Y-107950000D02*
X181704999Y-109125001D01*
%TO.N,PMP1*%
X129281958Y-112129978D02*
X127240516Y-110088536D01*
X160104401Y-112129978D02*
X129281958Y-112129978D01*
X165554378Y-106680000D02*
X160104401Y-112129978D01*
X181610000Y-106680000D02*
X165554378Y-106680000D01*
X182880000Y-105410000D02*
X181610000Y-106680000D01*
%TO.N,PMP3*%
X131210364Y-111229956D02*
X128654730Y-108674322D01*
X159731601Y-111229956D02*
X131210364Y-111229956D01*
X166726557Y-104234999D02*
X159731601Y-111229956D01*
X181515001Y-104234999D02*
X166726557Y-104234999D01*
X182880000Y-102870000D02*
X181515001Y-104234999D01*
%TO.N,PMP5*%
X181610000Y-101600000D02*
X182880000Y-100330000D01*
X168088735Y-101600000D02*
X181610000Y-101600000D01*
X159358801Y-110329934D02*
X168088735Y-101600000D01*
X131724556Y-110329934D02*
X159358801Y-110329934D01*
X129361837Y-107967215D02*
X131724556Y-110329934D01*
%TO.N,VLV1*%
X132238746Y-109429912D02*
X130068943Y-107260109D01*
X158919678Y-109429912D02*
X132238746Y-109429912D01*
X166471600Y-101877990D02*
X158919678Y-109429912D01*
X166471600Y-101854000D02*
X166471600Y-101877990D01*
X169316400Y-99009200D02*
X166471600Y-101854000D01*
X181660800Y-99009200D02*
X169316400Y-99009200D01*
X182880000Y-97790000D02*
X181660800Y-99009200D01*
%TO.N,VLV3*%
X181515001Y-96614999D02*
X182880000Y-95250000D01*
X170339001Y-96614999D02*
X181515001Y-96614999D01*
X158424110Y-108529890D02*
X170339001Y-96614999D01*
X132752938Y-108529890D02*
X158424110Y-108529890D01*
X130776050Y-106553002D02*
X132752938Y-108529890D01*
%TO.N,VLV5*%
X132719568Y-101904800D02*
X131836710Y-102787658D01*
X163776380Y-101904800D02*
X132719568Y-101904800D01*
X171751980Y-93929200D02*
X163776380Y-101904800D01*
X181660800Y-93929200D02*
X171751980Y-93929200D01*
X182880000Y-92710000D02*
X181660800Y-93929200D01*
%TO.N,V2*%
X125472749Y-111856303D02*
X128025234Y-114408788D01*
X162685590Y-113030000D02*
X180340000Y-113030000D01*
X161306802Y-114408788D02*
X162685590Y-113030000D01*
X128025234Y-114408788D02*
X161306802Y-114408788D01*
%TO.N,V4*%
X128539427Y-113508767D02*
X126179856Y-111149196D01*
X160680002Y-113508767D02*
X128539427Y-113508767D01*
X163698769Y-110490000D02*
X160680002Y-113508767D01*
X180340000Y-110490000D02*
X163698769Y-110490000D01*
%TO.N,V6*%
X175327919Y-107950000D02*
X180340000Y-107950000D01*
X174602929Y-108674990D02*
X175327919Y-107950000D01*
X164195799Y-108674990D02*
X174602929Y-108674990D01*
X160290801Y-112579989D02*
X164195799Y-108674990D01*
X129024863Y-112579989D02*
X160290801Y-112579989D01*
X126886963Y-110442089D02*
X129024863Y-112579989D01*
%TO.N,PMP2*%
X175327919Y-105410000D02*
X180340000Y-105410000D01*
X174507930Y-106229989D02*
X175327919Y-105410000D01*
X165367978Y-106229989D02*
X174507930Y-106229989D01*
X159918001Y-111679967D02*
X165367978Y-106229989D01*
X129539055Y-111679967D02*
X159918001Y-111679967D01*
X127594070Y-109734982D02*
X129539055Y-111679967D01*
%TO.N,PMP4*%
X167455146Y-102870000D02*
X180340000Y-102870000D01*
X159545201Y-110779945D02*
X167455146Y-102870000D01*
X131467459Y-110779945D02*
X159545201Y-110779945D01*
X129008283Y-108320769D02*
X131467459Y-110779945D01*
%TO.N,PMP6*%
X131981651Y-109879923D02*
X129715390Y-107613662D01*
X159106077Y-109879923D02*
X131981651Y-109879923D01*
X168656000Y-100330000D02*
X159106077Y-109879923D01*
X180340000Y-100330000D02*
X168656000Y-100330000D01*
%TO.N,VLV2*%
X132495843Y-108979901D02*
X130422497Y-106906555D01*
X158709289Y-108979901D02*
X132495843Y-108979901D01*
X169899190Y-97790000D02*
X158709289Y-108979901D01*
X180340000Y-97790000D02*
X169899190Y-97790000D01*
%TO.N,VLV4*%
X133010034Y-108079879D02*
X131129604Y-106199449D01*
X158237711Y-108079879D02*
X133010034Y-108079879D01*
X171067590Y-95250000D02*
X158237711Y-108079879D01*
X180340000Y-95250000D02*
X171067590Y-95250000D01*
%TO.N,VLV6*%
X172334770Y-92710000D02*
X180340000Y-92710000D01*
X163576000Y-101447600D02*
X169976800Y-95046800D01*
X132540358Y-101447600D02*
X163576000Y-101447600D01*
X169976800Y-95046800D02*
X169997970Y-95046800D01*
X132121801Y-101866157D02*
X132540358Y-101447600D01*
X169997970Y-95046800D02*
X172334770Y-92710000D01*
X132051105Y-101866157D02*
X132121801Y-101866157D01*
X131483157Y-102434105D02*
X132051105Y-101866157D01*
D35*
%TO.N,M3*%
X57734200Y-143814800D02*
X55880000Y-145669000D01*
X55880000Y-145669000D02*
X55880000Y-146050000D01*
X65811400Y-143814800D02*
X57734200Y-143814800D01*
X98806000Y-110820200D02*
X65811400Y-143814800D01*
X101883858Y-110820200D02*
X98806000Y-110820200D01*
X105797503Y-106906555D02*
X101883858Y-110820200D01*
D34*
%TO.N,M5*%
X106997322Y-109242270D02*
X106997322Y-109258278D01*
X107565270Y-108674322D02*
X106997322Y-109242270D01*
X57055001Y-147414999D02*
X55880000Y-148590000D01*
X68840601Y-147414999D02*
X57055001Y-147414999D01*
X106997322Y-109258278D02*
X68840601Y-147414999D01*
%TO.N,M8*%
X57099200Y-152349200D02*
X55880000Y-151130000D01*
X66395600Y-152349200D02*
X57099200Y-152349200D01*
X107238800Y-111506000D02*
X66395600Y-152349200D01*
X107238800Y-111086772D02*
X107238800Y-111506000D01*
X108590590Y-109734982D02*
X107238800Y-111086772D01*
X108625930Y-109734982D02*
X108590590Y-109734982D01*
%TO.N,M9*%
X107848400Y-111219620D02*
X108979484Y-110088536D01*
X107848400Y-112014000D02*
X107848400Y-111219620D01*
X57055001Y-154845001D02*
X65017399Y-154845001D01*
X65017399Y-154845001D02*
X107848400Y-112014000D01*
X55880000Y-153670000D02*
X57055001Y-154845001D01*
D35*
%TO.N,M1-*%
X102632738Y-107950000D02*
X104736843Y-105845895D01*
X90982800Y-107950000D02*
X102632738Y-107950000D01*
%TO.N,M2-*%
X101786352Y-110210600D02*
X105443950Y-106553002D01*
X98323400Y-110210600D02*
X101786352Y-110210600D01*
X97002600Y-111531400D02*
X98323400Y-110210600D01*
X89103200Y-111531400D02*
X97002600Y-111531400D01*
D34*
%TO.N,M11*%
X57055001Y-160114999D02*
X61830201Y-160114999D01*
X55880000Y-161290000D02*
X57055001Y-160114999D01*
X90017600Y-131927600D02*
X90017600Y-131878846D01*
X90017600Y-131878846D02*
X110393697Y-111502749D01*
X61830201Y-160114999D02*
X90017600Y-131927600D01*
%TO.N,M13*%
X77870260Y-145440400D02*
X111100804Y-112209856D01*
X60655661Y-162654999D02*
X77870260Y-145440400D01*
X57055001Y-162654999D02*
X60655661Y-162654999D01*
X55880000Y-163830000D02*
X57055001Y-162654999D01*
%TO.N,M15*%
X57055001Y-165194999D02*
X55880000Y-166370000D01*
X58833001Y-165194999D02*
X57055001Y-165194999D01*
X59747991Y-164280010D02*
X58833001Y-165194999D01*
X60374167Y-164280010D02*
X59747991Y-164280010D01*
X111169266Y-113484911D02*
X60374167Y-164280010D01*
X111204622Y-113484911D02*
X111169266Y-113484911D01*
X111772570Y-112916963D02*
X111204622Y-113484911D01*
X111807911Y-112916963D02*
X111772570Y-112916963D01*
%TO.N,M4*%
X64363600Y-146050000D02*
X58420000Y-146050000D01*
X97739200Y-112674400D02*
X64363600Y-146050000D01*
X101443872Y-112674400D02*
X97739200Y-112674400D01*
X106504610Y-107613662D02*
X101443872Y-112674400D01*
%TO.N,M6*%
X68392040Y-148590000D02*
X58420000Y-148590000D01*
X107918824Y-109063216D02*
X68392040Y-148590000D01*
X107918824Y-109027876D02*
X107918824Y-109063216D01*
%TO.N,M7*%
X106788790Y-110865016D02*
X108272377Y-109381429D01*
X106788790Y-111092410D02*
X106788790Y-110865016D01*
X66751200Y-151130000D02*
X106788790Y-111092410D01*
X58420000Y-151130000D02*
X66751200Y-151130000D01*
D35*
%TO.N,M1+*%
X91440000Y-106299000D02*
X91363800Y-106375200D01*
X103576632Y-106299000D02*
X91440000Y-106299000D01*
X104383290Y-105492342D02*
X103576632Y-106299000D01*
%TO.N,M2+*%
X105090396Y-106231960D02*
X102102356Y-109220000D01*
X105090396Y-106199449D02*
X105090396Y-106231960D01*
X102102356Y-109220000D02*
X89204800Y-109220000D01*
D34*
%TO.N,M10*%
X108661200Y-111113926D02*
X109333037Y-110442089D01*
X108661200Y-112420400D02*
X108661200Y-111113926D01*
X62331600Y-158750000D02*
X108661200Y-112420400D01*
X58420000Y-158750000D02*
X62331600Y-158750000D01*
%TO.N,M12*%
X107643154Y-114960400D02*
X110747251Y-111856303D01*
X61313554Y-161290000D02*
X107643154Y-114960400D01*
X58420000Y-161290000D02*
X61313554Y-161290000D01*
%TO.N,M14*%
X60187767Y-163830000D02*
X111454357Y-112563410D01*
X58420000Y-163830000D02*
X60187767Y-163830000D01*
%TO.N,ADC1_INP9*%
X173228000Y-130810000D02*
X180340000Y-130810000D01*
X162662077Y-120244077D02*
X173228000Y-130810000D01*
X129052167Y-120244077D02*
X162662077Y-120244077D01*
X125125712Y-116317622D02*
X129052167Y-120244077D01*
X124277214Y-116317622D02*
X125125712Y-116317622D01*
X122644322Y-114684730D02*
X124277214Y-116317622D01*
%TO.N,ADC1_INP14*%
X171094400Y-139700000D02*
X181610000Y-139700000D01*
X181610000Y-139700000D02*
X182880000Y-140970000D01*
X154788554Y-123394154D02*
X171094400Y-139700000D01*
X127747367Y-123394154D02*
X154788554Y-123394154D01*
X124684512Y-120331299D02*
X127747367Y-123394154D01*
X119222247Y-120331299D02*
X124684512Y-120331299D01*
X116757658Y-117866710D02*
X119222247Y-120331299D01*
%TO.N,ADC1_INP10*%
X113257466Y-114331176D02*
X114071400Y-113517242D01*
X113222124Y-114331176D02*
X113257466Y-114331176D01*
X114071400Y-113517242D02*
X114071400Y-112699800D01*
%TO.N,ADC1_INP8*%
X181559200Y-132029200D02*
X182880000Y-133350000D01*
X172618400Y-132029200D02*
X181559200Y-132029200D01*
X161283288Y-120694088D02*
X172618400Y-132029200D01*
X128865767Y-120694088D02*
X161283288Y-120694088D01*
X124939312Y-116767633D02*
X128865767Y-120694088D01*
X124020119Y-116767633D02*
X124939312Y-116767633D01*
X122290769Y-115038283D02*
X124020119Y-116767633D01*
%TO.N,ADC1_INP6*%
X182880000Y-126746000D02*
X182880000Y-128270000D01*
X182473600Y-126339600D02*
X182880000Y-126746000D01*
X177342800Y-126339600D02*
X182473600Y-126339600D01*
X169897244Y-118894044D02*
X177342800Y-126339600D01*
X129682064Y-118894044D02*
X169897244Y-118894044D01*
X124058536Y-113270516D02*
X129682064Y-118894044D01*
%TO.N,ADC1_INP4*%
X159599699Y-121144099D02*
X171805600Y-133350000D01*
X128679367Y-121144099D02*
X159599699Y-121144099D01*
X124752912Y-117217644D02*
X128679367Y-121144099D01*
X171805600Y-133350000D02*
X180340000Y-133350000D01*
X123763022Y-117217644D02*
X124752912Y-117217644D01*
X121937215Y-115391837D02*
X123763022Y-117217644D01*
%TO.N,ADC1_INP2*%
X173990000Y-128270000D02*
X180340000Y-128270000D01*
X165064055Y-119344055D02*
X173990000Y-128270000D01*
X129424967Y-119344055D02*
X165064055Y-119344055D01*
X123704982Y-113624070D02*
X129424967Y-119344055D01*
%TO.N,ADC1_INP5*%
X181610000Y-129540000D02*
X182880000Y-130810000D01*
X173583600Y-129540000D02*
X181610000Y-129540000D01*
X163837666Y-119794066D02*
X173583600Y-129540000D01*
X129238567Y-119794066D02*
X163837666Y-119794066D01*
X125312112Y-115867611D02*
X129238567Y-119794066D01*
X124534311Y-115867611D02*
X125312112Y-115867611D01*
X122997876Y-114331176D02*
X124534311Y-115867611D01*
%TO.N,ADC1_INP15*%
X171348400Y-138430000D02*
X180340000Y-138430000D01*
X155862543Y-122944143D02*
X171348400Y-138430000D01*
X127933767Y-122944143D02*
X155862543Y-122944143D01*
X124725224Y-119735600D02*
X127933767Y-122944143D01*
X121331232Y-119735600D02*
X124725224Y-119735600D01*
X119462342Y-117866710D02*
X121331232Y-119735600D01*
D35*
%TO.N,ADC1_INP11*%
X113575678Y-114684730D02*
X113543166Y-114684730D01*
D34*
X113575678Y-114684730D02*
X114493808Y-113766600D01*
X114493808Y-113766600D02*
X115112800Y-113766600D01*
%TO.N,ADC1_INP7*%
X181660800Y-134670800D02*
X182880000Y-135890000D01*
X158728910Y-121594110D02*
X171805600Y-134670800D01*
X171805600Y-134670800D02*
X181660800Y-134670800D01*
X128492967Y-121594110D02*
X158728910Y-121594110D01*
X124566512Y-117667655D02*
X128492967Y-121594110D01*
X123505927Y-117667655D02*
X124566512Y-117667655D01*
X121583662Y-115745390D02*
X123505927Y-117667655D01*
%TO.N,ADC1_INP19*%
X181704999Y-137254999D02*
X182880000Y-138430000D01*
X156915362Y-122494132D02*
X171676229Y-137254999D01*
X128120167Y-122494132D02*
X156915362Y-122494132D01*
X124193712Y-118567677D02*
X128120167Y-122494132D01*
X122991735Y-118567677D02*
X124193712Y-118567677D01*
X171676229Y-137254999D02*
X181704999Y-137254999D01*
X120876555Y-116452497D02*
X122991735Y-118567677D01*
%TO.N,ADC1_INP3*%
X171704000Y-135890000D02*
X180340000Y-135890000D01*
X128306567Y-122044121D02*
X157858121Y-122044121D01*
X124380112Y-118117666D02*
X128306567Y-122044121D01*
X123248832Y-118117666D02*
X124380112Y-118117666D01*
X157858121Y-122044121D02*
X171704000Y-135890000D01*
X121230109Y-116098943D02*
X123248832Y-118117666D01*
%TO.N,ADC1_INP17*%
X170992800Y-140970000D02*
X180340000Y-140970000D01*
X153866965Y-123844165D02*
X170992800Y-140970000D01*
X124519202Y-120802400D02*
X127560967Y-123844165D01*
X127560967Y-123844165D02*
X153866965Y-123844165D01*
X115316000Y-119583200D02*
X116535200Y-120802400D01*
X115316000Y-118601262D02*
X115316000Y-119583200D01*
X116535200Y-120802400D02*
X124519202Y-120802400D01*
X116404105Y-117513157D02*
X115316000Y-118601262D01*
%TO.N,MIXER3*%
X114554000Y-118656155D02*
X115482604Y-117727551D01*
X114554000Y-120699390D02*
X114554000Y-118656155D01*
X136094610Y-142240000D02*
X114554000Y-120699390D01*
X156344000Y-142240000D02*
X136094610Y-142240000D01*
X181864000Y-167760000D02*
X156344000Y-142240000D01*
X115482604Y-117727551D02*
X116050551Y-117159604D01*
X181864000Y-168910000D02*
X181864000Y-167760000D01*
%TO.N,MIXER2*%
X113714837Y-115959785D02*
X114282785Y-115391837D01*
X131075598Y-137857398D02*
X112699800Y-119481600D01*
X131075598Y-137984398D02*
X131075598Y-137857398D01*
X112699800Y-116974822D02*
X113714837Y-115959785D01*
X167081200Y-173990000D02*
X131075598Y-137984398D01*
X112699800Y-119481600D02*
X112699800Y-116974822D01*
X181864000Y-173990000D02*
X167081200Y-173990000D01*
%TO.N,AC_CONTROL*%
X127000000Y-130098800D02*
X130759200Y-126339600D01*
X125831600Y-140614400D02*
X125831600Y-136042400D01*
X130403600Y-155905200D02*
X130403600Y-145186400D01*
X130403600Y-145186400D02*
X125831600Y-140614400D01*
X129463800Y-156845000D02*
X130403600Y-155905200D01*
X127880000Y-156845000D02*
X129463800Y-156845000D01*
%TO.N,COMPRESSOR_CONTROL*%
X127880000Y-158115000D02*
X129717800Y-158115000D01*
X129717800Y-158115000D02*
X131673600Y-156159200D01*
X131673600Y-156159200D02*
X131673600Y-142494000D01*
X131673600Y-142494000D02*
X127457200Y-138277600D01*
X127457200Y-138277600D02*
X127457200Y-136398000D01*
X128168400Y-131927600D02*
X133045200Y-127050800D01*
X133045200Y-127050800D02*
X133045200Y-126288800D01*
X174294800Y-70256400D02*
X174294800Y-72948800D01*
X178511200Y-66040000D02*
X174294800Y-70256400D01*
X183388000Y-66040000D02*
X178511200Y-66040000D01*
%TO.N,MIXER1*%
X113893891Y-115038283D02*
X112650974Y-116281200D01*
X113929231Y-115038283D02*
X113893891Y-115038283D01*
X112650974Y-116281200D02*
X111810800Y-116281200D01*
%TO.N,S16*%
X123748800Y-94612112D02*
X123748800Y-94576772D01*
X158750000Y-59610912D02*
X123748800Y-94612112D01*
X158750000Y-40640000D02*
X158750000Y-59610912D01*
%TO.N,S14*%
X161290000Y-59863999D02*
X161290000Y-40640000D01*
X125119196Y-96034803D02*
X161290000Y-59863999D01*
X125119196Y-96070144D02*
X125119196Y-96034803D01*
%TO.N,S12*%
X163830000Y-58799590D02*
X163830000Y-40640000D01*
X126108954Y-96494600D02*
X125826303Y-96777251D01*
X126134990Y-96494600D02*
X126108954Y-96494600D01*
X163830000Y-58799590D02*
X126134990Y-96494600D01*
%TO.N,S10*%
X166370000Y-57683108D02*
X166370000Y-40640000D01*
X127202908Y-96850200D02*
X127238264Y-96850200D01*
X126568751Y-97484357D02*
X127202908Y-96850200D01*
X126533410Y-97484357D02*
X126568751Y-97484357D01*
X166370000Y-57718464D02*
X166370000Y-57683108D01*
X127238264Y-96850200D02*
X166370000Y-57718464D01*
%TO.N,S8*%
X168910000Y-56521980D02*
X168910000Y-40640000D01*
X127240516Y-98191464D02*
X168910000Y-56521980D01*
%TO.N,S6*%
X131114800Y-97145608D02*
X128654730Y-99605678D01*
X171450000Y-56810408D02*
X131114800Y-97145608D01*
X171450000Y-40640000D02*
X171450000Y-56810408D01*
%TO.N,S4*%
X130149600Y-99525022D02*
X129361837Y-100312785D01*
X172451622Y-44565978D02*
X172451622Y-57223000D01*
X172451622Y-57223000D02*
X130149600Y-99525022D01*
X173990000Y-43027600D02*
X172451622Y-44565978D01*
X173990000Y-40640000D02*
X173990000Y-43027600D01*
%TO.N,S2*%
X176530000Y-40640000D02*
X176530000Y-43078400D01*
X173351644Y-46256756D02*
X173351644Y-57737190D01*
X173351644Y-57737190D02*
X130068943Y-101019891D01*
X176530000Y-43078400D02*
X173351644Y-46256756D01*
%TO.N,S15*%
X130302000Y-90180233D02*
X124765643Y-95716590D01*
X160020000Y-60462233D02*
X130302000Y-90180233D01*
X160020000Y-39370000D02*
X160020000Y-60462233D01*
X158750000Y-38100000D02*
X160020000Y-39370000D01*
%TO.N,S13*%
X126040697Y-95855749D02*
X125472749Y-96423697D01*
X162465001Y-59431445D02*
X126040697Y-95855749D01*
X162465001Y-39275001D02*
X162465001Y-59431445D01*
X161290000Y-38100000D02*
X162465001Y-39275001D01*
%TO.N,S11*%
X163830000Y-38100000D02*
X165100000Y-39370000D01*
X165100000Y-39370000D02*
X165100000Y-58166000D01*
X153466800Y-69843860D02*
X126179856Y-97130804D01*
X153466800Y-69799200D02*
X153466800Y-69843860D01*
X165100000Y-58166000D02*
X153466800Y-69799200D01*
%TO.N,S9*%
X166370000Y-38100000D02*
X167589200Y-39319200D01*
X167589200Y-57135674D02*
X126886963Y-97837911D01*
X167589200Y-39319200D02*
X167589200Y-57135674D01*
%TO.N,S7*%
X170085001Y-39275001D02*
X170085001Y-56054087D01*
X170085001Y-56054087D02*
X127594070Y-98545018D01*
X168910000Y-38100000D02*
X170085001Y-39275001D01*
%TO.N,S5*%
X129008283Y-99959231D02*
X172001611Y-56965903D01*
X172720000Y-43129200D02*
X172720000Y-39370000D01*
X172001611Y-43847589D02*
X172720000Y-43129200D01*
X172001611Y-56965903D02*
X172001611Y-43847589D01*
X172720000Y-39370000D02*
X171450000Y-38100000D01*
%TO.N,S3*%
X175260000Y-39370000D02*
X173990000Y-38100000D01*
X175260000Y-43129200D02*
X175260000Y-39370000D01*
X172901633Y-57515435D02*
X172901633Y-45487567D01*
X172901633Y-45487567D02*
X175260000Y-43129200D01*
X129750730Y-100666338D02*
X172901633Y-57515435D01*
X129715390Y-100666338D02*
X129750730Y-100666338D01*
%TO.N,S1*%
X178460400Y-40030400D02*
X176530000Y-38100000D01*
X173801655Y-57994287D02*
X173801655Y-47381545D01*
X130422497Y-101373445D02*
X173801655Y-57994287D01*
X173801655Y-47381545D02*
X178460400Y-42722800D01*
X178460400Y-42722800D02*
X178460400Y-40030400D01*
%TO.N,DEBUG_JTCK_SWCLK*%
X111139697Y-78018097D02*
X109296200Y-79861594D01*
X109296200Y-82951832D02*
X116757658Y-90413290D01*
X109296200Y-79861594D02*
X109296200Y-82951832D01*
%TO.N,DEBUG_JTMS-SWDIO*%
X121090950Y-90906002D02*
X120523002Y-91473950D01*
X122301000Y-89695952D02*
X121090950Y-90906002D01*
X122301000Y-86690200D02*
X122301000Y-89695952D01*
X113512600Y-79248000D02*
X114858800Y-79248000D01*
X112946452Y-79814148D02*
X113512600Y-79248000D01*
X114858800Y-79248000D02*
X122301000Y-86690200D01*
X112935748Y-79814148D02*
X112946452Y-79814148D01*
%TO.N,Net-(MOD1-Pad29)*%
X90550000Y-171450000D02*
X93600000Y-171450000D01*
X106908600Y-159816800D02*
X109016800Y-161925000D01*
X109016800Y-161925000D02*
X110880000Y-161925000D01*
X95224600Y-159816800D02*
X106908600Y-159816800D01*
X93624400Y-161417000D02*
X95224600Y-159816800D01*
X93624400Y-163170598D02*
X93624400Y-161417000D01*
X93600000Y-163194998D02*
X93624400Y-163170598D01*
X93600000Y-171450000D02*
X93600000Y-163194998D01*
%TO.N,Net-(MOD1-Pad26)*%
X78740000Y-171475400D02*
X80900000Y-171475400D01*
X80900000Y-171475400D02*
X80900000Y-167334200D01*
X90119200Y-158115000D02*
X110880000Y-158115000D01*
X80900000Y-167334200D02*
X90119200Y-158115000D01*
%TO.N,Net-(R3-Pad2)*%
X82626200Y-100101400D02*
X89126200Y-100101400D01*
X93497400Y-100101400D02*
X93599000Y-99999800D01*
X89126200Y-100101400D02*
X93497400Y-100101400D01*
X96285196Y-98882200D02*
X104720472Y-98882200D01*
X95167596Y-99999800D02*
X96285196Y-98882200D01*
X93599000Y-99999800D02*
X95167596Y-99999800D01*
X104720472Y-98882200D02*
X106504610Y-100666338D01*
%TO.N,L2_SCK*%
X142595600Y-38100000D02*
X139649200Y-38100000D01*
X143459200Y-74194606D02*
X143459200Y-38963600D01*
X143459200Y-38963600D02*
X142595600Y-38100000D01*
X123351429Y-94302377D02*
X143459200Y-74194606D01*
%TO.N,L2_DT*%
X142748000Y-41300400D02*
X142087600Y-40640000D01*
X142748000Y-74198700D02*
X142748000Y-41300400D01*
X142087600Y-40640000D02*
X139649200Y-40640000D01*
X122997876Y-93948824D02*
X142748000Y-74198700D01*
%TO.N,L1_SCK*%
X138474199Y-39464999D02*
X137109200Y-38100000D01*
X138474199Y-77800735D02*
X138474199Y-39464999D01*
X109917399Y-106357535D02*
X138474199Y-77800735D01*
X109917399Y-106322193D02*
X109917399Y-106357535D01*
X122644322Y-93595270D02*
X109917399Y-106322193D01*
%TO.N,L1_DT*%
X137210800Y-40741600D02*
X137109200Y-40640000D01*
X137210800Y-78321686D02*
X137210800Y-40741600D01*
X122290769Y-93241717D02*
X137210800Y-78321686D01*
D40*
%TO.N,UART2_TX*%
X113151430Y-93948824D02*
X111353806Y-92151200D01*
X113222124Y-93948824D02*
X113151430Y-93948824D01*
X111353806Y-92151200D02*
X111048800Y-92151200D01*
X121843800Y-145872200D02*
X121843800Y-145897600D01*
D34*
X66400000Y-177000000D02*
X66400000Y-179280000D01*
X67200000Y-167800000D02*
X67200000Y-176200000D01*
X107200000Y-143800000D02*
X91200000Y-143800000D01*
X67200000Y-176200000D02*
X66400000Y-177000000D01*
X109200000Y-149400000D02*
X109200000Y-145800000D01*
X112400000Y-152600000D02*
X109200000Y-149400000D01*
X119200000Y-152600000D02*
X112400000Y-152600000D01*
X66400000Y-179280000D02*
X66280000Y-179400000D01*
X91200000Y-143800000D02*
X67200000Y-167800000D01*
X121843800Y-149956200D02*
X119200000Y-152600000D01*
X109200000Y-145800000D02*
X107200000Y-143800000D01*
X121843800Y-145872200D02*
X121843800Y-149956200D01*
D40*
%TO.N,UART2_RX*%
X112161464Y-94938788D02*
X111175800Y-93953124D01*
X112161464Y-95009484D02*
X112161464Y-94938788D01*
X111175800Y-93953124D02*
X111175800Y-93345000D01*
D34*
X63740000Y-177960000D02*
X63740000Y-179400000D01*
X66000000Y-167600000D02*
X66000000Y-175700000D01*
X90400000Y-143200000D02*
X66000000Y-167600000D01*
X110000000Y-145600000D02*
X107600000Y-143200000D01*
X110000000Y-149000000D02*
X110000000Y-145600000D01*
X113000000Y-152000000D02*
X110000000Y-149000000D01*
X107600000Y-143200000D02*
X90400000Y-143200000D01*
X118400000Y-152000000D02*
X113000000Y-152000000D01*
X66000000Y-175700000D02*
X63740000Y-177960000D01*
X120142000Y-150258000D02*
X118400000Y-152000000D01*
X120142000Y-145796000D02*
X120142000Y-150258000D01*
%TO.N,L3_DT*%
X106151057Y-101019891D02*
X104738376Y-99607210D01*
X97796885Y-99607210D02*
X97231200Y-99607210D01*
X104738376Y-99607210D02*
X97796885Y-99607210D01*
%TO.N,L3_SCK*%
X97774850Y-100136564D02*
X97327414Y-100584000D01*
X105797503Y-101373445D02*
X104560622Y-100136564D01*
X97327414Y-100584000D02*
X96164400Y-100584000D01*
X104560622Y-100136564D02*
X97774850Y-100136564D01*
%TO.N,L4_DT*%
X97862225Y-100685600D02*
X96947825Y-101600000D01*
X104402552Y-100685600D02*
X97862225Y-100685600D01*
X105443950Y-101726998D02*
X104402552Y-100685600D01*
X96947825Y-101600000D02*
X95504000Y-101600000D01*
%TO.N,L4_SCK*%
X97416615Y-102666800D02*
X94894400Y-102666800D01*
X98570811Y-101512604D02*
X97416615Y-102666800D01*
X104522449Y-101512604D02*
X98570811Y-101512604D01*
X105090396Y-102080551D02*
X104522449Y-101512604D01*
D36*
%TO.N,+5V*%
X74803000Y-118795800D02*
X74803000Y-120243600D01*
X74803000Y-120243600D02*
X75361800Y-120802400D01*
X75361800Y-120802400D02*
X86156800Y-120802400D01*
X153289000Y-172402000D02*
X153403800Y-172516800D01*
X153289000Y-169799000D02*
X153289000Y-172402000D01*
X152552400Y-173368200D02*
X153403800Y-172516800D01*
X152552400Y-179882800D02*
X152552400Y-173368200D01*
X151460200Y-180975000D02*
X152552400Y-179882800D01*
X141655800Y-180975000D02*
X151460200Y-180975000D01*
X140970000Y-180289200D02*
X141655800Y-180975000D01*
X140970000Y-177800000D02*
X140970000Y-180289200D01*
X118033800Y-140030200D02*
X118599485Y-140030200D01*
X118599485Y-140030200D02*
X124434602Y-140030200D01*
D39*
%TO.N,+3V8*%
X136990000Y-172085000D02*
X137160000Y-171915000D01*
D41*
X127880000Y-172085000D02*
X136990000Y-172085000D01*
D39*
X134594600Y-171889600D02*
X134620000Y-171915000D01*
X134594600Y-169582600D02*
X134594600Y-171889600D01*
D36*
X137167800Y-171907200D02*
X137160000Y-171915000D01*
X139725400Y-171907200D02*
X137167800Y-171907200D01*
X140055600Y-171577000D02*
X139725400Y-171907200D01*
X116840000Y-147512500D02*
X116840000Y-149021800D01*
X105410000Y-156210000D02*
X103987600Y-156210000D01*
D38*
X116840000Y-147512500D02*
X114912500Y-147512500D01*
X114912500Y-147512500D02*
X109400000Y-142000000D01*
X109400000Y-142000000D02*
X88600000Y-142000000D01*
X63800000Y-166800000D02*
X63800000Y-170537500D01*
X88600000Y-142000000D02*
X63800000Y-166800000D01*
X99275000Y-172475000D02*
X105000000Y-172475000D01*
X94400000Y-163200000D02*
X94400000Y-167600000D01*
X94400000Y-167600000D02*
X99275000Y-172475000D01*
X95040000Y-162560000D02*
X94400000Y-163200000D01*
X96520000Y-162560000D02*
X95040000Y-162560000D01*
D34*
%TO.N,GNDD*%
X95250000Y-148590000D02*
X101750000Y-148590000D01*
X104140000Y-148590000D02*
X105410000Y-149860000D01*
X101750000Y-148590000D02*
X104140000Y-148590000D01*
X82550000Y-171475400D02*
X82550000Y-176580800D01*
X81305400Y-177825400D02*
X80010000Y-177825400D01*
X82550000Y-176580800D02*
X81305400Y-177825400D01*
X95250000Y-171450000D02*
X95250000Y-176377600D01*
X93827600Y-177800000D02*
X91440000Y-177800000D01*
X95250000Y-176377600D02*
X93827600Y-177800000D01*
D41*
X131445000Y-173355000D02*
X132080000Y-173990000D01*
X127880000Y-173355000D02*
X131445000Y-173355000D01*
D39*
X132080000Y-173990000D02*
X137160000Y-173990000D01*
X137160000Y-173990000D02*
X142468600Y-173990000D01*
X143510000Y-175031400D02*
X143510000Y-177800000D01*
X142468600Y-173990000D02*
X143510000Y-175031400D01*
X143510000Y-168910000D02*
X144780000Y-167640000D01*
X143510000Y-177800000D02*
X143510000Y-168910000D01*
X144780000Y-167640000D02*
X138280000Y-167640000D01*
D36*
X125069600Y-155819600D02*
X125095000Y-155845000D01*
X95250000Y-171450000D02*
X96520000Y-171450000D01*
D34*
X134620000Y-164820000D02*
X134620000Y-163068000D01*
X125069600Y-151993600D02*
X124968000Y-151892000D01*
D36*
X125069600Y-147857400D02*
X125069600Y-151993600D01*
X125069600Y-151993600D02*
X125069600Y-155819600D01*
D34*
X120380000Y-162576000D02*
X120396000Y-162560000D01*
X120380000Y-166855000D02*
X120380000Y-162576000D01*
X120380000Y-166855000D02*
X115542200Y-166855000D01*
X120380000Y-166855000D02*
X124991000Y-166855000D01*
X120380000Y-166855000D02*
X120380000Y-171161200D01*
X110880000Y-173355000D02*
X107111800Y-173355000D01*
D38*
X80010000Y-177825400D02*
X80010000Y-180390000D01*
X80010000Y-180390000D02*
X79200000Y-181200000D01*
X70620000Y-181200000D02*
X68820000Y-179400000D01*
X79200000Y-181200000D02*
X70620000Y-181200000D01*
D34*
%TO.N,IO_0*%
X103940000Y-153090000D02*
X105410000Y-154560000D01*
X101750000Y-153090000D02*
X103940000Y-153090000D01*
X105410000Y-154560000D02*
X106782600Y-154560000D01*
X109067600Y-156845000D02*
X110880000Y-156845000D01*
X106782600Y-154560000D02*
X109067600Y-156845000D01*
X95250000Y-153090000D02*
X101750000Y-153090000D01*
X105410000Y-151410000D02*
X105410000Y-154560000D01*
D35*
%TO.N,EN*%
X127880000Y-170815000D02*
X130657600Y-170815000D01*
X133540000Y-167932600D02*
X134594600Y-167932600D01*
X130657600Y-170815000D02*
X133540000Y-167932600D01*
X134620000Y-167907200D02*
X134594600Y-167932600D01*
X134620000Y-166370000D02*
X134620000Y-167907200D01*
X135050000Y-166370000D02*
X138280000Y-163140000D01*
X134620000Y-166370000D02*
X135050000Y-166370000D01*
X138280000Y-163140000D02*
X144780000Y-163140000D01*
D34*
%TO.N,Net-(J11-Pad2)*%
X88900000Y-171450000D02*
X88900000Y-177800000D01*
%TO.N,Net-(J12-Pad2)*%
X77470000Y-171855400D02*
X77090000Y-171475400D01*
X77470000Y-177825400D02*
X77470000Y-171855400D01*
D38*
%TO.N,MQ-3*%
X127880000Y-169545000D02*
X130251200Y-169545000D01*
%TO.N,Net-(J14-Pad1)*%
X155053800Y-177686200D02*
X154940000Y-177800000D01*
X155053800Y-172516800D02*
X155053800Y-177686200D01*
%TO.N,Pressures_sensor*%
X127880000Y-165735000D02*
X130429000Y-165735000D01*
X130429000Y-165735000D02*
X132410200Y-163753800D01*
X132410200Y-163753800D02*
X132410200Y-161290000D01*
X132410200Y-161290000D02*
X133934200Y-159766000D01*
X133934200Y-159766000D02*
X146837400Y-159766000D01*
X157480000Y-170408600D02*
X157480000Y-177800000D01*
X146837400Y-159766000D02*
X157480000Y-170408600D01*
D34*
%TO.N,Net-(J15-Pad2)*%
X99145000Y-169545000D02*
X110880000Y-169545000D01*
X96520000Y-166920000D02*
X99145000Y-169545000D01*
X96520000Y-165100000D02*
X96520000Y-166920000D01*
%TO.N,Net-(J15-Pad3)*%
X104775000Y-168275000D02*
X110880000Y-168275000D01*
X99060000Y-162560000D02*
X104775000Y-168275000D01*
D42*
%TO.N,Net-(C1-Pad2)*%
X63834000Y-48260000D02*
X64008000Y-48086000D01*
X55880000Y-48260000D02*
X63834000Y-48260000D01*
D34*
%TO.N,Net-(BT1-Pad1)*%
X106151057Y-107260109D02*
X101549566Y-111861600D01*
X101549566Y-111861600D02*
X99568000Y-111861600D01*
D42*
%TO.N,Net-(C1-Pad1)*%
X63754000Y-53340000D02*
X64008000Y-53086000D01*
X55880000Y-53340000D02*
X63754000Y-53340000D01*
D37*
X64008000Y-53086000D02*
X68376800Y-53086000D01*
X71432000Y-50030800D02*
X71432000Y-47685000D01*
X68376800Y-53086000D02*
X71432000Y-50030800D01*
D34*
%TO.N,L5_DT*%
X132712296Y-100533200D02*
X137464800Y-100533200D01*
X131164945Y-102080551D02*
X132712296Y-100533200D01*
X131129604Y-102080551D02*
X131164945Y-102080551D01*
X137464800Y-100533200D02*
X140614400Y-97383600D01*
X130854199Y-43325799D02*
X130854199Y-39464999D01*
X134772400Y-47244000D02*
X130854199Y-43325799D01*
X134772400Y-65887600D02*
X134772400Y-47244000D01*
X130854199Y-39464999D02*
X129489200Y-38100000D01*
X131572000Y-69088000D02*
X134772400Y-65887600D01*
X131572000Y-80619600D02*
X131572000Y-69088000D01*
%TO.N,L6_DT*%
X128124201Y-39275001D02*
X128124201Y-81642201D01*
X126949200Y-38100000D02*
X128124201Y-39275001D01*
X128124201Y-81642201D02*
X129590800Y-83108800D01*
X121718006Y-112344200D02*
X123351429Y-113977623D01*
X121056400Y-111682594D02*
X121718006Y-112344200D01*
X121056400Y-110591600D02*
X121056400Y-111682594D01*
X124917200Y-106730800D02*
X121056400Y-110591600D01*
%TO.N,L5_SCK*%
X136245600Y-99720400D02*
X138074400Y-97891600D01*
X138074400Y-97891600D02*
X138074400Y-97840800D01*
X132817989Y-99720400D02*
X136245600Y-99720400D01*
X130811391Y-101726998D02*
X132817989Y-99720400D01*
X130776050Y-101726998D02*
X130811391Y-101726998D01*
X129489200Y-80365600D02*
X130759200Y-81635600D01*
X129489200Y-40640000D02*
X129489200Y-80365600D01*
%TO.N,L6_SCK*%
X120523002Y-116806050D02*
X120558342Y-116806050D01*
X121818400Y-100431600D02*
X121869200Y-100431600D01*
X118922800Y-103327200D02*
X121818400Y-100431600D01*
X118922800Y-115205848D02*
X118922800Y-103327200D01*
X120523002Y-116806050D02*
X118922800Y-115205848D01*
X127965200Y-84429600D02*
X126288800Y-82753200D01*
X126288800Y-41300400D02*
X126949200Y-40640000D01*
X126288800Y-82753200D02*
X126288800Y-41300400D01*
D38*
%TO.N,Net-(J17-Pad1)*%
X61200000Y-179400000D02*
X61200000Y-177000000D01*
X63800000Y-174400000D02*
X63800000Y-173462500D01*
X61200000Y-177000000D02*
X63800000Y-174400000D01*
%TO.N,Net-(J18-Pad1)*%
X105000000Y-175400000D02*
X105000000Y-178600000D01*
D34*
%TO.N,Net-(J18-Pad2)*%
X122600000Y-155890000D02*
X122555000Y-155845000D01*
X122600000Y-158400000D02*
X122600000Y-155890000D01*
%TO.N,Net-(J18-Pad3)*%
X121285000Y-155845000D02*
X121285000Y-157715000D01*
X121285000Y-157715000D02*
X120000000Y-159000000D01*
%TD*%
D35*
%TO.N,Net-(C1-Pad2)*%
X68806188Y-33710518D02*
X68793928Y-33835000D01*
X68797000Y-38249250D01*
X68955750Y-38408000D01*
X74705000Y-38408000D01*
X74705000Y-38388000D01*
X74959000Y-38388000D01*
X74959000Y-38408000D01*
X80708250Y-38408000D01*
X80867000Y-38249250D01*
X80867617Y-37361298D01*
X86642903Y-37361298D01*
X87456000Y-38174395D01*
X88269097Y-37361298D01*
X88197514Y-37117329D01*
X87942004Y-36996429D01*
X87667816Y-36927700D01*
X87385488Y-36913783D01*
X87105870Y-36955213D01*
X86839708Y-37050397D01*
X86714486Y-37117329D01*
X86642903Y-37361298D01*
X80867617Y-37361298D01*
X80870072Y-33835000D01*
X80857812Y-33710518D01*
X80848554Y-33680000D01*
X98933000Y-33680000D01*
X98933000Y-37367873D01*
X98862305Y-37235613D01*
X98751862Y-37101038D01*
X98617287Y-36990595D01*
X98463752Y-36908528D01*
X98297156Y-36857992D01*
X98123902Y-36840928D01*
X97498898Y-36840928D01*
X97325644Y-36857992D01*
X97159048Y-36908528D01*
X97045914Y-36969000D01*
X93508603Y-36969000D01*
X93500180Y-36964498D01*
X93380482Y-36928188D01*
X93256000Y-36915928D01*
X91656000Y-36915928D01*
X91531518Y-36928188D01*
X91411820Y-36964498D01*
X91301506Y-37023463D01*
X91204815Y-37102815D01*
X91125463Y-37199506D01*
X91066498Y-37309820D01*
X91030188Y-37429518D01*
X91017928Y-37554000D01*
X91017928Y-39154000D01*
X91030188Y-39278482D01*
X91066498Y-39398180D01*
X91071000Y-39406603D01*
X91071001Y-44755600D01*
X82539071Y-44755600D01*
X82499200Y-44751673D01*
X82459329Y-44755600D01*
X82459319Y-44755600D01*
X82340020Y-44767350D01*
X82186958Y-44813781D01*
X82045895Y-44889181D01*
X81922252Y-44990652D01*
X81896829Y-45021630D01*
X80962630Y-45955830D01*
X80931653Y-45981252D01*
X80906230Y-46012230D01*
X80830181Y-46104896D01*
X80808987Y-46144548D01*
X80754782Y-46245958D01*
X80717807Y-46367850D01*
X80708351Y-46399021D01*
X80692673Y-46558200D01*
X80696601Y-46598081D01*
X80696600Y-49727058D01*
X79597460Y-50826200D01*
X77374540Y-50826200D01*
X77344000Y-50795660D01*
X77344000Y-50564977D01*
X77382000Y-50544665D01*
X77437820Y-50574502D01*
X77557518Y-50610812D01*
X77682000Y-50623072D01*
X77946250Y-50620000D01*
X78105000Y-50461250D01*
X78105000Y-47812000D01*
X78359000Y-47812000D01*
X78359000Y-50461250D01*
X78517750Y-50620000D01*
X78782000Y-50623072D01*
X78906482Y-50610812D01*
X79026180Y-50574502D01*
X79136494Y-50515537D01*
X79233185Y-50436185D01*
X79312537Y-50339494D01*
X79371502Y-50229180D01*
X79407812Y-50109482D01*
X79420072Y-49985000D01*
X79417000Y-47970750D01*
X79258250Y-47812000D01*
X78359000Y-47812000D01*
X78105000Y-47812000D01*
X78085000Y-47812000D01*
X78085000Y-47558000D01*
X78105000Y-47558000D01*
X78105000Y-44908750D01*
X78359000Y-44908750D01*
X78359000Y-47558000D01*
X79258250Y-47558000D01*
X79417000Y-47399250D01*
X79420072Y-45385000D01*
X79407812Y-45260518D01*
X79371502Y-45140820D01*
X79312537Y-45030506D01*
X79233185Y-44933815D01*
X79136494Y-44854463D01*
X79026180Y-44795498D01*
X78906482Y-44759188D01*
X78782000Y-44746928D01*
X78517750Y-44750000D01*
X78359000Y-44908750D01*
X78105000Y-44908750D01*
X77946250Y-44750000D01*
X77682000Y-44746928D01*
X77557518Y-44759188D01*
X77437820Y-44795498D01*
X77382000Y-44825335D01*
X77326180Y-44795498D01*
X77206482Y-44759188D01*
X77082000Y-44746928D01*
X75982000Y-44746928D01*
X75857518Y-44759188D01*
X75737820Y-44795498D01*
X75682000Y-44825335D01*
X75626180Y-44795498D01*
X75506482Y-44759188D01*
X75382000Y-44746928D01*
X75117750Y-44750000D01*
X74959000Y-44908750D01*
X74959000Y-47558000D01*
X74979000Y-47558000D01*
X74979000Y-47812000D01*
X74959000Y-47812000D01*
X74959000Y-50461250D01*
X75117750Y-50620000D01*
X75382000Y-50623072D01*
X75506482Y-50610812D01*
X75626180Y-50574502D01*
X75682000Y-50544665D01*
X75720001Y-50564977D01*
X75720001Y-51092119D01*
X75716073Y-51132000D01*
X75731751Y-51291179D01*
X75778182Y-51444242D01*
X75844412Y-51568149D01*
X75853582Y-51585305D01*
X75955053Y-51708948D01*
X75986031Y-51734371D01*
X76435825Y-52184165D01*
X76461252Y-52215148D01*
X76542551Y-52281868D01*
X76584895Y-52316619D01*
X76716193Y-52386800D01*
X74662325Y-52386800D01*
X74606314Y-52340833D01*
X74517000Y-52293093D01*
X74517000Y-50620340D01*
X74546250Y-50620000D01*
X74705000Y-50461250D01*
X74705000Y-47812000D01*
X74685000Y-47812000D01*
X74685000Y-47558000D01*
X74705000Y-47558000D01*
X74705000Y-44908750D01*
X74546250Y-44750000D01*
X74282000Y-44746928D01*
X74157518Y-44759188D01*
X74037820Y-44795498D01*
X73982000Y-44825335D01*
X73926180Y-44795498D01*
X73806482Y-44759188D01*
X73682000Y-44746928D01*
X72582000Y-44746928D01*
X72457518Y-44759188D01*
X72337820Y-44795498D01*
X72282000Y-44825335D01*
X72226180Y-44795498D01*
X72106482Y-44759188D01*
X71982000Y-44746928D01*
X70882000Y-44746928D01*
X70757518Y-44759188D01*
X70637820Y-44795498D01*
X70527506Y-44854463D01*
X70430815Y-44933815D01*
X70351463Y-45030506D01*
X70292498Y-45140820D01*
X70256188Y-45260518D01*
X70243928Y-45385000D01*
X70243928Y-46969652D01*
X70146237Y-47152419D01*
X70067041Y-47413493D01*
X70047001Y-47616963D01*
X70047000Y-49457114D01*
X67803115Y-51701000D01*
X65060603Y-51701000D01*
X65052180Y-51696498D01*
X64932482Y-51660188D01*
X64808000Y-51647928D01*
X64785970Y-51647928D01*
X64636714Y-51568149D01*
X64328516Y-51474658D01*
X64007999Y-51443089D01*
X63687484Y-51474658D01*
X63379286Y-51568149D01*
X63230030Y-51647928D01*
X63208000Y-51647928D01*
X63083518Y-51660188D01*
X62963820Y-51696498D01*
X62947914Y-51705000D01*
X55799678Y-51705000D01*
X55559484Y-51728657D01*
X55317942Y-51801928D01*
X54330000Y-51801928D01*
X54156746Y-51818992D01*
X53990150Y-51869528D01*
X53836614Y-51951595D01*
X53702038Y-52062038D01*
X53591595Y-52196614D01*
X53509528Y-52350150D01*
X53458992Y-52516746D01*
X53441928Y-52690000D01*
X53441928Y-53990000D01*
X53458992Y-54163254D01*
X53509528Y-54329850D01*
X53591595Y-54483386D01*
X53702038Y-54617962D01*
X53836614Y-54728405D01*
X53990150Y-54810472D01*
X54156746Y-54861008D01*
X54330000Y-54878072D01*
X55317942Y-54878072D01*
X55559484Y-54951343D01*
X55799678Y-54975000D01*
X63673681Y-54975000D01*
X63754000Y-54982911D01*
X63834319Y-54975000D01*
X63834322Y-54975000D01*
X64074516Y-54951343D01*
X64382715Y-54857852D01*
X64666752Y-54706031D01*
X64899445Y-54515066D01*
X64932482Y-54511812D01*
X65052180Y-54475502D01*
X65060603Y-54471000D01*
X68308771Y-54471000D01*
X68376800Y-54477700D01*
X68444829Y-54471000D01*
X68444837Y-54471000D01*
X68648307Y-54450960D01*
X68909381Y-54371764D01*
X69149988Y-54243157D01*
X69360881Y-54070081D01*
X69404254Y-54017231D01*
X71747001Y-51674485D01*
X71747001Y-52314473D01*
X71697686Y-52340833D01*
X71600995Y-52420185D01*
X71521643Y-52516876D01*
X71462678Y-52627190D01*
X71426368Y-52746888D01*
X71414108Y-52871370D01*
X71414108Y-54672230D01*
X71426368Y-54796712D01*
X71462678Y-54916410D01*
X71521643Y-55026724D01*
X71600995Y-55123415D01*
X71697686Y-55202767D01*
X71808000Y-55261732D01*
X71927698Y-55298042D01*
X72052180Y-55310302D01*
X74251820Y-55310302D01*
X74376302Y-55298042D01*
X74496000Y-55261732D01*
X74606314Y-55202767D01*
X74662325Y-55156800D01*
X81102528Y-55156800D01*
X81102528Y-55670200D01*
X81114788Y-55794682D01*
X81151098Y-55914380D01*
X81210063Y-56024694D01*
X81289415Y-56121385D01*
X81386106Y-56200737D01*
X81496420Y-56259702D01*
X81616118Y-56296012D01*
X81740600Y-56308272D01*
X85340600Y-56308272D01*
X85465082Y-56296012D01*
X85584780Y-56259702D01*
X85695094Y-56200737D01*
X85791785Y-56121385D01*
X85871137Y-56024694D01*
X85930102Y-55914380D01*
X85966412Y-55794682D01*
X85978672Y-55670200D01*
X85978672Y-51670200D01*
X85966412Y-51545718D01*
X85930102Y-51426020D01*
X85871137Y-51315706D01*
X85791785Y-51219015D01*
X85695094Y-51139663D01*
X85584780Y-51080698D01*
X85465082Y-51044388D01*
X85340600Y-51032128D01*
X81740600Y-51032128D01*
X81682490Y-51037851D01*
X82054577Y-50665765D01*
X82085548Y-50640348D01*
X82110966Y-50609376D01*
X82110971Y-50609371D01*
X82187019Y-50516705D01*
X82262419Y-50375642D01*
X82308850Y-50222580D01*
X82324528Y-50063400D01*
X82320600Y-50023519D01*
X82320600Y-46894540D01*
X82835541Y-46379600D01*
X91071000Y-46379600D01*
X91071001Y-51032128D01*
X90840600Y-51032128D01*
X90716118Y-51044388D01*
X90596420Y-51080698D01*
X90486106Y-51139663D01*
X90389415Y-51219015D01*
X90310063Y-51315706D01*
X90251098Y-51426020D01*
X90214788Y-51545718D01*
X90202528Y-51670200D01*
X90202528Y-55670200D01*
X90214788Y-55794682D01*
X90251098Y-55914380D01*
X90310063Y-56024694D01*
X90389415Y-56121385D01*
X90486106Y-56200737D01*
X90596420Y-56259702D01*
X90716118Y-56296012D01*
X90840600Y-56308272D01*
X94440600Y-56308272D01*
X94565082Y-56296012D01*
X94684780Y-56259702D01*
X94795094Y-56200737D01*
X94891785Y-56121385D01*
X94971137Y-56024694D01*
X95030102Y-55914380D01*
X95066412Y-55794682D01*
X95078672Y-55670200D01*
X95078672Y-51670200D01*
X95066412Y-51545718D01*
X95030102Y-51426020D01*
X94971137Y-51315706D01*
X94891785Y-51219015D01*
X94795094Y-51139663D01*
X94684780Y-51080698D01*
X94565082Y-51044388D01*
X94440600Y-51032128D01*
X93841000Y-51032128D01*
X93841000Y-42073800D01*
X96574728Y-42073800D01*
X96586988Y-42198282D01*
X96623298Y-42317980D01*
X96682263Y-42428294D01*
X96761615Y-42524985D01*
X96858306Y-42604337D01*
X96968620Y-42663302D01*
X97088318Y-42699612D01*
X97212800Y-42711872D01*
X97489550Y-42708800D01*
X97648300Y-42550050D01*
X97648300Y-41325800D01*
X96736550Y-41325800D01*
X96577800Y-41484550D01*
X96574728Y-42073800D01*
X93841000Y-42073800D01*
X93841000Y-39739000D01*
X96959823Y-39739000D01*
X96858306Y-39793263D01*
X96761615Y-39872615D01*
X96682263Y-39969306D01*
X96623298Y-40079620D01*
X96586988Y-40199318D01*
X96574728Y-40323800D01*
X96577800Y-40913050D01*
X96736550Y-41071800D01*
X97648300Y-41071800D01*
X97648300Y-41051800D01*
X97902300Y-41051800D01*
X97902300Y-41071800D01*
X97922300Y-41071800D01*
X97922300Y-41325800D01*
X97902300Y-41325800D01*
X97902300Y-42550050D01*
X98061050Y-42708800D01*
X98337800Y-42711872D01*
X98462282Y-42699612D01*
X98581980Y-42663302D01*
X98692294Y-42604337D01*
X98788985Y-42524985D01*
X98868337Y-42428294D01*
X98927302Y-42317980D01*
X98933000Y-42299196D01*
X98933000Y-58293000D01*
X74887931Y-58293000D01*
X74886820Y-58070750D01*
X74728070Y-57912000D01*
X73279000Y-57912000D01*
X73279000Y-57932000D01*
X73025000Y-57932000D01*
X73025000Y-57912000D01*
X71575930Y-57912000D01*
X71417180Y-58070750D01*
X71416069Y-58293000D01*
X51460000Y-58293000D01*
X51460000Y-56884570D01*
X71414108Y-56884570D01*
X71417180Y-57499250D01*
X71575930Y-57658000D01*
X73025000Y-57658000D01*
X73025000Y-56408320D01*
X73279000Y-56408320D01*
X73279000Y-57658000D01*
X74728070Y-57658000D01*
X74886820Y-57499250D01*
X74889892Y-56884570D01*
X74877632Y-56760088D01*
X74841322Y-56640390D01*
X74782357Y-56530076D01*
X74703005Y-56433385D01*
X74606314Y-56354033D01*
X74496000Y-56295068D01*
X74376302Y-56258758D01*
X74251820Y-56246498D01*
X73437750Y-56249570D01*
X73279000Y-56408320D01*
X73025000Y-56408320D01*
X72866250Y-56249570D01*
X72052180Y-56246498D01*
X71927698Y-56258758D01*
X71808000Y-56295068D01*
X71697686Y-56354033D01*
X71600995Y-56433385D01*
X71521643Y-56530076D01*
X71462678Y-56640390D01*
X71426368Y-56760088D01*
X71414108Y-56884570D01*
X51460000Y-56884570D01*
X51460000Y-48624740D01*
X53488964Y-48624740D01*
X53513245Y-48730087D01*
X53633138Y-49007204D01*
X53804790Y-49255606D01*
X54021604Y-49465748D01*
X54275249Y-49629554D01*
X54555977Y-49740729D01*
X54853000Y-49795000D01*
X55753000Y-49795000D01*
X55753000Y-48387000D01*
X56007000Y-48387000D01*
X56007000Y-49795000D01*
X56907000Y-49795000D01*
X57204023Y-49740729D01*
X57484751Y-49629554D01*
X57738396Y-49465748D01*
X57955210Y-49255606D01*
X58077455Y-49078702D01*
X63194903Y-49078702D01*
X63266486Y-49322671D01*
X63521996Y-49443571D01*
X63796184Y-49512300D01*
X64078512Y-49526217D01*
X64358130Y-49484787D01*
X64624292Y-49389603D01*
X64749514Y-49322671D01*
X64821097Y-49078702D01*
X64008000Y-48265605D01*
X63194903Y-49078702D01*
X58077455Y-49078702D01*
X58126862Y-49007204D01*
X58246755Y-48730087D01*
X58271036Y-48624740D01*
X58150378Y-48387000D01*
X56007000Y-48387000D01*
X55753000Y-48387000D01*
X53609622Y-48387000D01*
X53488964Y-48624740D01*
X51460000Y-48624740D01*
X51460000Y-48156512D01*
X62567783Y-48156512D01*
X62609213Y-48436130D01*
X62704397Y-48702292D01*
X62771329Y-48827514D01*
X63015298Y-48899097D01*
X63828395Y-48086000D01*
X64187605Y-48086000D01*
X65000702Y-48899097D01*
X65244671Y-48827514D01*
X65365571Y-48572004D01*
X65434300Y-48297816D01*
X65448217Y-48015488D01*
X65406787Y-47735870D01*
X65311603Y-47469708D01*
X65244671Y-47344486D01*
X65000702Y-47272903D01*
X64187605Y-48086000D01*
X63828395Y-48086000D01*
X63015298Y-47272903D01*
X62771329Y-47344486D01*
X62650429Y-47599996D01*
X62581700Y-47874184D01*
X62567783Y-48156512D01*
X51460000Y-48156512D01*
X51460000Y-47895260D01*
X53488964Y-47895260D01*
X53609622Y-48133000D01*
X55753000Y-48133000D01*
X55753000Y-46725000D01*
X56007000Y-46725000D01*
X56007000Y-48133000D01*
X58150378Y-48133000D01*
X58271036Y-47895260D01*
X58246755Y-47789913D01*
X58126862Y-47512796D01*
X57955210Y-47264394D01*
X57778682Y-47093298D01*
X63194903Y-47093298D01*
X64008000Y-47906395D01*
X64821097Y-47093298D01*
X64749514Y-46849329D01*
X64494004Y-46728429D01*
X64219816Y-46659700D01*
X63937488Y-46645783D01*
X63657870Y-46687213D01*
X63391708Y-46782397D01*
X63266486Y-46849329D01*
X63194903Y-47093298D01*
X57778682Y-47093298D01*
X57738396Y-47054252D01*
X57484751Y-46890446D01*
X57204023Y-46779271D01*
X56907000Y-46725000D01*
X56007000Y-46725000D01*
X55753000Y-46725000D01*
X54853000Y-46725000D01*
X54555977Y-46779271D01*
X54275249Y-46890446D01*
X54021604Y-47054252D01*
X53804790Y-47264394D01*
X53633138Y-47512796D01*
X53513245Y-47789913D01*
X53488964Y-47895260D01*
X51460000Y-47895260D01*
X51460000Y-43235000D01*
X68793928Y-43235000D01*
X68806188Y-43359482D01*
X68842498Y-43479180D01*
X68901463Y-43589494D01*
X68980815Y-43686185D01*
X69077506Y-43765537D01*
X69187820Y-43824502D01*
X69307518Y-43860812D01*
X69432000Y-43873072D01*
X74546250Y-43870000D01*
X74705000Y-43711250D01*
X74705000Y-38662000D01*
X74959000Y-38662000D01*
X74959000Y-43711250D01*
X75117750Y-43870000D01*
X80232000Y-43873072D01*
X80356482Y-43860812D01*
X80476180Y-43824502D01*
X80586494Y-43765537D01*
X80683185Y-43686185D01*
X80762537Y-43589494D01*
X80821502Y-43479180D01*
X80857812Y-43359482D01*
X80870072Y-43235000D01*
X80867367Y-39346702D01*
X86642903Y-39346702D01*
X86714486Y-39590671D01*
X86969996Y-39711571D01*
X87244184Y-39780300D01*
X87526512Y-39794217D01*
X87806130Y-39752787D01*
X88072292Y-39657603D01*
X88197514Y-39590671D01*
X88269097Y-39346702D01*
X87456000Y-38533605D01*
X86642903Y-39346702D01*
X80867367Y-39346702D01*
X80867000Y-38820750D01*
X80708250Y-38662000D01*
X74959000Y-38662000D01*
X74705000Y-38662000D01*
X68955750Y-38662000D01*
X68797000Y-38820750D01*
X68793928Y-43235000D01*
X51460000Y-43235000D01*
X51460000Y-38424512D01*
X86015783Y-38424512D01*
X86057213Y-38704130D01*
X86152397Y-38970292D01*
X86219329Y-39095514D01*
X86463298Y-39167097D01*
X87276395Y-38354000D01*
X87635605Y-38354000D01*
X88448702Y-39167097D01*
X88692671Y-39095514D01*
X88813571Y-38840004D01*
X88882300Y-38565816D01*
X88896217Y-38283488D01*
X88854787Y-38003870D01*
X88759603Y-37737708D01*
X88692671Y-37612486D01*
X88448702Y-37540903D01*
X87635605Y-38354000D01*
X87276395Y-38354000D01*
X86463298Y-37540903D01*
X86219329Y-37612486D01*
X86098429Y-37867996D01*
X86029700Y-38142184D01*
X86015783Y-38424512D01*
X51460000Y-38424512D01*
X51460000Y-38227000D01*
X55880000Y-38227000D01*
X55904776Y-38224560D01*
X55928601Y-38217333D01*
X55950557Y-38205597D01*
X55969803Y-38189803D01*
X55985597Y-38170557D01*
X55997333Y-38148601D01*
X56004560Y-38124776D01*
X56007000Y-38100000D01*
X56007000Y-33680000D01*
X68815446Y-33680000D01*
X68806188Y-33710518D01*
%TA.AperFunction,Conductor*%
D43*
G36*
X68806188Y-33710518D02*
G01*
X68793928Y-33835000D01*
X68797000Y-38249250D01*
X68955750Y-38408000D01*
X74705000Y-38408000D01*
X74705000Y-38388000D01*
X74959000Y-38388000D01*
X74959000Y-38408000D01*
X80708250Y-38408000D01*
X80867000Y-38249250D01*
X80867617Y-37361298D01*
X86642903Y-37361298D01*
X87456000Y-38174395D01*
X88269097Y-37361298D01*
X88197514Y-37117329D01*
X87942004Y-36996429D01*
X87667816Y-36927700D01*
X87385488Y-36913783D01*
X87105870Y-36955213D01*
X86839708Y-37050397D01*
X86714486Y-37117329D01*
X86642903Y-37361298D01*
X80867617Y-37361298D01*
X80870072Y-33835000D01*
X80857812Y-33710518D01*
X80848554Y-33680000D01*
X98933000Y-33680000D01*
X98933000Y-37367873D01*
X98862305Y-37235613D01*
X98751862Y-37101038D01*
X98617287Y-36990595D01*
X98463752Y-36908528D01*
X98297156Y-36857992D01*
X98123902Y-36840928D01*
X97498898Y-36840928D01*
X97325644Y-36857992D01*
X97159048Y-36908528D01*
X97045914Y-36969000D01*
X93508603Y-36969000D01*
X93500180Y-36964498D01*
X93380482Y-36928188D01*
X93256000Y-36915928D01*
X91656000Y-36915928D01*
X91531518Y-36928188D01*
X91411820Y-36964498D01*
X91301506Y-37023463D01*
X91204815Y-37102815D01*
X91125463Y-37199506D01*
X91066498Y-37309820D01*
X91030188Y-37429518D01*
X91017928Y-37554000D01*
X91017928Y-39154000D01*
X91030188Y-39278482D01*
X91066498Y-39398180D01*
X91071000Y-39406603D01*
X91071001Y-44755600D01*
X82539071Y-44755600D01*
X82499200Y-44751673D01*
X82459329Y-44755600D01*
X82459319Y-44755600D01*
X82340020Y-44767350D01*
X82186958Y-44813781D01*
X82045895Y-44889181D01*
X81922252Y-44990652D01*
X81896829Y-45021630D01*
X80962630Y-45955830D01*
X80931653Y-45981252D01*
X80906230Y-46012230D01*
X80830181Y-46104896D01*
X80808987Y-46144548D01*
X80754782Y-46245958D01*
X80717807Y-46367850D01*
X80708351Y-46399021D01*
X80692673Y-46558200D01*
X80696601Y-46598081D01*
X80696600Y-49727058D01*
X79597460Y-50826200D01*
X77374540Y-50826200D01*
X77344000Y-50795660D01*
X77344000Y-50564977D01*
X77382000Y-50544665D01*
X77437820Y-50574502D01*
X77557518Y-50610812D01*
X77682000Y-50623072D01*
X77946250Y-50620000D01*
X78105000Y-50461250D01*
X78105000Y-47812000D01*
X78359000Y-47812000D01*
X78359000Y-50461250D01*
X78517750Y-50620000D01*
X78782000Y-50623072D01*
X78906482Y-50610812D01*
X79026180Y-50574502D01*
X79136494Y-50515537D01*
X79233185Y-50436185D01*
X79312537Y-50339494D01*
X79371502Y-50229180D01*
X79407812Y-50109482D01*
X79420072Y-49985000D01*
X79417000Y-47970750D01*
X79258250Y-47812000D01*
X78359000Y-47812000D01*
X78105000Y-47812000D01*
X78085000Y-47812000D01*
X78085000Y-47558000D01*
X78105000Y-47558000D01*
X78105000Y-44908750D01*
X78359000Y-44908750D01*
X78359000Y-47558000D01*
X79258250Y-47558000D01*
X79417000Y-47399250D01*
X79420072Y-45385000D01*
X79407812Y-45260518D01*
X79371502Y-45140820D01*
X79312537Y-45030506D01*
X79233185Y-44933815D01*
X79136494Y-44854463D01*
X79026180Y-44795498D01*
X78906482Y-44759188D01*
X78782000Y-44746928D01*
X78517750Y-44750000D01*
X78359000Y-44908750D01*
X78105000Y-44908750D01*
X77946250Y-44750000D01*
X77682000Y-44746928D01*
X77557518Y-44759188D01*
X77437820Y-44795498D01*
X77382000Y-44825335D01*
X77326180Y-44795498D01*
X77206482Y-44759188D01*
X77082000Y-44746928D01*
X75982000Y-44746928D01*
X75857518Y-44759188D01*
X75737820Y-44795498D01*
X75682000Y-44825335D01*
X75626180Y-44795498D01*
X75506482Y-44759188D01*
X75382000Y-44746928D01*
X75117750Y-44750000D01*
X74959000Y-44908750D01*
X74959000Y-47558000D01*
X74979000Y-47558000D01*
X74979000Y-47812000D01*
X74959000Y-47812000D01*
X74959000Y-50461250D01*
X75117750Y-50620000D01*
X75382000Y-50623072D01*
X75506482Y-50610812D01*
X75626180Y-50574502D01*
X75682000Y-50544665D01*
X75720001Y-50564977D01*
X75720001Y-51092119D01*
X75716073Y-51132000D01*
X75731751Y-51291179D01*
X75778182Y-51444242D01*
X75844412Y-51568149D01*
X75853582Y-51585305D01*
X75955053Y-51708948D01*
X75986031Y-51734371D01*
X76435825Y-52184165D01*
X76461252Y-52215148D01*
X76542551Y-52281868D01*
X76584895Y-52316619D01*
X76716193Y-52386800D01*
X74662325Y-52386800D01*
X74606314Y-52340833D01*
X74517000Y-52293093D01*
X74517000Y-50620340D01*
X74546250Y-50620000D01*
X74705000Y-50461250D01*
X74705000Y-47812000D01*
X74685000Y-47812000D01*
X74685000Y-47558000D01*
X74705000Y-47558000D01*
X74705000Y-44908750D01*
X74546250Y-44750000D01*
X74282000Y-44746928D01*
X74157518Y-44759188D01*
X74037820Y-44795498D01*
X73982000Y-44825335D01*
X73926180Y-44795498D01*
X73806482Y-44759188D01*
X73682000Y-44746928D01*
X72582000Y-44746928D01*
X72457518Y-44759188D01*
X72337820Y-44795498D01*
X72282000Y-44825335D01*
X72226180Y-44795498D01*
X72106482Y-44759188D01*
X71982000Y-44746928D01*
X70882000Y-44746928D01*
X70757518Y-44759188D01*
X70637820Y-44795498D01*
X70527506Y-44854463D01*
X70430815Y-44933815D01*
X70351463Y-45030506D01*
X70292498Y-45140820D01*
X70256188Y-45260518D01*
X70243928Y-45385000D01*
X70243928Y-46969652D01*
X70146237Y-47152419D01*
X70067041Y-47413493D01*
X70047001Y-47616963D01*
X70047000Y-49457114D01*
X67803115Y-51701000D01*
X65060603Y-51701000D01*
X65052180Y-51696498D01*
X64932482Y-51660188D01*
X64808000Y-51647928D01*
X64785970Y-51647928D01*
X64636714Y-51568149D01*
X64328516Y-51474658D01*
X64007999Y-51443089D01*
X63687484Y-51474658D01*
X63379286Y-51568149D01*
X63230030Y-51647928D01*
X63208000Y-51647928D01*
X63083518Y-51660188D01*
X62963820Y-51696498D01*
X62947914Y-51705000D01*
X55799678Y-51705000D01*
X55559484Y-51728657D01*
X55317942Y-51801928D01*
X54330000Y-51801928D01*
X54156746Y-51818992D01*
X53990150Y-51869528D01*
X53836614Y-51951595D01*
X53702038Y-52062038D01*
X53591595Y-52196614D01*
X53509528Y-52350150D01*
X53458992Y-52516746D01*
X53441928Y-52690000D01*
X53441928Y-53990000D01*
X53458992Y-54163254D01*
X53509528Y-54329850D01*
X53591595Y-54483386D01*
X53702038Y-54617962D01*
X53836614Y-54728405D01*
X53990150Y-54810472D01*
X54156746Y-54861008D01*
X54330000Y-54878072D01*
X55317942Y-54878072D01*
X55559484Y-54951343D01*
X55799678Y-54975000D01*
X63673681Y-54975000D01*
X63754000Y-54982911D01*
X63834319Y-54975000D01*
X63834322Y-54975000D01*
X64074516Y-54951343D01*
X64382715Y-54857852D01*
X64666752Y-54706031D01*
X64899445Y-54515066D01*
X64932482Y-54511812D01*
X65052180Y-54475502D01*
X65060603Y-54471000D01*
X68308771Y-54471000D01*
X68376800Y-54477700D01*
X68444829Y-54471000D01*
X68444837Y-54471000D01*
X68648307Y-54450960D01*
X68909381Y-54371764D01*
X69149988Y-54243157D01*
X69360881Y-54070081D01*
X69404254Y-54017231D01*
X71747001Y-51674485D01*
X71747001Y-52314473D01*
X71697686Y-52340833D01*
X71600995Y-52420185D01*
X71521643Y-52516876D01*
X71462678Y-52627190D01*
X71426368Y-52746888D01*
X71414108Y-52871370D01*
X71414108Y-54672230D01*
X71426368Y-54796712D01*
X71462678Y-54916410D01*
X71521643Y-55026724D01*
X71600995Y-55123415D01*
X71697686Y-55202767D01*
X71808000Y-55261732D01*
X71927698Y-55298042D01*
X72052180Y-55310302D01*
X74251820Y-55310302D01*
X74376302Y-55298042D01*
X74496000Y-55261732D01*
X74606314Y-55202767D01*
X74662325Y-55156800D01*
X81102528Y-55156800D01*
X81102528Y-55670200D01*
X81114788Y-55794682D01*
X81151098Y-55914380D01*
X81210063Y-56024694D01*
X81289415Y-56121385D01*
X81386106Y-56200737D01*
X81496420Y-56259702D01*
X81616118Y-56296012D01*
X81740600Y-56308272D01*
X85340600Y-56308272D01*
X85465082Y-56296012D01*
X85584780Y-56259702D01*
X85695094Y-56200737D01*
X85791785Y-56121385D01*
X85871137Y-56024694D01*
X85930102Y-55914380D01*
X85966412Y-55794682D01*
X85978672Y-55670200D01*
X85978672Y-51670200D01*
X85966412Y-51545718D01*
X85930102Y-51426020D01*
X85871137Y-51315706D01*
X85791785Y-51219015D01*
X85695094Y-51139663D01*
X85584780Y-51080698D01*
X85465082Y-51044388D01*
X85340600Y-51032128D01*
X81740600Y-51032128D01*
X81682490Y-51037851D01*
X82054577Y-50665765D01*
X82085548Y-50640348D01*
X82110966Y-50609376D01*
X82110971Y-50609371D01*
X82187019Y-50516705D01*
X82262419Y-50375642D01*
X82308850Y-50222580D01*
X82324528Y-50063400D01*
X82320600Y-50023519D01*
X82320600Y-46894540D01*
X82835541Y-46379600D01*
X91071000Y-46379600D01*
X91071001Y-51032128D01*
X90840600Y-51032128D01*
X90716118Y-51044388D01*
X90596420Y-51080698D01*
X90486106Y-51139663D01*
X90389415Y-51219015D01*
X90310063Y-51315706D01*
X90251098Y-51426020D01*
X90214788Y-51545718D01*
X90202528Y-51670200D01*
X90202528Y-55670200D01*
X90214788Y-55794682D01*
X90251098Y-55914380D01*
X90310063Y-56024694D01*
X90389415Y-56121385D01*
X90486106Y-56200737D01*
X90596420Y-56259702D01*
X90716118Y-56296012D01*
X90840600Y-56308272D01*
X94440600Y-56308272D01*
X94565082Y-56296012D01*
X94684780Y-56259702D01*
X94795094Y-56200737D01*
X94891785Y-56121385D01*
X94971137Y-56024694D01*
X95030102Y-55914380D01*
X95066412Y-55794682D01*
X95078672Y-55670200D01*
X95078672Y-51670200D01*
X95066412Y-51545718D01*
X95030102Y-51426020D01*
X94971137Y-51315706D01*
X94891785Y-51219015D01*
X94795094Y-51139663D01*
X94684780Y-51080698D01*
X94565082Y-51044388D01*
X94440600Y-51032128D01*
X93841000Y-51032128D01*
X93841000Y-42073800D01*
X96574728Y-42073800D01*
X96586988Y-42198282D01*
X96623298Y-42317980D01*
X96682263Y-42428294D01*
X96761615Y-42524985D01*
X96858306Y-42604337D01*
X96968620Y-42663302D01*
X97088318Y-42699612D01*
X97212800Y-42711872D01*
X97489550Y-42708800D01*
X97648300Y-42550050D01*
X97648300Y-41325800D01*
X96736550Y-41325800D01*
X96577800Y-41484550D01*
X96574728Y-42073800D01*
X93841000Y-42073800D01*
X93841000Y-39739000D01*
X96959823Y-39739000D01*
X96858306Y-39793263D01*
X96761615Y-39872615D01*
X96682263Y-39969306D01*
X96623298Y-40079620D01*
X96586988Y-40199318D01*
X96574728Y-40323800D01*
X96577800Y-40913050D01*
X96736550Y-41071800D01*
X97648300Y-41071800D01*
X97648300Y-41051800D01*
X97902300Y-41051800D01*
X97902300Y-41071800D01*
X97922300Y-41071800D01*
X97922300Y-41325800D01*
X97902300Y-41325800D01*
X97902300Y-42550050D01*
X98061050Y-42708800D01*
X98337800Y-42711872D01*
X98462282Y-42699612D01*
X98581980Y-42663302D01*
X98692294Y-42604337D01*
X98788985Y-42524985D01*
X98868337Y-42428294D01*
X98927302Y-42317980D01*
X98933000Y-42299196D01*
X98933000Y-58293000D01*
X74887931Y-58293000D01*
X74886820Y-58070750D01*
X74728070Y-57912000D01*
X73279000Y-57912000D01*
X73279000Y-57932000D01*
X73025000Y-57932000D01*
X73025000Y-57912000D01*
X71575930Y-57912000D01*
X71417180Y-58070750D01*
X71416069Y-58293000D01*
X51460000Y-58293000D01*
X51460000Y-56884570D01*
X71414108Y-56884570D01*
X71417180Y-57499250D01*
X71575930Y-57658000D01*
X73025000Y-57658000D01*
X73025000Y-56408320D01*
X73279000Y-56408320D01*
X73279000Y-57658000D01*
X74728070Y-57658000D01*
X74886820Y-57499250D01*
X74889892Y-56884570D01*
X74877632Y-56760088D01*
X74841322Y-56640390D01*
X74782357Y-56530076D01*
X74703005Y-56433385D01*
X74606314Y-56354033D01*
X74496000Y-56295068D01*
X74376302Y-56258758D01*
X74251820Y-56246498D01*
X73437750Y-56249570D01*
X73279000Y-56408320D01*
X73025000Y-56408320D01*
X72866250Y-56249570D01*
X72052180Y-56246498D01*
X71927698Y-56258758D01*
X71808000Y-56295068D01*
X71697686Y-56354033D01*
X71600995Y-56433385D01*
X71521643Y-56530076D01*
X71462678Y-56640390D01*
X71426368Y-56760088D01*
X71414108Y-56884570D01*
X51460000Y-56884570D01*
X51460000Y-48624740D01*
X53488964Y-48624740D01*
X53513245Y-48730087D01*
X53633138Y-49007204D01*
X53804790Y-49255606D01*
X54021604Y-49465748D01*
X54275249Y-49629554D01*
X54555977Y-49740729D01*
X54853000Y-49795000D01*
X55753000Y-49795000D01*
X55753000Y-48387000D01*
X56007000Y-48387000D01*
X56007000Y-49795000D01*
X56907000Y-49795000D01*
X57204023Y-49740729D01*
X57484751Y-49629554D01*
X57738396Y-49465748D01*
X57955210Y-49255606D01*
X58077455Y-49078702D01*
X63194903Y-49078702D01*
X63266486Y-49322671D01*
X63521996Y-49443571D01*
X63796184Y-49512300D01*
X64078512Y-49526217D01*
X64358130Y-49484787D01*
X64624292Y-49389603D01*
X64749514Y-49322671D01*
X64821097Y-49078702D01*
X64008000Y-48265605D01*
X63194903Y-49078702D01*
X58077455Y-49078702D01*
X58126862Y-49007204D01*
X58246755Y-48730087D01*
X58271036Y-48624740D01*
X58150378Y-48387000D01*
X56007000Y-48387000D01*
X55753000Y-48387000D01*
X53609622Y-48387000D01*
X53488964Y-48624740D01*
X51460000Y-48624740D01*
X51460000Y-48156512D01*
X62567783Y-48156512D01*
X62609213Y-48436130D01*
X62704397Y-48702292D01*
X62771329Y-48827514D01*
X63015298Y-48899097D01*
X63828395Y-48086000D01*
X64187605Y-48086000D01*
X65000702Y-48899097D01*
X65244671Y-48827514D01*
X65365571Y-48572004D01*
X65434300Y-48297816D01*
X65448217Y-48015488D01*
X65406787Y-47735870D01*
X65311603Y-47469708D01*
X65244671Y-47344486D01*
X65000702Y-47272903D01*
X64187605Y-48086000D01*
X63828395Y-48086000D01*
X63015298Y-47272903D01*
X62771329Y-47344486D01*
X62650429Y-47599996D01*
X62581700Y-47874184D01*
X62567783Y-48156512D01*
X51460000Y-48156512D01*
X51460000Y-47895260D01*
X53488964Y-47895260D01*
X53609622Y-48133000D01*
X55753000Y-48133000D01*
X55753000Y-46725000D01*
X56007000Y-46725000D01*
X56007000Y-48133000D01*
X58150378Y-48133000D01*
X58271036Y-47895260D01*
X58246755Y-47789913D01*
X58126862Y-47512796D01*
X57955210Y-47264394D01*
X57778682Y-47093298D01*
X63194903Y-47093298D01*
X64008000Y-47906395D01*
X64821097Y-47093298D01*
X64749514Y-46849329D01*
X64494004Y-46728429D01*
X64219816Y-46659700D01*
X63937488Y-46645783D01*
X63657870Y-46687213D01*
X63391708Y-46782397D01*
X63266486Y-46849329D01*
X63194903Y-47093298D01*
X57778682Y-47093298D01*
X57738396Y-47054252D01*
X57484751Y-46890446D01*
X57204023Y-46779271D01*
X56907000Y-46725000D01*
X56007000Y-46725000D01*
X55753000Y-46725000D01*
X54853000Y-46725000D01*
X54555977Y-46779271D01*
X54275249Y-46890446D01*
X54021604Y-47054252D01*
X53804790Y-47264394D01*
X53633138Y-47512796D01*
X53513245Y-47789913D01*
X53488964Y-47895260D01*
X51460000Y-47895260D01*
X51460000Y-43235000D01*
X68793928Y-43235000D01*
X68806188Y-43359482D01*
X68842498Y-43479180D01*
X68901463Y-43589494D01*
X68980815Y-43686185D01*
X69077506Y-43765537D01*
X69187820Y-43824502D01*
X69307518Y-43860812D01*
X69432000Y-43873072D01*
X74546250Y-43870000D01*
X74705000Y-43711250D01*
X74705000Y-38662000D01*
X74959000Y-38662000D01*
X74959000Y-43711250D01*
X75117750Y-43870000D01*
X80232000Y-43873072D01*
X80356482Y-43860812D01*
X80476180Y-43824502D01*
X80586494Y-43765537D01*
X80683185Y-43686185D01*
X80762537Y-43589494D01*
X80821502Y-43479180D01*
X80857812Y-43359482D01*
X80870072Y-43235000D01*
X80867367Y-39346702D01*
X86642903Y-39346702D01*
X86714486Y-39590671D01*
X86969996Y-39711571D01*
X87244184Y-39780300D01*
X87526512Y-39794217D01*
X87806130Y-39752787D01*
X88072292Y-39657603D01*
X88197514Y-39590671D01*
X88269097Y-39346702D01*
X87456000Y-38533605D01*
X86642903Y-39346702D01*
X80867367Y-39346702D01*
X80867000Y-38820750D01*
X80708250Y-38662000D01*
X74959000Y-38662000D01*
X74705000Y-38662000D01*
X68955750Y-38662000D01*
X68797000Y-38820750D01*
X68793928Y-43235000D01*
X51460000Y-43235000D01*
X51460000Y-38424512D01*
X86015783Y-38424512D01*
X86057213Y-38704130D01*
X86152397Y-38970292D01*
X86219329Y-39095514D01*
X86463298Y-39167097D01*
X87276395Y-38354000D01*
X87635605Y-38354000D01*
X88448702Y-39167097D01*
X88692671Y-39095514D01*
X88813571Y-38840004D01*
X88882300Y-38565816D01*
X88896217Y-38283488D01*
X88854787Y-38003870D01*
X88759603Y-37737708D01*
X88692671Y-37612486D01*
X88448702Y-37540903D01*
X87635605Y-38354000D01*
X87276395Y-38354000D01*
X86463298Y-37540903D01*
X86219329Y-37612486D01*
X86098429Y-37867996D01*
X86029700Y-38142184D01*
X86015783Y-38424512D01*
X51460000Y-38424512D01*
X51460000Y-38227000D01*
X55880000Y-38227000D01*
X55904776Y-38224560D01*
X55928601Y-38217333D01*
X55950557Y-38205597D01*
X55969803Y-38189803D01*
X55985597Y-38170557D01*
X55997333Y-38148601D01*
X56004560Y-38124776D01*
X56007000Y-38100000D01*
X56007000Y-33680000D01*
X68815446Y-33680000D01*
X68806188Y-33710518D01*
G37*
%TD.AperFunction*%
%TD*%
M02*
