M48
; DRILL file {KiCad (5.1.12)-1} date 04/06/22 16:52:12
; FORMAT={-:-/ absolute / inch / decimal}
; #@! TF.CreationDate,2022-04-06T16:52:12+05:30
; #@! TF.GenerationSoftware,Kicad,Pcbnew,(5.1.12)-1
; #@! TF.FileFunction,Plated,1,2,PTH
FMAT,2
INCH
T1C0.0157
T2C0.0197
T3C0.0315
T4C0.0394
T5C0.0469
T6C0.0472
T7C0.0512
%
G90
G05
T1
X2.945Y-4.677
X3.392Y-4.756
X3.508Y-4.391
X3.512Y-4.3
X3.582Y-4.25
X3.597Y-4.188
X3.63Y-4.002
X3.711Y-4.629
X3.736Y-4.042
X3.746Y-4.677
X3.76Y-4.0
X3.786Y-3.96
X3.8Y-6.75
X3.828Y-3.9215
X3.92Y-4.404
X4.046Y-1.622
X4.094Y-6.15
X4.217Y-6.825
X4.322Y-4.067
X4.331Y-3.951
X4.338Y-4.83
X4.356Y-4.267
X4.372Y-3.628
X4.375Y-3.904
X4.377Y-3.675
X4.378Y-2.336
X4.402Y-4.578
X4.406Y-4.297
X4.476Y-4.633
X4.487Y-3.812
X4.491Y-4.437
X4.517Y-1.512
X4.525Y-3.76
X4.532Y-4.479
X4.5489Y-6.5691
X4.581Y-4.532
X4.6Y-5.867
X4.641Y-4.583
X4.647Y-5.513
X4.685Y-3.655
X4.7244Y-6.2598
X4.73Y-5.74
X4.7394Y-6.7386
X4.74Y-6.4
X4.796Y-3.954
X4.797Y-5.743
X4.823Y-4.41
X4.8268Y-6.2362
X4.828Y-5.173
X4.862Y-4.362
X4.868Y-3.832
X4.899Y-5.513
X4.918Y-4.202
X4.92Y-5.634
X4.92Y-5.98
X4.9209Y-6.5691
X4.94Y-3.975
X4.954Y-3.918
X4.954Y-5.356
X4.966Y-4.273
X4.974Y-4.005
X5.0Y-5.122
X5.018Y-5.37
X5.038Y-3.324
X5.046Y-5.194
X5.102Y-3.272
X5.128Y-6.675
X5.148Y-3.214
X5.148Y-4.974
X5.18Y-3.174
X5.238Y-4.972
X5.3Y-6.42
X5.436Y-3.854
X5.514Y-6.755
X5.536Y-3.834
X6.035Y-6.685
X6.862Y-2.872
T2
X3.867Y-4.499
X3.9143Y-4.5463
T3
X2.52Y-1.8931
X2.52Y-2.09
X3.4431Y-1.51
X3.64Y-1.51
X4.1421Y-4.7901
X4.278Y-4.926
T4
X2.2Y-2.8
X2.2Y-2.9
X2.2Y-3.0
X2.2Y-3.1
X2.2Y-3.2
X2.2Y-3.3
X2.2Y-3.4
X2.2Y-3.5
X2.2Y-3.6
X2.2Y-3.7
X2.2Y-4.3
X2.2Y-4.4
X2.2Y-4.5
X2.2Y-4.6
X2.2Y-4.7
X2.2Y-4.8
X2.2Y-4.9
X2.2Y-5.0
X2.2Y-5.1
X2.2Y-5.2
X2.2Y-5.75
X2.2Y-5.85
X2.2Y-5.95
X2.2Y-6.05
X2.2Y-6.15
X2.2Y-6.25
X2.2Y-6.35
X2.2Y-6.45
X2.2Y-6.55
X2.2Y-6.65
X2.3Y-2.8
X2.3Y-2.9
X2.3Y-3.0
X2.3Y-3.1
X2.3Y-3.2
X2.3Y-3.3
X2.3Y-3.4
X2.3Y-3.5
X2.3Y-3.6
X2.3Y-3.7
X2.3Y-4.3
X2.3Y-4.4
X2.3Y-4.5
X2.3Y-4.6
X2.3Y-4.7
X2.3Y-4.8
X2.3Y-4.9
X2.3Y-5.0
X2.3Y-5.1
X2.3Y-5.2
X2.3Y-5.75
X2.3Y-5.85
X2.3Y-5.95
X2.3Y-6.05
X2.3Y-6.15
X2.3Y-6.25
X2.3Y-6.35
X2.3Y-6.45
X2.3Y-6.55
X2.3Y-6.65
X2.4094Y-7.063
X2.5094Y-7.063
X2.6094Y-7.063
X2.7094Y-7.063
X3.8Y-6.4
X3.8Y-6.5
X3.8339Y-7.0315
X3.9Y-6.4
X3.9Y-6.5
X3.9339Y-7.0315
X4.0339Y-7.0315
X4.1339Y-7.0315
X4.3049Y-3.0009
X4.3756Y-3.0716
X4.4463Y-3.1423
X4.517Y-3.213
X4.598Y-1.5
X4.598Y-1.6
X4.698Y-1.5
X4.698Y-1.6
X4.798Y-1.5
X4.798Y-1.6
X4.898Y-1.5
X4.898Y-1.6
X4.998Y-1.5
X4.998Y-1.6
X5.098Y-1.5
X5.098Y-1.6
X5.198Y-1.5
X5.198Y-1.6
X5.298Y-1.5
X5.298Y-1.6
X5.398Y-1.5
X5.398Y-1.6
X5.498Y-1.5
X5.498Y-1.6
X6.05Y-1.5
X6.05Y-1.6
X6.15Y-1.5
X6.15Y-1.6
X6.25Y-1.5
X6.25Y-1.6
X6.35Y-1.5
X6.35Y-1.6
X6.45Y-1.5
X6.45Y-1.6
X6.55Y-1.5
X6.55Y-1.6
X6.65Y-1.5
X6.65Y-1.6
X6.75Y-1.5
X6.75Y-1.6
X6.85Y-1.5
X6.85Y-1.6
X6.95Y-1.5
X6.95Y-1.6
X7.1Y-3.55
X7.1Y-3.65
X7.1Y-3.75
X7.1Y-3.85
X7.1Y-3.95
X7.1Y-4.05
X7.1Y-4.15
X7.1Y-4.25
X7.1Y-4.35
X7.1Y-4.45
X7.1Y-5.05
X7.1Y-5.15
X7.1Y-5.25
X7.1Y-5.35
X7.1Y-5.45
X7.1Y-5.55
X7.1Y-5.65
X7.1Y-5.75
X7.1Y-5.85
X7.1Y-5.95
X7.2Y-3.55
X7.2Y-3.65
X7.2Y-3.75
X7.2Y-3.85
X7.2Y-3.95
X7.2Y-4.05
X7.2Y-4.15
X7.2Y-4.25
X7.2Y-4.35
X7.2Y-4.45
X7.2Y-5.05
X7.2Y-5.15
X7.2Y-5.25
X7.2Y-5.35
X7.2Y-5.45
X7.2Y-5.55
X7.2Y-5.65
X7.2Y-5.75
X7.2Y-5.85
X7.2Y-5.95
T5
X2.95Y-7.001
X3.05Y-7.001
X3.15Y-7.001
X3.4Y-7.0
X3.5Y-7.0
X3.6Y-7.0
X5.55Y-7.0
X5.65Y-7.0
X5.75Y-7.0
X5.85Y-7.0
X6.1Y-7.0
X6.2Y-7.0
X6.3Y-7.0
T6
X2.2Y-1.9
X2.2Y-2.1
X2.606Y-2.542
X3.253Y-3.941
X3.253Y-4.1182
X3.289Y-2.113
X3.406Y-2.542
X3.5089Y-3.941
X3.5089Y-4.1182
X3.6473Y-2.113
X3.75Y-5.85
X3.75Y-6.0272
X4.0059Y-5.85
X4.0059Y-6.0272
X4.0741Y-5.1728
X4.0741Y-5.35
X4.33Y-5.1728
X4.33Y-5.35
X5.4441Y-6.4228
X5.4441Y-6.6
X5.7Y-6.4228
X5.7Y-6.6
X7.16Y-6.45
X7.16Y-6.65
X7.16Y-6.85
X7.22Y-2.2
X7.22Y-2.4
X7.22Y-2.6
X7.22Y-2.8
X7.22Y-3.0
T7
X4.37Y-2.34
X5.1574Y-2.34
T0
M30
