%TF.GenerationSoftware,KiCad,Pcbnew,(5.1.12)-1*%
%TF.CreationDate,2022-04-06T16:52:09+05:30*%
%TF.ProjectId,MCROCONTROLLER,4d43524f-434f-44e5-9452-4f4c4c45522e,rev?*%
%TF.SameCoordinates,Original*%
%TF.FileFunction,Soldermask,Top*%
%TF.FilePolarity,Negative*%
%FSLAX46Y46*%
G04 Gerber Fmt 4.6, Leading zero omitted, Abs format (unit mm)*
G04 Created by KiCad (PCBNEW (5.1.12)-1) date 2022-04-06 16:52:09*
%MOMM*%
%LPD*%
G01*
G04 APERTURE LIST*
%ADD10O,3.600000X1.800000*%
%ADD11R,1.600000X1.600000*%
%ADD12C,1.600000*%
%ADD13R,2.199640X1.800860*%
%ADD14C,1.700000*%
%ADD15C,0.100000*%
%ADD16R,3.600000X4.000000*%
%ADD17R,2.000000X0.900000*%
%ADD18R,0.900000X2.000000*%
%ADD19R,5.000000X5.000000*%
%ADD20C,2.200000*%
%ADD21R,2.200000X2.200000*%
%ADD22R,1.100000X4.600000*%
%ADD23R,10.800000X9.400000*%
%ADD24C,1.500000*%
%ADD25C,1.000000*%
%ADD26O,1.740000X2.190000*%
%ADD27R,1.700000X1.700000*%
%ADD28O,1.700000X1.700000*%
%ADD29C,2.400000*%
%ADD30O,2.400000X2.400000*%
%ADD31R,2.100000X2.100000*%
%ADD32C,2.100000*%
G04 APERTURE END LIST*
%TO.C,J7*%
G36*
G01*
X184938000Y-77100000D02*
X181838000Y-77100000D01*
G75*
G02*
X181588000Y-76850000I0J250000D01*
G01*
X181588000Y-75550000D01*
G75*
G02*
X181838000Y-75300000I250000J0D01*
G01*
X184938000Y-75300000D01*
G75*
G02*
X185188000Y-75550000I0J-250000D01*
G01*
X185188000Y-76850000D01*
G75*
G02*
X184938000Y-77100000I-250000J0D01*
G01*
G37*
D10*
X183388000Y-71120000D03*
X183388000Y-66040000D03*
X183388000Y-60960000D03*
X183388000Y-55880000D03*
%TD*%
D11*
%TO.C,C1*%
X64008000Y-53086000D03*
D12*
X64008000Y-48086000D03*
%TD*%
%TO.C,C3*%
X87456000Y-38354000D03*
D11*
X92456000Y-38354000D03*
%TD*%
%TO.C,C5*%
G36*
G01*
X112322800Y-135440000D02*
X112822800Y-135440000D01*
G75*
G02*
X113047800Y-135665000I0J-225000D01*
G01*
X113047800Y-136115000D01*
G75*
G02*
X112822800Y-136340000I-225000J0D01*
G01*
X112322800Y-136340000D01*
G75*
G02*
X112097800Y-136115000I0J225000D01*
G01*
X112097800Y-135665000D01*
G75*
G02*
X112322800Y-135440000I225000J0D01*
G01*
G37*
G36*
G01*
X112322800Y-133890000D02*
X112822800Y-133890000D01*
G75*
G02*
X113047800Y-134115000I0J-225000D01*
G01*
X113047800Y-134565000D01*
G75*
G02*
X112822800Y-134790000I-225000J0D01*
G01*
X112322800Y-134790000D01*
G75*
G02*
X112097800Y-134565000I0J225000D01*
G01*
X112097800Y-134115000D01*
G75*
G02*
X112322800Y-133890000I225000J0D01*
G01*
G37*
%TD*%
D13*
%TO.C,D1*%
X73152000Y-57785000D03*
X73152000Y-53771800D03*
%TD*%
%TO.C,J1*%
G36*
G01*
X55030000Y-71720000D02*
X55030000Y-70520000D01*
G75*
G02*
X55280000Y-70270000I250000J0D01*
G01*
X56480000Y-70270000D01*
G75*
G02*
X56730000Y-70520000I0J-250000D01*
G01*
X56730000Y-71720000D01*
G75*
G02*
X56480000Y-71970000I-250000J0D01*
G01*
X55280000Y-71970000D01*
G75*
G02*
X55030000Y-71720000I0J250000D01*
G01*
G37*
D14*
X55880000Y-73660000D03*
X55880000Y-76200000D03*
X55880000Y-78740000D03*
X55880000Y-81280000D03*
X55880000Y-83820000D03*
X55880000Y-86360000D03*
X55880000Y-88900000D03*
X55880000Y-91440000D03*
X55880000Y-93980000D03*
X58420000Y-71120000D03*
X58420000Y-73660000D03*
X58420000Y-76200000D03*
X58420000Y-78740000D03*
X58420000Y-81280000D03*
X58420000Y-83820000D03*
X58420000Y-86360000D03*
X58420000Y-88900000D03*
X58420000Y-91440000D03*
X58420000Y-93980000D03*
%TD*%
%TO.C,J2*%
X58420000Y-132080000D03*
X58420000Y-129540000D03*
X58420000Y-127000000D03*
X58420000Y-124460000D03*
X58420000Y-121920000D03*
X58420000Y-119380000D03*
X58420000Y-116840000D03*
X58420000Y-114300000D03*
X58420000Y-111760000D03*
X58420000Y-109220000D03*
X55880000Y-132080000D03*
X55880000Y-129540000D03*
X55880000Y-127000000D03*
X55880000Y-124460000D03*
X55880000Y-121920000D03*
X55880000Y-119380000D03*
X55880000Y-116840000D03*
X55880000Y-114300000D03*
X55880000Y-111760000D03*
G36*
G01*
X55030000Y-109820000D02*
X55030000Y-108620000D01*
G75*
G02*
X55280000Y-108370000I250000J0D01*
G01*
X56480000Y-108370000D01*
G75*
G02*
X56730000Y-108620000I0J-250000D01*
G01*
X56730000Y-109820000D01*
G75*
G02*
X56480000Y-110070000I-250000J0D01*
G01*
X55280000Y-110070000D01*
G75*
G02*
X55030000Y-109820000I0J250000D01*
G01*
G37*
%TD*%
%TO.C,J3*%
G36*
G01*
X183730000Y-112430000D02*
X183730000Y-113630000D01*
G75*
G02*
X183480000Y-113880000I-250000J0D01*
G01*
X182280000Y-113880000D01*
G75*
G02*
X182030000Y-113630000I0J250000D01*
G01*
X182030000Y-112430000D01*
G75*
G02*
X182280000Y-112180000I250000J0D01*
G01*
X183480000Y-112180000D01*
G75*
G02*
X183730000Y-112430000I0J-250000D01*
G01*
G37*
X182880000Y-110490000D03*
X182880000Y-107950000D03*
X182880000Y-105410000D03*
X182880000Y-102870000D03*
X182880000Y-100330000D03*
X182880000Y-97790000D03*
X182880000Y-95250000D03*
X182880000Y-92710000D03*
X182880000Y-90170000D03*
X180340000Y-113030000D03*
X180340000Y-110490000D03*
X180340000Y-107950000D03*
X180340000Y-105410000D03*
X180340000Y-102870000D03*
X180340000Y-100330000D03*
X180340000Y-97790000D03*
X180340000Y-95250000D03*
X180340000Y-92710000D03*
X180340000Y-90170000D03*
%TD*%
%TO.C,J4*%
G36*
G01*
X55030000Y-146650000D02*
X55030000Y-145450000D01*
G75*
G02*
X55280000Y-145200000I250000J0D01*
G01*
X56480000Y-145200000D01*
G75*
G02*
X56730000Y-145450000I0J-250000D01*
G01*
X56730000Y-146650000D01*
G75*
G02*
X56480000Y-146900000I-250000J0D01*
G01*
X55280000Y-146900000D01*
G75*
G02*
X55030000Y-146650000I0J250000D01*
G01*
G37*
X55880000Y-148590000D03*
X55880000Y-151130000D03*
X55880000Y-153670000D03*
X55880000Y-156210000D03*
X55880000Y-158750000D03*
X55880000Y-161290000D03*
X55880000Y-163830000D03*
X55880000Y-166370000D03*
X55880000Y-168910000D03*
X58420000Y-146050000D03*
X58420000Y-148590000D03*
X58420000Y-151130000D03*
X58420000Y-153670000D03*
X58420000Y-156210000D03*
X58420000Y-158750000D03*
X58420000Y-161290000D03*
X58420000Y-163830000D03*
X58420000Y-166370000D03*
X58420000Y-168910000D03*
%TD*%
%TO.C,J5*%
X182880000Y-151130000D03*
X182880000Y-148590000D03*
X182880000Y-146050000D03*
X182880000Y-143510000D03*
X182880000Y-140970000D03*
X182880000Y-138430000D03*
X182880000Y-135890000D03*
X182880000Y-133350000D03*
X182880000Y-130810000D03*
X182880000Y-128270000D03*
X180340000Y-151130000D03*
X180340000Y-148590000D03*
X180340000Y-146050000D03*
X180340000Y-143510000D03*
X180340000Y-140970000D03*
X180340000Y-138430000D03*
X180340000Y-135890000D03*
X180340000Y-133350000D03*
X180340000Y-130810000D03*
G36*
G01*
X179490000Y-128870000D02*
X179490000Y-127670000D01*
G75*
G02*
X179740000Y-127420000I250000J0D01*
G01*
X180940000Y-127420000D01*
G75*
G02*
X181190000Y-127670000I0J-250000D01*
G01*
X181190000Y-128870000D01*
G75*
G02*
X180940000Y-129120000I-250000J0D01*
G01*
X179740000Y-129120000D01*
G75*
G02*
X179490000Y-128870000I0J250000D01*
G01*
G37*
%TD*%
%TO.C,J6*%
G36*
G01*
X180314000Y-162930000D02*
X183414000Y-162930000D01*
G75*
G02*
X183664000Y-163180000I0J-250000D01*
G01*
X183664000Y-164480000D01*
G75*
G02*
X183414000Y-164730000I-250000J0D01*
G01*
X180314000Y-164730000D01*
G75*
G02*
X180064000Y-164480000I0J250000D01*
G01*
X180064000Y-163180000D01*
G75*
G02*
X180314000Y-162930000I250000J0D01*
G01*
G37*
D10*
X181864000Y-168910000D03*
X181864000Y-173990000D03*
%TD*%
D14*
%TO.C,J8*%
X153670000Y-40640000D03*
X156210000Y-40640000D03*
X158750000Y-40640000D03*
X161290000Y-40640000D03*
X163830000Y-40640000D03*
X166370000Y-40640000D03*
X168910000Y-40640000D03*
X171450000Y-40640000D03*
X173990000Y-40640000D03*
X176530000Y-40640000D03*
X153670000Y-38100000D03*
X156210000Y-38100000D03*
X158750000Y-38100000D03*
X161290000Y-38100000D03*
X163830000Y-38100000D03*
X166370000Y-38100000D03*
X168910000Y-38100000D03*
X171450000Y-38100000D03*
X173990000Y-38100000D03*
G36*
G01*
X175930000Y-37250000D02*
X177130000Y-37250000D01*
G75*
G02*
X177380000Y-37500000I0J-250000D01*
G01*
X177380000Y-38700000D01*
G75*
G02*
X177130000Y-38950000I-250000J0D01*
G01*
X175930000Y-38950000D01*
G75*
G02*
X175680000Y-38700000I0J250000D01*
G01*
X175680000Y-37500000D01*
G75*
G02*
X175930000Y-37250000I250000J0D01*
G01*
G37*
%TD*%
%TO.C,J9*%
G36*
G01*
X57430000Y-54240000D02*
X54330000Y-54240000D01*
G75*
G02*
X54080000Y-53990000I0J250000D01*
G01*
X54080000Y-52690000D01*
G75*
G02*
X54330000Y-52440000I250000J0D01*
G01*
X57430000Y-52440000D01*
G75*
G02*
X57680000Y-52690000I0J-250000D01*
G01*
X57680000Y-53990000D01*
G75*
G02*
X57430000Y-54240000I-250000J0D01*
G01*
G37*
D10*
X55880000Y-48260000D03*
%TD*%
D15*
%TO.C,J10*%
G36*
X109343646Y-77424128D02*
G01*
X108141564Y-76222046D01*
X109343646Y-75019964D01*
X110545728Y-76222046D01*
X109343646Y-77424128D01*
G37*
G36*
G01*
X110538656Y-78619138D02*
X110538656Y-78619138D01*
G75*
G02*
X110538656Y-77417056I601041J601041D01*
G01*
X110538656Y-77417056D01*
G75*
G02*
X111740738Y-77417056I601041J-601041D01*
G01*
X111740738Y-77417056D01*
G75*
G02*
X111740738Y-78619138I-601041J-601041D01*
G01*
X111740738Y-78619138D01*
G75*
G02*
X110538656Y-78619138I-601041J601041D01*
G01*
G37*
G36*
G01*
X112334707Y-80415189D02*
X112334707Y-80415189D01*
G75*
G02*
X112334707Y-79213107I601041J601041D01*
G01*
X112334707Y-79213107D01*
G75*
G02*
X113536789Y-79213107I601041J-601041D01*
G01*
X113536789Y-79213107D01*
G75*
G02*
X113536789Y-80415189I-601041J-601041D01*
G01*
X113536789Y-80415189D01*
G75*
G02*
X112334707Y-80415189I-601041J601041D01*
G01*
G37*
G36*
G01*
X114130759Y-82211241D02*
X114130759Y-82211241D01*
G75*
G02*
X114130759Y-81009159I601041J601041D01*
G01*
X114130759Y-81009159D01*
G75*
G02*
X115332841Y-81009159I601041J-601041D01*
G01*
X115332841Y-81009159D01*
G75*
G02*
X115332841Y-82211241I-601041J-601041D01*
G01*
X115332841Y-82211241D01*
G75*
G02*
X114130759Y-82211241I-601041J601041D01*
G01*
G37*
%TD*%
D16*
%TO.C,L1*%
X92640600Y-53670200D03*
X83540600Y-53670200D03*
%TD*%
D17*
%TO.C,MOD1*%
X127880000Y-173355000D03*
D18*
X125095000Y-155845000D03*
X123825000Y-155845000D03*
X122555000Y-155845000D03*
X121285000Y-155845000D03*
X120015000Y-155845000D03*
X118745000Y-155845000D03*
X117475000Y-155845000D03*
X116205000Y-155845000D03*
X114935000Y-155845000D03*
X113665000Y-155845000D03*
D17*
X127880000Y-172085000D03*
X127880000Y-170815000D03*
X127880000Y-169545000D03*
X127880000Y-168275000D03*
X127880000Y-167005000D03*
X127880000Y-165735000D03*
X127880000Y-164465000D03*
X127880000Y-163195000D03*
X127880000Y-161925000D03*
X127880000Y-160655000D03*
X127880000Y-159385000D03*
X127880000Y-158115000D03*
X127880000Y-156845000D03*
X110880000Y-173355000D03*
X110880000Y-172085000D03*
X110880000Y-170815000D03*
X110880000Y-169545000D03*
X110880000Y-168275000D03*
X110880000Y-167005000D03*
X110880000Y-165735000D03*
X110880000Y-164465000D03*
X110880000Y-163195000D03*
X110880000Y-161925000D03*
X110880000Y-160655000D03*
X110880000Y-159385000D03*
X110880000Y-158115000D03*
X110880000Y-156845000D03*
D19*
X120380000Y-166855000D03*
%TD*%
%TO.C,R2*%
G36*
G01*
X113849200Y-131643800D02*
X113849200Y-131093800D01*
G75*
G02*
X114049200Y-130893800I200000J0D01*
G01*
X114449200Y-130893800D01*
G75*
G02*
X114649200Y-131093800I0J-200000D01*
G01*
X114649200Y-131643800D01*
G75*
G02*
X114449200Y-131843800I-200000J0D01*
G01*
X114049200Y-131843800D01*
G75*
G02*
X113849200Y-131643800I0J200000D01*
G01*
G37*
G36*
G01*
X112199200Y-131643800D02*
X112199200Y-131093800D01*
G75*
G02*
X112399200Y-130893800I200000J0D01*
G01*
X112799200Y-130893800D01*
G75*
G02*
X112999200Y-131093800I0J-200000D01*
G01*
X112999200Y-131643800D01*
G75*
G02*
X112799200Y-131843800I-200000J0D01*
G01*
X112399200Y-131843800D01*
G75*
G02*
X112199200Y-131643800I0J200000D01*
G01*
G37*
%TD*%
%TO.C,R3*%
G36*
G01*
X93874000Y-102049800D02*
X93324000Y-102049800D01*
G75*
G02*
X93124000Y-101849800I0J200000D01*
G01*
X93124000Y-101449800D01*
G75*
G02*
X93324000Y-101249800I200000J0D01*
G01*
X93874000Y-101249800D01*
G75*
G02*
X94074000Y-101449800I0J-200000D01*
G01*
X94074000Y-101849800D01*
G75*
G02*
X93874000Y-102049800I-200000J0D01*
G01*
G37*
G36*
G01*
X93874000Y-100399800D02*
X93324000Y-100399800D01*
G75*
G02*
X93124000Y-100199800I0J200000D01*
G01*
X93124000Y-99799800D01*
G75*
G02*
X93324000Y-99599800I200000J0D01*
G01*
X93874000Y-99599800D01*
G75*
G02*
X94074000Y-99799800I0J-200000D01*
G01*
X94074000Y-100199800D01*
G75*
G02*
X93874000Y-100399800I-200000J0D01*
G01*
G37*
%TD*%
D20*
%TO.C,S1*%
X109982000Y-131390000D03*
X103482000Y-131390000D03*
X103482000Y-135890000D03*
D21*
X109982000Y-135890000D03*
%TD*%
%TO.C,S2*%
X82626200Y-100101400D03*
D20*
X89126200Y-100101400D03*
X89126200Y-104601400D03*
X82626200Y-104601400D03*
%TD*%
%TO.C,U1*%
G36*
G01*
X103914832Y-106066866D02*
X103808766Y-105960800D01*
G75*
G02*
X103808766Y-105854734I53033J53033D01*
G01*
X104745682Y-104917818D01*
G75*
G02*
X104851748Y-104917818I53033J-53033D01*
G01*
X104957814Y-105023884D01*
G75*
G02*
X104957814Y-105129950I-53033J-53033D01*
G01*
X104020898Y-106066866D01*
G75*
G02*
X103914832Y-106066866I-53033J53033D01*
G01*
G37*
G36*
G01*
X104268385Y-106420419D02*
X104162319Y-106314353D01*
G75*
G02*
X104162319Y-106208287I53033J53033D01*
G01*
X105099235Y-105271371D01*
G75*
G02*
X105205301Y-105271371I53033J-53033D01*
G01*
X105311367Y-105377437D01*
G75*
G02*
X105311367Y-105483503I-53033J-53033D01*
G01*
X104374451Y-106420419D01*
G75*
G02*
X104268385Y-106420419I-53033J53033D01*
G01*
G37*
G36*
G01*
X104621938Y-106773973D02*
X104515872Y-106667907D01*
G75*
G02*
X104515872Y-106561841I53033J53033D01*
G01*
X105452788Y-105624925D01*
G75*
G02*
X105558854Y-105624925I53033J-53033D01*
G01*
X105664920Y-105730991D01*
G75*
G02*
X105664920Y-105837057I-53033J-53033D01*
G01*
X104728004Y-106773973D01*
G75*
G02*
X104621938Y-106773973I-53033J53033D01*
G01*
G37*
G36*
G01*
X104975492Y-107127526D02*
X104869426Y-107021460D01*
G75*
G02*
X104869426Y-106915394I53033J53033D01*
G01*
X105806342Y-105978478D01*
G75*
G02*
X105912408Y-105978478I53033J-53033D01*
G01*
X106018474Y-106084544D01*
G75*
G02*
X106018474Y-106190610I-53033J-53033D01*
G01*
X105081558Y-107127526D01*
G75*
G02*
X104975492Y-107127526I-53033J53033D01*
G01*
G37*
G36*
G01*
X105329045Y-107481079D02*
X105222979Y-107375013D01*
G75*
G02*
X105222979Y-107268947I53033J53033D01*
G01*
X106159895Y-106332031D01*
G75*
G02*
X106265961Y-106332031I53033J-53033D01*
G01*
X106372027Y-106438097D01*
G75*
G02*
X106372027Y-106544163I-53033J-53033D01*
G01*
X105435111Y-107481079D01*
G75*
G02*
X105329045Y-107481079I-53033J53033D01*
G01*
G37*
G36*
G01*
X105682599Y-107834633D02*
X105576533Y-107728567D01*
G75*
G02*
X105576533Y-107622501I53033J53033D01*
G01*
X106513449Y-106685585D01*
G75*
G02*
X106619515Y-106685585I53033J-53033D01*
G01*
X106725581Y-106791651D01*
G75*
G02*
X106725581Y-106897717I-53033J-53033D01*
G01*
X105788665Y-107834633D01*
G75*
G02*
X105682599Y-107834633I-53033J53033D01*
G01*
G37*
G36*
G01*
X106036152Y-108188186D02*
X105930086Y-108082120D01*
G75*
G02*
X105930086Y-107976054I53033J53033D01*
G01*
X106867002Y-107039138D01*
G75*
G02*
X106973068Y-107039138I53033J-53033D01*
G01*
X107079134Y-107145204D01*
G75*
G02*
X107079134Y-107251270I-53033J-53033D01*
G01*
X106142218Y-108188186D01*
G75*
G02*
X106036152Y-108188186I-53033J53033D01*
G01*
G37*
G36*
G01*
X106389705Y-108541739D02*
X106283639Y-108435673D01*
G75*
G02*
X106283639Y-108329607I53033J53033D01*
G01*
X107220555Y-107392691D01*
G75*
G02*
X107326621Y-107392691I53033J-53033D01*
G01*
X107432687Y-107498757D01*
G75*
G02*
X107432687Y-107604823I-53033J-53033D01*
G01*
X106495771Y-108541739D01*
G75*
G02*
X106389705Y-108541739I-53033J53033D01*
G01*
G37*
G36*
G01*
X106743259Y-108895293D02*
X106637193Y-108789227D01*
G75*
G02*
X106637193Y-108683161I53033J53033D01*
G01*
X107574109Y-107746245D01*
G75*
G02*
X107680175Y-107746245I53033J-53033D01*
G01*
X107786241Y-107852311D01*
G75*
G02*
X107786241Y-107958377I-53033J-53033D01*
G01*
X106849325Y-108895293D01*
G75*
G02*
X106743259Y-108895293I-53033J53033D01*
G01*
G37*
G36*
G01*
X107096812Y-109248846D02*
X106990746Y-109142780D01*
G75*
G02*
X106990746Y-109036714I53033J53033D01*
G01*
X107927662Y-108099798D01*
G75*
G02*
X108033728Y-108099798I53033J-53033D01*
G01*
X108139794Y-108205864D01*
G75*
G02*
X108139794Y-108311930I-53033J-53033D01*
G01*
X107202878Y-109248846D01*
G75*
G02*
X107096812Y-109248846I-53033J53033D01*
G01*
G37*
G36*
G01*
X107450366Y-109602400D02*
X107344300Y-109496334D01*
G75*
G02*
X107344300Y-109390268I53033J53033D01*
G01*
X108281216Y-108453352D01*
G75*
G02*
X108387282Y-108453352I53033J-53033D01*
G01*
X108493348Y-108559418D01*
G75*
G02*
X108493348Y-108665484I-53033J-53033D01*
G01*
X107556432Y-109602400D01*
G75*
G02*
X107450366Y-109602400I-53033J53033D01*
G01*
G37*
G36*
G01*
X107803919Y-109955953D02*
X107697853Y-109849887D01*
G75*
G02*
X107697853Y-109743821I53033J53033D01*
G01*
X108634769Y-108806905D01*
G75*
G02*
X108740835Y-108806905I53033J-53033D01*
G01*
X108846901Y-108912971D01*
G75*
G02*
X108846901Y-109019037I-53033J-53033D01*
G01*
X107909985Y-109955953D01*
G75*
G02*
X107803919Y-109955953I-53033J53033D01*
G01*
G37*
G36*
G01*
X108157472Y-110309506D02*
X108051406Y-110203440D01*
G75*
G02*
X108051406Y-110097374I53033J53033D01*
G01*
X108988322Y-109160458D01*
G75*
G02*
X109094388Y-109160458I53033J-53033D01*
G01*
X109200454Y-109266524D01*
G75*
G02*
X109200454Y-109372590I-53033J-53033D01*
G01*
X108263538Y-110309506D01*
G75*
G02*
X108157472Y-110309506I-53033J53033D01*
G01*
G37*
G36*
G01*
X108511026Y-110663060D02*
X108404960Y-110556994D01*
G75*
G02*
X108404960Y-110450928I53033J53033D01*
G01*
X109341876Y-109514012D01*
G75*
G02*
X109447942Y-109514012I53033J-53033D01*
G01*
X109554008Y-109620078D01*
G75*
G02*
X109554008Y-109726144I-53033J-53033D01*
G01*
X108617092Y-110663060D01*
G75*
G02*
X108511026Y-110663060I-53033J53033D01*
G01*
G37*
G36*
G01*
X108864579Y-111016613D02*
X108758513Y-110910547D01*
G75*
G02*
X108758513Y-110804481I53033J53033D01*
G01*
X109695429Y-109867565D01*
G75*
G02*
X109801495Y-109867565I53033J-53033D01*
G01*
X109907561Y-109973631D01*
G75*
G02*
X109907561Y-110079697I-53033J-53033D01*
G01*
X108970645Y-111016613D01*
G75*
G02*
X108864579Y-111016613I-53033J53033D01*
G01*
G37*
G36*
G01*
X109218132Y-111370167D02*
X109112066Y-111264101D01*
G75*
G02*
X109112066Y-111158035I53033J53033D01*
G01*
X110048982Y-110221119D01*
G75*
G02*
X110155048Y-110221119I53033J-53033D01*
G01*
X110261114Y-110327185D01*
G75*
G02*
X110261114Y-110433251I-53033J-53033D01*
G01*
X109324198Y-111370167D01*
G75*
G02*
X109218132Y-111370167I-53033J53033D01*
G01*
G37*
G36*
G01*
X109571686Y-111723720D02*
X109465620Y-111617654D01*
G75*
G02*
X109465620Y-111511588I53033J53033D01*
G01*
X110402536Y-110574672D01*
G75*
G02*
X110508602Y-110574672I53033J-53033D01*
G01*
X110614668Y-110680738D01*
G75*
G02*
X110614668Y-110786804I-53033J-53033D01*
G01*
X109677752Y-111723720D01*
G75*
G02*
X109571686Y-111723720I-53033J53033D01*
G01*
G37*
G36*
G01*
X109925239Y-112077273D02*
X109819173Y-111971207D01*
G75*
G02*
X109819173Y-111865141I53033J53033D01*
G01*
X110756089Y-110928225D01*
G75*
G02*
X110862155Y-110928225I53033J-53033D01*
G01*
X110968221Y-111034291D01*
G75*
G02*
X110968221Y-111140357I-53033J-53033D01*
G01*
X110031305Y-112077273D01*
G75*
G02*
X109925239Y-112077273I-53033J53033D01*
G01*
G37*
G36*
G01*
X110278793Y-112430827D02*
X110172727Y-112324761D01*
G75*
G02*
X110172727Y-112218695I53033J53033D01*
G01*
X111109643Y-111281779D01*
G75*
G02*
X111215709Y-111281779I53033J-53033D01*
G01*
X111321775Y-111387845D01*
G75*
G02*
X111321775Y-111493911I-53033J-53033D01*
G01*
X110384859Y-112430827D01*
G75*
G02*
X110278793Y-112430827I-53033J53033D01*
G01*
G37*
G36*
G01*
X110632346Y-112784380D02*
X110526280Y-112678314D01*
G75*
G02*
X110526280Y-112572248I53033J53033D01*
G01*
X111463196Y-111635332D01*
G75*
G02*
X111569262Y-111635332I53033J-53033D01*
G01*
X111675328Y-111741398D01*
G75*
G02*
X111675328Y-111847464I-53033J-53033D01*
G01*
X110738412Y-112784380D01*
G75*
G02*
X110632346Y-112784380I-53033J53033D01*
G01*
G37*
G36*
G01*
X110985899Y-113137934D02*
X110879833Y-113031868D01*
G75*
G02*
X110879833Y-112925802I53033J53033D01*
G01*
X111816749Y-111988886D01*
G75*
G02*
X111922815Y-111988886I53033J-53033D01*
G01*
X112028881Y-112094952D01*
G75*
G02*
X112028881Y-112201018I-53033J-53033D01*
G01*
X111091965Y-113137934D01*
G75*
G02*
X110985899Y-113137934I-53033J53033D01*
G01*
G37*
G36*
G01*
X111339453Y-113491487D02*
X111233387Y-113385421D01*
G75*
G02*
X111233387Y-113279355I53033J53033D01*
G01*
X112170303Y-112342439D01*
G75*
G02*
X112276369Y-112342439I53033J-53033D01*
G01*
X112382435Y-112448505D01*
G75*
G02*
X112382435Y-112554571I-53033J-53033D01*
G01*
X111445519Y-113491487D01*
G75*
G02*
X111339453Y-113491487I-53033J53033D01*
G01*
G37*
G36*
G01*
X111693006Y-113845040D02*
X111586940Y-113738974D01*
G75*
G02*
X111586940Y-113632908I53033J53033D01*
G01*
X112523856Y-112695992D01*
G75*
G02*
X112629922Y-112695992I53033J-53033D01*
G01*
X112735988Y-112802058D01*
G75*
G02*
X112735988Y-112908124I-53033J-53033D01*
G01*
X111799072Y-113845040D01*
G75*
G02*
X111693006Y-113845040I-53033J53033D01*
G01*
G37*
G36*
G01*
X112046560Y-114198594D02*
X111940494Y-114092528D01*
G75*
G02*
X111940494Y-113986462I53033J53033D01*
G01*
X112877410Y-113049546D01*
G75*
G02*
X112983476Y-113049546I53033J-53033D01*
G01*
X113089542Y-113155612D01*
G75*
G02*
X113089542Y-113261678I-53033J-53033D01*
G01*
X112152626Y-114198594D01*
G75*
G02*
X112046560Y-114198594I-53033J53033D01*
G01*
G37*
G36*
G01*
X112400113Y-114552147D02*
X112294047Y-114446081D01*
G75*
G02*
X112294047Y-114340015I53033J53033D01*
G01*
X113230963Y-113403099D01*
G75*
G02*
X113337029Y-113403099I53033J-53033D01*
G01*
X113443095Y-113509165D01*
G75*
G02*
X113443095Y-113615231I-53033J-53033D01*
G01*
X112506179Y-114552147D01*
G75*
G02*
X112400113Y-114552147I-53033J53033D01*
G01*
G37*
G36*
G01*
X112753666Y-114905700D02*
X112647600Y-114799634D01*
G75*
G02*
X112647600Y-114693568I53033J53033D01*
G01*
X113584516Y-113756652D01*
G75*
G02*
X113690582Y-113756652I53033J-53033D01*
G01*
X113796648Y-113862718D01*
G75*
G02*
X113796648Y-113968784I-53033J-53033D01*
G01*
X112859732Y-114905700D01*
G75*
G02*
X112753666Y-114905700I-53033J53033D01*
G01*
G37*
G36*
G01*
X113107220Y-115259254D02*
X113001154Y-115153188D01*
G75*
G02*
X113001154Y-115047122I53033J53033D01*
G01*
X113938070Y-114110206D01*
G75*
G02*
X114044136Y-114110206I53033J-53033D01*
G01*
X114150202Y-114216272D01*
G75*
G02*
X114150202Y-114322338I-53033J-53033D01*
G01*
X113213286Y-115259254D01*
G75*
G02*
X113107220Y-115259254I-53033J53033D01*
G01*
G37*
G36*
G01*
X113460773Y-115612807D02*
X113354707Y-115506741D01*
G75*
G02*
X113354707Y-115400675I53033J53033D01*
G01*
X114291623Y-114463759D01*
G75*
G02*
X114397689Y-114463759I53033J-53033D01*
G01*
X114503755Y-114569825D01*
G75*
G02*
X114503755Y-114675891I-53033J-53033D01*
G01*
X113566839Y-115612807D01*
G75*
G02*
X113460773Y-115612807I-53033J53033D01*
G01*
G37*
G36*
G01*
X113814327Y-115966361D02*
X113708261Y-115860295D01*
G75*
G02*
X113708261Y-115754229I53033J53033D01*
G01*
X114645177Y-114817313D01*
G75*
G02*
X114751243Y-114817313I53033J-53033D01*
G01*
X114857309Y-114923379D01*
G75*
G02*
X114857309Y-115029445I-53033J-53033D01*
G01*
X113920393Y-115966361D01*
G75*
G02*
X113814327Y-115966361I-53033J53033D01*
G01*
G37*
G36*
G01*
X114167880Y-116319914D02*
X114061814Y-116213848D01*
G75*
G02*
X114061814Y-116107782I53033J53033D01*
G01*
X114998730Y-115170866D01*
G75*
G02*
X115104796Y-115170866I53033J-53033D01*
G01*
X115210862Y-115276932D01*
G75*
G02*
X115210862Y-115382998I-53033J-53033D01*
G01*
X114273946Y-116319914D01*
G75*
G02*
X114167880Y-116319914I-53033J53033D01*
G01*
G37*
G36*
G01*
X114521433Y-116673467D02*
X114415367Y-116567401D01*
G75*
G02*
X114415367Y-116461335I53033J53033D01*
G01*
X115352283Y-115524419D01*
G75*
G02*
X115458349Y-115524419I53033J-53033D01*
G01*
X115564415Y-115630485D01*
G75*
G02*
X115564415Y-115736551I-53033J-53033D01*
G01*
X114627499Y-116673467D01*
G75*
G02*
X114521433Y-116673467I-53033J53033D01*
G01*
G37*
G36*
G01*
X114874987Y-117027021D02*
X114768921Y-116920955D01*
G75*
G02*
X114768921Y-116814889I53033J53033D01*
G01*
X115705837Y-115877973D01*
G75*
G02*
X115811903Y-115877973I53033J-53033D01*
G01*
X115917969Y-115984039D01*
G75*
G02*
X115917969Y-116090105I-53033J-53033D01*
G01*
X114981053Y-117027021D01*
G75*
G02*
X114874987Y-117027021I-53033J53033D01*
G01*
G37*
G36*
G01*
X115228540Y-117380574D02*
X115122474Y-117274508D01*
G75*
G02*
X115122474Y-117168442I53033J53033D01*
G01*
X116059390Y-116231526D01*
G75*
G02*
X116165456Y-116231526I53033J-53033D01*
G01*
X116271522Y-116337592D01*
G75*
G02*
X116271522Y-116443658I-53033J-53033D01*
G01*
X115334606Y-117380574D01*
G75*
G02*
X115228540Y-117380574I-53033J53033D01*
G01*
G37*
G36*
G01*
X115582093Y-117734128D02*
X115476027Y-117628062D01*
G75*
G02*
X115476027Y-117521996I53033J53033D01*
G01*
X116412943Y-116585080D01*
G75*
G02*
X116519009Y-116585080I53033J-53033D01*
G01*
X116625075Y-116691146D01*
G75*
G02*
X116625075Y-116797212I-53033J-53033D01*
G01*
X115688159Y-117734128D01*
G75*
G02*
X115582093Y-117734128I-53033J53033D01*
G01*
G37*
G36*
G01*
X115935647Y-118087681D02*
X115829581Y-117981615D01*
G75*
G02*
X115829581Y-117875549I53033J53033D01*
G01*
X116766497Y-116938633D01*
G75*
G02*
X116872563Y-116938633I53033J-53033D01*
G01*
X116978629Y-117044699D01*
G75*
G02*
X116978629Y-117150765I-53033J-53033D01*
G01*
X116041713Y-118087681D01*
G75*
G02*
X115935647Y-118087681I-53033J53033D01*
G01*
G37*
G36*
G01*
X116289200Y-118441234D02*
X116183134Y-118335168D01*
G75*
G02*
X116183134Y-118229102I53033J53033D01*
G01*
X117120050Y-117292186D01*
G75*
G02*
X117226116Y-117292186I53033J-53033D01*
G01*
X117332182Y-117398252D01*
G75*
G02*
X117332182Y-117504318I-53033J-53033D01*
G01*
X116395266Y-118441234D01*
G75*
G02*
X116289200Y-118441234I-53033J53033D01*
G01*
G37*
G36*
G01*
X119824734Y-118441234D02*
X118887818Y-117504318D01*
G75*
G02*
X118887818Y-117398252I53033J53033D01*
G01*
X118993884Y-117292186D01*
G75*
G02*
X119099950Y-117292186I53033J-53033D01*
G01*
X120036866Y-118229102D01*
G75*
G02*
X120036866Y-118335168I-53033J-53033D01*
G01*
X119930800Y-118441234D01*
G75*
G02*
X119824734Y-118441234I-53033J53033D01*
G01*
G37*
G36*
G01*
X120178287Y-118087681D02*
X119241371Y-117150765D01*
G75*
G02*
X119241371Y-117044699I53033J53033D01*
G01*
X119347437Y-116938633D01*
G75*
G02*
X119453503Y-116938633I53033J-53033D01*
G01*
X120390419Y-117875549D01*
G75*
G02*
X120390419Y-117981615I-53033J-53033D01*
G01*
X120284353Y-118087681D01*
G75*
G02*
X120178287Y-118087681I-53033J53033D01*
G01*
G37*
G36*
G01*
X120531841Y-117734128D02*
X119594925Y-116797212D01*
G75*
G02*
X119594925Y-116691146I53033J53033D01*
G01*
X119700991Y-116585080D01*
G75*
G02*
X119807057Y-116585080I53033J-53033D01*
G01*
X120743973Y-117521996D01*
G75*
G02*
X120743973Y-117628062I-53033J-53033D01*
G01*
X120637907Y-117734128D01*
G75*
G02*
X120531841Y-117734128I-53033J53033D01*
G01*
G37*
G36*
G01*
X120885394Y-117380574D02*
X119948478Y-116443658D01*
G75*
G02*
X119948478Y-116337592I53033J53033D01*
G01*
X120054544Y-116231526D01*
G75*
G02*
X120160610Y-116231526I53033J-53033D01*
G01*
X121097526Y-117168442D01*
G75*
G02*
X121097526Y-117274508I-53033J-53033D01*
G01*
X120991460Y-117380574D01*
G75*
G02*
X120885394Y-117380574I-53033J53033D01*
G01*
G37*
G36*
G01*
X121238947Y-117027021D02*
X120302031Y-116090105D01*
G75*
G02*
X120302031Y-115984039I53033J53033D01*
G01*
X120408097Y-115877973D01*
G75*
G02*
X120514163Y-115877973I53033J-53033D01*
G01*
X121451079Y-116814889D01*
G75*
G02*
X121451079Y-116920955I-53033J-53033D01*
G01*
X121345013Y-117027021D01*
G75*
G02*
X121238947Y-117027021I-53033J53033D01*
G01*
G37*
G36*
G01*
X121592501Y-116673467D02*
X120655585Y-115736551D01*
G75*
G02*
X120655585Y-115630485I53033J53033D01*
G01*
X120761651Y-115524419D01*
G75*
G02*
X120867717Y-115524419I53033J-53033D01*
G01*
X121804633Y-116461335D01*
G75*
G02*
X121804633Y-116567401I-53033J-53033D01*
G01*
X121698567Y-116673467D01*
G75*
G02*
X121592501Y-116673467I-53033J53033D01*
G01*
G37*
G36*
G01*
X121946054Y-116319914D02*
X121009138Y-115382998D01*
G75*
G02*
X121009138Y-115276932I53033J53033D01*
G01*
X121115204Y-115170866D01*
G75*
G02*
X121221270Y-115170866I53033J-53033D01*
G01*
X122158186Y-116107782D01*
G75*
G02*
X122158186Y-116213848I-53033J-53033D01*
G01*
X122052120Y-116319914D01*
G75*
G02*
X121946054Y-116319914I-53033J53033D01*
G01*
G37*
G36*
G01*
X122299607Y-115966361D02*
X121362691Y-115029445D01*
G75*
G02*
X121362691Y-114923379I53033J53033D01*
G01*
X121468757Y-114817313D01*
G75*
G02*
X121574823Y-114817313I53033J-53033D01*
G01*
X122511739Y-115754229D01*
G75*
G02*
X122511739Y-115860295I-53033J-53033D01*
G01*
X122405673Y-115966361D01*
G75*
G02*
X122299607Y-115966361I-53033J53033D01*
G01*
G37*
G36*
G01*
X122653161Y-115612807D02*
X121716245Y-114675891D01*
G75*
G02*
X121716245Y-114569825I53033J53033D01*
G01*
X121822311Y-114463759D01*
G75*
G02*
X121928377Y-114463759I53033J-53033D01*
G01*
X122865293Y-115400675D01*
G75*
G02*
X122865293Y-115506741I-53033J-53033D01*
G01*
X122759227Y-115612807D01*
G75*
G02*
X122653161Y-115612807I-53033J53033D01*
G01*
G37*
G36*
G01*
X123006714Y-115259254D02*
X122069798Y-114322338D01*
G75*
G02*
X122069798Y-114216272I53033J53033D01*
G01*
X122175864Y-114110206D01*
G75*
G02*
X122281930Y-114110206I53033J-53033D01*
G01*
X123218846Y-115047122D01*
G75*
G02*
X123218846Y-115153188I-53033J-53033D01*
G01*
X123112780Y-115259254D01*
G75*
G02*
X123006714Y-115259254I-53033J53033D01*
G01*
G37*
G36*
G01*
X123360268Y-114905700D02*
X122423352Y-113968784D01*
G75*
G02*
X122423352Y-113862718I53033J53033D01*
G01*
X122529418Y-113756652D01*
G75*
G02*
X122635484Y-113756652I53033J-53033D01*
G01*
X123572400Y-114693568D01*
G75*
G02*
X123572400Y-114799634I-53033J-53033D01*
G01*
X123466334Y-114905700D01*
G75*
G02*
X123360268Y-114905700I-53033J53033D01*
G01*
G37*
G36*
G01*
X123713821Y-114552147D02*
X122776905Y-113615231D01*
G75*
G02*
X122776905Y-113509165I53033J53033D01*
G01*
X122882971Y-113403099D01*
G75*
G02*
X122989037Y-113403099I53033J-53033D01*
G01*
X123925953Y-114340015D01*
G75*
G02*
X123925953Y-114446081I-53033J-53033D01*
G01*
X123819887Y-114552147D01*
G75*
G02*
X123713821Y-114552147I-53033J53033D01*
G01*
G37*
G36*
G01*
X124067374Y-114198594D02*
X123130458Y-113261678D01*
G75*
G02*
X123130458Y-113155612I53033J53033D01*
G01*
X123236524Y-113049546D01*
G75*
G02*
X123342590Y-113049546I53033J-53033D01*
G01*
X124279506Y-113986462D01*
G75*
G02*
X124279506Y-114092528I-53033J-53033D01*
G01*
X124173440Y-114198594D01*
G75*
G02*
X124067374Y-114198594I-53033J53033D01*
G01*
G37*
G36*
G01*
X124420928Y-113845040D02*
X123484012Y-112908124D01*
G75*
G02*
X123484012Y-112802058I53033J53033D01*
G01*
X123590078Y-112695992D01*
G75*
G02*
X123696144Y-112695992I53033J-53033D01*
G01*
X124633060Y-113632908D01*
G75*
G02*
X124633060Y-113738974I-53033J-53033D01*
G01*
X124526994Y-113845040D01*
G75*
G02*
X124420928Y-113845040I-53033J53033D01*
G01*
G37*
G36*
G01*
X124774481Y-113491487D02*
X123837565Y-112554571D01*
G75*
G02*
X123837565Y-112448505I53033J53033D01*
G01*
X123943631Y-112342439D01*
G75*
G02*
X124049697Y-112342439I53033J-53033D01*
G01*
X124986613Y-113279355D01*
G75*
G02*
X124986613Y-113385421I-53033J-53033D01*
G01*
X124880547Y-113491487D01*
G75*
G02*
X124774481Y-113491487I-53033J53033D01*
G01*
G37*
G36*
G01*
X125128035Y-113137934D02*
X124191119Y-112201018D01*
G75*
G02*
X124191119Y-112094952I53033J53033D01*
G01*
X124297185Y-111988886D01*
G75*
G02*
X124403251Y-111988886I53033J-53033D01*
G01*
X125340167Y-112925802D01*
G75*
G02*
X125340167Y-113031868I-53033J-53033D01*
G01*
X125234101Y-113137934D01*
G75*
G02*
X125128035Y-113137934I-53033J53033D01*
G01*
G37*
G36*
G01*
X125481588Y-112784380D02*
X124544672Y-111847464D01*
G75*
G02*
X124544672Y-111741398I53033J53033D01*
G01*
X124650738Y-111635332D01*
G75*
G02*
X124756804Y-111635332I53033J-53033D01*
G01*
X125693720Y-112572248D01*
G75*
G02*
X125693720Y-112678314I-53033J-53033D01*
G01*
X125587654Y-112784380D01*
G75*
G02*
X125481588Y-112784380I-53033J53033D01*
G01*
G37*
G36*
G01*
X125835141Y-112430827D02*
X124898225Y-111493911D01*
G75*
G02*
X124898225Y-111387845I53033J53033D01*
G01*
X125004291Y-111281779D01*
G75*
G02*
X125110357Y-111281779I53033J-53033D01*
G01*
X126047273Y-112218695D01*
G75*
G02*
X126047273Y-112324761I-53033J-53033D01*
G01*
X125941207Y-112430827D01*
G75*
G02*
X125835141Y-112430827I-53033J53033D01*
G01*
G37*
G36*
G01*
X126188695Y-112077273D02*
X125251779Y-111140357D01*
G75*
G02*
X125251779Y-111034291I53033J53033D01*
G01*
X125357845Y-110928225D01*
G75*
G02*
X125463911Y-110928225I53033J-53033D01*
G01*
X126400827Y-111865141D01*
G75*
G02*
X126400827Y-111971207I-53033J-53033D01*
G01*
X126294761Y-112077273D01*
G75*
G02*
X126188695Y-112077273I-53033J53033D01*
G01*
G37*
G36*
G01*
X126542248Y-111723720D02*
X125605332Y-110786804D01*
G75*
G02*
X125605332Y-110680738I53033J53033D01*
G01*
X125711398Y-110574672D01*
G75*
G02*
X125817464Y-110574672I53033J-53033D01*
G01*
X126754380Y-111511588D01*
G75*
G02*
X126754380Y-111617654I-53033J-53033D01*
G01*
X126648314Y-111723720D01*
G75*
G02*
X126542248Y-111723720I-53033J53033D01*
G01*
G37*
G36*
G01*
X126895802Y-111370167D02*
X125958886Y-110433251D01*
G75*
G02*
X125958886Y-110327185I53033J53033D01*
G01*
X126064952Y-110221119D01*
G75*
G02*
X126171018Y-110221119I53033J-53033D01*
G01*
X127107934Y-111158035D01*
G75*
G02*
X127107934Y-111264101I-53033J-53033D01*
G01*
X127001868Y-111370167D01*
G75*
G02*
X126895802Y-111370167I-53033J53033D01*
G01*
G37*
G36*
G01*
X127249355Y-111016613D02*
X126312439Y-110079697D01*
G75*
G02*
X126312439Y-109973631I53033J53033D01*
G01*
X126418505Y-109867565D01*
G75*
G02*
X126524571Y-109867565I53033J-53033D01*
G01*
X127461487Y-110804481D01*
G75*
G02*
X127461487Y-110910547I-53033J-53033D01*
G01*
X127355421Y-111016613D01*
G75*
G02*
X127249355Y-111016613I-53033J53033D01*
G01*
G37*
G36*
G01*
X127602908Y-110663060D02*
X126665992Y-109726144D01*
G75*
G02*
X126665992Y-109620078I53033J53033D01*
G01*
X126772058Y-109514012D01*
G75*
G02*
X126878124Y-109514012I53033J-53033D01*
G01*
X127815040Y-110450928D01*
G75*
G02*
X127815040Y-110556994I-53033J-53033D01*
G01*
X127708974Y-110663060D01*
G75*
G02*
X127602908Y-110663060I-53033J53033D01*
G01*
G37*
G36*
G01*
X127956462Y-110309506D02*
X127019546Y-109372590D01*
G75*
G02*
X127019546Y-109266524I53033J53033D01*
G01*
X127125612Y-109160458D01*
G75*
G02*
X127231678Y-109160458I53033J-53033D01*
G01*
X128168594Y-110097374D01*
G75*
G02*
X128168594Y-110203440I-53033J-53033D01*
G01*
X128062528Y-110309506D01*
G75*
G02*
X127956462Y-110309506I-53033J53033D01*
G01*
G37*
G36*
G01*
X128310015Y-109955953D02*
X127373099Y-109019037D01*
G75*
G02*
X127373099Y-108912971I53033J53033D01*
G01*
X127479165Y-108806905D01*
G75*
G02*
X127585231Y-108806905I53033J-53033D01*
G01*
X128522147Y-109743821D01*
G75*
G02*
X128522147Y-109849887I-53033J-53033D01*
G01*
X128416081Y-109955953D01*
G75*
G02*
X128310015Y-109955953I-53033J53033D01*
G01*
G37*
G36*
G01*
X128663568Y-109602400D02*
X127726652Y-108665484D01*
G75*
G02*
X127726652Y-108559418I53033J53033D01*
G01*
X127832718Y-108453352D01*
G75*
G02*
X127938784Y-108453352I53033J-53033D01*
G01*
X128875700Y-109390268D01*
G75*
G02*
X128875700Y-109496334I-53033J-53033D01*
G01*
X128769634Y-109602400D01*
G75*
G02*
X128663568Y-109602400I-53033J53033D01*
G01*
G37*
G36*
G01*
X129017122Y-109248846D02*
X128080206Y-108311930D01*
G75*
G02*
X128080206Y-108205864I53033J53033D01*
G01*
X128186272Y-108099798D01*
G75*
G02*
X128292338Y-108099798I53033J-53033D01*
G01*
X129229254Y-109036714D01*
G75*
G02*
X129229254Y-109142780I-53033J-53033D01*
G01*
X129123188Y-109248846D01*
G75*
G02*
X129017122Y-109248846I-53033J53033D01*
G01*
G37*
G36*
G01*
X129370675Y-108895293D02*
X128433759Y-107958377D01*
G75*
G02*
X128433759Y-107852311I53033J53033D01*
G01*
X128539825Y-107746245D01*
G75*
G02*
X128645891Y-107746245I53033J-53033D01*
G01*
X129582807Y-108683161D01*
G75*
G02*
X129582807Y-108789227I-53033J-53033D01*
G01*
X129476741Y-108895293D01*
G75*
G02*
X129370675Y-108895293I-53033J53033D01*
G01*
G37*
G36*
G01*
X129724229Y-108541739D02*
X128787313Y-107604823D01*
G75*
G02*
X128787313Y-107498757I53033J53033D01*
G01*
X128893379Y-107392691D01*
G75*
G02*
X128999445Y-107392691I53033J-53033D01*
G01*
X129936361Y-108329607D01*
G75*
G02*
X129936361Y-108435673I-53033J-53033D01*
G01*
X129830295Y-108541739D01*
G75*
G02*
X129724229Y-108541739I-53033J53033D01*
G01*
G37*
G36*
G01*
X130077782Y-108188186D02*
X129140866Y-107251270D01*
G75*
G02*
X129140866Y-107145204I53033J53033D01*
G01*
X129246932Y-107039138D01*
G75*
G02*
X129352998Y-107039138I53033J-53033D01*
G01*
X130289914Y-107976054D01*
G75*
G02*
X130289914Y-108082120I-53033J-53033D01*
G01*
X130183848Y-108188186D01*
G75*
G02*
X130077782Y-108188186I-53033J53033D01*
G01*
G37*
G36*
G01*
X130431335Y-107834633D02*
X129494419Y-106897717D01*
G75*
G02*
X129494419Y-106791651I53033J53033D01*
G01*
X129600485Y-106685585D01*
G75*
G02*
X129706551Y-106685585I53033J-53033D01*
G01*
X130643467Y-107622501D01*
G75*
G02*
X130643467Y-107728567I-53033J-53033D01*
G01*
X130537401Y-107834633D01*
G75*
G02*
X130431335Y-107834633I-53033J53033D01*
G01*
G37*
G36*
G01*
X130784889Y-107481079D02*
X129847973Y-106544163D01*
G75*
G02*
X129847973Y-106438097I53033J53033D01*
G01*
X129954039Y-106332031D01*
G75*
G02*
X130060105Y-106332031I53033J-53033D01*
G01*
X130997021Y-107268947D01*
G75*
G02*
X130997021Y-107375013I-53033J-53033D01*
G01*
X130890955Y-107481079D01*
G75*
G02*
X130784889Y-107481079I-53033J53033D01*
G01*
G37*
G36*
G01*
X131138442Y-107127526D02*
X130201526Y-106190610D01*
G75*
G02*
X130201526Y-106084544I53033J53033D01*
G01*
X130307592Y-105978478D01*
G75*
G02*
X130413658Y-105978478I53033J-53033D01*
G01*
X131350574Y-106915394D01*
G75*
G02*
X131350574Y-107021460I-53033J-53033D01*
G01*
X131244508Y-107127526D01*
G75*
G02*
X131138442Y-107127526I-53033J53033D01*
G01*
G37*
G36*
G01*
X131491996Y-106773973D02*
X130555080Y-105837057D01*
G75*
G02*
X130555080Y-105730991I53033J53033D01*
G01*
X130661146Y-105624925D01*
G75*
G02*
X130767212Y-105624925I53033J-53033D01*
G01*
X131704128Y-106561841D01*
G75*
G02*
X131704128Y-106667907I-53033J-53033D01*
G01*
X131598062Y-106773973D01*
G75*
G02*
X131491996Y-106773973I-53033J53033D01*
G01*
G37*
G36*
G01*
X131845549Y-106420419D02*
X130908633Y-105483503D01*
G75*
G02*
X130908633Y-105377437I53033J53033D01*
G01*
X131014699Y-105271371D01*
G75*
G02*
X131120765Y-105271371I53033J-53033D01*
G01*
X132057681Y-106208287D01*
G75*
G02*
X132057681Y-106314353I-53033J-53033D01*
G01*
X131951615Y-106420419D01*
G75*
G02*
X131845549Y-106420419I-53033J53033D01*
G01*
G37*
G36*
G01*
X132199102Y-106066866D02*
X131262186Y-105129950D01*
G75*
G02*
X131262186Y-105023884I53033J53033D01*
G01*
X131368252Y-104917818D01*
G75*
G02*
X131474318Y-104917818I53033J-53033D01*
G01*
X132411234Y-105854734D01*
G75*
G02*
X132411234Y-105960800I-53033J-53033D01*
G01*
X132305168Y-106066866D01*
G75*
G02*
X132199102Y-106066866I-53033J53033D01*
G01*
G37*
G36*
G01*
X131368252Y-103362182D02*
X131262186Y-103256116D01*
G75*
G02*
X131262186Y-103150050I53033J53033D01*
G01*
X132199102Y-102213134D01*
G75*
G02*
X132305168Y-102213134I53033J-53033D01*
G01*
X132411234Y-102319200D01*
G75*
G02*
X132411234Y-102425266I-53033J-53033D01*
G01*
X131474318Y-103362182D01*
G75*
G02*
X131368252Y-103362182I-53033J53033D01*
G01*
G37*
G36*
G01*
X131014699Y-103008629D02*
X130908633Y-102902563D01*
G75*
G02*
X130908633Y-102796497I53033J53033D01*
G01*
X131845549Y-101859581D01*
G75*
G02*
X131951615Y-101859581I53033J-53033D01*
G01*
X132057681Y-101965647D01*
G75*
G02*
X132057681Y-102071713I-53033J-53033D01*
G01*
X131120765Y-103008629D01*
G75*
G02*
X131014699Y-103008629I-53033J53033D01*
G01*
G37*
G36*
G01*
X130661146Y-102655075D02*
X130555080Y-102549009D01*
G75*
G02*
X130555080Y-102442943I53033J53033D01*
G01*
X131491996Y-101506027D01*
G75*
G02*
X131598062Y-101506027I53033J-53033D01*
G01*
X131704128Y-101612093D01*
G75*
G02*
X131704128Y-101718159I-53033J-53033D01*
G01*
X130767212Y-102655075D01*
G75*
G02*
X130661146Y-102655075I-53033J53033D01*
G01*
G37*
G36*
G01*
X130307592Y-102301522D02*
X130201526Y-102195456D01*
G75*
G02*
X130201526Y-102089390I53033J53033D01*
G01*
X131138442Y-101152474D01*
G75*
G02*
X131244508Y-101152474I53033J-53033D01*
G01*
X131350574Y-101258540D01*
G75*
G02*
X131350574Y-101364606I-53033J-53033D01*
G01*
X130413658Y-102301522D01*
G75*
G02*
X130307592Y-102301522I-53033J53033D01*
G01*
G37*
G36*
G01*
X129954039Y-101947969D02*
X129847973Y-101841903D01*
G75*
G02*
X129847973Y-101735837I53033J53033D01*
G01*
X130784889Y-100798921D01*
G75*
G02*
X130890955Y-100798921I53033J-53033D01*
G01*
X130997021Y-100904987D01*
G75*
G02*
X130997021Y-101011053I-53033J-53033D01*
G01*
X130060105Y-101947969D01*
G75*
G02*
X129954039Y-101947969I-53033J53033D01*
G01*
G37*
G36*
G01*
X129600485Y-101594415D02*
X129494419Y-101488349D01*
G75*
G02*
X129494419Y-101382283I53033J53033D01*
G01*
X130431335Y-100445367D01*
G75*
G02*
X130537401Y-100445367I53033J-53033D01*
G01*
X130643467Y-100551433D01*
G75*
G02*
X130643467Y-100657499I-53033J-53033D01*
G01*
X129706551Y-101594415D01*
G75*
G02*
X129600485Y-101594415I-53033J53033D01*
G01*
G37*
G36*
G01*
X129246932Y-101240862D02*
X129140866Y-101134796D01*
G75*
G02*
X129140866Y-101028730I53033J53033D01*
G01*
X130077782Y-100091814D01*
G75*
G02*
X130183848Y-100091814I53033J-53033D01*
G01*
X130289914Y-100197880D01*
G75*
G02*
X130289914Y-100303946I-53033J-53033D01*
G01*
X129352998Y-101240862D01*
G75*
G02*
X129246932Y-101240862I-53033J53033D01*
G01*
G37*
G36*
G01*
X128893379Y-100887309D02*
X128787313Y-100781243D01*
G75*
G02*
X128787313Y-100675177I53033J53033D01*
G01*
X129724229Y-99738261D01*
G75*
G02*
X129830295Y-99738261I53033J-53033D01*
G01*
X129936361Y-99844327D01*
G75*
G02*
X129936361Y-99950393I-53033J-53033D01*
G01*
X128999445Y-100887309D01*
G75*
G02*
X128893379Y-100887309I-53033J53033D01*
G01*
G37*
G36*
G01*
X128539825Y-100533755D02*
X128433759Y-100427689D01*
G75*
G02*
X128433759Y-100321623I53033J53033D01*
G01*
X129370675Y-99384707D01*
G75*
G02*
X129476741Y-99384707I53033J-53033D01*
G01*
X129582807Y-99490773D01*
G75*
G02*
X129582807Y-99596839I-53033J-53033D01*
G01*
X128645891Y-100533755D01*
G75*
G02*
X128539825Y-100533755I-53033J53033D01*
G01*
G37*
G36*
G01*
X128186272Y-100180202D02*
X128080206Y-100074136D01*
G75*
G02*
X128080206Y-99968070I53033J53033D01*
G01*
X129017122Y-99031154D01*
G75*
G02*
X129123188Y-99031154I53033J-53033D01*
G01*
X129229254Y-99137220D01*
G75*
G02*
X129229254Y-99243286I-53033J-53033D01*
G01*
X128292338Y-100180202D01*
G75*
G02*
X128186272Y-100180202I-53033J53033D01*
G01*
G37*
G36*
G01*
X127832718Y-99826648D02*
X127726652Y-99720582D01*
G75*
G02*
X127726652Y-99614516I53033J53033D01*
G01*
X128663568Y-98677600D01*
G75*
G02*
X128769634Y-98677600I53033J-53033D01*
G01*
X128875700Y-98783666D01*
G75*
G02*
X128875700Y-98889732I-53033J-53033D01*
G01*
X127938784Y-99826648D01*
G75*
G02*
X127832718Y-99826648I-53033J53033D01*
G01*
G37*
G36*
G01*
X127479165Y-99473095D02*
X127373099Y-99367029D01*
G75*
G02*
X127373099Y-99260963I53033J53033D01*
G01*
X128310015Y-98324047D01*
G75*
G02*
X128416081Y-98324047I53033J-53033D01*
G01*
X128522147Y-98430113D01*
G75*
G02*
X128522147Y-98536179I-53033J-53033D01*
G01*
X127585231Y-99473095D01*
G75*
G02*
X127479165Y-99473095I-53033J53033D01*
G01*
G37*
G36*
G01*
X127125612Y-99119542D02*
X127019546Y-99013476D01*
G75*
G02*
X127019546Y-98907410I53033J53033D01*
G01*
X127956462Y-97970494D01*
G75*
G02*
X128062528Y-97970494I53033J-53033D01*
G01*
X128168594Y-98076560D01*
G75*
G02*
X128168594Y-98182626I-53033J-53033D01*
G01*
X127231678Y-99119542D01*
G75*
G02*
X127125612Y-99119542I-53033J53033D01*
G01*
G37*
G36*
G01*
X126772058Y-98765988D02*
X126665992Y-98659922D01*
G75*
G02*
X126665992Y-98553856I53033J53033D01*
G01*
X127602908Y-97616940D01*
G75*
G02*
X127708974Y-97616940I53033J-53033D01*
G01*
X127815040Y-97723006D01*
G75*
G02*
X127815040Y-97829072I-53033J-53033D01*
G01*
X126878124Y-98765988D01*
G75*
G02*
X126772058Y-98765988I-53033J53033D01*
G01*
G37*
G36*
G01*
X126418505Y-98412435D02*
X126312439Y-98306369D01*
G75*
G02*
X126312439Y-98200303I53033J53033D01*
G01*
X127249355Y-97263387D01*
G75*
G02*
X127355421Y-97263387I53033J-53033D01*
G01*
X127461487Y-97369453D01*
G75*
G02*
X127461487Y-97475519I-53033J-53033D01*
G01*
X126524571Y-98412435D01*
G75*
G02*
X126418505Y-98412435I-53033J53033D01*
G01*
G37*
G36*
G01*
X126064952Y-98058881D02*
X125958886Y-97952815D01*
G75*
G02*
X125958886Y-97846749I53033J53033D01*
G01*
X126895802Y-96909833D01*
G75*
G02*
X127001868Y-96909833I53033J-53033D01*
G01*
X127107934Y-97015899D01*
G75*
G02*
X127107934Y-97121965I-53033J-53033D01*
G01*
X126171018Y-98058881D01*
G75*
G02*
X126064952Y-98058881I-53033J53033D01*
G01*
G37*
G36*
G01*
X125711398Y-97705328D02*
X125605332Y-97599262D01*
G75*
G02*
X125605332Y-97493196I53033J53033D01*
G01*
X126542248Y-96556280D01*
G75*
G02*
X126648314Y-96556280I53033J-53033D01*
G01*
X126754380Y-96662346D01*
G75*
G02*
X126754380Y-96768412I-53033J-53033D01*
G01*
X125817464Y-97705328D01*
G75*
G02*
X125711398Y-97705328I-53033J53033D01*
G01*
G37*
G36*
G01*
X125357845Y-97351775D02*
X125251779Y-97245709D01*
G75*
G02*
X125251779Y-97139643I53033J53033D01*
G01*
X126188695Y-96202727D01*
G75*
G02*
X126294761Y-96202727I53033J-53033D01*
G01*
X126400827Y-96308793D01*
G75*
G02*
X126400827Y-96414859I-53033J-53033D01*
G01*
X125463911Y-97351775D01*
G75*
G02*
X125357845Y-97351775I-53033J53033D01*
G01*
G37*
G36*
G01*
X125004291Y-96998221D02*
X124898225Y-96892155D01*
G75*
G02*
X124898225Y-96786089I53033J53033D01*
G01*
X125835141Y-95849173D01*
G75*
G02*
X125941207Y-95849173I53033J-53033D01*
G01*
X126047273Y-95955239D01*
G75*
G02*
X126047273Y-96061305I-53033J-53033D01*
G01*
X125110357Y-96998221D01*
G75*
G02*
X125004291Y-96998221I-53033J53033D01*
G01*
G37*
G36*
G01*
X124650738Y-96644668D02*
X124544672Y-96538602D01*
G75*
G02*
X124544672Y-96432536I53033J53033D01*
G01*
X125481588Y-95495620D01*
G75*
G02*
X125587654Y-95495620I53033J-53033D01*
G01*
X125693720Y-95601686D01*
G75*
G02*
X125693720Y-95707752I-53033J-53033D01*
G01*
X124756804Y-96644668D01*
G75*
G02*
X124650738Y-96644668I-53033J53033D01*
G01*
G37*
G36*
G01*
X124297185Y-96291114D02*
X124191119Y-96185048D01*
G75*
G02*
X124191119Y-96078982I53033J53033D01*
G01*
X125128035Y-95142066D01*
G75*
G02*
X125234101Y-95142066I53033J-53033D01*
G01*
X125340167Y-95248132D01*
G75*
G02*
X125340167Y-95354198I-53033J-53033D01*
G01*
X124403251Y-96291114D01*
G75*
G02*
X124297185Y-96291114I-53033J53033D01*
G01*
G37*
G36*
G01*
X123943631Y-95937561D02*
X123837565Y-95831495D01*
G75*
G02*
X123837565Y-95725429I53033J53033D01*
G01*
X124774481Y-94788513D01*
G75*
G02*
X124880547Y-94788513I53033J-53033D01*
G01*
X124986613Y-94894579D01*
G75*
G02*
X124986613Y-95000645I-53033J-53033D01*
G01*
X124049697Y-95937561D01*
G75*
G02*
X123943631Y-95937561I-53033J53033D01*
G01*
G37*
G36*
G01*
X123590078Y-95584008D02*
X123484012Y-95477942D01*
G75*
G02*
X123484012Y-95371876I53033J53033D01*
G01*
X124420928Y-94434960D01*
G75*
G02*
X124526994Y-94434960I53033J-53033D01*
G01*
X124633060Y-94541026D01*
G75*
G02*
X124633060Y-94647092I-53033J-53033D01*
G01*
X123696144Y-95584008D01*
G75*
G02*
X123590078Y-95584008I-53033J53033D01*
G01*
G37*
G36*
G01*
X123236524Y-95230454D02*
X123130458Y-95124388D01*
G75*
G02*
X123130458Y-95018322I53033J53033D01*
G01*
X124067374Y-94081406D01*
G75*
G02*
X124173440Y-94081406I53033J-53033D01*
G01*
X124279506Y-94187472D01*
G75*
G02*
X124279506Y-94293538I-53033J-53033D01*
G01*
X123342590Y-95230454D01*
G75*
G02*
X123236524Y-95230454I-53033J53033D01*
G01*
G37*
G36*
G01*
X122882971Y-94876901D02*
X122776905Y-94770835D01*
G75*
G02*
X122776905Y-94664769I53033J53033D01*
G01*
X123713821Y-93727853D01*
G75*
G02*
X123819887Y-93727853I53033J-53033D01*
G01*
X123925953Y-93833919D01*
G75*
G02*
X123925953Y-93939985I-53033J-53033D01*
G01*
X122989037Y-94876901D01*
G75*
G02*
X122882971Y-94876901I-53033J53033D01*
G01*
G37*
G36*
G01*
X122529418Y-94523348D02*
X122423352Y-94417282D01*
G75*
G02*
X122423352Y-94311216I53033J53033D01*
G01*
X123360268Y-93374300D01*
G75*
G02*
X123466334Y-93374300I53033J-53033D01*
G01*
X123572400Y-93480366D01*
G75*
G02*
X123572400Y-93586432I-53033J-53033D01*
G01*
X122635484Y-94523348D01*
G75*
G02*
X122529418Y-94523348I-53033J53033D01*
G01*
G37*
G36*
G01*
X122175864Y-94169794D02*
X122069798Y-94063728D01*
G75*
G02*
X122069798Y-93957662I53033J53033D01*
G01*
X123006714Y-93020746D01*
G75*
G02*
X123112780Y-93020746I53033J-53033D01*
G01*
X123218846Y-93126812D01*
G75*
G02*
X123218846Y-93232878I-53033J-53033D01*
G01*
X122281930Y-94169794D01*
G75*
G02*
X122175864Y-94169794I-53033J53033D01*
G01*
G37*
G36*
G01*
X121822311Y-93816241D02*
X121716245Y-93710175D01*
G75*
G02*
X121716245Y-93604109I53033J53033D01*
G01*
X122653161Y-92667193D01*
G75*
G02*
X122759227Y-92667193I53033J-53033D01*
G01*
X122865293Y-92773259D01*
G75*
G02*
X122865293Y-92879325I-53033J-53033D01*
G01*
X121928377Y-93816241D01*
G75*
G02*
X121822311Y-93816241I-53033J53033D01*
G01*
G37*
G36*
G01*
X121468757Y-93462687D02*
X121362691Y-93356621D01*
G75*
G02*
X121362691Y-93250555I53033J53033D01*
G01*
X122299607Y-92313639D01*
G75*
G02*
X122405673Y-92313639I53033J-53033D01*
G01*
X122511739Y-92419705D01*
G75*
G02*
X122511739Y-92525771I-53033J-53033D01*
G01*
X121574823Y-93462687D01*
G75*
G02*
X121468757Y-93462687I-53033J53033D01*
G01*
G37*
G36*
G01*
X121115204Y-93109134D02*
X121009138Y-93003068D01*
G75*
G02*
X121009138Y-92897002I53033J53033D01*
G01*
X121946054Y-91960086D01*
G75*
G02*
X122052120Y-91960086I53033J-53033D01*
G01*
X122158186Y-92066152D01*
G75*
G02*
X122158186Y-92172218I-53033J-53033D01*
G01*
X121221270Y-93109134D01*
G75*
G02*
X121115204Y-93109134I-53033J53033D01*
G01*
G37*
G36*
G01*
X120761651Y-92755581D02*
X120655585Y-92649515D01*
G75*
G02*
X120655585Y-92543449I53033J53033D01*
G01*
X121592501Y-91606533D01*
G75*
G02*
X121698567Y-91606533I53033J-53033D01*
G01*
X121804633Y-91712599D01*
G75*
G02*
X121804633Y-91818665I-53033J-53033D01*
G01*
X120867717Y-92755581D01*
G75*
G02*
X120761651Y-92755581I-53033J53033D01*
G01*
G37*
G36*
G01*
X120408097Y-92402027D02*
X120302031Y-92295961D01*
G75*
G02*
X120302031Y-92189895I53033J53033D01*
G01*
X121238947Y-91252979D01*
G75*
G02*
X121345013Y-91252979I53033J-53033D01*
G01*
X121451079Y-91359045D01*
G75*
G02*
X121451079Y-91465111I-53033J-53033D01*
G01*
X120514163Y-92402027D01*
G75*
G02*
X120408097Y-92402027I-53033J53033D01*
G01*
G37*
G36*
G01*
X120054544Y-92048474D02*
X119948478Y-91942408D01*
G75*
G02*
X119948478Y-91836342I53033J53033D01*
G01*
X120885394Y-90899426D01*
G75*
G02*
X120991460Y-90899426I53033J-53033D01*
G01*
X121097526Y-91005492D01*
G75*
G02*
X121097526Y-91111558I-53033J-53033D01*
G01*
X120160610Y-92048474D01*
G75*
G02*
X120054544Y-92048474I-53033J53033D01*
G01*
G37*
G36*
G01*
X119700991Y-91694920D02*
X119594925Y-91588854D01*
G75*
G02*
X119594925Y-91482788I53033J53033D01*
G01*
X120531841Y-90545872D01*
G75*
G02*
X120637907Y-90545872I53033J-53033D01*
G01*
X120743973Y-90651938D01*
G75*
G02*
X120743973Y-90758004I-53033J-53033D01*
G01*
X119807057Y-91694920D01*
G75*
G02*
X119700991Y-91694920I-53033J53033D01*
G01*
G37*
G36*
G01*
X119347437Y-91341367D02*
X119241371Y-91235301D01*
G75*
G02*
X119241371Y-91129235I53033J53033D01*
G01*
X120178287Y-90192319D01*
G75*
G02*
X120284353Y-90192319I53033J-53033D01*
G01*
X120390419Y-90298385D01*
G75*
G02*
X120390419Y-90404451I-53033J-53033D01*
G01*
X119453503Y-91341367D01*
G75*
G02*
X119347437Y-91341367I-53033J53033D01*
G01*
G37*
G36*
G01*
X118993884Y-90987814D02*
X118887818Y-90881748D01*
G75*
G02*
X118887818Y-90775682I53033J53033D01*
G01*
X119824734Y-89838766D01*
G75*
G02*
X119930800Y-89838766I53033J-53033D01*
G01*
X120036866Y-89944832D01*
G75*
G02*
X120036866Y-90050898I-53033J-53033D01*
G01*
X119099950Y-90987814D01*
G75*
G02*
X118993884Y-90987814I-53033J53033D01*
G01*
G37*
G36*
G01*
X117120050Y-90987814D02*
X116183134Y-90050898D01*
G75*
G02*
X116183134Y-89944832I53033J53033D01*
G01*
X116289200Y-89838766D01*
G75*
G02*
X116395266Y-89838766I53033J-53033D01*
G01*
X117332182Y-90775682D01*
G75*
G02*
X117332182Y-90881748I-53033J-53033D01*
G01*
X117226116Y-90987814D01*
G75*
G02*
X117120050Y-90987814I-53033J53033D01*
G01*
G37*
G36*
G01*
X116766497Y-91341367D02*
X115829581Y-90404451D01*
G75*
G02*
X115829581Y-90298385I53033J53033D01*
G01*
X115935647Y-90192319D01*
G75*
G02*
X116041713Y-90192319I53033J-53033D01*
G01*
X116978629Y-91129235D01*
G75*
G02*
X116978629Y-91235301I-53033J-53033D01*
G01*
X116872563Y-91341367D01*
G75*
G02*
X116766497Y-91341367I-53033J53033D01*
G01*
G37*
G36*
G01*
X116412943Y-91694920D02*
X115476027Y-90758004D01*
G75*
G02*
X115476027Y-90651938I53033J53033D01*
G01*
X115582093Y-90545872D01*
G75*
G02*
X115688159Y-90545872I53033J-53033D01*
G01*
X116625075Y-91482788D01*
G75*
G02*
X116625075Y-91588854I-53033J-53033D01*
G01*
X116519009Y-91694920D01*
G75*
G02*
X116412943Y-91694920I-53033J53033D01*
G01*
G37*
G36*
G01*
X116059390Y-92048474D02*
X115122474Y-91111558D01*
G75*
G02*
X115122474Y-91005492I53033J53033D01*
G01*
X115228540Y-90899426D01*
G75*
G02*
X115334606Y-90899426I53033J-53033D01*
G01*
X116271522Y-91836342D01*
G75*
G02*
X116271522Y-91942408I-53033J-53033D01*
G01*
X116165456Y-92048474D01*
G75*
G02*
X116059390Y-92048474I-53033J53033D01*
G01*
G37*
G36*
G01*
X115705837Y-92402027D02*
X114768921Y-91465111D01*
G75*
G02*
X114768921Y-91359045I53033J53033D01*
G01*
X114874987Y-91252979D01*
G75*
G02*
X114981053Y-91252979I53033J-53033D01*
G01*
X115917969Y-92189895D01*
G75*
G02*
X115917969Y-92295961I-53033J-53033D01*
G01*
X115811903Y-92402027D01*
G75*
G02*
X115705837Y-92402027I-53033J53033D01*
G01*
G37*
G36*
G01*
X115352283Y-92755581D02*
X114415367Y-91818665D01*
G75*
G02*
X114415367Y-91712599I53033J53033D01*
G01*
X114521433Y-91606533D01*
G75*
G02*
X114627499Y-91606533I53033J-53033D01*
G01*
X115564415Y-92543449D01*
G75*
G02*
X115564415Y-92649515I-53033J-53033D01*
G01*
X115458349Y-92755581D01*
G75*
G02*
X115352283Y-92755581I-53033J53033D01*
G01*
G37*
G36*
G01*
X114998730Y-93109134D02*
X114061814Y-92172218D01*
G75*
G02*
X114061814Y-92066152I53033J53033D01*
G01*
X114167880Y-91960086D01*
G75*
G02*
X114273946Y-91960086I53033J-53033D01*
G01*
X115210862Y-92897002D01*
G75*
G02*
X115210862Y-93003068I-53033J-53033D01*
G01*
X115104796Y-93109134D01*
G75*
G02*
X114998730Y-93109134I-53033J53033D01*
G01*
G37*
G36*
G01*
X114645177Y-93462687D02*
X113708261Y-92525771D01*
G75*
G02*
X113708261Y-92419705I53033J53033D01*
G01*
X113814327Y-92313639D01*
G75*
G02*
X113920393Y-92313639I53033J-53033D01*
G01*
X114857309Y-93250555D01*
G75*
G02*
X114857309Y-93356621I-53033J-53033D01*
G01*
X114751243Y-93462687D01*
G75*
G02*
X114645177Y-93462687I-53033J53033D01*
G01*
G37*
G36*
G01*
X114291623Y-93816241D02*
X113354707Y-92879325D01*
G75*
G02*
X113354707Y-92773259I53033J53033D01*
G01*
X113460773Y-92667193D01*
G75*
G02*
X113566839Y-92667193I53033J-53033D01*
G01*
X114503755Y-93604109D01*
G75*
G02*
X114503755Y-93710175I-53033J-53033D01*
G01*
X114397689Y-93816241D01*
G75*
G02*
X114291623Y-93816241I-53033J53033D01*
G01*
G37*
G36*
G01*
X113938070Y-94169794D02*
X113001154Y-93232878D01*
G75*
G02*
X113001154Y-93126812I53033J53033D01*
G01*
X113107220Y-93020746D01*
G75*
G02*
X113213286Y-93020746I53033J-53033D01*
G01*
X114150202Y-93957662D01*
G75*
G02*
X114150202Y-94063728I-53033J-53033D01*
G01*
X114044136Y-94169794D01*
G75*
G02*
X113938070Y-94169794I-53033J53033D01*
G01*
G37*
G36*
G01*
X113584516Y-94523348D02*
X112647600Y-93586432D01*
G75*
G02*
X112647600Y-93480366I53033J53033D01*
G01*
X112753666Y-93374300D01*
G75*
G02*
X112859732Y-93374300I53033J-53033D01*
G01*
X113796648Y-94311216D01*
G75*
G02*
X113796648Y-94417282I-53033J-53033D01*
G01*
X113690582Y-94523348D01*
G75*
G02*
X113584516Y-94523348I-53033J53033D01*
G01*
G37*
G36*
G01*
X113230963Y-94876901D02*
X112294047Y-93939985D01*
G75*
G02*
X112294047Y-93833919I53033J53033D01*
G01*
X112400113Y-93727853D01*
G75*
G02*
X112506179Y-93727853I53033J-53033D01*
G01*
X113443095Y-94664769D01*
G75*
G02*
X113443095Y-94770835I-53033J-53033D01*
G01*
X113337029Y-94876901D01*
G75*
G02*
X113230963Y-94876901I-53033J53033D01*
G01*
G37*
G36*
G01*
X112877410Y-95230454D02*
X111940494Y-94293538D01*
G75*
G02*
X111940494Y-94187472I53033J53033D01*
G01*
X112046560Y-94081406D01*
G75*
G02*
X112152626Y-94081406I53033J-53033D01*
G01*
X113089542Y-95018322D01*
G75*
G02*
X113089542Y-95124388I-53033J-53033D01*
G01*
X112983476Y-95230454D01*
G75*
G02*
X112877410Y-95230454I-53033J53033D01*
G01*
G37*
G36*
G01*
X112523856Y-95584008D02*
X111586940Y-94647092D01*
G75*
G02*
X111586940Y-94541026I53033J53033D01*
G01*
X111693006Y-94434960D01*
G75*
G02*
X111799072Y-94434960I53033J-53033D01*
G01*
X112735988Y-95371876D01*
G75*
G02*
X112735988Y-95477942I-53033J-53033D01*
G01*
X112629922Y-95584008D01*
G75*
G02*
X112523856Y-95584008I-53033J53033D01*
G01*
G37*
G36*
G01*
X112170303Y-95937561D02*
X111233387Y-95000645D01*
G75*
G02*
X111233387Y-94894579I53033J53033D01*
G01*
X111339453Y-94788513D01*
G75*
G02*
X111445519Y-94788513I53033J-53033D01*
G01*
X112382435Y-95725429D01*
G75*
G02*
X112382435Y-95831495I-53033J-53033D01*
G01*
X112276369Y-95937561D01*
G75*
G02*
X112170303Y-95937561I-53033J53033D01*
G01*
G37*
G36*
G01*
X111816749Y-96291114D02*
X110879833Y-95354198D01*
G75*
G02*
X110879833Y-95248132I53033J53033D01*
G01*
X110985899Y-95142066D01*
G75*
G02*
X111091965Y-95142066I53033J-53033D01*
G01*
X112028881Y-96078982D01*
G75*
G02*
X112028881Y-96185048I-53033J-53033D01*
G01*
X111922815Y-96291114D01*
G75*
G02*
X111816749Y-96291114I-53033J53033D01*
G01*
G37*
G36*
G01*
X111463196Y-96644668D02*
X110526280Y-95707752D01*
G75*
G02*
X110526280Y-95601686I53033J53033D01*
G01*
X110632346Y-95495620D01*
G75*
G02*
X110738412Y-95495620I53033J-53033D01*
G01*
X111675328Y-96432536D01*
G75*
G02*
X111675328Y-96538602I-53033J-53033D01*
G01*
X111569262Y-96644668D01*
G75*
G02*
X111463196Y-96644668I-53033J53033D01*
G01*
G37*
G36*
G01*
X111109643Y-96998221D02*
X110172727Y-96061305D01*
G75*
G02*
X110172727Y-95955239I53033J53033D01*
G01*
X110278793Y-95849173D01*
G75*
G02*
X110384859Y-95849173I53033J-53033D01*
G01*
X111321775Y-96786089D01*
G75*
G02*
X111321775Y-96892155I-53033J-53033D01*
G01*
X111215709Y-96998221D01*
G75*
G02*
X111109643Y-96998221I-53033J53033D01*
G01*
G37*
G36*
G01*
X110756089Y-97351775D02*
X109819173Y-96414859D01*
G75*
G02*
X109819173Y-96308793I53033J53033D01*
G01*
X109925239Y-96202727D01*
G75*
G02*
X110031305Y-96202727I53033J-53033D01*
G01*
X110968221Y-97139643D01*
G75*
G02*
X110968221Y-97245709I-53033J-53033D01*
G01*
X110862155Y-97351775D01*
G75*
G02*
X110756089Y-97351775I-53033J53033D01*
G01*
G37*
G36*
G01*
X110402536Y-97705328D02*
X109465620Y-96768412D01*
G75*
G02*
X109465620Y-96662346I53033J53033D01*
G01*
X109571686Y-96556280D01*
G75*
G02*
X109677752Y-96556280I53033J-53033D01*
G01*
X110614668Y-97493196D01*
G75*
G02*
X110614668Y-97599262I-53033J-53033D01*
G01*
X110508602Y-97705328D01*
G75*
G02*
X110402536Y-97705328I-53033J53033D01*
G01*
G37*
G36*
G01*
X110048982Y-98058881D02*
X109112066Y-97121965D01*
G75*
G02*
X109112066Y-97015899I53033J53033D01*
G01*
X109218132Y-96909833D01*
G75*
G02*
X109324198Y-96909833I53033J-53033D01*
G01*
X110261114Y-97846749D01*
G75*
G02*
X110261114Y-97952815I-53033J-53033D01*
G01*
X110155048Y-98058881D01*
G75*
G02*
X110048982Y-98058881I-53033J53033D01*
G01*
G37*
G36*
G01*
X109695429Y-98412435D02*
X108758513Y-97475519D01*
G75*
G02*
X108758513Y-97369453I53033J53033D01*
G01*
X108864579Y-97263387D01*
G75*
G02*
X108970645Y-97263387I53033J-53033D01*
G01*
X109907561Y-98200303D01*
G75*
G02*
X109907561Y-98306369I-53033J-53033D01*
G01*
X109801495Y-98412435D01*
G75*
G02*
X109695429Y-98412435I-53033J53033D01*
G01*
G37*
G36*
G01*
X109341876Y-98765988D02*
X108404960Y-97829072D01*
G75*
G02*
X108404960Y-97723006I53033J53033D01*
G01*
X108511026Y-97616940D01*
G75*
G02*
X108617092Y-97616940I53033J-53033D01*
G01*
X109554008Y-98553856D01*
G75*
G02*
X109554008Y-98659922I-53033J-53033D01*
G01*
X109447942Y-98765988D01*
G75*
G02*
X109341876Y-98765988I-53033J53033D01*
G01*
G37*
G36*
G01*
X108988322Y-99119542D02*
X108051406Y-98182626D01*
G75*
G02*
X108051406Y-98076560I53033J53033D01*
G01*
X108157472Y-97970494D01*
G75*
G02*
X108263538Y-97970494I53033J-53033D01*
G01*
X109200454Y-98907410D01*
G75*
G02*
X109200454Y-99013476I-53033J-53033D01*
G01*
X109094388Y-99119542D01*
G75*
G02*
X108988322Y-99119542I-53033J53033D01*
G01*
G37*
G36*
G01*
X108634769Y-99473095D02*
X107697853Y-98536179D01*
G75*
G02*
X107697853Y-98430113I53033J53033D01*
G01*
X107803919Y-98324047D01*
G75*
G02*
X107909985Y-98324047I53033J-53033D01*
G01*
X108846901Y-99260963D01*
G75*
G02*
X108846901Y-99367029I-53033J-53033D01*
G01*
X108740835Y-99473095D01*
G75*
G02*
X108634769Y-99473095I-53033J53033D01*
G01*
G37*
G36*
G01*
X108281216Y-99826648D02*
X107344300Y-98889732D01*
G75*
G02*
X107344300Y-98783666I53033J53033D01*
G01*
X107450366Y-98677600D01*
G75*
G02*
X107556432Y-98677600I53033J-53033D01*
G01*
X108493348Y-99614516D01*
G75*
G02*
X108493348Y-99720582I-53033J-53033D01*
G01*
X108387282Y-99826648D01*
G75*
G02*
X108281216Y-99826648I-53033J53033D01*
G01*
G37*
G36*
G01*
X107927662Y-100180202D02*
X106990746Y-99243286D01*
G75*
G02*
X106990746Y-99137220I53033J53033D01*
G01*
X107096812Y-99031154D01*
G75*
G02*
X107202878Y-99031154I53033J-53033D01*
G01*
X108139794Y-99968070D01*
G75*
G02*
X108139794Y-100074136I-53033J-53033D01*
G01*
X108033728Y-100180202D01*
G75*
G02*
X107927662Y-100180202I-53033J53033D01*
G01*
G37*
G36*
G01*
X107574109Y-100533755D02*
X106637193Y-99596839D01*
G75*
G02*
X106637193Y-99490773I53033J53033D01*
G01*
X106743259Y-99384707D01*
G75*
G02*
X106849325Y-99384707I53033J-53033D01*
G01*
X107786241Y-100321623D01*
G75*
G02*
X107786241Y-100427689I-53033J-53033D01*
G01*
X107680175Y-100533755D01*
G75*
G02*
X107574109Y-100533755I-53033J53033D01*
G01*
G37*
G36*
G01*
X107220555Y-100887309D02*
X106283639Y-99950393D01*
G75*
G02*
X106283639Y-99844327I53033J53033D01*
G01*
X106389705Y-99738261D01*
G75*
G02*
X106495771Y-99738261I53033J-53033D01*
G01*
X107432687Y-100675177D01*
G75*
G02*
X107432687Y-100781243I-53033J-53033D01*
G01*
X107326621Y-100887309D01*
G75*
G02*
X107220555Y-100887309I-53033J53033D01*
G01*
G37*
G36*
G01*
X106867002Y-101240862D02*
X105930086Y-100303946D01*
G75*
G02*
X105930086Y-100197880I53033J53033D01*
G01*
X106036152Y-100091814D01*
G75*
G02*
X106142218Y-100091814I53033J-53033D01*
G01*
X107079134Y-101028730D01*
G75*
G02*
X107079134Y-101134796I-53033J-53033D01*
G01*
X106973068Y-101240862D01*
G75*
G02*
X106867002Y-101240862I-53033J53033D01*
G01*
G37*
G36*
G01*
X106513449Y-101594415D02*
X105576533Y-100657499D01*
G75*
G02*
X105576533Y-100551433I53033J53033D01*
G01*
X105682599Y-100445367D01*
G75*
G02*
X105788665Y-100445367I53033J-53033D01*
G01*
X106725581Y-101382283D01*
G75*
G02*
X106725581Y-101488349I-53033J-53033D01*
G01*
X106619515Y-101594415D01*
G75*
G02*
X106513449Y-101594415I-53033J53033D01*
G01*
G37*
G36*
G01*
X106159895Y-101947969D02*
X105222979Y-101011053D01*
G75*
G02*
X105222979Y-100904987I53033J53033D01*
G01*
X105329045Y-100798921D01*
G75*
G02*
X105435111Y-100798921I53033J-53033D01*
G01*
X106372027Y-101735837D01*
G75*
G02*
X106372027Y-101841903I-53033J-53033D01*
G01*
X106265961Y-101947969D01*
G75*
G02*
X106159895Y-101947969I-53033J53033D01*
G01*
G37*
G36*
G01*
X105806342Y-102301522D02*
X104869426Y-101364606D01*
G75*
G02*
X104869426Y-101258540I53033J53033D01*
G01*
X104975492Y-101152474D01*
G75*
G02*
X105081558Y-101152474I53033J-53033D01*
G01*
X106018474Y-102089390D01*
G75*
G02*
X106018474Y-102195456I-53033J-53033D01*
G01*
X105912408Y-102301522D01*
G75*
G02*
X105806342Y-102301522I-53033J53033D01*
G01*
G37*
G36*
G01*
X105452788Y-102655075D02*
X104515872Y-101718159D01*
G75*
G02*
X104515872Y-101612093I53033J53033D01*
G01*
X104621938Y-101506027D01*
G75*
G02*
X104728004Y-101506027I53033J-53033D01*
G01*
X105664920Y-102442943D01*
G75*
G02*
X105664920Y-102549009I-53033J-53033D01*
G01*
X105558854Y-102655075D01*
G75*
G02*
X105452788Y-102655075I-53033J53033D01*
G01*
G37*
G36*
G01*
X105099235Y-103008629D02*
X104162319Y-102071713D01*
G75*
G02*
X104162319Y-101965647I53033J53033D01*
G01*
X104268385Y-101859581D01*
G75*
G02*
X104374451Y-101859581I53033J-53033D01*
G01*
X105311367Y-102796497D01*
G75*
G02*
X105311367Y-102902563I-53033J-53033D01*
G01*
X105205301Y-103008629D01*
G75*
G02*
X105099235Y-103008629I-53033J53033D01*
G01*
G37*
G36*
G01*
X104745682Y-103362182D02*
X103808766Y-102425266D01*
G75*
G02*
X103808766Y-102319200I53033J53033D01*
G01*
X103914832Y-102213134D01*
G75*
G02*
X104020898Y-102213134I53033J-53033D01*
G01*
X104957814Y-103150050D01*
G75*
G02*
X104957814Y-103256116I-53033J-53033D01*
G01*
X104851748Y-103362182D01*
G75*
G02*
X104745682Y-103362182I-53033J53033D01*
G01*
G37*
%TD*%
D22*
%TO.C,U2*%
X71432000Y-47685000D03*
X73132000Y-47685000D03*
X74832000Y-47685000D03*
X76532000Y-47685000D03*
X78232000Y-47685000D03*
D23*
X74832000Y-38535000D03*
%TD*%
D24*
%TO.C,Y1*%
X108661200Y-125120400D03*
X105210519Y-121669719D03*
%TD*%
D25*
%TO.C,Y2*%
X98221800Y-114274600D03*
X99423882Y-115476682D03*
%TD*%
%TO.C,C15*%
G36*
G01*
X136685000Y-171327500D02*
X137635000Y-171327500D01*
G75*
G02*
X137885000Y-171577500I0J-250000D01*
G01*
X137885000Y-172252500D01*
G75*
G02*
X137635000Y-172502500I-250000J0D01*
G01*
X136685000Y-172502500D01*
G75*
G02*
X136435000Y-172252500I0J250000D01*
G01*
X136435000Y-171577500D01*
G75*
G02*
X136685000Y-171327500I250000J0D01*
G01*
G37*
G36*
G01*
X136685000Y-173402500D02*
X137635000Y-173402500D01*
G75*
G02*
X137885000Y-173652500I0J-250000D01*
G01*
X137885000Y-174327500D01*
G75*
G02*
X137635000Y-174577500I-250000J0D01*
G01*
X136685000Y-174577500D01*
G75*
G02*
X136435000Y-174327500I0J250000D01*
G01*
X136435000Y-173652500D01*
G75*
G02*
X136685000Y-173402500I250000J0D01*
G01*
G37*
%TD*%
%TO.C,C16*%
G36*
G01*
X134145000Y-173402500D02*
X135095000Y-173402500D01*
G75*
G02*
X135345000Y-173652500I0J-250000D01*
G01*
X135345000Y-174327500D01*
G75*
G02*
X135095000Y-174577500I-250000J0D01*
G01*
X134145000Y-174577500D01*
G75*
G02*
X133895000Y-174327500I0J250000D01*
G01*
X133895000Y-173652500D01*
G75*
G02*
X134145000Y-173402500I250000J0D01*
G01*
G37*
G36*
G01*
X134145000Y-171327500D02*
X135095000Y-171327500D01*
G75*
G02*
X135345000Y-171577500I0J-250000D01*
G01*
X135345000Y-172252500D01*
G75*
G02*
X135095000Y-172502500I-250000J0D01*
G01*
X134145000Y-172502500D01*
G75*
G02*
X133895000Y-172252500I0J250000D01*
G01*
X133895000Y-171577500D01*
G75*
G02*
X134145000Y-171327500I250000J0D01*
G01*
G37*
%TD*%
%TO.C,C17*%
G36*
G01*
X131605000Y-171327500D02*
X132555000Y-171327500D01*
G75*
G02*
X132805000Y-171577500I0J-250000D01*
G01*
X132805000Y-172252500D01*
G75*
G02*
X132555000Y-172502500I-250000J0D01*
G01*
X131605000Y-172502500D01*
G75*
G02*
X131355000Y-172252500I0J250000D01*
G01*
X131355000Y-171577500D01*
G75*
G02*
X131605000Y-171327500I250000J0D01*
G01*
G37*
G36*
G01*
X131605000Y-173402500D02*
X132555000Y-173402500D01*
G75*
G02*
X132805000Y-173652500I0J-250000D01*
G01*
X132805000Y-174327500D01*
G75*
G02*
X132555000Y-174577500I-250000J0D01*
G01*
X131605000Y-174577500D01*
G75*
G02*
X131355000Y-174327500I0J250000D01*
G01*
X131355000Y-173652500D01*
G75*
G02*
X131605000Y-173402500I250000J0D01*
G01*
G37*
%TD*%
%TO.C,C18*%
G36*
G01*
X105660000Y-150310000D02*
X105160000Y-150310000D01*
G75*
G02*
X104935000Y-150085000I0J225000D01*
G01*
X104935000Y-149635000D01*
G75*
G02*
X105160000Y-149410000I225000J0D01*
G01*
X105660000Y-149410000D01*
G75*
G02*
X105885000Y-149635000I0J-225000D01*
G01*
X105885000Y-150085000D01*
G75*
G02*
X105660000Y-150310000I-225000J0D01*
G01*
G37*
G36*
G01*
X105660000Y-151860000D02*
X105160000Y-151860000D01*
G75*
G02*
X104935000Y-151635000I0J225000D01*
G01*
X104935000Y-151185000D01*
G75*
G02*
X105160000Y-150960000I225000J0D01*
G01*
X105660000Y-150960000D01*
G75*
G02*
X105885000Y-151185000I0J-225000D01*
G01*
X105885000Y-151635000D01*
G75*
G02*
X105660000Y-151860000I-225000J0D01*
G01*
G37*
%TD*%
%TO.C,C19*%
G36*
G01*
X134870000Y-166820000D02*
X134370000Y-166820000D01*
G75*
G02*
X134145000Y-166595000I0J225000D01*
G01*
X134145000Y-166145000D01*
G75*
G02*
X134370000Y-165920000I225000J0D01*
G01*
X134870000Y-165920000D01*
G75*
G02*
X135095000Y-166145000I0J-225000D01*
G01*
X135095000Y-166595000D01*
G75*
G02*
X134870000Y-166820000I-225000J0D01*
G01*
G37*
G36*
G01*
X134870000Y-165270000D02*
X134370000Y-165270000D01*
G75*
G02*
X134145000Y-165045000I0J225000D01*
G01*
X134145000Y-164595000D01*
G75*
G02*
X134370000Y-164370000I225000J0D01*
G01*
X134870000Y-164370000D01*
G75*
G02*
X135095000Y-164595000I0J-225000D01*
G01*
X135095000Y-165045000D01*
G75*
G02*
X134870000Y-165270000I-225000J0D01*
G01*
G37*
%TD*%
%TO.C,J11*%
G36*
G01*
X85490000Y-178645001D02*
X85490000Y-176954999D01*
G75*
G02*
X85739999Y-176705000I249999J0D01*
G01*
X86980001Y-176705000D01*
G75*
G02*
X87230000Y-176954999I0J-249999D01*
G01*
X87230000Y-178645001D01*
G75*
G02*
X86980001Y-178895000I-249999J0D01*
G01*
X85739999Y-178895000D01*
G75*
G02*
X85490000Y-178645001I0J249999D01*
G01*
G37*
D26*
X88900000Y-177800000D03*
X91440000Y-177800000D03*
%TD*%
%TO.C,J12*%
X80010000Y-177825400D03*
X77470000Y-177825400D03*
G36*
G01*
X74060000Y-178670401D02*
X74060000Y-176980399D01*
G75*
G02*
X74309999Y-176730400I249999J0D01*
G01*
X75550001Y-176730400D01*
G75*
G02*
X75800000Y-176980399I0J-249999D01*
G01*
X75800000Y-178670401D01*
G75*
G02*
X75550001Y-178920400I-249999J0D01*
G01*
X74309999Y-178920400D01*
G75*
G02*
X74060000Y-178670401I0J249999D01*
G01*
G37*
%TD*%
%TO.C,J13*%
G36*
G01*
X140100000Y-178645001D02*
X140100000Y-176954999D01*
G75*
G02*
X140349999Y-176705000I249999J0D01*
G01*
X141590001Y-176705000D01*
G75*
G02*
X141840000Y-176954999I0J-249999D01*
G01*
X141840000Y-178645001D01*
G75*
G02*
X141590001Y-178895000I-249999J0D01*
G01*
X140349999Y-178895000D01*
G75*
G02*
X140100000Y-178645001I0J249999D01*
G01*
G37*
X143510000Y-177800000D03*
X146050000Y-177800000D03*
X148590000Y-177800000D03*
%TD*%
%TO.C,J14*%
G36*
G01*
X154070000Y-178645001D02*
X154070000Y-176954999D01*
G75*
G02*
X154319999Y-176705000I249999J0D01*
G01*
X155560001Y-176705000D01*
G75*
G02*
X155810000Y-176954999I0J-249999D01*
G01*
X155810000Y-178645001D01*
G75*
G02*
X155560001Y-178895000I-249999J0D01*
G01*
X154319999Y-178895000D01*
G75*
G02*
X154070000Y-178645001I0J249999D01*
G01*
G37*
X157480000Y-177800000D03*
X160020000Y-177800000D03*
%TD*%
%TO.C,R4*%
G36*
G01*
X88500000Y-171725000D02*
X88500000Y-171175000D01*
G75*
G02*
X88700000Y-170975000I200000J0D01*
G01*
X89100000Y-170975000D01*
G75*
G02*
X89300000Y-171175000I0J-200000D01*
G01*
X89300000Y-171725000D01*
G75*
G02*
X89100000Y-171925000I-200000J0D01*
G01*
X88700000Y-171925000D01*
G75*
G02*
X88500000Y-171725000I0J200000D01*
G01*
G37*
G36*
G01*
X90150000Y-171725000D02*
X90150000Y-171175000D01*
G75*
G02*
X90350000Y-170975000I200000J0D01*
G01*
X90750000Y-170975000D01*
G75*
G02*
X90950000Y-171175000I0J-200000D01*
G01*
X90950000Y-171725000D01*
G75*
G02*
X90750000Y-171925000I-200000J0D01*
G01*
X90350000Y-171925000D01*
G75*
G02*
X90150000Y-171725000I0J200000D01*
G01*
G37*
%TD*%
%TO.C,R5*%
G36*
G01*
X76690000Y-171750400D02*
X76690000Y-171200400D01*
G75*
G02*
X76890000Y-171000400I200000J0D01*
G01*
X77290000Y-171000400D01*
G75*
G02*
X77490000Y-171200400I0J-200000D01*
G01*
X77490000Y-171750400D01*
G75*
G02*
X77290000Y-171950400I-200000J0D01*
G01*
X76890000Y-171950400D01*
G75*
G02*
X76690000Y-171750400I0J200000D01*
G01*
G37*
G36*
G01*
X78340000Y-171750400D02*
X78340000Y-171200400D01*
G75*
G02*
X78540000Y-171000400I200000J0D01*
G01*
X78940000Y-171000400D01*
G75*
G02*
X79140000Y-171200400I0J-200000D01*
G01*
X79140000Y-171750400D01*
G75*
G02*
X78940000Y-171950400I-200000J0D01*
G01*
X78540000Y-171950400D01*
G75*
G02*
X78340000Y-171750400I0J200000D01*
G01*
G37*
%TD*%
%TO.C,R6*%
G36*
G01*
X94850000Y-171725000D02*
X94850000Y-171175000D01*
G75*
G02*
X95050000Y-170975000I200000J0D01*
G01*
X95450000Y-170975000D01*
G75*
G02*
X95650000Y-171175000I0J-200000D01*
G01*
X95650000Y-171725000D01*
G75*
G02*
X95450000Y-171925000I-200000J0D01*
G01*
X95050000Y-171925000D01*
G75*
G02*
X94850000Y-171725000I0J200000D01*
G01*
G37*
G36*
G01*
X93200000Y-171725000D02*
X93200000Y-171175000D01*
G75*
G02*
X93400000Y-170975000I200000J0D01*
G01*
X93800000Y-170975000D01*
G75*
G02*
X94000000Y-171175000I0J-200000D01*
G01*
X94000000Y-171725000D01*
G75*
G02*
X93800000Y-171925000I-200000J0D01*
G01*
X93400000Y-171925000D01*
G75*
G02*
X93200000Y-171725000I0J200000D01*
G01*
G37*
%TD*%
%TO.C,R7*%
G36*
G01*
X80500000Y-171750400D02*
X80500000Y-171200400D01*
G75*
G02*
X80700000Y-171000400I200000J0D01*
G01*
X81100000Y-171000400D01*
G75*
G02*
X81300000Y-171200400I0J-200000D01*
G01*
X81300000Y-171750400D01*
G75*
G02*
X81100000Y-171950400I-200000J0D01*
G01*
X80700000Y-171950400D01*
G75*
G02*
X80500000Y-171750400I0J200000D01*
G01*
G37*
G36*
G01*
X82150000Y-171750400D02*
X82150000Y-171200400D01*
G75*
G02*
X82350000Y-171000400I200000J0D01*
G01*
X82750000Y-171000400D01*
G75*
G02*
X82950000Y-171200400I0J-200000D01*
G01*
X82950000Y-171750400D01*
G75*
G02*
X82750000Y-171950400I-200000J0D01*
G01*
X82350000Y-171950400D01*
G75*
G02*
X82150000Y-171750400I0J200000D01*
G01*
G37*
%TD*%
%TO.C,R8*%
G36*
G01*
X154653800Y-172791800D02*
X154653800Y-172241800D01*
G75*
G02*
X154853800Y-172041800I200000J0D01*
G01*
X155253800Y-172041800D01*
G75*
G02*
X155453800Y-172241800I0J-200000D01*
G01*
X155453800Y-172791800D01*
G75*
G02*
X155253800Y-172991800I-200000J0D01*
G01*
X154853800Y-172991800D01*
G75*
G02*
X154653800Y-172791800I0J200000D01*
G01*
G37*
G36*
G01*
X153003800Y-172791800D02*
X153003800Y-172241800D01*
G75*
G02*
X153203800Y-172041800I200000J0D01*
G01*
X153603800Y-172041800D01*
G75*
G02*
X153803800Y-172241800I0J-200000D01*
G01*
X153803800Y-172791800D01*
G75*
G02*
X153603800Y-172991800I-200000J0D01*
G01*
X153203800Y-172991800D01*
G75*
G02*
X153003800Y-172791800I0J200000D01*
G01*
G37*
%TD*%
%TO.C,R9*%
G36*
G01*
X125694602Y-145494900D02*
X124444598Y-145494900D01*
G75*
G02*
X124194600Y-145244902I0J249998D01*
G01*
X124194600Y-144619898D01*
G75*
G02*
X124444598Y-144369900I249998J0D01*
G01*
X125694602Y-144369900D01*
G75*
G02*
X125944600Y-144619898I0J-249998D01*
G01*
X125944600Y-145244902D01*
G75*
G02*
X125694602Y-145494900I-249998J0D01*
G01*
G37*
G36*
G01*
X125694602Y-148419900D02*
X124444598Y-148419900D01*
G75*
G02*
X124194600Y-148169902I0J249998D01*
G01*
X124194600Y-147544898D01*
G75*
G02*
X124444598Y-147294900I249998J0D01*
G01*
X125694602Y-147294900D01*
G75*
G02*
X125944600Y-147544898I0J-249998D01*
G01*
X125944600Y-148169902D01*
G75*
G02*
X125694602Y-148419900I-249998J0D01*
G01*
G37*
%TD*%
%TO.C,R10*%
G36*
G01*
X117465002Y-148075000D02*
X116214998Y-148075000D01*
G75*
G02*
X115965000Y-147825002I0J249998D01*
G01*
X115965000Y-147199998D01*
G75*
G02*
X116214998Y-146950000I249998J0D01*
G01*
X117465002Y-146950000D01*
G75*
G02*
X117715000Y-147199998I0J-249998D01*
G01*
X117715000Y-147825002D01*
G75*
G02*
X117465002Y-148075000I-249998J0D01*
G01*
G37*
G36*
G01*
X117465002Y-145150000D02*
X116214998Y-145150000D01*
G75*
G02*
X115965000Y-144900002I0J249998D01*
G01*
X115965000Y-144274998D01*
G75*
G02*
X116214998Y-144025000I249998J0D01*
G01*
X117465002Y-144025000D01*
G75*
G02*
X117715000Y-144274998I0J-249998D01*
G01*
X117715000Y-144900002D01*
G75*
G02*
X117465002Y-145150000I-249998J0D01*
G01*
G37*
%TD*%
%TO.C,R11*%
G36*
G01*
X105135000Y-155810000D02*
X105685000Y-155810000D01*
G75*
G02*
X105885000Y-156010000I0J-200000D01*
G01*
X105885000Y-156410000D01*
G75*
G02*
X105685000Y-156610000I-200000J0D01*
G01*
X105135000Y-156610000D01*
G75*
G02*
X104935000Y-156410000I0J200000D01*
G01*
X104935000Y-156010000D01*
G75*
G02*
X105135000Y-155810000I200000J0D01*
G01*
G37*
G36*
G01*
X105135000Y-154160000D02*
X105685000Y-154160000D01*
G75*
G02*
X105885000Y-154360000I0J-200000D01*
G01*
X105885000Y-154760000D01*
G75*
G02*
X105685000Y-154960000I-200000J0D01*
G01*
X105135000Y-154960000D01*
G75*
G02*
X104935000Y-154760000I0J200000D01*
G01*
X104935000Y-154360000D01*
G75*
G02*
X105135000Y-154160000I200000J0D01*
G01*
G37*
%TD*%
%TO.C,R12*%
G36*
G01*
X134319600Y-167532600D02*
X134869600Y-167532600D01*
G75*
G02*
X135069600Y-167732600I0J-200000D01*
G01*
X135069600Y-168132600D01*
G75*
G02*
X134869600Y-168332600I-200000J0D01*
G01*
X134319600Y-168332600D01*
G75*
G02*
X134119600Y-168132600I0J200000D01*
G01*
X134119600Y-167732600D01*
G75*
G02*
X134319600Y-167532600I200000J0D01*
G01*
G37*
G36*
G01*
X134319600Y-169182600D02*
X134869600Y-169182600D01*
G75*
G02*
X135069600Y-169382600I0J-200000D01*
G01*
X135069600Y-169782600D01*
G75*
G02*
X134869600Y-169982600I-200000J0D01*
G01*
X134319600Y-169982600D01*
G75*
G02*
X134119600Y-169782600I0J200000D01*
G01*
X134119600Y-169382600D01*
G75*
G02*
X134319600Y-169182600I200000J0D01*
G01*
G37*
%TD*%
D20*
%TO.C,S3*%
X95250000Y-153090000D03*
X101750000Y-153090000D03*
X101750000Y-148590000D03*
D21*
X95250000Y-148590000D03*
%TD*%
%TO.C,S4*%
X144780000Y-167640000D03*
D20*
X138280000Y-167640000D03*
X138280000Y-163140000D03*
X144780000Y-163140000D03*
%TD*%
D27*
%TO.C,J15*%
X96520000Y-162560000D03*
D28*
X96520000Y-165100000D03*
X99060000Y-162560000D03*
X99060000Y-165100000D03*
%TD*%
%TO.C,R1*%
G36*
G01*
X97212800Y-41823802D02*
X97212800Y-40573798D01*
G75*
G02*
X97462798Y-40323800I249998J0D01*
G01*
X98087802Y-40323800D01*
G75*
G02*
X98337800Y-40573798I0J-249998D01*
G01*
X98337800Y-41823802D01*
G75*
G02*
X98087802Y-42073800I-249998J0D01*
G01*
X97462798Y-42073800D01*
G75*
G02*
X97212800Y-41823802I0J249998D01*
G01*
G37*
G36*
G01*
X100137800Y-41823802D02*
X100137800Y-40573798D01*
G75*
G02*
X100387798Y-40323800I249998J0D01*
G01*
X101012802Y-40323800D01*
G75*
G02*
X101262800Y-40573798I0J-249998D01*
G01*
X101262800Y-41823802D01*
G75*
G02*
X101012802Y-42073800I-249998J0D01*
G01*
X100387798Y-42073800D01*
G75*
G02*
X100137800Y-41823802I0J249998D01*
G01*
G37*
%TD*%
%TO.C,R13*%
G36*
G01*
X98373900Y-37728998D02*
X98373900Y-38979002D01*
G75*
G02*
X98123902Y-39229000I-249998J0D01*
G01*
X97498898Y-39229000D01*
G75*
G02*
X97248900Y-38979002I0J249998D01*
G01*
X97248900Y-37728998D01*
G75*
G02*
X97498898Y-37479000I249998J0D01*
G01*
X98123902Y-37479000D01*
G75*
G02*
X98373900Y-37728998I0J-249998D01*
G01*
G37*
G36*
G01*
X101298900Y-37728998D02*
X101298900Y-38979002D01*
G75*
G02*
X101048902Y-39229000I-249998J0D01*
G01*
X100423898Y-39229000D01*
G75*
G02*
X100173900Y-38979002I0J249998D01*
G01*
X100173900Y-37728998D01*
G75*
G02*
X100423898Y-37479000I249998J0D01*
G01*
X101048902Y-37479000D01*
G75*
G02*
X101298900Y-37728998I0J-249998D01*
G01*
G37*
%TD*%
D29*
%TO.C,R14*%
X86512400Y-64566800D03*
D30*
X66192400Y-64566800D03*
%TD*%
D31*
%TO.C,BT1*%
X110998000Y-59436000D03*
D32*
X130998000Y-59436000D03*
%TD*%
%TO.C,J16*%
G36*
G01*
X139049200Y-37250000D02*
X140249200Y-37250000D01*
G75*
G02*
X140499200Y-37500000I0J-250000D01*
G01*
X140499200Y-38700000D01*
G75*
G02*
X140249200Y-38950000I-250000J0D01*
G01*
X139049200Y-38950000D01*
G75*
G02*
X138799200Y-38700000I0J250000D01*
G01*
X138799200Y-37500000D01*
G75*
G02*
X139049200Y-37250000I250000J0D01*
G01*
G37*
D14*
X137109200Y-38100000D03*
X134569200Y-38100000D03*
X132029200Y-38100000D03*
X129489200Y-38100000D03*
X126949200Y-38100000D03*
X124409200Y-38100000D03*
X121869200Y-38100000D03*
X119329200Y-38100000D03*
X116789200Y-38100000D03*
X139649200Y-40640000D03*
X137109200Y-40640000D03*
X134569200Y-40640000D03*
X132029200Y-40640000D03*
X129489200Y-40640000D03*
X126949200Y-40640000D03*
X124409200Y-40640000D03*
X121869200Y-40640000D03*
X119329200Y-40640000D03*
X116789200Y-40640000D03*
%TD*%
%TO.C,R15*%
G36*
G01*
X64425002Y-174025000D02*
X63174998Y-174025000D01*
G75*
G02*
X62925000Y-173775002I0J249998D01*
G01*
X62925000Y-173149998D01*
G75*
G02*
X63174998Y-172900000I249998J0D01*
G01*
X64425002Y-172900000D01*
G75*
G02*
X64675000Y-173149998I0J-249998D01*
G01*
X64675000Y-173775002D01*
G75*
G02*
X64425002Y-174025000I-249998J0D01*
G01*
G37*
G36*
G01*
X64425002Y-171100000D02*
X63174998Y-171100000D01*
G75*
G02*
X62925000Y-170850002I0J249998D01*
G01*
X62925000Y-170224998D01*
G75*
G02*
X63174998Y-169975000I249998J0D01*
G01*
X64425002Y-169975000D01*
G75*
G02*
X64675000Y-170224998I0J-249998D01*
G01*
X64675000Y-170850002D01*
G75*
G02*
X64425002Y-171100000I-249998J0D01*
G01*
G37*
%TD*%
D27*
%TO.C,J17*%
X61200000Y-179400000D03*
D28*
X63740000Y-179400000D03*
X66280000Y-179400000D03*
X68820000Y-179400000D03*
%TD*%
D27*
%TO.C,J18*%
X105000000Y-178600000D03*
D28*
X102460000Y-178600000D03*
X99920000Y-178600000D03*
X97380000Y-178600000D03*
%TD*%
%TO.C,R16*%
G36*
G01*
X105625002Y-175962500D02*
X104374998Y-175962500D01*
G75*
G02*
X104125000Y-175712502I0J249998D01*
G01*
X104125000Y-175087498D01*
G75*
G02*
X104374998Y-174837500I249998J0D01*
G01*
X105625002Y-174837500D01*
G75*
G02*
X105875000Y-175087498I0J-249998D01*
G01*
X105875000Y-175712502D01*
G75*
G02*
X105625002Y-175962500I-249998J0D01*
G01*
G37*
G36*
G01*
X105625002Y-173037500D02*
X104374998Y-173037500D01*
G75*
G02*
X104125000Y-172787502I0J249998D01*
G01*
X104125000Y-172162498D01*
G75*
G02*
X104374998Y-171912500I249998J0D01*
G01*
X105625002Y-171912500D01*
G75*
G02*
X105875000Y-172162498I0J-249998D01*
G01*
X105875000Y-172787502D01*
G75*
G02*
X105625002Y-173037500I-249998J0D01*
G01*
G37*
%TD*%
M02*
